G04*
G04 #@! TF.GenerationSoftware,Altium Limited,Altium Designer,20.0.13 (296)*
G04*
G04 Layer_Color=128*
%FSLAX24Y24*%
%MOIN*%
G70*
G01*
G75*
%ADD14C,0.0010*%
%ADD15R,0.0394X0.0354*%
%ADD16R,0.0354X0.0394*%
%ADD24R,0.0551X0.0413*%
%ADD63O,0.0551X0.0157*%
%ADD64R,0.0709X0.0461*%
%ADD65R,0.0433X0.0295*%
%ADD66R,0.0433X0.0335*%
%ADD67R,0.0531X0.0610*%
%ADD68R,0.0394X0.0472*%
%ADD69R,0.0531X0.0748*%
D14*
X0Y0D02*
Y39370D01*
X23622D01*
X23622Y0D01*
X0D02*
X23622D01*
D15*
X7559Y15315D02*
D03*
Y14685D02*
D03*
X7362Y17756D02*
D03*
Y18386D02*
D03*
X8228Y15315D02*
D03*
Y14685D02*
D03*
D16*
X7008Y16654D02*
D03*
X6378D02*
D03*
X9449Y16457D02*
D03*
X10079D02*
D03*
D24*
X8661Y17697D02*
D03*
Y16949D02*
D03*
D63*
X1929Y13032D02*
D03*
Y13287D02*
D03*
Y13543D02*
D03*
Y13799D02*
D03*
Y14055D02*
D03*
D64*
X492Y15783D02*
D03*
D65*
X354Y16260D02*
D03*
D66*
Y16673D02*
D03*
Y17106D02*
D03*
Y17539D02*
D03*
Y17972D02*
D03*
Y18406D02*
D03*
Y18839D02*
D03*
Y19272D02*
D03*
D67*
X404Y20240D02*
D03*
D68*
X4232Y20309D02*
D03*
X2776D02*
D03*
D69*
X4616Y18931D02*
D03*
Y16581D02*
D03*
M02*
