G04*
G04 #@! TF.GenerationSoftware,Altium Limited,Altium Designer,20.0.13 (296)*
G04*
G04 Layer_Color=8421504*
%FSLAX24Y24*%
%MOIN*%
G70*
G01*
G75*
%ADD14C,0.0010*%
%ADD15R,0.0394X0.0354*%
%ADD16R,0.0354X0.0394*%
G04:AMPARAMS|DCode=17|XSize=23.6mil|YSize=57.1mil|CornerRadius=0mil|HoleSize=0mil|Usage=FLASHONLY|Rotation=90.000|XOffset=0mil|YOffset=0mil|HoleType=Round|Shape=Octagon|*
%AMOCTAGOND17*
4,1,8,-0.0285,-0.0059,-0.0285,0.0059,-0.0226,0.0118,0.0226,0.0118,0.0285,0.0059,0.0285,-0.0059,0.0226,-0.0118,-0.0226,-0.0118,-0.0285,-0.0059,0.0*
%
%ADD17OCTAGOND17*%

G04:AMPARAMS|DCode=18|XSize=23.6mil|YSize=57.1mil|CornerRadius=0mil|HoleSize=0mil|Usage=FLASHONLY|Rotation=180.000|XOffset=0mil|YOffset=0mil|HoleType=Round|Shape=Octagon|*
%AMOCTAGOND18*
4,1,8,0.0059,-0.0285,-0.0059,-0.0285,-0.0118,-0.0226,-0.0118,0.0226,-0.0059,0.0285,0.0059,0.0285,0.0118,0.0226,0.0118,-0.0226,0.0059,-0.0285,0.0*
%
%ADD18OCTAGOND18*%

%ADD19R,0.0413X0.0551*%
%ADD20R,0.0630X0.0118*%
%ADD21O,0.0630X0.0118*%
%ADD22O,0.0118X0.0630*%
%ADD23R,0.0551X0.0138*%
%ADD24R,0.0551X0.0413*%
D14*
X0Y0D02*
Y39370D01*
X23622D01*
X23622Y0D01*
X0D02*
X23622D01*
D15*
X9173Y11693D02*
D03*
Y12323D02*
D03*
X9803Y11693D02*
D03*
Y12323D02*
D03*
X18268Y10315D02*
D03*
Y10945D02*
D03*
X12323Y11102D02*
D03*
Y10472D02*
D03*
X17559Y10315D02*
D03*
Y10945D02*
D03*
X1181Y26693D02*
D03*
Y26063D02*
D03*
X1890Y26693D02*
D03*
Y26063D02*
D03*
X3504Y26693D02*
D03*
Y26063D02*
D03*
X2795Y26693D02*
D03*
Y26063D02*
D03*
X7047Y27244D02*
D03*
Y26614D02*
D03*
X9055Y27244D02*
D03*
Y26614D02*
D03*
X11024Y27205D02*
D03*
Y26575D02*
D03*
X10039Y24764D02*
D03*
Y25394D02*
D03*
X16220Y26693D02*
D03*
Y26063D02*
D03*
X8031Y24764D02*
D03*
Y25394D02*
D03*
X7047Y24764D02*
D03*
Y25394D02*
D03*
X6024Y24764D02*
D03*
Y25394D02*
D03*
X15512Y26693D02*
D03*
Y26063D02*
D03*
X5000Y24764D02*
D03*
Y25394D02*
D03*
X13307Y26732D02*
D03*
Y26102D02*
D03*
X14016Y26732D02*
D03*
Y26102D02*
D03*
X1181Y31969D02*
D03*
Y31339D02*
D03*
X1890Y31969D02*
D03*
Y31339D02*
D03*
X3504Y31969D02*
D03*
Y31339D02*
D03*
X2795Y31969D02*
D03*
Y31339D02*
D03*
X7047Y32520D02*
D03*
Y31890D02*
D03*
X9055Y32520D02*
D03*
Y31890D02*
D03*
X11024Y32480D02*
D03*
Y31850D02*
D03*
X10039Y30039D02*
D03*
Y30669D02*
D03*
X16220Y31969D02*
D03*
Y31339D02*
D03*
X8031Y30039D02*
D03*
Y30669D02*
D03*
X7047Y30039D02*
D03*
Y30669D02*
D03*
X6024Y30039D02*
D03*
Y30669D02*
D03*
X15512Y31969D02*
D03*
Y31339D02*
D03*
X5000Y30039D02*
D03*
Y30669D02*
D03*
X13307Y32008D02*
D03*
Y31378D02*
D03*
X14016Y32008D02*
D03*
Y31378D02*
D03*
X1181Y37244D02*
D03*
Y36614D02*
D03*
X1890Y37244D02*
D03*
Y36614D02*
D03*
X3504Y37244D02*
D03*
Y36614D02*
D03*
X2795Y37244D02*
D03*
Y36614D02*
D03*
X7047Y37795D02*
D03*
Y37165D02*
D03*
X9055Y37795D02*
D03*
Y37165D02*
D03*
X11024Y37756D02*
D03*
Y37126D02*
D03*
X10039Y35315D02*
D03*
Y35945D02*
D03*
X16220Y37244D02*
D03*
Y36614D02*
D03*
X8031Y35315D02*
D03*
Y35945D02*
D03*
X7047Y35315D02*
D03*
Y35945D02*
D03*
X6024Y35315D02*
D03*
Y35945D02*
D03*
X15512Y37244D02*
D03*
Y36614D02*
D03*
X5000Y35315D02*
D03*
Y35945D02*
D03*
X13307Y37283D02*
D03*
Y36654D02*
D03*
X14016Y37283D02*
D03*
Y36654D02*
D03*
X19016Y18740D02*
D03*
Y18110D02*
D03*
X15866Y20748D02*
D03*
Y20118D02*
D03*
X2913Y19370D02*
D03*
Y18740D02*
D03*
X4173Y6890D02*
D03*
Y7520D02*
D03*
X9921Y8189D02*
D03*
Y8819D02*
D03*
X3543Y7520D02*
D03*
Y6890D02*
D03*
X9291Y8189D02*
D03*
Y8819D02*
D03*
X3543Y5630D02*
D03*
Y6260D02*
D03*
X9291Y6929D02*
D03*
Y7559D02*
D03*
Y5669D02*
D03*
Y6299D02*
D03*
Y5039D02*
D03*
Y4409D02*
D03*
X7441Y10630D02*
D03*
Y11260D02*
D03*
X4370Y11260D02*
D03*
Y10630D02*
D03*
X9921Y4409D02*
D03*
Y5039D02*
D03*
D16*
X14606Y10276D02*
D03*
X15236D02*
D03*
X14606Y10984D02*
D03*
X15236D02*
D03*
X19567Y16850D02*
D03*
X18937D02*
D03*
X18110Y17008D02*
D03*
X17480D02*
D03*
X17598Y13937D02*
D03*
X18228D02*
D03*
X906Y23819D02*
D03*
X1535D02*
D03*
X3819D02*
D03*
X3189D02*
D03*
X16378D02*
D03*
X15748D02*
D03*
X13465D02*
D03*
X14094D02*
D03*
X906Y29094D02*
D03*
X1535D02*
D03*
X3819D02*
D03*
X3189D02*
D03*
X16378D02*
D03*
X15748D02*
D03*
X13465D02*
D03*
X14094D02*
D03*
X906Y34370D02*
D03*
X1535D02*
D03*
X3819D02*
D03*
X3189D02*
D03*
X16378D02*
D03*
X15748D02*
D03*
X13465D02*
D03*
X14094D02*
D03*
X18937Y17480D02*
D03*
X19567D02*
D03*
X7677Y21417D02*
D03*
X8307D02*
D03*
X20276Y18110D02*
D03*
X19646D02*
D03*
X20276Y18740D02*
D03*
X19646D02*
D03*
X19567Y19370D02*
D03*
X18937D02*
D03*
X3307Y21417D02*
D03*
X3937D02*
D03*
X9134D02*
D03*
X9764D02*
D03*
X13504D02*
D03*
X14134D02*
D03*
X6220D02*
D03*
X6850D02*
D03*
X12047D02*
D03*
X12677D02*
D03*
X10591D02*
D03*
X11220D02*
D03*
X4764D02*
D03*
X5394D02*
D03*
X4173Y19370D02*
D03*
X3543D02*
D03*
X4173Y18740D02*
D03*
X3543D02*
D03*
D17*
X16033Y11004D02*
D03*
Y10256D02*
D03*
X16801Y10630D02*
D03*
X19026Y11004D02*
D03*
Y10256D02*
D03*
X19793Y10630D02*
D03*
X13081Y11004D02*
D03*
Y10256D02*
D03*
X13848Y10630D02*
D03*
X1919Y27421D02*
D03*
Y28169D02*
D03*
X1152Y27795D02*
D03*
X1919Y24587D02*
D03*
Y25335D02*
D03*
X1152Y24961D02*
D03*
X3573Y27421D02*
D03*
Y28169D02*
D03*
X2805Y27795D02*
D03*
X3533Y24587D02*
D03*
Y25335D02*
D03*
X2766Y24961D02*
D03*
X15659Y27421D02*
D03*
Y28169D02*
D03*
X14892Y27795D02*
D03*
X16329Y24547D02*
D03*
Y25295D02*
D03*
X15561Y24921D02*
D03*
X13967Y27421D02*
D03*
Y28169D02*
D03*
X13199Y27795D02*
D03*
X1919Y32697D02*
D03*
Y33445D02*
D03*
X1152Y33071D02*
D03*
X1919Y29862D02*
D03*
Y30610D02*
D03*
X1152Y30236D02*
D03*
X3573Y32697D02*
D03*
Y33445D02*
D03*
X2805Y33071D02*
D03*
X3533Y29862D02*
D03*
Y30610D02*
D03*
X2766Y30236D02*
D03*
X15659Y32697D02*
D03*
Y33445D02*
D03*
X14892Y33071D02*
D03*
X16329Y29823D02*
D03*
Y30571D02*
D03*
X15561Y30197D02*
D03*
X13967Y32697D02*
D03*
Y33445D02*
D03*
X13199Y33071D02*
D03*
X1919Y37972D02*
D03*
Y38720D02*
D03*
X1152Y38346D02*
D03*
X1919Y35138D02*
D03*
Y35886D02*
D03*
X1152Y35512D02*
D03*
X3573Y37972D02*
D03*
Y38720D02*
D03*
X2805Y38346D02*
D03*
X3533Y35138D02*
D03*
Y35886D02*
D03*
X2766Y35512D02*
D03*
X15659Y37972D02*
D03*
Y38720D02*
D03*
X14892Y38346D02*
D03*
X16329Y35098D02*
D03*
Y35846D02*
D03*
X15561Y35472D02*
D03*
X13967Y37972D02*
D03*
Y38720D02*
D03*
X13199Y38346D02*
D03*
X5128Y11319D02*
D03*
Y10571D02*
D03*
X5896Y10945D02*
D03*
D18*
X17500Y14695D02*
D03*
X18248D02*
D03*
X17874Y15463D02*
D03*
X13287Y24577D02*
D03*
X14035D02*
D03*
X13661Y25344D02*
D03*
X13287Y29852D02*
D03*
X14035D02*
D03*
X13661Y30620D02*
D03*
X13287Y35128D02*
D03*
X14035D02*
D03*
X13661Y35896D02*
D03*
X7618Y22175D02*
D03*
X8366D02*
D03*
X7992Y22943D02*
D03*
X3248Y22175D02*
D03*
X3996D02*
D03*
X3622Y22943D02*
D03*
X9075Y22175D02*
D03*
X9823D02*
D03*
X9449Y22943D02*
D03*
X13445Y22175D02*
D03*
X14193D02*
D03*
X13819Y22943D02*
D03*
X6161Y22175D02*
D03*
X6909D02*
D03*
X6535Y22943D02*
D03*
X11988Y22175D02*
D03*
X12736D02*
D03*
X12362Y22943D02*
D03*
X10532Y22175D02*
D03*
X11280D02*
D03*
X10906Y22943D02*
D03*
X4705Y22175D02*
D03*
X5453D02*
D03*
X5079Y22943D02*
D03*
D19*
X18248Y16299D02*
D03*
X17500D02*
D03*
X17461Y13228D02*
D03*
X18209D02*
D03*
D20*
X5984Y17972D02*
D03*
D21*
Y17776D02*
D03*
Y17579D02*
D03*
Y17382D02*
D03*
Y17185D02*
D03*
Y16988D02*
D03*
Y16791D02*
D03*
Y16594D02*
D03*
Y16398D02*
D03*
Y16201D02*
D03*
Y16004D02*
D03*
Y15807D02*
D03*
Y15610D02*
D03*
Y15413D02*
D03*
Y15217D02*
D03*
Y15020D02*
D03*
X10551D02*
D03*
Y15217D02*
D03*
Y15413D02*
D03*
Y15610D02*
D03*
Y15807D02*
D03*
Y16004D02*
D03*
Y16201D02*
D03*
Y16398D02*
D03*
Y16594D02*
D03*
Y16791D02*
D03*
Y16988D02*
D03*
Y17185D02*
D03*
Y17382D02*
D03*
Y17579D02*
D03*
Y17776D02*
D03*
Y17972D02*
D03*
D22*
X6791Y14213D02*
D03*
X6988D02*
D03*
X7185D02*
D03*
X7382D02*
D03*
X7579D02*
D03*
X7776D02*
D03*
X7972D02*
D03*
X8169D02*
D03*
X8366D02*
D03*
X8563D02*
D03*
X8760D02*
D03*
X8957D02*
D03*
X9154D02*
D03*
X9350D02*
D03*
X9547D02*
D03*
X9744D02*
D03*
Y18780D02*
D03*
X9547D02*
D03*
X9350D02*
D03*
X9154D02*
D03*
X8957D02*
D03*
X8760D02*
D03*
X8563D02*
D03*
X8366D02*
D03*
X8169D02*
D03*
X7972D02*
D03*
X7776D02*
D03*
X7579D02*
D03*
X7382D02*
D03*
X7185D02*
D03*
X6988D02*
D03*
X6791D02*
D03*
D23*
X15837Y17776D02*
D03*
Y18032D02*
D03*
Y18287D02*
D03*
Y18543D02*
D03*
Y18799D02*
D03*
Y19055D02*
D03*
Y19311D02*
D03*
X18100D02*
D03*
Y19055D02*
D03*
Y18799D02*
D03*
Y18543D02*
D03*
Y18287D02*
D03*
Y18032D02*
D03*
Y17776D02*
D03*
D24*
X16575Y20886D02*
D03*
Y20138D02*
D03*
X6732Y10571D02*
D03*
Y11319D02*
D03*
X3661Y11319D02*
D03*
Y10571D02*
D03*
M02*
