G04*
G04 #@! TF.GenerationSoftware,Altium Limited,Altium Designer,20.0.13 (296)*
G04*
G04 Layer_Physical_Order=1*
G04 Layer_Color=255*
%FSLAX24Y24*%
%MOIN*%
G70*
G01*
G75*
%ADD14C,0.0010*%
%ADD15R,0.0394X0.0354*%
%ADD16R,0.0354X0.0394*%
G04:AMPARAMS|DCode=17|XSize=23.6mil|YSize=57.1mil|CornerRadius=0mil|HoleSize=0mil|Usage=FLASHONLY|Rotation=90.000|XOffset=0mil|YOffset=0mil|HoleType=Round|Shape=Octagon|*
%AMOCTAGOND17*
4,1,8,-0.0285,-0.0059,-0.0285,0.0059,-0.0226,0.0118,0.0226,0.0118,0.0285,0.0059,0.0285,-0.0059,0.0226,-0.0118,-0.0226,-0.0118,-0.0285,-0.0059,0.0*
%
%ADD17OCTAGOND17*%

G04:AMPARAMS|DCode=18|XSize=23.6mil|YSize=57.1mil|CornerRadius=0mil|HoleSize=0mil|Usage=FLASHONLY|Rotation=180.000|XOffset=0mil|YOffset=0mil|HoleType=Round|Shape=Octagon|*
%AMOCTAGOND18*
4,1,8,0.0059,-0.0285,-0.0059,-0.0285,-0.0118,-0.0226,-0.0118,0.0226,-0.0059,0.0285,0.0059,0.0285,0.0118,0.0226,0.0118,-0.0226,0.0059,-0.0285,0.0*
%
%ADD18OCTAGOND18*%

%ADD19R,0.0413X0.0551*%
%ADD20R,0.0630X0.0118*%
%ADD21O,0.0630X0.0118*%
%ADD22O,0.0118X0.0630*%
%ADD23R,0.0551X0.0138*%
%ADD24R,0.0551X0.0413*%
G04:AMPARAMS|DCode=38|XSize=102.4mil|YSize=185mil|CornerRadius=51.2mil|HoleSize=0mil|Usage=FLASHONLY|Rotation=270.000|XOffset=0mil|YOffset=0mil|HoleType=Round|Shape=RoundedRectangle|*
%AMROUNDEDRECTD38*
21,1,0.1024,0.0827,0,0,270.0*
21,1,0.0000,0.1850,0,0,270.0*
1,1,0.1024,-0.0413,0.0000*
1,1,0.1024,-0.0413,0.0000*
1,1,0.1024,0.0413,0.0000*
1,1,0.1024,0.0413,0.0000*
%
%ADD38ROUNDEDRECTD38*%
%ADD39C,0.0610*%
%ADD40R,0.0610X0.0610*%
%ADD44C,0.0300*%
%ADD45C,0.0200*%
%ADD46C,0.0400*%
%ADD47C,0.0250*%
%ADD48C,0.0115*%
%ADD49C,0.0100*%
%ADD50C,0.0150*%
%ADD51C,0.0600*%
%ADD52C,0.0220*%
%ADD53C,0.0120*%
%ADD54C,0.1181*%
%ADD55C,0.2756*%
%ADD56P,0.0533X8X112.5*%
%ADD57P,0.0852X8X112.5*%
%ADD58C,0.0591*%
G04:AMPARAMS|DCode=59|XSize=59.1mil|YSize=78.7mil|CornerRadius=0mil|HoleSize=0mil|Usage=FLASHONLY|Rotation=180.000|XOffset=0mil|YOffset=0mil|HoleType=Round|Shape=Octagon|*
%AMOCTAGOND59*
4,1,8,0.0148,-0.0394,-0.0148,-0.0394,-0.0295,-0.0246,-0.0295,0.0246,-0.0148,0.0394,0.0148,0.0394,0.0295,0.0246,0.0295,-0.0246,0.0148,-0.0394,0.0*
%
%ADD59OCTAGOND59*%

%ADD60O,0.0591X0.0827*%
%ADD61C,0.0256*%
%ADD62C,0.1339*%
G36*
X823Y33207D02*
X786Y33170D01*
Y32972D01*
X885Y32873D01*
X1418D01*
X1458Y32913D01*
X1476D01*
X1525Y32880D01*
X1537Y32859D01*
X1554Y32796D01*
Y32598D01*
X1653Y32499D01*
X1771D01*
Y32226D01*
X1613D01*
Y31711D01*
X2167D01*
Y32226D01*
X2087D01*
Y32499D01*
X2186D01*
X2285Y32598D01*
Y32796D01*
X2275Y32805D01*
X2290Y32904D01*
X2315Y32921D01*
X2360Y32987D01*
X2366Y32989D01*
X2440Y32974D01*
Y32972D01*
X2539Y32873D01*
X2893D01*
X2906Y32855D01*
X2924Y32793D01*
X2684Y32553D01*
X2649Y32501D01*
X2637Y32441D01*
Y32226D01*
X2518D01*
Y31711D01*
X3072D01*
Y32226D01*
X2953D01*
Y32375D01*
X3117Y32539D01*
X3266D01*
X3306Y32499D01*
X3839D01*
X3896Y32555D01*
X3976Y32522D01*
Y32191D01*
X3911Y32127D01*
X3781D01*
Y32226D01*
X3227D01*
Y31711D01*
X3781D01*
Y31810D01*
X3976D01*
X4037Y31823D01*
X4088Y31857D01*
X4246Y32014D01*
X4280Y32066D01*
X4289Y32110D01*
X4369Y32102D01*
Y30669D01*
Y28055D01*
X4289Y28048D01*
X4280Y28092D01*
X4246Y28143D01*
X4108Y28281D01*
X4057Y28315D01*
X3996Y28327D01*
X3879D01*
X3839Y28367D01*
X3306D01*
X3266Y28327D01*
X2226D01*
X2186Y28367D01*
X1653D01*
X1613Y28327D01*
X676D01*
Y28818D01*
X1163D01*
Y29371D01*
X1163D01*
X1132Y29451D01*
X1384Y29704D01*
X1613D01*
X1653Y29664D01*
X2186D01*
X2285Y29763D01*
Y29961D01*
X2186Y30060D01*
X1653D01*
X1613Y30020D01*
X1513D01*
X1480Y30100D01*
X1517Y30137D01*
Y30335D01*
X1418Y30434D01*
X1310D01*
Y31081D01*
X1458D01*
Y31181D01*
X1613D01*
Y31081D01*
X2167D01*
Y31596D01*
X1613D01*
Y31497D01*
X1458D01*
Y31596D01*
X904D01*
Y31081D01*
X994D01*
Y30434D01*
X885D01*
X786Y30335D01*
Y30137D01*
X885Y30038D01*
X1161D01*
X1174Y30020D01*
X1191Y29958D01*
X794Y29561D01*
X760Y29509D01*
X756Y29492D01*
X676Y29500D01*
Y31810D01*
X904D01*
Y31711D01*
X1458D01*
Y32226D01*
X904D01*
Y32127D01*
X676D01*
Y33287D01*
X790D01*
X823Y33207D01*
D02*
G37*
G36*
X16844Y32127D02*
X16497D01*
Y32226D01*
X15944D01*
Y31711D01*
X16497D01*
Y31810D01*
X16844D01*
Y28327D01*
X15966D01*
X15926Y28367D01*
X15393D01*
X15353Y28327D01*
X14273D01*
X14233Y28367D01*
X13700D01*
X13601Y28268D01*
Y28070D01*
X13686Y27985D01*
Y27898D01*
X13639Y27860D01*
X13564Y27892D01*
Y27894D01*
X13465Y27993D01*
X13057D01*
X12907Y28143D01*
X12856Y28177D01*
X12795Y28190D01*
X12358D01*
X12351Y28205D01*
X12291Y28283D01*
X12213Y28344D01*
X12122Y28381D01*
X12024Y28394D01*
X11926Y28381D01*
X11834Y28344D01*
X11770Y28294D01*
X11720Y28308D01*
X11690Y28328D01*
Y28979D01*
X11720Y28999D01*
X11770Y29013D01*
X11834Y28964D01*
X11926Y28926D01*
X12024Y28913D01*
X12122Y28926D01*
X12213Y28964D01*
X12291Y29024D01*
X12351Y29102D01*
X12389Y29193D01*
X12402Y29291D01*
X12389Y29389D01*
X12351Y29481D01*
X12291Y29559D01*
X12213Y29619D01*
X12122Y29657D01*
X12024Y29670D01*
X11926Y29657D01*
X11834Y29619D01*
X11770Y29569D01*
X11720Y29583D01*
X11690Y29604D01*
Y31850D01*
Y32979D01*
X11720Y32999D01*
X11770Y33013D01*
X11834Y32964D01*
X11926Y32926D01*
X12024Y32913D01*
X12122Y32926D01*
X12213Y32964D01*
X12291Y33024D01*
X12351Y33102D01*
X12371Y33149D01*
X12730D01*
X12833Y33045D01*
Y32972D01*
X12932Y32873D01*
X13289D01*
X13320Y32799D01*
X13213Y32692D01*
X13185Y32649D01*
X13175Y32598D01*
Y32265D01*
X13030D01*
Y31751D01*
X13584D01*
Y32265D01*
X13440D01*
Y32544D01*
X13527Y32631D01*
X13601Y32600D01*
Y32598D01*
X13700Y32499D01*
X13858D01*
Y32265D01*
X13739D01*
Y31751D01*
X14293D01*
Y32265D01*
X14174D01*
Y32499D01*
X14233D01*
X14332Y32598D01*
Y32796D01*
X14359Y32862D01*
X14394D01*
X14409Y32859D01*
X14425Y32862D01*
X15247D01*
X15294Y32796D01*
Y32598D01*
X15393Y32499D01*
X15472D01*
Y32226D01*
X15235D01*
Y31711D01*
X15789D01*
Y32226D01*
X15788D01*
Y32499D01*
X15926D01*
X16025Y32598D01*
Y32796D01*
X15926Y32895D01*
X15583D01*
X15540Y32975D01*
X15550Y32990D01*
X15566Y33071D01*
X15550Y33152D01*
X15540Y33167D01*
X15583Y33247D01*
X15926D01*
X15966Y33287D01*
X16844D01*
Y32127D01*
D02*
G37*
G36*
X23490Y22244D02*
X20177D01*
Y19017D01*
X20018D01*
Y18463D01*
X20018D01*
Y18387D01*
X20018D01*
Y17833D01*
X20177D01*
Y16983D01*
X19824D01*
X19824Y17112D01*
X19844Y17183D01*
X19844Y17199D01*
Y17430D01*
X19567D01*
X19290D01*
Y17199D01*
X19290Y17183D01*
X19310Y17112D01*
X19310Y17103D01*
Y16574D01*
X19824D01*
Y16718D01*
X20177D01*
Y14764D01*
X23490D01*
X23490Y132D01*
X132D01*
Y7466D01*
X206Y7487D01*
X212Y7487D01*
X297Y7383D01*
X402Y7297D01*
X522Y7233D01*
X652Y7193D01*
X737Y7185D01*
Y7874D01*
X787D01*
Y7924D01*
X1487D01*
X1531Y7972D01*
X1673D01*
Y9393D01*
X1690Y9418D01*
X1696Y9449D01*
Y9678D01*
X10000D01*
X10073Y9688D01*
X10141Y9716D01*
X10200Y9761D01*
X12282Y11844D01*
X12751D01*
X12768Y11819D01*
X12720Y11747D01*
X12717Y11747D01*
X12701Y11744D01*
X12456D01*
X12441Y11747D01*
X12360Y11731D01*
X12291Y11685D01*
X12245Y11617D01*
X12229Y11535D01*
X12233Y11515D01*
X12229Y11511D01*
X12200Y11468D01*
X12190Y11417D01*
Y11360D01*
X12046D01*
Y10845D01*
X12468D01*
X12508Y10765D01*
X12481Y10730D01*
X12046D01*
Y10215D01*
X12600D01*
Y10320D01*
X12615Y10328D01*
X12652Y10306D01*
X13031D01*
Y10474D01*
X12819D01*
X12772Y10541D01*
X13037Y10806D01*
X13347D01*
X13446Y10905D01*
Y11103D01*
X13347Y11202D01*
X12814D01*
X12715Y11103D01*
Y10964D01*
X12680Y10937D01*
X12600Y10977D01*
Y11326D01*
X12701D01*
X12717Y11323D01*
X12798Y11340D01*
X12866Y11386D01*
X12912Y11454D01*
X12929Y11535D01*
X12917Y11594D01*
X12978Y11645D01*
X12982Y11647D01*
X13029Y11615D01*
X13110Y11599D01*
X13125Y11602D01*
X13371D01*
X13386Y11599D01*
X13467Y11615D01*
X13536Y11661D01*
X13544Y11674D01*
X13714Y11844D01*
X16403D01*
Y11212D01*
X16323Y11179D01*
X16300Y11202D01*
X15767D01*
X15707Y11142D01*
X15493D01*
Y11261D01*
X14979D01*
Y10707D01*
X15493D01*
Y10826D01*
X15747D01*
X15767Y10806D01*
X16104D01*
X16135Y10732D01*
X16087Y10684D01*
X16059Y10641D01*
X16049Y10591D01*
Y10454D01*
X15767D01*
X15727Y10414D01*
X15493D01*
Y10552D01*
X14979D01*
Y9999D01*
X15493D01*
Y10098D01*
X15727D01*
X15767Y10058D01*
X16300D01*
X16399Y10157D01*
Y10355D01*
X16314Y10440D01*
Y10527D01*
X16361Y10566D01*
X16436Y10533D01*
Y10531D01*
X16535Y10432D01*
X16943D01*
X17093Y10282D01*
X17144Y10248D01*
X17205Y10236D01*
X17282D01*
Y10058D01*
X17836D01*
Y10236D01*
X17991D01*
Y10058D01*
X18545D01*
Y10572D01*
X17991D01*
Y10552D01*
X17836D01*
Y10572D01*
X17290D01*
X17281Y10583D01*
X17277Y10607D01*
X17323Y10661D01*
X17348Y10668D01*
X17509D01*
Y10895D01*
X17262D01*
Y10748D01*
X17262Y10740D01*
X17182Y10688D01*
X17167Y10695D01*
Y10729D01*
X17068Y10828D01*
X16710D01*
X16688Y10856D01*
X16661Y10908D01*
X16668Y10945D01*
Y11844D01*
X17677D01*
X17750Y11853D01*
X17818Y11881D01*
X17877Y11926D01*
X18467Y12517D01*
X18512Y12575D01*
X18541Y12643D01*
X18550Y12717D01*
Y14685D01*
X18541Y14758D01*
X18512Y14826D01*
X18467Y14885D01*
X18446Y14901D01*
Y14961D01*
X18347Y15060D01*
X18149D01*
X18050Y14961D01*
Y14861D01*
X18023Y14826D01*
X17995Y14758D01*
X17985Y14685D01*
Y14214D01*
X17971D01*
Y13660D01*
X17971D01*
X17971Y13658D01*
X17949Y13649D01*
X17876Y13706D01*
Y13887D01*
X17598D01*
X17321D01*
Y13684D01*
X17321Y13640D01*
X17256Y13604D01*
X17154D01*
Y13278D01*
X17461D01*
X17767D01*
Y13569D01*
X17838Y13627D01*
X17867Y13627D01*
X17887Y13619D01*
X17899Y13607D01*
X17922Y13558D01*
X17922Y13508D01*
Y12873D01*
X17922D01*
X17945Y12793D01*
X17560Y12408D01*
X12165D01*
X12092Y12399D01*
X12024Y12371D01*
X11984Y12436D01*
X16604Y17057D01*
X16604Y17057D01*
X16650Y17125D01*
X16666Y17205D01*
Y19851D01*
X16930D01*
Y20424D01*
X16224D01*
X16205Y20439D01*
X16163Y20481D01*
Y20514D01*
X16199Y20579D01*
X16243Y20579D01*
X16525D01*
Y20886D01*
X16575D01*
Y20936D01*
X16950D01*
Y21179D01*
X16950Y21193D01*
X16982Y21259D01*
X17336D01*
X17942Y20653D01*
Y19460D01*
X17745D01*
Y18999D01*
X17697Y18942D01*
X17642Y18931D01*
X17596Y18900D01*
X17596Y18900D01*
X17379Y18684D01*
X17348Y18637D01*
X17338Y18583D01*
X17338Y18583D01*
Y17285D01*
X17223D01*
Y16731D01*
X17223D01*
X17214Y16655D01*
X17213D01*
Y15944D01*
X17316D01*
Y14976D01*
X17302Y14961D01*
Y14428D01*
X17401Y14329D01*
X17599D01*
X17698Y14428D01*
Y14961D01*
X17684Y14976D01*
Y15054D01*
X17757Y15085D01*
X17765Y15077D01*
X17824D01*
Y15463D01*
Y15848D01*
X17780D01*
X17710Y15905D01*
X17718Y15944D01*
X17787D01*
Y16650D01*
X17801Y16669D01*
X17843Y16711D01*
X17876D01*
X17941Y16675D01*
X17941Y16631D01*
Y16349D01*
X18248D01*
Y16299D01*
D01*
Y16349D01*
X18555D01*
Y16675D01*
X18452D01*
X18387Y16711D01*
X18387Y16755D01*
Y16958D01*
X18110D01*
X17833D01*
Y16777D01*
X17753Y16723D01*
X17738Y16729D01*
X17737Y16731D01*
X17737D01*
Y17285D01*
X17623D01*
Y18515D01*
X17669Y18552D01*
X17745Y18519D01*
Y17944D01*
X17725D01*
Y17826D01*
X18100D01*
Y17776D01*
X18150D01*
Y17607D01*
X18450D01*
Y17346D01*
X18387Y17305D01*
X18370Y17305D01*
X18160D01*
Y17058D01*
X18387D01*
Y17091D01*
X18424Y17103D01*
X18467Y17104D01*
X18489Y17072D01*
X18680Y16881D01*
Y16574D01*
X19194D01*
Y17123D01*
X19194Y17127D01*
X19194D01*
X19194Y17203D01*
X19194D01*
Y17757D01*
X19070D01*
Y17853D01*
X19280D01*
X19290Y17777D01*
X19290Y17773D01*
Y17530D01*
X19567D01*
X19844D01*
Y17753D01*
X19844Y17777D01*
X19901Y17833D01*
X19903D01*
Y18387D01*
X19903D01*
Y18463D01*
X19903D01*
Y19017D01*
X19901D01*
X19844Y19073D01*
X19844Y19097D01*
Y19320D01*
X19567D01*
X19290D01*
Y19077D01*
X19290Y19073D01*
X19280Y18997D01*
X19070D01*
Y19093D01*
X19194D01*
Y19647D01*
X18680D01*
Y19093D01*
X18804D01*
Y18997D01*
X18739D01*
Y18676D01*
X18456D01*
Y19162D01*
Y19460D01*
X18258D01*
Y20719D01*
X18246Y20779D01*
X18212Y20830D01*
X17513Y21529D01*
X17462Y21563D01*
X17402Y21575D01*
X15276D01*
X15215Y21563D01*
X15164Y21529D01*
X14226Y20591D01*
X13684D01*
X13673Y20605D01*
X13654Y20671D01*
X14123Y21140D01*
X14391D01*
Y21694D01*
X13877D01*
Y21290D01*
X13841Y21262D01*
X13761Y21301D01*
Y21694D01*
X13603D01*
Y21869D01*
X13643Y21909D01*
Y22442D01*
X13544Y22541D01*
X13346D01*
X13247Y22442D01*
Y21909D01*
X13287Y21869D01*
Y21694D01*
X13247D01*
Y21140D01*
X13644D01*
X13674Y21067D01*
X13488Y20881D01*
X12520D01*
X12487Y20961D01*
X12666Y21140D01*
X12934D01*
Y21694D01*
X12420D01*
Y21290D01*
X12384Y21262D01*
X12304Y21301D01*
Y21694D01*
X12146D01*
Y21869D01*
X12186Y21909D01*
Y22442D01*
X12087Y22541D01*
X11889D01*
X11790Y22442D01*
Y21909D01*
X11830Y21869D01*
Y21694D01*
X11790D01*
Y21140D01*
X11720Y21117D01*
X11548D01*
X11478Y21140D01*
Y21694D01*
X10963D01*
Y21290D01*
X10928Y21262D01*
X10848Y21301D01*
Y21694D01*
X10690D01*
Y21869D01*
X10730Y21909D01*
Y22442D01*
X10631Y22541D01*
X10432D01*
X10333Y22442D01*
Y21909D01*
X10373Y21869D01*
Y21694D01*
X10333D01*
Y21140D01*
X10730D01*
X10761Y21067D01*
X10614Y20920D01*
X9646D01*
X9613Y21000D01*
X9753Y21140D01*
X10021D01*
Y21694D01*
X9507D01*
Y21302D01*
X9471Y21275D01*
X9391Y21315D01*
Y21694D01*
X9233D01*
Y21869D01*
X9273Y21909D01*
Y22442D01*
X9174Y22541D01*
X8976D01*
X8877Y22442D01*
Y21909D01*
X8917Y21869D01*
Y21694D01*
X8877D01*
Y21156D01*
X8564D01*
Y21694D01*
X8050D01*
Y21290D01*
X8014Y21262D01*
X7934Y21301D01*
Y21694D01*
X7776D01*
Y21869D01*
X7816Y21909D01*
Y22442D01*
X7717Y22541D01*
X7519D01*
X7420Y22442D01*
Y21909D01*
X7460Y21869D01*
Y21694D01*
X7420D01*
Y21140D01*
X7817D01*
X7848Y21067D01*
X7288Y20507D01*
X7259Y20464D01*
X7249Y20413D01*
Y20129D01*
X7175Y20099D01*
X6983Y20291D01*
Y21140D01*
X7108D01*
Y21694D01*
X6593D01*
Y21140D01*
X6718D01*
Y20315D01*
X6638Y20282D01*
X5651Y21269D01*
Y21694D01*
X5137D01*
Y21182D01*
X5079Y21149D01*
X5021Y21182D01*
Y21694D01*
X4863D01*
Y21869D01*
X4903Y21909D01*
Y22442D01*
X4804Y22541D01*
X4606D01*
X4507Y22442D01*
Y21909D01*
X4547Y21869D01*
Y21694D01*
X4507D01*
Y21197D01*
X4507Y21140D01*
X4436Y21117D01*
X4346D01*
X4194Y21269D01*
Y21694D01*
X3680D01*
Y21140D01*
X3948D01*
X4198Y20891D01*
X4241Y20862D01*
X4291Y20852D01*
X5339D01*
X6659Y19532D01*
Y19082D01*
X6650Y19035D01*
Y18524D01*
X6660Y18469D01*
X6691Y18423D01*
X6737Y18393D01*
X6791Y18382D01*
X6846Y18393D01*
X6890Y18422D01*
X6934Y18393D01*
X6988Y18382D01*
X7042Y18393D01*
X7087Y18422D01*
X7131Y18393D01*
X7185Y18382D01*
X7239Y18393D01*
X7283Y18422D01*
X7328Y18393D01*
X7382Y18382D01*
X7436Y18393D01*
X7480Y18422D01*
X7524Y18393D01*
X7579Y18382D01*
X7626Y18310D01*
X7599Y18270D01*
X7583Y18189D01*
X7599Y18108D01*
X7645Y18039D01*
X7714Y17993D01*
X7795Y17977D01*
X7810Y17980D01*
X8056D01*
X8071Y17977D01*
X8152Y17993D01*
X8192Y18020D01*
X8248Y18033D01*
X8304Y18020D01*
X8344Y17993D01*
X8425Y17977D01*
X8440Y17980D01*
X8661D01*
X8674Y17982D01*
X8701Y17977D01*
X8782Y17993D01*
X8851Y18039D01*
X8897Y18108D01*
X8913Y18189D01*
X8897Y18270D01*
X8859Y18326D01*
X8899Y18388D01*
X8904Y18392D01*
X8957Y18382D01*
X9011Y18393D01*
X9055Y18422D01*
X9099Y18393D01*
X9154Y18382D01*
X9208Y18393D01*
X9252Y18422D01*
X9296Y18393D01*
X9350Y18382D01*
X9405Y18393D01*
X9449Y18422D01*
X9493Y18393D01*
X9547Y18382D01*
X9602Y18393D01*
X9646Y18422D01*
X9690Y18393D01*
X9744Y18382D01*
X9798Y18393D01*
X9844Y18423D01*
X9875Y18469D01*
X9886Y18524D01*
Y18647D01*
X10984D01*
X11017Y18567D01*
X10654Y18204D01*
X10626Y18161D01*
X10616Y18114D01*
X10295D01*
X10241Y18103D01*
X10195Y18073D01*
X10164Y18027D01*
X10153Y17972D01*
X10164Y17918D01*
X10194Y17874D01*
X10164Y17830D01*
X10153Y17776D01*
X10164Y17721D01*
X10194Y17677D01*
X10164Y17633D01*
X10153Y17579D01*
X10164Y17524D01*
X10194Y17480D01*
X10164Y17436D01*
X10153Y17382D01*
X10164Y17328D01*
X10194Y17283D01*
X10164Y17239D01*
X10153Y17185D01*
X10164Y17131D01*
X10194Y17087D01*
X10164Y17042D01*
X10153Y16988D01*
X10164Y16934D01*
X10194Y16890D01*
X10164Y16846D01*
X10153Y16791D01*
X10164Y16737D01*
X10182Y16710D01*
X10181Y16709D01*
X10145Y16657D01*
X10143Y16644D01*
X10551D01*
Y16544D01*
X10143D01*
X10145Y16532D01*
X10181Y16480D01*
X10182Y16479D01*
X10164Y16452D01*
X10153Y16398D01*
X10164Y16343D01*
X10194Y16299D01*
X10164Y16255D01*
X10153Y16201D01*
X10125Y16173D01*
X10081Y16154D01*
X10042Y16180D01*
X9961Y16196D01*
X9879Y16180D01*
X9811Y16134D01*
X9765Y16065D01*
X9749Y15984D01*
X9754Y15957D01*
X9752Y15945D01*
Y15724D01*
X9749Y15709D01*
X9752Y15694D01*
Y15448D01*
X9749Y15433D01*
X9765Y15352D01*
X9811Y15283D01*
X9879Y15237D01*
X9903Y15233D01*
X9916Y15216D01*
X9951Y15144D01*
X9946Y15118D01*
Y14921D01*
X9956Y14871D01*
X9985Y14828D01*
X10204Y14608D01*
X10185Y14542D01*
X10175Y14528D01*
X9872D01*
X9844Y14569D01*
X9798Y14599D01*
X9744Y14610D01*
X9690Y14599D01*
X9646Y14570D01*
X9602Y14599D01*
X9547Y14610D01*
X9493Y14599D01*
X9449Y14570D01*
X9405Y14599D01*
X9350Y14610D01*
X9296Y14599D01*
X9252Y14570D01*
X9208Y14599D01*
X9154Y14610D01*
X9101Y14600D01*
X9096Y14604D01*
X9056Y14666D01*
X9094Y14722D01*
X9110Y14803D01*
X9094Y14884D01*
X9048Y14953D01*
X8979Y14999D01*
X8898Y15015D01*
X8870Y15010D01*
X8858Y15012D01*
X8637D01*
X8622Y15015D01*
X8541Y14999D01*
X8472Y14953D01*
X8426Y14884D01*
X8410Y14803D01*
X8423Y14739D01*
Y14677D01*
X8366Y14631D01*
X8304Y14618D01*
X8251Y14583D01*
X8250Y14582D01*
X8224Y14599D01*
X8169Y14610D01*
X8115Y14599D01*
X8071Y14570D01*
X8027Y14599D01*
X7972Y14610D01*
X7918Y14599D01*
X7874Y14570D01*
X7830Y14599D01*
X7776Y14610D01*
X7721Y14599D01*
X7677Y14570D01*
X7633Y14599D01*
X7579Y14610D01*
X7524Y14599D01*
X7498Y14582D01*
X7497Y14583D01*
X7444Y14618D01*
X7382Y14631D01*
X7325Y14677D01*
Y14739D01*
X7338Y14803D01*
X7322Y14884D01*
X7276Y14953D01*
X7207Y14999D01*
X7126Y15015D01*
X7111Y15012D01*
X6898D01*
X6867Y15088D01*
X6867Y15094D01*
X7068Y15295D01*
X7098Y15340D01*
X7109Y15394D01*
Y16417D01*
X7098Y16471D01*
X7068Y16516D01*
X6694Y16890D01*
X6648Y16921D01*
X6594Y16932D01*
X6452D01*
X6382Y16988D01*
X6371Y17042D01*
X6342Y17087D01*
X6371Y17131D01*
X6382Y17185D01*
X6371Y17239D01*
X6342Y17283D01*
X6371Y17328D01*
X6382Y17382D01*
X6371Y17436D01*
X6342Y17480D01*
X6371Y17524D01*
X6382Y17579D01*
X6371Y17633D01*
X6342Y17677D01*
X6371Y17721D01*
X6378Y17754D01*
X6382Y17776D01*
X6379Y17833D01*
X6379Y17833D01*
Y18111D01*
X5915D01*
X5890Y18191D01*
X5898Y18197D01*
X5944Y18265D01*
X5960Y18346D01*
X5944Y18428D01*
X5898Y18496D01*
X5829Y18542D01*
X5748Y18558D01*
X5733Y18555D01*
X5488D01*
X5472Y18558D01*
X5452Y18554D01*
X4543Y19464D01*
X4500Y19493D01*
X4449Y19503D01*
X4430D01*
Y19647D01*
X3916D01*
X3916Y19109D01*
X3896Y19037D01*
X3896Y19022D01*
Y18790D01*
X4173D01*
Y18740D01*
D01*
Y18790D01*
X4450D01*
Y19022D01*
X4450Y19037D01*
X4433Y19098D01*
X4504Y19127D01*
X5217Y18414D01*
X5214Y18391D01*
X5130Y18351D01*
X5127Y18351D01*
X5079Y18361D01*
X4106D01*
X4104Y18363D01*
X4123Y18399D01*
Y18690D01*
X3896D01*
Y18680D01*
X3816Y18637D01*
X3800Y18648D01*
Y19013D01*
X3800Y19017D01*
Y19093D01*
X3800Y19097D01*
Y19647D01*
X3286D01*
Y19503D01*
X3190D01*
Y19627D01*
X2637D01*
Y19626D01*
X2559Y19582D01*
X2544Y19579D01*
X2299D01*
X2283Y19582D01*
X2202Y19566D01*
X2134Y19520D01*
X2088Y19451D01*
X2071Y19370D01*
X2088Y19289D01*
X2134Y19220D01*
X2202Y19174D01*
X2283Y19158D01*
X2299Y19161D01*
X2544D01*
X2559Y19158D01*
X2637Y19114D01*
Y19113D01*
X3190D01*
Y19238D01*
X3286D01*
Y19097D01*
X3286Y19093D01*
Y19017D01*
X3286Y19013D01*
Y18898D01*
X3190D01*
Y18997D01*
X2637D01*
Y18483D01*
X3190D01*
Y18582D01*
X3286D01*
Y18463D01*
X3554D01*
X3813Y18205D01*
X3779Y18125D01*
X2559D01*
X2508Y18115D01*
X2465Y18086D01*
X2265Y17885D01*
X2244Y17889D01*
X2229Y17886D01*
X1984D01*
X1969Y17889D01*
X1953Y17886D01*
X1708D01*
X1693Y17889D01*
X1612Y17873D01*
X1591Y17859D01*
X1511Y17902D01*
Y18106D01*
X1528Y18118D01*
X1574Y18187D01*
X1590Y18268D01*
X1587Y18283D01*
Y18528D01*
X1590Y18543D01*
X1587Y18558D01*
Y18804D01*
X1590Y18819D01*
X1574Y18900D01*
X1528Y18969D01*
X1459Y19015D01*
X1378Y19031D01*
X1297Y19015D01*
X1228Y18969D01*
X1182Y18900D01*
X1166Y18819D01*
X1169Y18804D01*
Y18558D01*
X1166Y18543D01*
X1169Y18528D01*
Y18283D01*
X1166Y18268D01*
X1182Y18187D01*
X1228Y18118D01*
X1245Y18106D01*
Y17087D01*
X1256Y17036D01*
X1284Y16993D01*
X1442Y16835D01*
X1485Y16807D01*
X1535Y16797D01*
X4906D01*
X5202Y16501D01*
X5245Y16472D01*
X5295Y16462D01*
X5497D01*
X5566Y16398D01*
X5579Y16336D01*
X5614Y16283D01*
X5615Y16282D01*
X5597Y16255D01*
X5587Y16201D01*
X5597Y16147D01*
X5627Y16102D01*
X5597Y16058D01*
X5587Y16004D01*
X5597Y15950D01*
X5627Y15906D01*
X5597Y15861D01*
X5587Y15807D01*
X5597Y15753D01*
X5627Y15709D01*
X5597Y15664D01*
X5587Y15610D01*
X5597Y15556D01*
X5627Y15512D01*
X5597Y15468D01*
X5587Y15413D01*
X5516Y15357D01*
X5256D01*
X5202Y15346D01*
X5157Y15316D01*
X4058Y14217D01*
X4028Y14172D01*
X4017Y14118D01*
Y12947D01*
X3968Y12926D01*
X3890Y12866D01*
X3830Y12788D01*
X3792Y12696D01*
X3779Y12598D01*
Y12362D01*
X3792Y12264D01*
X3830Y12173D01*
X3890Y12095D01*
X3968Y12034D01*
X4060Y11997D01*
X4157Y11984D01*
X4255Y11997D01*
X4347Y12034D01*
X4425Y12095D01*
X4485Y12173D01*
X4523Y12264D01*
X4536Y12362D01*
Y12598D01*
X4523Y12696D01*
X4485Y12788D01*
X4425Y12866D01*
X4347Y12926D01*
X4298Y12947D01*
Y14060D01*
X4937Y14700D01*
X5017Y14667D01*
Y12947D01*
X4968Y12926D01*
X4890Y12866D01*
X4830Y12788D01*
X4792Y12696D01*
X4779Y12598D01*
Y12362D01*
X4792Y12264D01*
X4830Y12173D01*
X4890Y12095D01*
X4968Y12034D01*
X5060Y11997D01*
X5157Y11984D01*
X5255Y11997D01*
X5347Y12034D01*
X5425Y12095D01*
X5485Y12173D01*
X5523Y12264D01*
X5536Y12362D01*
Y12598D01*
X5523Y12696D01*
X5485Y12788D01*
X5425Y12866D01*
X5347Y12926D01*
X5298Y12947D01*
Y13730D01*
X5323Y13751D01*
X5378Y13780D01*
X5394Y13777D01*
X5781D01*
Y13622D01*
X5790Y13549D01*
X5818Y13481D01*
X5863Y13422D01*
X6215Y13070D01*
X6178Y12994D01*
X6157Y12997D01*
X6054Y12984D01*
X5958Y12944D01*
X5876Y12880D01*
X5812Y12798D01*
X5772Y12702D01*
X5759Y12598D01*
Y12530D01*
X6157D01*
X6556D01*
Y12598D01*
X6553Y12619D01*
X6629Y12656D01*
X6779Y12507D01*
Y12362D01*
X6792Y12264D01*
X6830Y12173D01*
X6890Y12095D01*
X6968Y12034D01*
X7060Y11997D01*
X7157Y11984D01*
X7159Y11983D01*
Y11628D01*
X7088Y11606D01*
Y11606D01*
X6377D01*
Y11513D01*
X5399D01*
X5394Y11517D01*
X4862D01*
X4763Y11418D01*
Y11220D01*
X4862Y11121D01*
X5394D01*
X5399Y11125D01*
X5481D01*
X5510Y11054D01*
Y10995D01*
X5896D01*
X6281D01*
Y11013D01*
X6350Y11081D01*
X6377Y11076D01*
Y11032D01*
X7088D01*
Y11032D01*
X7164Y11023D01*
Y11003D01*
X7293D01*
X7310Y10987D01*
X7279Y10907D01*
X7144Y10907D01*
X7076Y10878D01*
X7064Y10878D01*
X6782D01*
Y10571D01*
X6732D01*
Y10521D01*
X6357D01*
X6357Y10264D01*
X6285Y10243D01*
X4080D01*
X4017Y10284D01*
Y10362D01*
X5128D01*
X5183Y10373D01*
X5394D01*
X5493Y10472D01*
Y10670D01*
X5394Y10769D01*
X5183D01*
X5128Y10780D01*
X4647D01*
Y10887D01*
X4093D01*
Y10867D01*
X4017Y10858D01*
Y10858D01*
X3306D01*
Y10853D01*
X1696D01*
X1696Y12188D01*
X1756Y12213D01*
X1879D01*
Y12559D01*
Y12905D01*
X1776D01*
X1696Y12953D01*
X1696Y14156D01*
X1756Y14181D01*
X1879D01*
Y14528D01*
Y14874D01*
X1776D01*
X1696Y14921D01*
X1696Y16024D01*
X1690Y16055D01*
X1672Y16081D01*
X1645Y16099D01*
X1614Y16105D01*
X676D01*
Y23542D01*
X1163D01*
Y24096D01*
X1163D01*
X1132Y24176D01*
X1384Y24429D01*
X1613D01*
X1653Y24389D01*
X2186D01*
X2285Y24488D01*
Y24686D01*
X2186Y24785D01*
X1653D01*
X1613Y24745D01*
X1513D01*
X1480Y24825D01*
X1517Y24862D01*
Y25060D01*
X1418Y25159D01*
X1310D01*
Y25806D01*
X1458D01*
Y25905D01*
X1613D01*
Y25806D01*
X2167D01*
Y26320D01*
X1613D01*
Y26221D01*
X1458D01*
Y26320D01*
X904D01*
Y25806D01*
X994D01*
Y25159D01*
X885D01*
X786Y25060D01*
Y24862D01*
X885Y24763D01*
X1161D01*
X1174Y24745D01*
X1191Y24683D01*
X794Y24285D01*
X760Y24234D01*
X756Y24217D01*
X676Y24225D01*
Y26535D01*
X904D01*
Y26436D01*
X1458D01*
Y26950D01*
X904D01*
Y26851D01*
X676D01*
Y27323D01*
X676Y27992D01*
X750Y28011D01*
X790D01*
X823Y27931D01*
X786Y27894D01*
Y27696D01*
X885Y27597D01*
X1418D01*
X1458Y27637D01*
X1476D01*
X1525Y27605D01*
X1537Y27583D01*
X1554Y27520D01*
Y27322D01*
X1653Y27223D01*
X1771D01*
Y26950D01*
X1613D01*
Y26436D01*
X2167D01*
Y26950D01*
X2087D01*
Y27223D01*
X2186D01*
X2285Y27322D01*
Y27520D01*
X2275Y27530D01*
X2290Y27628D01*
X2315Y27645D01*
X2360Y27712D01*
X2366Y27713D01*
X2440Y27699D01*
Y27696D01*
X2539Y27597D01*
X2893D01*
X2906Y27579D01*
X2924Y27517D01*
X2684Y27277D01*
X2649Y27226D01*
X2637Y27165D01*
Y26950D01*
X2518D01*
Y26436D01*
X3072D01*
Y26950D01*
X2953D01*
Y27100D01*
X3117Y27263D01*
X3266D01*
X3306Y27223D01*
X3839D01*
X3896Y27280D01*
X3976Y27247D01*
Y26916D01*
X3911Y26851D01*
X3781D01*
Y26950D01*
X3227D01*
Y26436D01*
X3781D01*
Y26535D01*
X3976D01*
X4037Y26547D01*
X4088Y26581D01*
X4246Y26739D01*
X4280Y26790D01*
X4289Y26834D01*
X4369Y26826D01*
Y25394D01*
Y23529D01*
X4029Y23190D01*
X3820D01*
Y23209D01*
X3721Y23308D01*
X3523D01*
X3424Y23209D01*
Y22677D01*
X3523Y22577D01*
X3721D01*
X3820Y22677D01*
Y22873D01*
X4094D01*
X4155Y22885D01*
X4206Y22920D01*
X4638Y23352D01*
X4673Y23403D01*
X4685Y23464D01*
Y23709D01*
X4729Y23733D01*
X4765Y23741D01*
X4834Y23688D01*
X4926Y23650D01*
X5024Y23637D01*
X5122Y23650D01*
X5213Y23688D01*
X5226Y23698D01*
X5319Y23668D01*
X5323Y23656D01*
X5318Y23632D01*
X4995Y23308D01*
X4980D01*
X4881Y23209D01*
Y22677D01*
X4980Y22577D01*
X5178D01*
X5277Y22677D01*
Y23143D01*
X5624Y23490D01*
X5658Y23541D01*
X5670Y23602D01*
Y23729D01*
X5750Y23756D01*
X5756Y23748D01*
X5834Y23688D01*
X5926Y23650D01*
X6024Y23637D01*
X6122Y23650D01*
X6213Y23688D01*
X6288Y23745D01*
X6305Y23743D01*
X6368Y23716D01*
Y23240D01*
X6337Y23209D01*
Y22677D01*
X6436Y22577D01*
X6634D01*
X6734Y22677D01*
Y23209D01*
X6684Y23259D01*
Y23711D01*
X6732Y23736D01*
X6764Y23742D01*
X6834Y23688D01*
X6926Y23650D01*
X7024Y23637D01*
X7122Y23650D01*
X7213Y23688D01*
X7282Y23741D01*
X7320Y23732D01*
X7362Y23708D01*
Y23583D01*
X7374Y23522D01*
X7408Y23471D01*
X7794Y23085D01*
Y22677D01*
X7893Y22577D01*
X8091D01*
X8190Y22677D01*
Y23209D01*
X8091Y23308D01*
X8018D01*
X7681Y23645D01*
X7689Y23718D01*
X7760Y23745D01*
X7834Y23688D01*
X7926Y23650D01*
X8024Y23637D01*
X8122Y23650D01*
X8213Y23688D01*
X8266Y23729D01*
X8346Y23695D01*
Y23386D01*
X8358Y23325D01*
X8392Y23274D01*
X8707Y22959D01*
X8758Y22925D01*
X8819Y22913D01*
X9251D01*
Y22677D01*
X9350Y22577D01*
X9548D01*
X9647Y22677D01*
Y23209D01*
X9548Y23308D01*
X9350D01*
X9270Y23229D01*
X8884D01*
X8662Y23451D01*
Y23739D01*
X8742Y23766D01*
X8756Y23748D01*
X8834Y23688D01*
X8926Y23650D01*
X9024Y23637D01*
X9122Y23650D01*
X9213Y23688D01*
X9280Y23739D01*
X9309Y23738D01*
X9316Y23736D01*
X9364Y23712D01*
X9372Y23675D01*
X9406Y23624D01*
X10075Y22954D01*
X10127Y22920D01*
X10187Y22908D01*
X10707D01*
Y22677D01*
X10806Y22577D01*
X11005D01*
X11104Y22677D01*
Y23209D01*
X11047Y23266D01*
X11080Y23346D01*
X11903D01*
X12164Y23085D01*
Y22677D01*
X12263Y22577D01*
X12461D01*
X12560Y22677D01*
Y23209D01*
X12461Y23308D01*
X12388D01*
X12126Y23570D01*
X12125Y23591D01*
X12148Y23661D01*
X12213Y23688D01*
X12291Y23748D01*
X12351Y23826D01*
X12360Y23848D01*
X12440Y23832D01*
Y23740D01*
X12452Y23680D01*
X12487Y23628D01*
X13156Y22959D01*
X13207Y22925D01*
X13268Y22913D01*
X13621D01*
Y22677D01*
X13720Y22577D01*
X13918D01*
X14017Y22677D01*
Y23209D01*
X13918Y23308D01*
X13720D01*
X13640Y23229D01*
X13333D01*
X12756Y23806D01*
Y24134D01*
X12744Y24194D01*
X12710Y24246D01*
X11690Y25266D01*
Y26575D01*
Y27703D01*
X11720Y27724D01*
X11770Y27738D01*
X11834Y27688D01*
X11926Y27650D01*
X12024Y27637D01*
X12122Y27650D01*
X12213Y27688D01*
X12291Y27748D01*
X12351Y27826D01*
X12371Y27873D01*
X12730D01*
X12833Y27770D01*
Y27696D01*
X12932Y27597D01*
X13289D01*
X13320Y27523D01*
X13213Y27417D01*
X13185Y27374D01*
X13175Y27323D01*
Y26989D01*
X13030D01*
Y26475D01*
X13584D01*
Y26989D01*
X13440D01*
Y27268D01*
X13527Y27355D01*
X13601Y27325D01*
Y27322D01*
X13700Y27223D01*
X13858D01*
Y26989D01*
X13739D01*
Y26475D01*
X14293D01*
Y26989D01*
X14174D01*
Y27223D01*
X14233D01*
X14332Y27322D01*
Y27517D01*
X14332Y27521D01*
X14375Y27590D01*
X14409Y27583D01*
X14491Y27599D01*
X14559Y27645D01*
X14576Y27647D01*
X14625Y27597D01*
X15158D01*
X15174Y27613D01*
X15194Y27599D01*
X15249Y27589D01*
X15288Y27529D01*
X15294Y27505D01*
Y27322D01*
X15393Y27223D01*
X15472D01*
Y26950D01*
X15235D01*
Y26436D01*
X15789D01*
Y26950D01*
X15788D01*
Y27223D01*
X15926D01*
X16025Y27322D01*
Y27520D01*
X15926Y27619D01*
X15504D01*
X15462Y27699D01*
X15471Y27714D01*
X15488Y27795D01*
X15471Y27876D01*
X15462Y27891D01*
X15504Y27971D01*
X15926D01*
X15966Y28011D01*
X16844D01*
Y26851D01*
X16497D01*
Y26950D01*
X15944D01*
Y26436D01*
X16497D01*
Y26535D01*
X16894D01*
X16926Y26493D01*
X16985Y26448D01*
X17053Y26420D01*
X17126Y26411D01*
X17199Y26420D01*
X17267Y26448D01*
X17326Y26493D01*
X17371Y26552D01*
X17399Y26620D01*
X17408Y26693D01*
Y28169D01*
Y31969D01*
Y33445D01*
Y35759D01*
X17436Y35770D01*
X17515Y35831D01*
X17576Y35911D01*
X17614Y36003D01*
X17627Y36102D01*
Y36417D01*
Y36890D01*
X17614Y36989D01*
X17576Y37081D01*
X17515Y37161D01*
X17436Y37222D01*
X17408Y37233D01*
Y37244D01*
X17399Y37317D01*
X17371Y37385D01*
X17326Y37444D01*
X17267Y37489D01*
X17199Y37517D01*
X17126Y37527D01*
X17053Y37517D01*
X16985Y37489D01*
X16926Y37444D01*
X16894Y37402D01*
X16497D01*
Y37501D01*
X16456D01*
Y38228D01*
X16444Y38288D01*
X16410Y38340D01*
X16025Y38725D01*
Y38820D01*
X15926Y38919D01*
X15393D01*
X15352Y38878D01*
X14274D01*
X14233Y38919D01*
X13700D01*
X13601Y38820D01*
Y38621D01*
X13686Y38537D01*
Y38450D01*
X13640Y38414D01*
X13564Y38446D01*
X13465Y38545D01*
X13056D01*
X12906Y38694D01*
X12855Y38728D01*
X12794Y38740D01*
X12358D01*
X12351Y38756D01*
X12291Y38835D01*
X12213Y38895D01*
X12122Y38933D01*
X12024Y38945D01*
X11926Y38933D01*
X11834Y38895D01*
X11756Y38835D01*
X11696Y38756D01*
X11658Y38665D01*
X11645Y38567D01*
X11658Y38469D01*
X11696Y38378D01*
X11756Y38299D01*
X11834Y38239D01*
X11926Y38201D01*
X12024Y38188D01*
X12122Y38201D01*
X12213Y38239D01*
X12291Y38299D01*
X12351Y38378D01*
X12371Y38424D01*
X12729D01*
X12833Y38320D01*
Y38247D01*
X12932Y38148D01*
X13289D01*
X13320Y38074D01*
X13213Y37967D01*
X13184Y37924D01*
X13174Y37873D01*
Y37541D01*
X13030D01*
Y37026D01*
X13584D01*
Y37541D01*
X13439D01*
Y37819D01*
X13527Y37907D01*
X13601Y37876D01*
Y37873D01*
X13700Y37774D01*
X13857D01*
Y37541D01*
X13739D01*
Y37026D01*
X14293D01*
Y37541D01*
X14173D01*
Y37774D01*
X14233D01*
X14332Y37873D01*
Y38071D01*
X14359Y38137D01*
X14393D01*
X14409Y38134D01*
X14424Y38137D01*
X15246D01*
X15294Y38071D01*
Y37873D01*
X15393Y37774D01*
X15471D01*
Y37501D01*
X15235D01*
Y36987D01*
X15789D01*
Y37501D01*
X15787D01*
Y37774D01*
X15926D01*
X16025Y37873D01*
Y38071D01*
X15926Y38171D01*
X15583D01*
X15540Y38251D01*
X15549Y38265D01*
X15566Y38346D01*
X15549Y38427D01*
X15539Y38442D01*
X15582Y38522D01*
X15780D01*
X16140Y38162D01*
Y37501D01*
X15944D01*
Y36987D01*
X16497D01*
Y37086D01*
X16844D01*
Y33603D01*
X15966D01*
X15926Y33643D01*
X15393D01*
X15353Y33603D01*
X14273D01*
X14233Y33643D01*
X13700D01*
X13601Y33544D01*
Y33346D01*
X13686Y33261D01*
Y33173D01*
X13639Y33135D01*
X13564Y33168D01*
Y33170D01*
X13465Y33269D01*
X13057D01*
X12907Y33419D01*
X12856Y33453D01*
X12795Y33465D01*
X12358D01*
X12351Y33481D01*
X12291Y33559D01*
X12213Y33619D01*
X12122Y33657D01*
X12024Y33670D01*
X11926Y33657D01*
X11834Y33619D01*
X11770Y33569D01*
X11720Y33583D01*
X11690Y33604D01*
Y34254D01*
X11720Y34275D01*
X11770Y34289D01*
X11834Y34239D01*
X11926Y34201D01*
X12024Y34188D01*
X12122Y34201D01*
X12213Y34239D01*
X12291Y34299D01*
X12351Y34378D01*
X12389Y34469D01*
X12402Y34567D01*
X12389Y34665D01*
X12351Y34756D01*
X12291Y34835D01*
X12213Y34895D01*
X12122Y34933D01*
X12024Y34945D01*
X11926Y34933D01*
X11834Y34895D01*
X11770Y34845D01*
X11720Y34859D01*
X11690Y34879D01*
Y37125D01*
X11678Y37185D01*
X11643Y37236D01*
X11642Y37237D01*
X11591Y37271D01*
X11531Y37283D01*
X11300D01*
Y37383D01*
X10747D01*
Y36869D01*
X11300D01*
Y36869D01*
X11373Y36852D01*
Y34859D01*
X11293Y34832D01*
X11291Y34835D01*
X11213Y34895D01*
X11122Y34933D01*
X11024Y34945D01*
X10926Y34933D01*
X10834Y34895D01*
X10756Y34835D01*
X10749Y34826D01*
X10669Y34853D01*
Y35944D01*
X10657Y36005D01*
X10623Y36056D01*
X10571Y36090D01*
X10511Y36102D01*
X10316D01*
Y36202D01*
X9763D01*
Y35688D01*
X10290D01*
X10323Y35630D01*
X10290Y35572D01*
X9763D01*
Y35058D01*
X9865D01*
Y34907D01*
X9834Y34895D01*
X9756Y34835D01*
X9756Y34834D01*
X9676Y34861D01*
Y37159D01*
X9664Y37220D01*
X9629Y37271D01*
X9629Y37272D01*
X9577Y37306D01*
X9517Y37318D01*
X9332D01*
Y37423D01*
X8778D01*
Y36908D01*
X9332D01*
X9360Y36840D01*
Y34877D01*
X9324Y34855D01*
X9280Y34843D01*
X9213Y34895D01*
X9122Y34933D01*
X9024Y34945D01*
X8926Y34933D01*
X8834Y34895D01*
X8756Y34835D01*
X8742Y34816D01*
X8662Y34843D01*
Y35944D01*
X8650Y36004D01*
X8616Y36055D01*
X8615Y36056D01*
X8564Y36090D01*
X8503Y36102D01*
X8308D01*
Y36202D01*
X7755D01*
Y35967D01*
X7675Y35959D01*
X7666Y36004D01*
X7631Y36055D01*
X7631Y36056D01*
X7579Y36090D01*
X7519Y36102D01*
X7324D01*
Y36202D01*
X6770D01*
Y35688D01*
X7299D01*
X7332Y35630D01*
X7299Y35572D01*
X6770D01*
Y35058D01*
X6865D01*
Y34907D01*
X6834Y34895D01*
X6764Y34840D01*
X6732Y34847D01*
X6684Y34872D01*
Y37022D01*
X6770D01*
Y36908D01*
X7324D01*
Y37423D01*
X6770D01*
Y37338D01*
X6525D01*
X6464Y37326D01*
X6413Y37292D01*
X6379Y37240D01*
X6367Y37180D01*
X6368Y37176D01*
Y36233D01*
X6300Y36202D01*
X5747D01*
Y36122D01*
X5512D01*
X5451Y36110D01*
X5400Y36076D01*
X5366Y36025D01*
X5357Y35980D01*
X5277Y35988D01*
Y36202D01*
X4723D01*
Y36102D01*
X4527D01*
X4466Y36090D01*
X4415Y36056D01*
X4381Y36005D01*
X4369Y35944D01*
Y33331D01*
X4289Y33323D01*
X4280Y33368D01*
X4246Y33419D01*
X4108Y33557D01*
X4057Y33591D01*
X3996Y33603D01*
X3879D01*
X3839Y33643D01*
X3306D01*
X3266Y33603D01*
X2226D01*
X2186Y33643D01*
X1653D01*
X1613Y33603D01*
X676D01*
Y34093D01*
X1163D01*
Y34647D01*
X1163D01*
X1131Y34727D01*
X1384Y34979D01*
X1613D01*
X1653Y34940D01*
X2186D01*
X2285Y35039D01*
Y35237D01*
X2186Y35336D01*
X1653D01*
X1612Y35295D01*
X1513D01*
X1480Y35375D01*
X1517Y35413D01*
Y35611D01*
X1418Y35710D01*
X1309D01*
Y36357D01*
X1458D01*
Y36456D01*
X1613D01*
Y36357D01*
X2167D01*
Y36871D01*
X1613D01*
Y36772D01*
X1458D01*
Y36871D01*
X904D01*
Y36357D01*
X993D01*
Y35710D01*
X885D01*
X786Y35611D01*
Y35413D01*
X885Y35314D01*
X1161D01*
X1175Y35294D01*
X1191Y35234D01*
X793Y34836D01*
X759Y34784D01*
X756Y34771D01*
X676Y34779D01*
Y37086D01*
X904D01*
Y36987D01*
X1458D01*
Y37501D01*
X904D01*
Y37402D01*
X676D01*
Y38393D01*
X706Y38415D01*
X786Y38373D01*
Y38247D01*
X885Y38148D01*
X1418D01*
X1457Y38188D01*
X1476D01*
X1524Y38155D01*
X1536Y38135D01*
X1554Y38071D01*
Y37873D01*
X1653Y37774D01*
X1770D01*
Y37501D01*
X1613D01*
Y36987D01*
X2167D01*
Y37501D01*
X2086D01*
Y37774D01*
X2186D01*
X2285Y37873D01*
Y38071D01*
X2276Y38081D01*
X2290Y38180D01*
X2314Y38196D01*
X2360Y38265D01*
X2440Y38253D01*
Y38247D01*
X2539Y38148D01*
X2893D01*
X2907Y38128D01*
X2923Y38068D01*
X2683Y37828D01*
X2648Y37776D01*
X2636Y37716D01*
Y37501D01*
X2518D01*
Y36987D01*
X3072D01*
Y37501D01*
X2952D01*
Y37651D01*
X3116Y37814D01*
X3267D01*
X3306Y37774D01*
X3839D01*
X3938Y37873D01*
Y38071D01*
X3929Y38081D01*
X3943Y38180D01*
X3968Y38196D01*
X4072Y38207D01*
X4088Y38195D01*
Y37520D01*
X4093Y37482D01*
X4045Y37412D01*
X4029Y37402D01*
X3781D01*
Y37501D01*
X3227D01*
Y36987D01*
X3781D01*
Y37086D01*
X4252D01*
X4279Y37092D01*
X4315Y37066D01*
X4353Y36974D01*
X4414Y36894D01*
X4493Y36833D01*
X4586Y36795D01*
X4685Y36782D01*
X5315D01*
X5414Y36795D01*
X5507Y36833D01*
X5586Y36894D01*
X5647Y36974D01*
X5685Y37066D01*
X5698Y37165D01*
X5685Y37265D01*
X5647Y37357D01*
X5586Y37436D01*
X5507Y37497D01*
X5414Y37536D01*
X5315Y37549D01*
X4741D01*
X4652Y37637D01*
Y38303D01*
X4733Y38330D01*
X4756Y38299D01*
X4834Y38239D01*
X4926Y38201D01*
X5024Y38188D01*
X5122Y38201D01*
X5213Y38239D01*
X5291Y38299D01*
X5351Y38378D01*
X5389Y38469D01*
X5402Y38567D01*
X5389Y38665D01*
X5351Y38756D01*
X5291Y38835D01*
X5213Y38895D01*
X5122Y38933D01*
X5024Y38945D01*
X4926Y38933D01*
X4834Y38895D01*
X4756Y38835D01*
X4696Y38756D01*
X4662Y38675D01*
X4626Y38661D01*
X4576Y38656D01*
X4570Y38664D01*
X4176Y39058D01*
X4118Y39103D01*
X4049Y39131D01*
X3976Y39141D01*
X709D01*
X636Y39131D01*
X567Y39103D01*
X509Y39058D01*
X212Y38761D01*
X145Y38782D01*
X132Y38792D01*
Y39238D01*
X23490D01*
X23490Y22244D01*
D02*
G37*
G36*
X16199Y21193D02*
X16199Y21179D01*
Y21090D01*
X16163Y21025D01*
X16119Y21025D01*
X15916D01*
Y20748D01*
Y20471D01*
X16097D01*
X16151Y20391D01*
X16145Y20375D01*
X16143Y20375D01*
Y20375D01*
X15650D01*
Y20471D01*
X15816D01*
Y20748D01*
Y21025D01*
X15650D01*
Y21259D01*
X16167D01*
X16199Y21193D01*
D02*
G37*
G36*
X14788Y17938D02*
X14831Y17909D01*
X14882Y17899D01*
X15461D01*
Y17826D01*
X15837D01*
Y17776D01*
X15887D01*
Y17607D01*
X16212D01*
X16248Y17541D01*
Y17291D01*
X10386Y11429D01*
X10100D01*
Y11643D01*
X9803D01*
Y11693D01*
X9753D01*
Y11970D01*
X9586D01*
X9579Y11986D01*
X9628Y12066D01*
X10080D01*
Y12319D01*
X10086Y12327D01*
X10160Y12362D01*
X10186Y12342D01*
X10198Y12281D01*
X10244Y12212D01*
X10257Y12204D01*
X10432Y12028D01*
X10441Y12015D01*
X10509Y11969D01*
X10591Y11953D01*
X10672Y11969D01*
X10740Y12015D01*
X10786Y12084D01*
X10802Y12160D01*
X10810Y12183D01*
X10848Y12221D01*
X10871Y12230D01*
X10947Y12245D01*
X11016Y12291D01*
X11062Y12360D01*
X11077Y12436D01*
X11086Y12459D01*
X11124Y12497D01*
X11147Y12506D01*
X11223Y12521D01*
X11292Y12567D01*
X11338Y12635D01*
X11353Y12711D01*
X11361Y12735D01*
X11399Y12773D01*
X11422Y12781D01*
X11498Y12796D01*
X11567Y12842D01*
X11613Y12911D01*
X11629Y12992D01*
X11616Y13059D01*
X11618Y13067D01*
X11641Y13107D01*
X11667Y13137D01*
X11875D01*
X11890Y13134D01*
X11971Y13151D01*
X12040Y13197D01*
X12086Y13265D01*
X12102Y13346D01*
X12086Y13428D01*
X12040Y13496D01*
X12022Y13508D01*
Y13976D01*
X12012Y14027D01*
X11983Y14070D01*
X11330Y14724D01*
X11369Y14798D01*
X11417Y14788D01*
X11498Y14804D01*
X11567Y14850D01*
X11613Y14919D01*
X11629Y15000D01*
X11613Y15081D01*
X11567Y15150D01*
X11577Y15240D01*
X11591Y15250D01*
X11591Y15250D01*
X11599Y15246D01*
X11612Y15237D01*
X11693Y15221D01*
X11774Y15237D01*
X11787Y15246D01*
X11850Y15279D01*
X11914Y15246D01*
X11927Y15237D01*
X12008Y15221D01*
X12089Y15237D01*
X12158Y15283D01*
X12204Y15352D01*
X12220Y15433D01*
X12204Y15514D01*
X12158Y15583D01*
X12089Y15629D01*
X12067Y15633D01*
X12031Y15722D01*
X12046Y15746D01*
X12062Y15827D01*
X12046Y15908D01*
X12000Y15977D01*
X11932Y16023D01*
X11850Y16039D01*
X11769Y16023D01*
X11757Y16014D01*
X11693Y15981D01*
X11629Y16014D01*
X11617Y16023D01*
X11595Y16027D01*
X11558Y16116D01*
X11574Y16139D01*
X11590Y16220D01*
X11574Y16302D01*
X11528Y16370D01*
X11459Y16416D01*
X11378Y16432D01*
X11351Y16509D01*
X11339Y16571D01*
X11339Y16580D01*
X11384Y16651D01*
X12140D01*
X12205Y16638D01*
X12286Y16655D01*
X12355Y16700D01*
X12401Y16769D01*
X12417Y16850D01*
X12401Y16932D01*
X12355Y17000D01*
X12286Y17046D01*
X12280Y17061D01*
X12283Y17128D01*
X12299Y17205D01*
X12283Y17286D01*
X12237Y17355D01*
X12168Y17401D01*
X12087Y17417D01*
X12005Y17401D01*
X11968Y17376D01*
X11914Y17368D01*
X11868Y17396D01*
X11843Y17433D01*
X11779Y17476D01*
X11774Y17481D01*
X11750Y17566D01*
X11771Y17596D01*
X11787Y17677D01*
X11786Y17683D01*
X11854Y17748D01*
X11890Y17741D01*
X11971Y17757D01*
X12040Y17803D01*
X12086Y17872D01*
X12102Y17953D01*
X12086Y18034D01*
X12071Y18055D01*
X12114Y18135D01*
X14591D01*
X14788Y17938D01*
D02*
G37*
G36*
X6260Y13858D02*
X5394D01*
Y14724D01*
X6260D01*
Y13858D01*
D02*
G37*
G36*
X7491Y10353D02*
X7677D01*
Y10254D01*
X7597Y10243D01*
X7179D01*
X7173Y10245D01*
X7162Y10273D01*
X7171Y10301D01*
X7217Y10353D01*
X7391D01*
Y10630D01*
X7491D01*
Y10353D01*
D02*
G37*
G36*
X1614Y14702D02*
X1603Y14691D01*
Y14365D01*
X1614Y14353D01*
X1614Y12733D01*
X1603Y12722D01*
Y12396D01*
X1614Y12385D01*
X1614Y9449D01*
X1509D01*
X1475Y9486D01*
X1476Y9497D01*
X787D01*
Y9547D01*
X737D01*
Y10236D01*
X652Y10228D01*
X522Y10188D01*
X402Y10124D01*
X297Y10038D01*
X210Y9933D01*
X182Y9879D01*
X132Y9892D01*
Y16024D01*
X1614D01*
X1614Y14702D01*
D02*
G37*
%LPC*%
G36*
X3781Y31596D02*
X3227D01*
Y31497D01*
X3072D01*
Y31596D01*
X2518D01*
Y31081D01*
X2608D01*
Y30434D01*
X2499D01*
X2400Y30335D01*
Y30137D01*
X2499Y30038D01*
X3032D01*
X3131Y30137D01*
Y30335D01*
X3032Y30434D01*
X2924D01*
Y31081D01*
X3072D01*
Y31181D01*
X3227D01*
Y31081D01*
X3781D01*
Y31596D01*
D02*
G37*
G36*
X3810Y30828D02*
X3583D01*
Y30660D01*
X3919D01*
Y30719D01*
X3810Y30828D01*
D02*
G37*
G36*
X3483D02*
X3257D01*
X3148Y30719D01*
Y30660D01*
X3483D01*
Y30828D01*
D02*
G37*
G36*
X2196D02*
X1969D01*
Y30660D01*
X2305D01*
Y30719D01*
X2196Y30828D01*
D02*
G37*
G36*
X1869D02*
X1643D01*
X1534Y30719D01*
Y30660D01*
X1869D01*
Y30828D01*
D02*
G37*
G36*
X3919Y30560D02*
X3583D01*
Y30392D01*
X3810D01*
X3919Y30501D01*
Y30560D01*
D02*
G37*
G36*
X3483D02*
X3148D01*
Y30501D01*
X3257Y30392D01*
X3483D01*
Y30560D01*
D02*
G37*
G36*
X2305Y30560D02*
X1969D01*
Y30392D01*
X2196D01*
X2305Y30501D01*
Y30560D01*
D02*
G37*
G36*
X1869D02*
X1534D01*
Y30501D01*
X1643Y30392D01*
X1869D01*
Y30560D01*
D02*
G37*
G36*
X2677Y29582D02*
X2596Y29566D01*
X2539Y29528D01*
X2539D01*
X2483Y29566D01*
X2402Y29582D01*
X2320Y29566D01*
X2252Y29520D01*
X2206Y29451D01*
X2190Y29370D01*
X2206Y29289D01*
X2252Y29220D01*
X2256Y29217D01*
X2243Y29141D01*
X2173Y29103D01*
X2128Y29133D01*
X2047Y29149D01*
X1966Y29133D01*
X1909Y29095D01*
X1793D01*
Y29371D01*
X1278D01*
Y28818D01*
X1593D01*
X1632Y28791D01*
X1693Y28779D01*
X1909D01*
X1966Y28741D01*
X2047Y28725D01*
X2128Y28741D01*
X2185Y28779D01*
X2185D01*
X2242Y28741D01*
X2323Y28725D01*
X2404Y28741D01*
X2473Y28787D01*
X2519Y28856D01*
X2535Y28937D01*
X2519Y29018D01*
X2473Y29087D01*
X2468Y29090D01*
X2481Y29166D01*
X2552Y29204D01*
X2596Y29174D01*
X2677Y29158D01*
X2758Y29174D01*
X2815Y29212D01*
X2848D01*
X2932Y29128D01*
Y28818D01*
X3446D01*
Y29371D01*
X3136D01*
X3025Y29482D01*
X2974Y29516D01*
X2913Y29528D01*
X2815D01*
X2758Y29566D01*
X2677Y29582D01*
D02*
G37*
G36*
X3800Y30060D02*
X3267D01*
X3168Y29961D01*
Y29763D01*
X3267Y29664D01*
X3695D01*
X3740Y29620D01*
Y29371D01*
X3562D01*
Y28818D01*
X4076D01*
Y29371D01*
X4056D01*
Y29685D01*
X4044Y29746D01*
X4009Y29797D01*
X3899Y29907D01*
Y29961D01*
X3800Y30060D01*
D02*
G37*
G36*
X14293Y31635D02*
X13739D01*
Y31536D01*
X13584D01*
Y31635D01*
X13030D01*
Y31121D01*
X13584D01*
Y31220D01*
X13739D01*
Y31121D01*
X13739D01*
X13760Y31070D01*
X13675Y30986D01*
X13562D01*
X13463Y30886D01*
Y30354D01*
X13562Y30255D01*
X13760D01*
X13860Y30354D01*
Y30723D01*
X14128Y30991D01*
X14162Y31042D01*
X14174Y31102D01*
Y31121D01*
X14293D01*
Y31635D01*
D02*
G37*
G36*
X16497Y31596D02*
X15944D01*
Y31497D01*
X15789D01*
Y31596D01*
X15235D01*
Y31081D01*
X15403D01*
Y30395D01*
X15295D01*
X15196Y30296D01*
Y30098D01*
X15295Y29999D01*
X15827D01*
X15926Y30098D01*
Y30296D01*
X15827Y30395D01*
X15719D01*
Y31081D01*
X15789D01*
Y31181D01*
X15944D01*
Y31081D01*
X16497D01*
Y31596D01*
D02*
G37*
G36*
X16605Y30789D02*
X16379D01*
Y30621D01*
X16714D01*
Y30680D01*
X16605Y30789D01*
D02*
G37*
G36*
X16279D02*
X16052D01*
X15943Y30680D01*
Y30621D01*
X16279D01*
Y30789D01*
D02*
G37*
G36*
X16714Y30521D02*
X16379D01*
Y30353D01*
X16605D01*
X16714Y30462D01*
Y30521D01*
D02*
G37*
G36*
X16279D02*
X15943D01*
Y30462D01*
X16052Y30353D01*
X16279D01*
Y30521D01*
D02*
G37*
G36*
X14144Y30238D02*
X14085D01*
Y29902D01*
X14254D01*
Y30129D01*
X14144Y30238D01*
D02*
G37*
G36*
X13985D02*
X13926D01*
X13817Y30129D01*
Y29902D01*
X13985D01*
Y30238D01*
D02*
G37*
G36*
X15236Y29582D02*
X15221Y29579D01*
X14976D01*
X14961Y29582D01*
X14879Y29566D01*
X14811Y29520D01*
X14765Y29451D01*
X14749Y29370D01*
X14765Y29289D01*
X14807Y29226D01*
X14800Y29196D01*
X14778Y29146D01*
X14621D01*
X14606Y29149D01*
X14525Y29133D01*
X14469Y29095D01*
X14352D01*
Y29371D01*
X13837D01*
Y28818D01*
X14152D01*
X14191Y28791D01*
X14252Y28779D01*
X14469D01*
X14525Y28741D01*
X14606Y28725D01*
X14621Y28728D01*
X14867D01*
X14882Y28725D01*
X14963Y28741D01*
X15032Y28787D01*
X15078Y28856D01*
X15094Y28937D01*
X15078Y29018D01*
X15036Y29081D01*
X15043Y29111D01*
X15065Y29161D01*
X15221D01*
X15236Y29158D01*
X15317Y29174D01*
X15374Y29212D01*
X15407D01*
X15491Y29128D01*
Y28818D01*
X16005D01*
Y29371D01*
X15695D01*
X15584Y29482D01*
X15533Y29516D01*
X15472Y29528D01*
X15374D01*
X15317Y29566D01*
X15236Y29582D01*
D02*
G37*
G36*
X14254Y29802D02*
X14085D01*
Y29467D01*
X14144D01*
X14254Y29576D01*
Y29802D01*
D02*
G37*
G36*
X13985D02*
X13817D01*
Y29576D01*
X13926Y29467D01*
X13985D01*
Y29802D01*
D02*
G37*
G36*
X16595Y30021D02*
X16062D01*
X15963Y29922D01*
Y29724D01*
X16062Y29625D01*
X16220D01*
Y29371D01*
X16121D01*
Y28818D01*
X16635D01*
Y29371D01*
X16536D01*
Y29625D01*
X16595D01*
X16694Y29724D01*
Y29922D01*
X16595Y30021D01*
D02*
G37*
G36*
X13386Y30218D02*
X13188D01*
X13089Y30119D01*
Y29586D01*
X13129Y29546D01*
Y29311D01*
X13141Y29251D01*
X13176Y29199D01*
X13207Y29168D01*
Y28818D01*
X13722D01*
Y29371D01*
X13451D01*
X13445Y29376D01*
Y29546D01*
X13486Y29586D01*
Y30119D01*
X13386Y30218D01*
D02*
G37*
G36*
X10024Y38945D02*
X9926Y38933D01*
X9834Y38895D01*
X9756Y38835D01*
X9696Y38756D01*
X9658Y38665D01*
X9645Y38567D01*
X9658Y38469D01*
X9696Y38378D01*
X9756Y38299D01*
X9834Y38239D01*
X9926Y38201D01*
X10024Y38188D01*
X10122Y38201D01*
X10213Y38239D01*
X10291Y38299D01*
X10351Y38378D01*
X10389Y38469D01*
X10402Y38567D01*
X10389Y38665D01*
X10351Y38756D01*
X10291Y38835D01*
X10213Y38895D01*
X10122Y38933D01*
X10024Y38945D01*
D02*
G37*
G36*
X8024D02*
X7926Y38933D01*
X7834Y38895D01*
X7756Y38835D01*
X7696Y38756D01*
X7658Y38665D01*
X7645Y38567D01*
X7658Y38469D01*
X7696Y38378D01*
X7756Y38299D01*
X7834Y38239D01*
X7926Y38201D01*
X8024Y38188D01*
X8122Y38201D01*
X8213Y38239D01*
X8291Y38299D01*
X8351Y38378D01*
X8389Y38469D01*
X8402Y38567D01*
X8389Y38665D01*
X8351Y38756D01*
X8291Y38835D01*
X8213Y38895D01*
X8122Y38933D01*
X8024Y38945D01*
D02*
G37*
G36*
X6024D02*
X5926Y38933D01*
X5834Y38895D01*
X5756Y38835D01*
X5696Y38756D01*
X5658Y38665D01*
X5645Y38567D01*
X5658Y38469D01*
X5696Y38378D01*
X5756Y38299D01*
X5834Y38239D01*
X5926Y38201D01*
X6024Y38188D01*
X6122Y38201D01*
X6213Y38239D01*
X6291Y38299D01*
X6351Y38378D01*
X6389Y38469D01*
X6402Y38567D01*
X6389Y38665D01*
X6351Y38756D01*
X6291Y38835D01*
X6213Y38895D01*
X6122Y38933D01*
X6024Y38945D01*
D02*
G37*
G36*
X9024D02*
X8926Y38933D01*
X8834Y38895D01*
X8756Y38835D01*
X8696Y38756D01*
X8658Y38665D01*
X8645Y38567D01*
X8658Y38469D01*
X8696Y38378D01*
X8756Y38299D01*
X8834Y38239D01*
X8865Y38227D01*
Y38052D01*
X8778D01*
Y37538D01*
X9332D01*
Y38052D01*
X9181D01*
Y38226D01*
X9213Y38239D01*
X9291Y38299D01*
X9351Y38378D01*
X9389Y38469D01*
X9402Y38567D01*
X9389Y38665D01*
X9351Y38756D01*
X9291Y38835D01*
X9213Y38895D01*
X9122Y38933D01*
X9024Y38945D01*
D02*
G37*
G36*
X7024D02*
X6926Y38933D01*
X6834Y38895D01*
X6756Y38835D01*
X6696Y38756D01*
X6658Y38665D01*
X6645Y38567D01*
X6658Y38469D01*
X6696Y38378D01*
X6756Y38299D01*
X6834Y38239D01*
X6865Y38227D01*
Y38052D01*
X6770D01*
Y37538D01*
X7324D01*
Y38052D01*
X7181D01*
Y38226D01*
X7213Y38239D01*
X7291Y38299D01*
X7351Y38378D01*
X7389Y38469D01*
X7402Y38567D01*
X7389Y38665D01*
X7351Y38756D01*
X7291Y38835D01*
X7213Y38895D01*
X7122Y38933D01*
X7024Y38945D01*
D02*
G37*
G36*
X11024D02*
X10926Y38933D01*
X10834Y38895D01*
X10756Y38835D01*
X10696Y38756D01*
X10658Y38665D01*
X10645Y38567D01*
X10658Y38469D01*
X10696Y38378D01*
X10756Y38299D01*
X10834Y38239D01*
X10865Y38227D01*
Y38013D01*
X10747D01*
Y37499D01*
X11300D01*
Y38013D01*
X11181D01*
Y38226D01*
X11213Y38239D01*
X11291Y38299D01*
X11351Y38378D01*
X11389Y38469D01*
X11402Y38567D01*
X11389Y38665D01*
X11351Y38756D01*
X11291Y38835D01*
X11213Y38895D01*
X11122Y38933D01*
X11024Y38945D01*
D02*
G37*
G36*
X14293Y36911D02*
X13739D01*
Y36811D01*
X13584D01*
Y36911D01*
X13030D01*
Y36396D01*
X13584D01*
Y36495D01*
X13739D01*
Y36396D01*
X13739D01*
X13760Y36346D01*
X13675Y36261D01*
X13562D01*
X13463Y36162D01*
Y35629D01*
X13562Y35530D01*
X13760D01*
X13860Y35629D01*
Y35999D01*
X14127Y36266D01*
X14161Y36317D01*
X14173Y36377D01*
Y36396D01*
X14293D01*
Y36911D01*
D02*
G37*
G36*
X16497Y36871D02*
X15944D01*
Y36772D01*
X15789D01*
Y36871D01*
X15235D01*
Y36357D01*
X15402D01*
Y35671D01*
X15295D01*
X15196Y35571D01*
Y35373D01*
X15295Y35274D01*
X15827D01*
X15926Y35373D01*
Y35571D01*
X15827Y35671D01*
X15718D01*
Y36357D01*
X15789D01*
Y36456D01*
X15944D01*
Y36357D01*
X16497D01*
Y36871D01*
D02*
G37*
G36*
X3781D02*
X3227D01*
Y36772D01*
X3072D01*
Y36871D01*
X2518D01*
Y36357D01*
X2607D01*
Y35710D01*
X2499D01*
X2400Y35611D01*
Y35413D01*
X2499Y35314D01*
X3032D01*
X3131Y35413D01*
Y35611D01*
X3032Y35710D01*
X2923D01*
Y36357D01*
X3072D01*
Y36456D01*
X3227D01*
Y36357D01*
X3781D01*
Y36871D01*
D02*
G37*
G36*
X21654Y38154D02*
X21507Y38140D01*
X21365Y38097D01*
X21235Y38028D01*
X21121Y37934D01*
X21028Y37820D01*
X20958Y37690D01*
X20915Y37548D01*
X20901Y37402D01*
X20915Y37255D01*
X20958Y37113D01*
X21028Y36983D01*
X21121Y36869D01*
X21235Y36776D01*
X21365Y36706D01*
X21507Y36663D01*
X21654Y36649D01*
X21800Y36663D01*
X21942Y36706D01*
X22072Y36776D01*
X22186Y36869D01*
X22280Y36983D01*
X22349Y37113D01*
X22392Y37255D01*
X22406Y37402D01*
X22392Y37548D01*
X22349Y37690D01*
X22280Y37820D01*
X22186Y37934D01*
X22072Y38028D01*
X21942Y38097D01*
X21800Y38140D01*
X21654Y38154D01*
D02*
G37*
G36*
X3810Y36104D02*
X3583D01*
Y35936D01*
X3919D01*
Y35995D01*
X3810Y36104D01*
D02*
G37*
G36*
X3483D02*
X3257D01*
X3148Y35995D01*
Y35936D01*
X3483D01*
Y36104D01*
D02*
G37*
G36*
X2196D02*
X1969D01*
Y35936D01*
X2305D01*
Y35995D01*
X2196Y36104D01*
D02*
G37*
G36*
X1869D02*
X1643D01*
X1534Y35995D01*
Y35936D01*
X1869D01*
Y36104D01*
D02*
G37*
G36*
X16605Y36065D02*
X16379D01*
Y35896D01*
X16714D01*
Y35956D01*
X16605Y36065D01*
D02*
G37*
G36*
X16279D02*
X16052D01*
X15943Y35956D01*
Y35896D01*
X16279D01*
Y36065D01*
D02*
G37*
G36*
X3919Y35836D02*
X3583D01*
Y35668D01*
X3810D01*
X3919Y35777D01*
Y35836D01*
D02*
G37*
G36*
X3483D02*
X3148D01*
Y35777D01*
X3257Y35668D01*
X3483D01*
Y35836D01*
D02*
G37*
G36*
X2305Y35836D02*
X1969D01*
Y35668D01*
X2196D01*
X2305Y35777D01*
Y35836D01*
D02*
G37*
G36*
X1869D02*
X1534D01*
Y35777D01*
X1643Y35668D01*
X1869D01*
Y35836D01*
D02*
G37*
G36*
X16714Y35796D02*
X16379D01*
Y35628D01*
X16605D01*
X16714Y35737D01*
Y35796D01*
D02*
G37*
G36*
X16279D02*
X15943D01*
Y35737D01*
X16052Y35628D01*
X16279D01*
Y35796D01*
D02*
G37*
G36*
X14144Y35513D02*
X14085D01*
Y35178D01*
X14254D01*
Y35404D01*
X14144Y35513D01*
D02*
G37*
G36*
X13985D02*
X13926D01*
X13817Y35404D01*
Y35178D01*
X13985D01*
Y35513D01*
D02*
G37*
G36*
X15235Y34857D02*
X15220Y34854D01*
X14975D01*
X14960Y34857D01*
X14879Y34841D01*
X14810Y34795D01*
X14764Y34726D01*
X14748Y34645D01*
X14764Y34564D01*
X14806Y34501D01*
X14799Y34471D01*
X14777Y34421D01*
X14621D01*
X14605Y34424D01*
X14524Y34408D01*
X14468Y34370D01*
X14352D01*
Y34647D01*
X13837D01*
Y34093D01*
X14150D01*
X14191Y34066D01*
X14251Y34054D01*
X14468D01*
X14524Y34016D01*
X14605Y34000D01*
X14621Y34003D01*
X14866D01*
X14881Y34000D01*
X14962Y34016D01*
X15031Y34062D01*
X15077Y34131D01*
X15093Y34212D01*
X15077Y34293D01*
X15035Y34356D01*
X15042Y34386D01*
X15064Y34436D01*
X15220D01*
X15235Y34433D01*
X15317Y34449D01*
X15373Y34487D01*
X15406D01*
X15491Y34402D01*
Y34093D01*
X16005D01*
Y34647D01*
X15693D01*
X15583Y34757D01*
X15532Y34791D01*
X15472Y34803D01*
X15373D01*
X15317Y34841D01*
X15235Y34857D01*
D02*
G37*
G36*
X2676D02*
X2595Y34841D01*
X2539Y34803D01*
X2539D01*
X2482Y34841D01*
X2401Y34857D01*
X2320Y34841D01*
X2251Y34795D01*
X2205Y34726D01*
X2189Y34645D01*
X2205Y34564D01*
X2251Y34495D01*
X2255Y34492D01*
X2242Y34416D01*
X2172Y34378D01*
X2128Y34408D01*
X2046Y34424D01*
X1965Y34408D01*
X1909Y34370D01*
X1793D01*
Y34647D01*
X1278D01*
Y34093D01*
X1591D01*
X1632Y34066D01*
X1692Y34054D01*
X1909D01*
X1965Y34016D01*
X2046Y34000D01*
X2128Y34016D01*
X2184Y34054D01*
X2184D01*
X2241Y34016D01*
X2322Y34000D01*
X2403Y34016D01*
X2472Y34062D01*
X2518Y34131D01*
X2534Y34212D01*
X2518Y34293D01*
X2472Y34362D01*
X2468Y34365D01*
X2480Y34441D01*
X2551Y34479D01*
X2595Y34449D01*
X2676Y34433D01*
X2757Y34449D01*
X2814Y34487D01*
X2847D01*
X2932Y34402D01*
Y34093D01*
X3446D01*
Y34647D01*
X3134D01*
X3024Y34757D01*
X2973Y34791D01*
X2913Y34803D01*
X2814D01*
X2757Y34841D01*
X2676Y34857D01*
D02*
G37*
G36*
X14254Y35078D02*
X14085D01*
Y34743D01*
X14144D01*
X14254Y34852D01*
Y35078D01*
D02*
G37*
G36*
X13985D02*
X13817D01*
Y34852D01*
X13926Y34743D01*
X13985D01*
Y35078D01*
D02*
G37*
G36*
X16595Y35297D02*
X16062D01*
X15963Y35197D01*
Y34999D01*
X16062Y34900D01*
X16219D01*
Y34647D01*
X16121D01*
Y34093D01*
X16635D01*
Y34647D01*
X16535D01*
Y34900D01*
X16595D01*
X16694Y34999D01*
Y35197D01*
X16595Y35297D01*
D02*
G37*
G36*
X13386Y35493D02*
X13188D01*
X13089Y35394D01*
Y34862D01*
X13129Y34822D01*
Y34586D01*
X13141Y34526D01*
X13175Y34474D01*
X13207Y34442D01*
Y34093D01*
X13722D01*
Y34647D01*
X13449D01*
X13445Y34652D01*
Y34821D01*
X13486Y34862D01*
Y35394D01*
X13386Y35493D01*
D02*
G37*
G36*
X3800Y35336D02*
X3267D01*
X3168Y35237D01*
Y35039D01*
X3267Y34940D01*
X3694D01*
X3739Y34895D01*
Y34647D01*
X3562D01*
Y34093D01*
X4076D01*
Y34647D01*
X4055D01*
Y34960D01*
X4043Y35021D01*
X4009Y35072D01*
X3899Y35181D01*
Y35237D01*
X3800Y35336D01*
D02*
G37*
G36*
X14293Y26360D02*
X13739D01*
Y26260D01*
X13584D01*
Y26360D01*
X13030D01*
Y25845D01*
X13584D01*
Y25944D01*
X13739D01*
Y25845D01*
X13739D01*
X13760Y25794D01*
X13675Y25710D01*
X13562D01*
X13463Y25611D01*
Y25078D01*
X13562Y24979D01*
X13760D01*
X13860Y25078D01*
Y25447D01*
X14128Y25715D01*
X14162Y25766D01*
X14174Y25827D01*
Y25845D01*
X14293D01*
Y26360D01*
D02*
G37*
G36*
X16497Y26320D02*
X15944D01*
Y26221D01*
X15789D01*
Y26320D01*
X15235D01*
Y25806D01*
X15403D01*
Y25119D01*
X15295D01*
X15196Y25020D01*
Y24822D01*
X15295Y24723D01*
X15827D01*
X15926Y24822D01*
Y25020D01*
X15827Y25119D01*
X15719D01*
Y25806D01*
X15789D01*
Y25905D01*
X15944D01*
Y25806D01*
X16497D01*
Y26320D01*
D02*
G37*
G36*
X3781D02*
X3227D01*
Y26221D01*
X3072D01*
Y26320D01*
X2518D01*
Y25806D01*
X2608D01*
Y25159D01*
X2499D01*
X2400Y25060D01*
Y24862D01*
X2499Y24763D01*
X3032D01*
X3131Y24862D01*
Y25060D01*
X3032Y25159D01*
X2924D01*
Y25806D01*
X3072D01*
Y25905D01*
X3227D01*
Y25806D01*
X3781D01*
Y26320D01*
D02*
G37*
G36*
X3810Y25553D02*
X3583D01*
Y25385D01*
X3919D01*
Y25444D01*
X3810Y25553D01*
D02*
G37*
G36*
X3483D02*
X3257D01*
X3148Y25444D01*
Y25385D01*
X3483D01*
Y25553D01*
D02*
G37*
G36*
X2196D02*
X1969D01*
Y25385D01*
X2305D01*
Y25444D01*
X2196Y25553D01*
D02*
G37*
G36*
X1869D02*
X1643D01*
X1534Y25444D01*
Y25385D01*
X1869D01*
Y25553D01*
D02*
G37*
G36*
X16605Y25513D02*
X16379D01*
Y25345D01*
X16714D01*
Y25404D01*
X16605Y25513D01*
D02*
G37*
G36*
X16279D02*
X16052D01*
X15943Y25404D01*
Y25345D01*
X16279D01*
Y25513D01*
D02*
G37*
G36*
X3919Y25285D02*
X3583D01*
Y25117D01*
X3810D01*
X3919Y25226D01*
Y25285D01*
D02*
G37*
G36*
X3483D02*
X3148D01*
Y25226D01*
X3257Y25117D01*
X3483D01*
Y25285D01*
D02*
G37*
G36*
X2305Y25285D02*
X1969D01*
Y25117D01*
X2196D01*
X2305Y25226D01*
Y25285D01*
D02*
G37*
G36*
X1869D02*
X1534D01*
Y25226D01*
X1643Y25117D01*
X1869D01*
Y25285D01*
D02*
G37*
G36*
X16714Y25245D02*
X16379D01*
Y25077D01*
X16605D01*
X16714Y25186D01*
Y25245D01*
D02*
G37*
G36*
X16279D02*
X15943D01*
Y25186D01*
X16052Y25077D01*
X16279D01*
Y25245D01*
D02*
G37*
G36*
X14144Y24962D02*
X14085D01*
Y24627D01*
X14254D01*
Y24853D01*
X14144Y24962D01*
D02*
G37*
G36*
X13985D02*
X13926D01*
X13817Y24853D01*
Y24627D01*
X13985D01*
Y24962D01*
D02*
G37*
G36*
X2677Y24307D02*
X2596Y24290D01*
X2539Y24253D01*
X2539D01*
X2483Y24290D01*
X2402Y24307D01*
X2320Y24290D01*
X2252Y24244D01*
X2206Y24176D01*
X2190Y24094D01*
X2206Y24013D01*
X2252Y23945D01*
X2256Y23942D01*
X2243Y23866D01*
X2173Y23828D01*
X2128Y23857D01*
X2047Y23873D01*
X1966Y23857D01*
X1909Y23819D01*
X1793D01*
Y24096D01*
X1278D01*
Y23542D01*
X1593D01*
X1632Y23515D01*
X1693Y23503D01*
X1909D01*
X1966Y23466D01*
X2047Y23449D01*
X2128Y23466D01*
X2185Y23503D01*
X2185D01*
X2242Y23466D01*
X2323Y23449D01*
X2404Y23466D01*
X2473Y23511D01*
X2519Y23580D01*
X2535Y23661D01*
X2519Y23743D01*
X2473Y23811D01*
X2468Y23814D01*
X2481Y23890D01*
X2552Y23928D01*
X2596Y23899D01*
X2677Y23882D01*
X2758Y23899D01*
X2815Y23936D01*
X2848D01*
X2932Y23853D01*
Y23542D01*
X3446D01*
Y24096D01*
X3136D01*
X3025Y24206D01*
X2974Y24241D01*
X2913Y24253D01*
X2815D01*
X2758Y24290D01*
X2677Y24307D01*
D02*
G37*
G36*
X14254Y24527D02*
X14085D01*
Y24191D01*
X14144D01*
X14254Y24300D01*
Y24527D01*
D02*
G37*
G36*
X13985D02*
X13817D01*
Y24300D01*
X13926Y24191D01*
X13985D01*
Y24527D01*
D02*
G37*
G36*
X14606Y24149D02*
X14525Y24133D01*
X14456Y24087D01*
X14432Y24050D01*
X14352Y24074D01*
Y24096D01*
X13837D01*
Y23542D01*
X14152D01*
X14191Y23515D01*
X14252Y23503D01*
X14469D01*
X14525Y23466D01*
X14606Y23449D01*
X14687Y23466D01*
X14756Y23511D01*
X14802Y23580D01*
X14818Y23661D01*
X14815Y23677D01*
Y23922D01*
X14818Y23937D01*
X14802Y24018D01*
X14756Y24087D01*
X14687Y24133D01*
X14606Y24149D01*
D02*
G37*
G36*
X16595Y24745D02*
X16062D01*
X15963Y24646D01*
Y24448D01*
X16062Y24349D01*
X16220D01*
Y24096D01*
X16121D01*
Y23542D01*
X16635D01*
Y24096D01*
X16536D01*
Y24349D01*
X16595D01*
X16694Y24448D01*
Y24646D01*
X16595Y24745D01*
D02*
G37*
G36*
X15039Y24503D02*
X14958Y24487D01*
X14889Y24441D01*
X14843Y24372D01*
X14827Y24291D01*
X14843Y24210D01*
X14889Y24141D01*
X14902Y24133D01*
X15078Y23957D01*
X15086Y23945D01*
X15155Y23899D01*
X15236Y23882D01*
X15317Y23899D01*
X15374Y23936D01*
X15407D01*
X15491Y23853D01*
Y23542D01*
X16005D01*
Y24096D01*
X15695D01*
X15584Y24206D01*
X15533Y24241D01*
X15472Y24253D01*
X15374D01*
X15373Y24253D01*
X15198Y24428D01*
X15189Y24441D01*
X15121Y24487D01*
X15039Y24503D01*
D02*
G37*
G36*
X13386Y24942D02*
X13188D01*
X13089Y24843D01*
Y24310D01*
X13129Y24270D01*
Y24035D01*
X13141Y23975D01*
X13176Y23924D01*
X13207Y23892D01*
Y23542D01*
X13722D01*
Y24096D01*
X13451D01*
X13445Y24101D01*
Y24270D01*
X13486Y24310D01*
Y24843D01*
X13386Y24942D01*
D02*
G37*
G36*
X3800Y24785D02*
X3267D01*
X3168Y24686D01*
Y24488D01*
X3267Y24389D01*
X3695D01*
X3740Y24344D01*
Y24096D01*
X3562D01*
Y23542D01*
X4076D01*
Y24096D01*
X4056D01*
Y24409D01*
X4044Y24470D01*
X4009Y24521D01*
X3899Y24632D01*
Y24686D01*
X3800Y24785D01*
D02*
G37*
G36*
X7018Y22561D02*
X6959D01*
Y22225D01*
X7128D01*
Y22452D01*
X7018Y22561D01*
D02*
G37*
G36*
X5562D02*
X5503D01*
Y22225D01*
X5671D01*
Y22452D01*
X5562Y22561D01*
D02*
G37*
G36*
X8475D02*
X8416D01*
Y22225D01*
X8584D01*
Y22452D01*
X8475Y22561D01*
D02*
G37*
G36*
X4105D02*
X4046D01*
Y22225D01*
X4214D01*
Y22452D01*
X4105Y22561D01*
D02*
G37*
G36*
X3946D02*
X3887D01*
X3778Y22452D01*
Y22225D01*
X3946D01*
Y22561D01*
D02*
G37*
G36*
X8316D02*
X8257D01*
X8148Y22452D01*
Y22225D01*
X8316D01*
Y22561D01*
D02*
G37*
G36*
X5403D02*
X5344D01*
X5235Y22452D01*
Y22225D01*
X5403D01*
Y22561D01*
D02*
G37*
G36*
X6859D02*
X6800D01*
X6691Y22452D01*
Y22225D01*
X6859D01*
Y22561D01*
D02*
G37*
G36*
X11389Y22561D02*
X11330D01*
Y22225D01*
X11498D01*
Y22452D01*
X11389Y22561D01*
D02*
G37*
G36*
X14302D02*
X14243D01*
Y22225D01*
X14411D01*
Y22452D01*
X14302Y22561D01*
D02*
G37*
G36*
X9932D02*
X9873D01*
Y22225D01*
X10041D01*
Y22452D01*
X9932Y22561D01*
D02*
G37*
G36*
X12845D02*
X12786D01*
Y22225D01*
X12954D01*
Y22452D01*
X12845Y22561D01*
D02*
G37*
G36*
X12686D02*
X12627D01*
X12518Y22452D01*
Y22225D01*
X12686D01*
Y22561D01*
D02*
G37*
G36*
X9773D02*
X9714D01*
X9605Y22452D01*
Y22225D01*
X9773D01*
Y22561D01*
D02*
G37*
G36*
X14143D02*
X14084D01*
X13975Y22452D01*
Y22225D01*
X14143D01*
Y22561D01*
D02*
G37*
G36*
X11230D02*
X11170D01*
X11061Y22452D01*
Y22225D01*
X11230D01*
Y22561D01*
D02*
G37*
G36*
X8584Y22125D02*
X8416D01*
Y21790D01*
X8475D01*
X8584Y21899D01*
Y22125D01*
D02*
G37*
G36*
X8316D02*
X8148D01*
Y21899D01*
X8257Y21790D01*
X8316D01*
Y22125D01*
D02*
G37*
G36*
X7128D02*
X6959D01*
Y21790D01*
X7018D01*
X7128Y21899D01*
Y22125D01*
D02*
G37*
G36*
X6859D02*
X6691D01*
Y21899D01*
X6800Y21790D01*
X6859D01*
Y22125D01*
D02*
G37*
G36*
X5671D02*
X5503D01*
Y21790D01*
X5562D01*
X5671Y21899D01*
Y22125D01*
D02*
G37*
G36*
X5403D02*
X5235D01*
Y21899D01*
X5344Y21790D01*
X5403D01*
Y22125D01*
D02*
G37*
G36*
X4214D02*
X4046D01*
Y21790D01*
X4105D01*
X4214Y21899D01*
Y22125D01*
D02*
G37*
G36*
X3946D02*
X3778D01*
Y21899D01*
X3887Y21790D01*
X3946D01*
Y22125D01*
D02*
G37*
G36*
X14411Y22125D02*
X14243D01*
Y21790D01*
X14302D01*
X14411Y21899D01*
Y22125D01*
D02*
G37*
G36*
X14143D02*
X13975D01*
Y21899D01*
X14084Y21790D01*
X14143D01*
Y22125D01*
D02*
G37*
G36*
X12954D02*
X12786D01*
Y21790D01*
X12845D01*
X12954Y21899D01*
Y22125D01*
D02*
G37*
G36*
X12686D02*
X12518D01*
Y21899D01*
X12627Y21790D01*
X12686D01*
Y22125D01*
D02*
G37*
G36*
X11498D02*
X11330D01*
Y21790D01*
X11389D01*
X11498Y21899D01*
Y22125D01*
D02*
G37*
G36*
X11230D02*
X11061D01*
Y21899D01*
X11170Y21790D01*
X11230D01*
Y22125D01*
D02*
G37*
G36*
X10041D02*
X9873D01*
Y21790D01*
X9932D01*
X10041Y21899D01*
Y22125D01*
D02*
G37*
G36*
X9773D02*
X9605D01*
Y21899D01*
X9714Y21790D01*
X9773D01*
Y22125D01*
D02*
G37*
G36*
X6260Y22541D02*
X6062D01*
X5963Y22442D01*
Y21909D01*
X6003Y21869D01*
Y21694D01*
X5963D01*
Y21140D01*
X6478D01*
Y21694D01*
X6319D01*
Y21869D01*
X6360Y21909D01*
Y22442D01*
X6260Y22541D01*
D02*
G37*
G36*
X3347D02*
X3149D01*
X3050Y22442D01*
Y21909D01*
X3090Y21869D01*
Y21694D01*
X3050D01*
Y21140D01*
X3564D01*
Y21694D01*
X3406D01*
Y21869D01*
X3446Y21909D01*
Y22442D01*
X3347Y22541D01*
D02*
G37*
G36*
X16950Y20836D02*
X16625D01*
Y20579D01*
X16950D01*
Y20836D01*
D02*
G37*
G36*
X19844Y19667D02*
X19617D01*
Y19420D01*
X19844D01*
Y19667D01*
D02*
G37*
G36*
X19517D02*
X19290D01*
Y19420D01*
X19517D01*
Y19667D01*
D02*
G37*
G36*
X4450Y18690D02*
X4223D01*
Y18443D01*
X4450D01*
Y18690D01*
D02*
G37*
G36*
X18050Y17726D02*
X17725D01*
Y17607D01*
X18050D01*
Y17726D01*
D02*
G37*
G36*
X18060Y17305D02*
X17833D01*
Y17058D01*
X18060D01*
Y17305D01*
D02*
G37*
G36*
X18555Y16249D02*
X18298D01*
Y15924D01*
X18555D01*
Y16249D01*
D02*
G37*
G36*
X18198D02*
X17941D01*
Y15928D01*
X17941Y15924D01*
X17931Y15848D01*
X17924D01*
Y15513D01*
X18092D01*
Y15739D01*
X17987Y15844D01*
X17994Y15924D01*
X18198D01*
Y16249D01*
D02*
G37*
G36*
X18092Y15413D02*
X17924D01*
Y15077D01*
X17983D01*
X18092Y15186D01*
Y15413D01*
D02*
G37*
G36*
X2102Y14874D02*
X1979D01*
Y14578D01*
X2275D01*
Y14701D01*
X2102Y14874D01*
D02*
G37*
G36*
X2275Y14478D02*
X1979D01*
Y14181D01*
X2102D01*
X2275Y14355D01*
Y14478D01*
D02*
G37*
G36*
X17876Y14234D02*
X17648D01*
Y13987D01*
X17876D01*
Y14234D01*
D02*
G37*
G36*
X17548D02*
X17321D01*
Y13987D01*
X17548D01*
Y14234D01*
D02*
G37*
G36*
X17767Y13178D02*
X17511D01*
Y12853D01*
X17767D01*
Y13178D01*
D02*
G37*
G36*
X17411D02*
X17154D01*
Y12853D01*
X17411D01*
Y13178D01*
D02*
G37*
G36*
X2102Y12905D02*
X1979D01*
Y12609D01*
X2275D01*
Y12732D01*
X2102Y12905D01*
D02*
G37*
G36*
X2275Y12509D02*
X1979D01*
Y12213D01*
X2102D01*
X2275Y12386D01*
Y12509D01*
D02*
G37*
G36*
X3157Y12977D02*
X3060Y12964D01*
X2968Y12926D01*
X2890Y12866D01*
X2830Y12788D01*
X2792Y12696D01*
X2779Y12598D01*
Y12362D01*
X2792Y12264D01*
X2830Y12173D01*
X2890Y12095D01*
X2968Y12034D01*
X3060Y11997D01*
X3157Y11984D01*
X3255Y11997D01*
X3347Y12034D01*
X3425Y12095D01*
X3485Y12173D01*
X3523Y12264D01*
X3536Y12362D01*
Y12598D01*
X3523Y12696D01*
X3485Y12788D01*
X3425Y12866D01*
X3347Y12926D01*
X3255Y12964D01*
X3157Y12977D01*
D02*
G37*
G36*
X6556Y12430D02*
X6207D01*
Y11970D01*
X6261Y11977D01*
X6357Y12017D01*
X6439Y12080D01*
X6503Y12163D01*
X6543Y12259D01*
X6556Y12362D01*
Y12430D01*
D02*
G37*
G36*
X6107D02*
X5759D01*
Y12362D01*
X5772Y12259D01*
X5812Y12163D01*
X5876Y12080D01*
X5958Y12017D01*
X6054Y11977D01*
X6107Y11970D01*
Y12430D01*
D02*
G37*
G36*
X3611Y11626D02*
X3286D01*
Y11369D01*
X3611D01*
Y11626D01*
D02*
G37*
G36*
X4420Y11537D02*
Y11310D01*
X4667D01*
Y11537D01*
X4420D01*
D02*
G37*
G36*
X19292Y11202D02*
X18759D01*
X18719Y11162D01*
X18545D01*
Y11202D01*
X17991D01*
Y10688D01*
X18545D01*
Y10846D01*
X18719D01*
X18759Y10806D01*
X19292D01*
X19391Y10905D01*
Y11103D01*
X19292Y11202D01*
D02*
G37*
G36*
X3611Y11269D02*
X3286D01*
Y11012D01*
X3611D01*
Y11269D01*
D02*
G37*
G36*
X17856Y11222D02*
X17609D01*
Y10995D01*
X17856D01*
Y11222D01*
D02*
G37*
G36*
X17509D02*
X17262D01*
Y10995D01*
X17509D01*
Y11222D01*
D02*
G37*
G36*
X4667Y11210D02*
X4420D01*
Y10983D01*
X4667D01*
Y11210D01*
D02*
G37*
G36*
X4037Y11626D02*
X3711D01*
Y11319D01*
Y11012D01*
X4005Y11012D01*
X4073Y10983D01*
X4105Y10983D01*
X4320D01*
Y11260D01*
Y11537D01*
X4117D01*
X4073Y11537D01*
X4037Y11602D01*
Y11626D01*
D02*
G37*
G36*
X21654Y12092D02*
X21425Y12074D01*
X21202Y12021D01*
X20990Y11933D01*
X20794Y11813D01*
X20619Y11664D01*
X20470Y11490D01*
X20350Y11294D01*
X20263Y11082D01*
X20209Y10859D01*
X20204Y10788D01*
X20100D01*
X20060Y10828D01*
X19527D01*
X19428Y10729D01*
Y10531D01*
X19527Y10432D01*
X20060D01*
X20100Y10472D01*
X20204D01*
X20209Y10401D01*
X20263Y10178D01*
X20350Y9966D01*
X20470Y9770D01*
X20619Y9596D01*
X20794Y9447D01*
X20990Y9327D01*
X21202Y9239D01*
X21425Y9185D01*
X21654Y9167D01*
X21882Y9185D01*
X22105Y9239D01*
X22317Y9327D01*
X22513Y9447D01*
X22688Y9596D01*
X22837Y9770D01*
X22957Y9966D01*
X23044Y10178D01*
X23098Y10401D01*
X23116Y10630D01*
X23098Y10859D01*
X23044Y11082D01*
X22957Y11294D01*
X22837Y11490D01*
X22688Y11664D01*
X22513Y11813D01*
X22317Y11933D01*
X22105Y12021D01*
X21882Y12074D01*
X21654Y12092D01*
D02*
G37*
G36*
X5846Y10895D02*
X5510D01*
Y10836D01*
X5619Y10727D01*
X5846D01*
Y10895D01*
D02*
G37*
G36*
X17856Y10895D02*
X17609D01*
Y10668D01*
X17856D01*
Y10895D01*
D02*
G37*
G36*
X6281Y10895D02*
X5946D01*
Y10727D01*
X6172D01*
X6277Y10831D01*
X6357Y10825D01*
Y10621D01*
X6682D01*
Y10878D01*
X6361D01*
X6357Y10878D01*
X6281Y10888D01*
Y10895D01*
D02*
G37*
G36*
X19302Y10474D02*
X19076D01*
Y10306D01*
X19411D01*
Y10365D01*
X19302Y10474D01*
D02*
G37*
G36*
X18976D02*
X18749D01*
X18640Y10365D01*
Y10306D01*
X18976D01*
Y10474D01*
D02*
G37*
G36*
X13357D02*
X13131D01*
Y10306D01*
X13466D01*
Y10365D01*
X13357Y10474D01*
D02*
G37*
G36*
X19411Y10206D02*
X19076D01*
Y10038D01*
X19302D01*
X19411Y10147D01*
Y10206D01*
D02*
G37*
G36*
X18976D02*
X18640D01*
Y10147D01*
X18749Y10038D01*
X18976D01*
Y10206D01*
D02*
G37*
G36*
X13466Y10206D02*
X13131D01*
Y10038D01*
X13357D01*
X13466Y10147D01*
Y10206D01*
D02*
G37*
G36*
X13031D02*
X12695D01*
Y10147D01*
X12804Y10038D01*
X13031D01*
Y10206D01*
D02*
G37*
G36*
X14863Y11261D02*
X14349D01*
Y11024D01*
X14252D01*
X14191Y11012D01*
X14140Y10978D01*
X13990Y10828D01*
X13582D01*
X13483Y10729D01*
Y10531D01*
X13582Y10432D01*
X14115D01*
X14214Y10531D01*
Y10605D01*
X14283Y10674D01*
X14349Y10707D01*
X14448D01*
Y10552D01*
X14349D01*
Y9999D01*
X14863D01*
Y10552D01*
X14764D01*
Y10707D01*
X14863D01*
Y11261D01*
D02*
G37*
G36*
X5965Y9434D02*
X5601D01*
Y8869D01*
X6574D01*
X6568Y8939D01*
X6533Y9054D01*
X6476Y9160D01*
X6399Y9254D01*
X6306Y9330D01*
X6200Y9387D01*
X6084Y9422D01*
X5965Y9434D01*
D02*
G37*
G36*
X5501D02*
X5138D01*
X5018Y9422D01*
X4903Y9387D01*
X4796Y9330D01*
X4703Y9254D01*
X4627Y9160D01*
X4570Y9054D01*
X4535Y8939D01*
X4528Y8869D01*
X5501D01*
Y9434D01*
D02*
G37*
G36*
X6574Y8769D02*
X5601D01*
Y8204D01*
X5965D01*
X6084Y8216D01*
X6200Y8251D01*
X6306Y8308D01*
X6399Y8384D01*
X6476Y8477D01*
X6533Y8584D01*
X6568Y8699D01*
X6574Y8769D01*
D02*
G37*
G36*
X5501D02*
X4528D01*
X4535Y8699D01*
X4570Y8584D01*
X4627Y8477D01*
X4703Y8384D01*
X4796Y8308D01*
X4903Y8251D01*
X5018Y8216D01*
X5138Y8204D01*
X5501D01*
Y8769D01*
D02*
G37*
G36*
X11378Y10645D02*
X11297Y10629D01*
X11228Y10583D01*
X11182Y10514D01*
X11167Y10438D01*
X11158Y10415D01*
X11120Y10377D01*
X11097Y10368D01*
X11021Y10353D01*
X10952Y10307D01*
X10906Y10239D01*
X10891Y10163D01*
X10883Y10139D01*
X10845Y10101D01*
X10822Y10093D01*
X10746Y10078D01*
X10677Y10032D01*
X10631Y9963D01*
X10615Y9882D01*
X10631Y9801D01*
X10677Y9732D01*
X10690Y9723D01*
X10865Y9548D01*
X10874Y9535D01*
X10942Y9489D01*
X10944Y9489D01*
Y8176D01*
X10486Y7717D01*
X9568D01*
Y7816D01*
X9449D01*
Y7932D01*
X9568D01*
Y7932D01*
X9644D01*
Y7932D01*
X10198D01*
Y7995D01*
X10315D01*
X10389Y8010D01*
X10452Y8052D01*
X10688Y8288D01*
X10730Y8351D01*
X10745Y8425D01*
Y8813D01*
X10747Y8816D01*
X10763Y8898D01*
X10747Y8979D01*
X10701Y9048D01*
X10688Y9056D01*
X10513Y9232D01*
X10504Y9244D01*
X10491Y9253D01*
X10316Y9428D01*
X10307Y9441D01*
X10239Y9487D01*
X10157Y9503D01*
X10076Y9487D01*
X10073Y9485D01*
X8819D01*
X8745Y9470D01*
X8682Y9428D01*
X6337Y7083D01*
X4450D01*
Y7147D01*
X3896D01*
Y7147D01*
X3820Y7147D01*
Y7147D01*
X3266D01*
Y6633D01*
X3385D01*
Y6517D01*
X3266D01*
Y6003D01*
X3820D01*
Y6102D01*
X6116D01*
X8510Y3707D01*
X8562Y3673D01*
X8622Y3661D01*
X10394D01*
X10454Y3673D01*
X10505Y3707D01*
X11844Y5046D01*
X11878Y5097D01*
X11890Y5157D01*
Y10079D01*
X11878Y10139D01*
X11844Y10190D01*
X11784Y10251D01*
X11771Y10317D01*
X11725Y10386D01*
X11712Y10395D01*
X11536Y10570D01*
X11528Y10583D01*
X11459Y10629D01*
X11378Y10645D01*
D02*
G37*
G36*
X2795Y7987D02*
X2695Y7974D01*
X2601Y7935D01*
X2521Y7873D01*
X2459Y7793D01*
X2420Y7699D01*
X2407Y7598D01*
X2420Y7498D01*
X2459Y7404D01*
X2521Y7324D01*
X2601Y7262D01*
X2695Y7223D01*
X2795Y7210D01*
X2896Y7223D01*
X2989Y7262D01*
X3070Y7324D01*
X3132Y7404D01*
X3147Y7440D01*
X3266D01*
Y7263D01*
X3820D01*
Y7263D01*
X3896Y7263D01*
Y7263D01*
X4450D01*
Y7777D01*
X3896D01*
Y7777D01*
X3820Y7777D01*
Y7777D01*
X3266D01*
Y7756D01*
X3147D01*
X3132Y7793D01*
X3070Y7873D01*
X2989Y7935D01*
X2896Y7974D01*
X2795Y7987D01*
D02*
G37*
G36*
X1476Y7824D02*
X837D01*
Y7185D01*
X923Y7193D01*
X1053Y7233D01*
X1173Y7297D01*
X1278Y7383D01*
X1364Y7489D01*
X1428Y7608D01*
X1468Y7739D01*
X1476Y7824D01*
D02*
G37*
G36*
X21704Y8171D02*
Y6743D01*
X23132D01*
X23118Y6925D01*
X23064Y7151D01*
X22974Y7366D01*
X22853Y7564D01*
X22702Y7741D01*
X22525Y7892D01*
X22327Y8014D01*
X22112Y8103D01*
X21885Y8157D01*
X21704Y8171D01*
D02*
G37*
G36*
X21604Y8171D02*
X21422Y8157D01*
X21195Y8103D01*
X20980Y8014D01*
X20782Y7892D01*
X20605Y7741D01*
X20454Y7564D01*
X20333Y7366D01*
X20244Y7151D01*
X20189Y6925D01*
X20175Y6743D01*
X21604D01*
Y8171D01*
D02*
G37*
G36*
X3840Y5907D02*
X3593D01*
Y5680D01*
X3840D01*
Y5907D01*
D02*
G37*
G36*
X2745Y6032D02*
X2690Y6025D01*
X2591Y5984D01*
X2506Y5919D01*
X2441Y5834D01*
X2401Y5736D01*
X2393Y5680D01*
X2745D01*
Y6032D01*
D02*
G37*
G36*
X3840Y5580D02*
X3593D01*
Y5353D01*
X3840D01*
Y5580D01*
D02*
G37*
G36*
X2845Y6032D02*
Y5630D01*
Y5228D01*
X2901Y5235D01*
X3000Y5276D01*
X3084Y5341D01*
X3149Y5426D01*
X3166Y5467D01*
X3246Y5451D01*
Y5353D01*
X3493D01*
Y5630D01*
Y5907D01*
X3246D01*
Y5808D01*
X3166Y5792D01*
X3149Y5834D01*
X3084Y5919D01*
X3000Y5984D01*
X2901Y6025D01*
X2845Y6032D01*
D02*
G37*
G36*
X2745Y5580D02*
X2393D01*
X2401Y5524D01*
X2441Y5426D01*
X2506Y5341D01*
X2591Y5276D01*
X2690Y5235D01*
X2745Y5228D01*
Y5580D01*
D02*
G37*
G36*
X23132Y6643D02*
X21704D01*
Y5214D01*
X21885Y5229D01*
X22112Y5283D01*
X22327Y5372D01*
X22525Y5494D01*
X22702Y5645D01*
X22853Y5822D01*
X22974Y6020D01*
X23064Y6235D01*
X23118Y6461D01*
X23132Y6643D01*
D02*
G37*
G36*
X21604D02*
X20175D01*
X20189Y6461D01*
X20244Y6235D01*
X20333Y6020D01*
X20454Y5822D01*
X20605Y5645D01*
X20782Y5494D01*
X20980Y5372D01*
X21195Y5283D01*
X21422Y5229D01*
X21604Y5214D01*
Y6643D01*
D02*
G37*
G36*
X5965Y5024D02*
X5601D01*
Y4459D01*
X6574D01*
X6568Y4529D01*
X6533Y4645D01*
X6476Y4751D01*
X6399Y4844D01*
X6306Y4921D01*
X6200Y4977D01*
X6084Y5012D01*
X5965Y5024D01*
D02*
G37*
G36*
X5501D02*
X5138D01*
X5018Y5012D01*
X4903Y4977D01*
X4796Y4921D01*
X4703Y4844D01*
X4627Y4751D01*
X4570Y4645D01*
X4535Y4529D01*
X4528Y4459D01*
X5501D01*
Y5024D01*
D02*
G37*
G36*
X6574Y4359D02*
X5601D01*
Y3795D01*
X5965D01*
X6084Y3806D01*
X6200Y3841D01*
X6306Y3898D01*
X6399Y3975D01*
X6476Y4068D01*
X6533Y4174D01*
X6568Y4290D01*
X6574Y4359D01*
D02*
G37*
G36*
X5501D02*
X4528D01*
X4535Y4290D01*
X4570Y4174D01*
X4627Y4068D01*
X4703Y3975D01*
X4796Y3898D01*
X4903Y3841D01*
X5018Y3806D01*
X5138Y3795D01*
X5501D01*
Y4359D01*
D02*
G37*
G36*
X21654Y2721D02*
X21507Y2707D01*
X21365Y2664D01*
X21235Y2595D01*
X21121Y2501D01*
X21028Y2387D01*
X20958Y2257D01*
X20915Y2115D01*
X20901Y1969D01*
X20915Y1822D01*
X20958Y1680D01*
X21028Y1550D01*
X21121Y1436D01*
X21235Y1342D01*
X21365Y1273D01*
X21507Y1230D01*
X21654Y1216D01*
X21800Y1230D01*
X21942Y1273D01*
X22072Y1342D01*
X22186Y1436D01*
X22280Y1550D01*
X22349Y1680D01*
X22392Y1822D01*
X22406Y1969D01*
X22392Y2115D01*
X22349Y2257D01*
X22280Y2387D01*
X22186Y2501D01*
X22072Y2595D01*
X21942Y2664D01*
X21800Y2707D01*
X21654Y2721D01*
D02*
G37*
G36*
X1969D02*
X1822Y2707D01*
X1680Y2664D01*
X1550Y2595D01*
X1436Y2501D01*
X1342Y2387D01*
X1273Y2257D01*
X1230Y2115D01*
X1216Y1969D01*
X1230Y1822D01*
X1273Y1680D01*
X1342Y1550D01*
X1436Y1436D01*
X1550Y1342D01*
X1680Y1273D01*
X1822Y1230D01*
X1969Y1216D01*
X2115Y1230D01*
X2257Y1273D01*
X2387Y1342D01*
X2501Y1436D01*
X2595Y1550D01*
X2664Y1680D01*
X2707Y1822D01*
X2721Y1969D01*
X2707Y2115D01*
X2664Y2257D01*
X2595Y2387D01*
X2501Y2501D01*
X2387Y2595D01*
X2257Y2664D01*
X2115Y2707D01*
X1969Y2721D01*
D02*
G37*
%LPD*%
G36*
X10357Y8796D02*
Y8505D01*
X10278Y8426D01*
X10198Y8446D01*
Y8446D01*
X9644D01*
Y8446D01*
X9568D01*
Y8446D01*
X9014D01*
Y7932D01*
X9133D01*
Y7816D01*
X9014D01*
Y7302D01*
X9568D01*
Y7401D01*
X10551D01*
X10612Y7413D01*
X10663Y7447D01*
X11179Y7964D01*
X11259Y7931D01*
Y6168D01*
X10919Y5827D01*
X9568D01*
Y5926D01*
X9014D01*
Y5412D01*
X9133D01*
Y5297D01*
X9014D01*
Y4782D01*
X9568D01*
Y4782D01*
X9644D01*
Y4782D01*
X10198D01*
Y4870D01*
X10536D01*
X10551Y4867D01*
X10632Y4883D01*
X10701Y4929D01*
X10747Y4998D01*
X10763Y5079D01*
X10760Y5094D01*
Y5339D01*
X10763Y5354D01*
X10748Y5431D01*
X10748Y5437D01*
X10793Y5511D01*
X10984D01*
X11045Y5523D01*
X11096Y5558D01*
X11494Y5956D01*
X11574Y5923D01*
Y5223D01*
X10328Y3977D01*
X8688D01*
X6293Y6372D01*
X6242Y6406D01*
X6201Y6444D01*
Y6693D01*
X6202Y6696D01*
X6417D01*
X6491Y6711D01*
X6554Y6753D01*
X8266Y8464D01*
X8346Y8431D01*
Y7984D01*
X8119D01*
Y7213D01*
X8889D01*
Y7984D01*
X8662D01*
Y8399D01*
X8924Y8661D01*
X9014D01*
Y8562D01*
X9568D01*
Y8562D01*
X9644D01*
Y8562D01*
X10198D01*
Y8842D01*
X10278Y8875D01*
X10357Y8796D01*
D02*
G37*
%LPC*%
G36*
X9588Y7206D02*
X9341D01*
Y6979D01*
X9588D01*
Y7206D01*
D02*
G37*
G36*
X9241D02*
X8994D01*
Y6979D01*
X9241D01*
Y7206D01*
D02*
G37*
G36*
X8554Y7016D02*
Y6664D01*
X8906D01*
X8899Y6720D01*
X8858Y6818D01*
X8793Y6903D01*
X8708Y6968D01*
X8610Y7009D01*
X8554Y7016D01*
D02*
G37*
G36*
X8454Y7016D02*
X8398Y7009D01*
X8300Y6968D01*
X8215Y6903D01*
X8150Y6818D01*
X8109Y6720D01*
X8102Y6664D01*
X8454D01*
Y7016D01*
D02*
G37*
G36*
X9588Y6879D02*
X9291D01*
X8994D01*
Y6656D01*
X8994Y6652D01*
Y6576D01*
X8994Y6572D01*
Y6349D01*
X9291D01*
X9588D01*
Y6572D01*
X9588Y6576D01*
Y6652D01*
X9588Y6656D01*
Y6879D01*
D02*
G37*
G36*
X8906Y6564D02*
X8554D01*
Y6212D01*
X8610Y6219D01*
X8708Y6260D01*
X8793Y6325D01*
X8858Y6410D01*
X8899Y6508D01*
X8906Y6564D01*
D02*
G37*
G36*
X8454D02*
X8102D01*
X8109Y6508D01*
X8150Y6410D01*
X8215Y6325D01*
X8300Y6260D01*
X8398Y6219D01*
X8454Y6212D01*
Y6564D01*
D02*
G37*
G36*
X9588Y6249D02*
X9341D01*
Y6022D01*
X9588D01*
Y6249D01*
D02*
G37*
G36*
X9241D02*
X8994D01*
Y6022D01*
X9241D01*
Y6249D01*
D02*
G37*
G36*
X8504Y6018D02*
X8403Y6005D01*
X8310Y5966D01*
X8229Y5905D01*
X8168Y5824D01*
X8129Y5730D01*
X8116Y5630D01*
X8129Y5529D01*
X8168Y5436D01*
X8229Y5355D01*
X8310Y5294D01*
X8346Y5279D01*
Y4764D01*
X8358Y4703D01*
X8392Y4652D01*
X8747Y4298D01*
X8798Y4263D01*
X8858Y4251D01*
X9014D01*
Y4152D01*
X9568D01*
Y4152D01*
X9644D01*
Y4152D01*
X10198D01*
Y4667D01*
X9644D01*
Y4667D01*
X9568D01*
Y4667D01*
X9014D01*
Y4567D01*
X8924D01*
X8662Y4829D01*
Y5279D01*
X8698Y5294D01*
X8779Y5355D01*
X8840Y5436D01*
X8879Y5529D01*
X8892Y5630D01*
X8879Y5730D01*
X8840Y5824D01*
X8779Y5905D01*
X8698Y5966D01*
X8604Y6005D01*
X8504Y6018D01*
D02*
G37*
G36*
X15787Y17726D02*
X15461D01*
Y17607D01*
X15787D01*
Y17726D01*
D02*
G37*
G36*
X10100Y11970D02*
X9853D01*
Y11743D01*
X10100D01*
Y11970D01*
D02*
G37*
G36*
X1103Y15395D02*
X629D01*
X392Y15158D01*
Y14684D01*
X629Y14448D01*
X1103D01*
X1340Y14684D01*
Y15158D01*
X1103Y15395D01*
D02*
G37*
G36*
Y12639D02*
X629D01*
X392Y12402D01*
Y11928D01*
X629Y11692D01*
X1103D01*
X1340Y11928D01*
Y12402D01*
X1103Y12639D01*
D02*
G37*
G36*
X837Y10236D02*
Y9597D01*
X1476D01*
X1468Y9683D01*
X1428Y9813D01*
X1364Y9933D01*
X1278Y10038D01*
X1173Y10124D01*
X1053Y10188D01*
X923Y10228D01*
X837Y10236D01*
D02*
G37*
%LPD*%
D14*
X0Y0D02*
Y39370D01*
X23622D01*
X23622Y0D01*
X0D02*
X23622D01*
D15*
X9173Y11693D02*
D03*
Y12323D02*
D03*
X9803Y11693D02*
D03*
Y12323D02*
D03*
X18268Y10315D02*
D03*
Y10945D02*
D03*
X12323Y11102D02*
D03*
Y10472D02*
D03*
X17559Y10315D02*
D03*
Y10945D02*
D03*
X1181Y26693D02*
D03*
Y26063D02*
D03*
X1890Y26693D02*
D03*
Y26063D02*
D03*
X3504Y26693D02*
D03*
Y26063D02*
D03*
X2795Y26693D02*
D03*
Y26063D02*
D03*
X7047Y27244D02*
D03*
Y26614D02*
D03*
X9055Y27244D02*
D03*
Y26614D02*
D03*
X11024Y27205D02*
D03*
Y26575D02*
D03*
X10039Y24764D02*
D03*
Y25394D02*
D03*
X16220Y26693D02*
D03*
Y26063D02*
D03*
X8031Y24764D02*
D03*
Y25394D02*
D03*
X7047Y24764D02*
D03*
Y25394D02*
D03*
X6024Y24764D02*
D03*
Y25394D02*
D03*
X15512Y26693D02*
D03*
Y26063D02*
D03*
X5000Y24764D02*
D03*
Y25394D02*
D03*
X13307Y26732D02*
D03*
Y26102D02*
D03*
X14016Y26732D02*
D03*
Y26102D02*
D03*
X1181Y31969D02*
D03*
Y31339D02*
D03*
X1890Y31969D02*
D03*
Y31339D02*
D03*
X3504Y31969D02*
D03*
Y31339D02*
D03*
X2795Y31969D02*
D03*
Y31339D02*
D03*
X7047Y32520D02*
D03*
Y31890D02*
D03*
X9055Y32520D02*
D03*
Y31890D02*
D03*
X11024Y32480D02*
D03*
Y31850D02*
D03*
X10039Y30039D02*
D03*
Y30669D02*
D03*
X16220Y31969D02*
D03*
Y31339D02*
D03*
X8031Y30039D02*
D03*
Y30669D02*
D03*
X7047Y30039D02*
D03*
Y30669D02*
D03*
X6024Y30039D02*
D03*
Y30669D02*
D03*
X15512Y31969D02*
D03*
Y31339D02*
D03*
X5000Y30039D02*
D03*
Y30669D02*
D03*
X13307Y32008D02*
D03*
Y31378D02*
D03*
X14016Y32008D02*
D03*
Y31378D02*
D03*
X1181Y37244D02*
D03*
Y36614D02*
D03*
X1890Y37244D02*
D03*
Y36614D02*
D03*
X3504Y37244D02*
D03*
Y36614D02*
D03*
X2795Y37244D02*
D03*
Y36614D02*
D03*
X7047Y37795D02*
D03*
Y37165D02*
D03*
X9055Y37795D02*
D03*
Y37165D02*
D03*
X11024Y37756D02*
D03*
Y37126D02*
D03*
X10039Y35315D02*
D03*
Y35945D02*
D03*
X16220Y37244D02*
D03*
Y36614D02*
D03*
X8031Y35315D02*
D03*
Y35945D02*
D03*
X7047Y35315D02*
D03*
Y35945D02*
D03*
X6024Y35315D02*
D03*
Y35945D02*
D03*
X15512Y37244D02*
D03*
Y36614D02*
D03*
X5000Y35315D02*
D03*
Y35945D02*
D03*
X13307Y37283D02*
D03*
Y36654D02*
D03*
X14016Y37283D02*
D03*
Y36654D02*
D03*
X19016Y18740D02*
D03*
Y18110D02*
D03*
X15866Y20748D02*
D03*
Y20118D02*
D03*
X2913Y19370D02*
D03*
Y18740D02*
D03*
X4173Y6890D02*
D03*
Y7520D02*
D03*
X9921Y8189D02*
D03*
Y8819D02*
D03*
X3543Y7520D02*
D03*
Y6890D02*
D03*
X9291Y8189D02*
D03*
Y8819D02*
D03*
X3543Y5630D02*
D03*
Y6260D02*
D03*
X9291Y6929D02*
D03*
Y7559D02*
D03*
Y5669D02*
D03*
Y6299D02*
D03*
Y5039D02*
D03*
Y4409D02*
D03*
X7441Y10630D02*
D03*
Y11260D02*
D03*
X4370Y11260D02*
D03*
Y10630D02*
D03*
X9921Y4409D02*
D03*
Y5039D02*
D03*
D16*
X14606Y10276D02*
D03*
X15236D02*
D03*
X14606Y10984D02*
D03*
X15236D02*
D03*
X19567Y16850D02*
D03*
X18937D02*
D03*
X18110Y17008D02*
D03*
X17480D02*
D03*
X17598Y13937D02*
D03*
X18228D02*
D03*
X906Y23819D02*
D03*
X1535D02*
D03*
X3819D02*
D03*
X3189D02*
D03*
X16378D02*
D03*
X15748D02*
D03*
X13465D02*
D03*
X14094D02*
D03*
X906Y29094D02*
D03*
X1535D02*
D03*
X3819D02*
D03*
X3189D02*
D03*
X16378D02*
D03*
X15748D02*
D03*
X13465D02*
D03*
X14094D02*
D03*
X906Y34370D02*
D03*
X1535D02*
D03*
X3819D02*
D03*
X3189D02*
D03*
X16378D02*
D03*
X15748D02*
D03*
X13465D02*
D03*
X14094D02*
D03*
X18937Y17480D02*
D03*
X19567D02*
D03*
X7677Y21417D02*
D03*
X8307D02*
D03*
X20276Y18110D02*
D03*
X19646D02*
D03*
X20276Y18740D02*
D03*
X19646D02*
D03*
X19567Y19370D02*
D03*
X18937D02*
D03*
X3307Y21417D02*
D03*
X3937D02*
D03*
X9134D02*
D03*
X9764D02*
D03*
X13504D02*
D03*
X14134D02*
D03*
X6220D02*
D03*
X6850D02*
D03*
X12047D02*
D03*
X12677D02*
D03*
X10591D02*
D03*
X11220D02*
D03*
X4764D02*
D03*
X5394D02*
D03*
X4173Y19370D02*
D03*
X3543D02*
D03*
X4173Y18740D02*
D03*
X3543D02*
D03*
D17*
X16033Y11004D02*
D03*
Y10256D02*
D03*
X16801Y10630D02*
D03*
X19026Y11004D02*
D03*
Y10256D02*
D03*
X19793Y10630D02*
D03*
X13081Y11004D02*
D03*
Y10256D02*
D03*
X13848Y10630D02*
D03*
X1919Y27421D02*
D03*
Y28169D02*
D03*
X1152Y27795D02*
D03*
X1919Y24587D02*
D03*
Y25335D02*
D03*
X1152Y24961D02*
D03*
X3573Y27421D02*
D03*
Y28169D02*
D03*
X2805Y27795D02*
D03*
X3533Y24587D02*
D03*
Y25335D02*
D03*
X2766Y24961D02*
D03*
X15659Y27421D02*
D03*
Y28169D02*
D03*
X14892Y27795D02*
D03*
X16329Y24547D02*
D03*
Y25295D02*
D03*
X15561Y24921D02*
D03*
X13967Y27421D02*
D03*
Y28169D02*
D03*
X13199Y27795D02*
D03*
X1919Y32697D02*
D03*
Y33445D02*
D03*
X1152Y33071D02*
D03*
X1919Y29862D02*
D03*
Y30610D02*
D03*
X1152Y30236D02*
D03*
X3573Y32697D02*
D03*
Y33445D02*
D03*
X2805Y33071D02*
D03*
X3533Y29862D02*
D03*
Y30610D02*
D03*
X2766Y30236D02*
D03*
X15659Y32697D02*
D03*
Y33445D02*
D03*
X14892Y33071D02*
D03*
X16329Y29823D02*
D03*
Y30571D02*
D03*
X15561Y30197D02*
D03*
X13967Y32697D02*
D03*
Y33445D02*
D03*
X13199Y33071D02*
D03*
X1919Y37972D02*
D03*
Y38720D02*
D03*
X1152Y38346D02*
D03*
X1919Y35138D02*
D03*
Y35886D02*
D03*
X1152Y35512D02*
D03*
X3573Y37972D02*
D03*
Y38720D02*
D03*
X2805Y38346D02*
D03*
X3533Y35138D02*
D03*
Y35886D02*
D03*
X2766Y35512D02*
D03*
X15659Y37972D02*
D03*
Y38720D02*
D03*
X14892Y38346D02*
D03*
X16329Y35098D02*
D03*
Y35846D02*
D03*
X15561Y35472D02*
D03*
X13967Y37972D02*
D03*
Y38720D02*
D03*
X13199Y38346D02*
D03*
X5128Y11319D02*
D03*
Y10571D02*
D03*
X5896Y10945D02*
D03*
D18*
X17500Y14695D02*
D03*
X18248D02*
D03*
X17874Y15463D02*
D03*
X13287Y24577D02*
D03*
X14035D02*
D03*
X13661Y25344D02*
D03*
X13287Y29852D02*
D03*
X14035D02*
D03*
X13661Y30620D02*
D03*
X13287Y35128D02*
D03*
X14035D02*
D03*
X13661Y35896D02*
D03*
X7618Y22175D02*
D03*
X8366D02*
D03*
X7992Y22943D02*
D03*
X3248Y22175D02*
D03*
X3996D02*
D03*
X3622Y22943D02*
D03*
X9075Y22175D02*
D03*
X9823D02*
D03*
X9449Y22943D02*
D03*
X13445Y22175D02*
D03*
X14193D02*
D03*
X13819Y22943D02*
D03*
X6161Y22175D02*
D03*
X6909D02*
D03*
X6535Y22943D02*
D03*
X11988Y22175D02*
D03*
X12736D02*
D03*
X12362Y22943D02*
D03*
X10532Y22175D02*
D03*
X11280D02*
D03*
X10906Y22943D02*
D03*
X4705Y22175D02*
D03*
X5453D02*
D03*
X5079Y22943D02*
D03*
D19*
X18248Y16299D02*
D03*
X17500D02*
D03*
X17461Y13228D02*
D03*
X18209D02*
D03*
D20*
X5984Y17972D02*
D03*
D21*
Y17776D02*
D03*
Y17579D02*
D03*
Y17382D02*
D03*
Y17185D02*
D03*
Y16988D02*
D03*
Y16791D02*
D03*
Y16594D02*
D03*
Y16398D02*
D03*
Y16201D02*
D03*
Y16004D02*
D03*
Y15807D02*
D03*
Y15610D02*
D03*
Y15413D02*
D03*
Y15217D02*
D03*
Y15020D02*
D03*
X10551D02*
D03*
Y15217D02*
D03*
Y15413D02*
D03*
Y15610D02*
D03*
Y15807D02*
D03*
Y16004D02*
D03*
Y16201D02*
D03*
Y16398D02*
D03*
Y16594D02*
D03*
Y16791D02*
D03*
Y16988D02*
D03*
Y17185D02*
D03*
Y17382D02*
D03*
Y17579D02*
D03*
Y17776D02*
D03*
Y17972D02*
D03*
D22*
X6791Y14213D02*
D03*
X6988D02*
D03*
X7185D02*
D03*
X7382D02*
D03*
X7579D02*
D03*
X7776D02*
D03*
X7972D02*
D03*
X8169D02*
D03*
X8366D02*
D03*
X8563D02*
D03*
X8760D02*
D03*
X8957D02*
D03*
X9154D02*
D03*
X9350D02*
D03*
X9547D02*
D03*
X9744D02*
D03*
Y18780D02*
D03*
X9547D02*
D03*
X9350D02*
D03*
X9154D02*
D03*
X8957D02*
D03*
X8760D02*
D03*
X8563D02*
D03*
X8366D02*
D03*
X8169D02*
D03*
X7972D02*
D03*
X7776D02*
D03*
X7579D02*
D03*
X7382D02*
D03*
X7185D02*
D03*
X6988D02*
D03*
X6791D02*
D03*
D23*
X15837Y17776D02*
D03*
Y18032D02*
D03*
Y18287D02*
D03*
Y18543D02*
D03*
Y18799D02*
D03*
Y19055D02*
D03*
Y19311D02*
D03*
X18100D02*
D03*
Y19055D02*
D03*
Y18799D02*
D03*
Y18543D02*
D03*
Y18287D02*
D03*
Y18032D02*
D03*
Y17776D02*
D03*
D24*
X16575Y20886D02*
D03*
Y20138D02*
D03*
X6732Y10571D02*
D03*
Y11319D02*
D03*
X3661Y11319D02*
D03*
Y10571D02*
D03*
D38*
X5551Y4409D02*
D03*
Y8819D02*
D03*
D39*
X2795Y5630D02*
D03*
Y7598D02*
D03*
X8504Y5630D02*
D03*
Y6614D02*
D03*
D40*
Y7598D02*
D03*
D44*
X1181Y9941D02*
X1378Y10138D01*
X787Y9547D02*
X1181Y9941D01*
X1969D01*
X787Y9547D02*
Y10827D01*
D45*
X16457Y20768D02*
X16575Y20886D01*
X15846Y20768D02*
X15866Y20748D01*
X15886Y20768D01*
X16575Y20787D02*
X17165D01*
X17323D01*
X15846Y20768D02*
X15846D01*
X15886D02*
X16457D01*
X787Y7874D02*
X1772D01*
X787Y6791D02*
Y7874D01*
X5472Y10945D02*
X5748Y10669D01*
X5354Y10945D02*
X5472D01*
X5354D02*
X5669Y10630D01*
X7677Y6614D02*
X9291D01*
Y6929D01*
Y6299D02*
Y6614D01*
Y6299D02*
X9291Y6299D01*
X21654Y6693D02*
Y8465D01*
Y4921D02*
Y6693D01*
X19173D02*
X21654D01*
X1929Y12559D02*
X2362D01*
X1929D02*
Y13110D01*
Y14528D02*
X2677D01*
X2953Y11260D02*
X4370D01*
X5984Y10551D02*
X7362D01*
X7441Y10630D01*
X17500Y16299D02*
Y16988D01*
Y14695D02*
Y16299D01*
X20276Y18740D02*
Y18780D01*
X21654Y20157D02*
X21654Y20472D01*
X20276Y18780D02*
X21654Y20157D01*
X20276Y18071D02*
Y18110D01*
X21654Y16693D02*
X21654Y16535D01*
X20276Y18071D02*
X21654Y16693D01*
D46*
X618Y11095D02*
X1142Y10571D01*
X12795Y12126D02*
X17677D01*
X1427Y10187D02*
X1654Y9961D01*
Y9961D02*
X10000D01*
X18268Y12717D02*
Y14685D01*
X669Y11024D02*
X827Y10866D01*
X1142Y10571D02*
X3799D01*
X6063Y13622D02*
X7441Y12244D01*
X5945Y14291D02*
Y14481D01*
X709Y38858D02*
X3976D01*
X12165Y12126D02*
X12795D01*
X17126Y33445D02*
Y37244D01*
X4626Y37264D02*
X4646Y37244D01*
X4449Y37441D02*
X4626Y37264D01*
X4370Y37520D02*
X4449Y37441D01*
X4370Y37520D02*
Y38465D01*
X3976Y38858D02*
X4370Y38465D01*
X394Y38543D02*
X709Y38858D01*
X394Y37244D02*
Y38543D01*
X17126Y31969D02*
Y33445D01*
Y28169D02*
Y31969D01*
Y26693D02*
Y28169D01*
X10000Y9961D02*
X12165Y12126D01*
X17677D02*
X18268Y12717D01*
X669Y11024D02*
Y11260D01*
X394Y15656D02*
Y26693D01*
Y33445D02*
Y37244D01*
Y31969D02*
Y33445D01*
Y28169D02*
Y31969D01*
Y26693D02*
Y27323D01*
Y28169D02*
X394Y27992D01*
X394Y27323D02*
X394Y27992D01*
X6063Y13622D02*
Y14016D01*
X6063Y14016D02*
X6063Y14016D01*
X7441Y11260D02*
Y12244D01*
D47*
X3799Y10571D02*
X5128D01*
X15354Y38346D02*
X15354D01*
X14409D02*
X15354D01*
X14133D02*
X14409D01*
X14892Y33071D02*
X15354D01*
X14409D02*
X14892D01*
X14134D02*
X14409D01*
X6850Y14803D02*
X7126D01*
X12795Y12126D02*
X13110Y11811D01*
X13386D02*
X13622Y12047D01*
X13110Y11811D02*
X13386D01*
X11614Y13346D02*
X11890D01*
X10472Y11220D02*
X16457Y17205D01*
Y20020D01*
X7874Y11220D02*
X10472D01*
X7480D02*
X7874D01*
X7992Y10945D02*
X8386Y10551D01*
X7756Y11181D02*
X7992Y10945D01*
Y11142D01*
X9409Y10551D02*
X9685D01*
X9134D02*
X9409D01*
X8386D02*
X9134D01*
X9961Y5079D02*
X10551D01*
Y5354D01*
Y8898D02*
Y8898D01*
X10354Y9094D02*
X10354D01*
X10551Y8898D01*
X10157Y9291D02*
X10354Y9094D01*
X12441Y11535D02*
X12717D01*
X11378Y10433D02*
X11575Y10236D01*
X11102Y10157D02*
X11299Y9961D01*
X10827Y9882D02*
X11024Y9685D01*
X11220Y13189D02*
X11417Y12992D01*
X10669Y12638D02*
X10866Y12441D01*
X10945Y12913D02*
X11142Y12717D01*
X10394Y12362D02*
X10591Y12165D01*
X7441Y11260D02*
X7480Y11220D01*
X16457Y20020D02*
X16575Y20138D01*
X5472Y18346D02*
X5748D01*
X2283Y19370D02*
X2913D01*
X1378Y18543D02*
Y18819D01*
Y18268D02*
Y18543D01*
X1969Y17244D02*
X2244D01*
X1693D02*
X1969D01*
Y17677D02*
X2244D01*
X1693D02*
X1969D01*
X2677D02*
X2953D01*
X3228D01*
X11457Y20315D02*
X11693Y20433D01*
X9961Y15709D02*
Y15945D01*
Y15433D02*
Y15709D01*
X8622Y14803D02*
X8858D01*
X6575Y15906D02*
Y16142D01*
X8425Y18189D02*
X8661D01*
X7795D02*
X8071D01*
X11220Y18819D02*
X11496D01*
X12165Y19173D02*
Y19449D01*
X15039Y24291D02*
X15236Y24094D01*
X14606Y23661D02*
Y23937D01*
X12054Y18543D02*
X12323D01*
X11890Y20079D02*
X12165D01*
X11260Y19213D02*
X11535D01*
X14960Y34645D02*
X15235D01*
X14605Y34212D02*
X14881D01*
X14606Y28937D02*
X14882D01*
X14961Y29370D02*
X15236D01*
D48*
X11102Y16496D02*
X11142D01*
X11004Y16398D02*
X11102Y16496D01*
X6969Y15394D02*
Y16417D01*
X6457Y13819D02*
Y14882D01*
X6969Y15394D01*
X9173Y12323D02*
X9803D01*
X8189D02*
X9173D01*
X5157Y12480D02*
Y14724D01*
X5453Y15020D02*
X5984D01*
X5157Y14724D02*
X5453Y15020D01*
X5256Y15217D02*
X5984D01*
X4157Y12480D02*
Y14118D01*
X5256Y15217D01*
X6654Y13622D02*
X7126D01*
X6457Y13819D02*
X6654Y13622D01*
X7126D02*
X8150Y12598D01*
X6594Y16791D02*
X6969Y16417D01*
X5984Y16791D02*
X6594D01*
X10551Y15807D02*
X11791D01*
X10551Y15020D02*
X11398D01*
X10472Y14016D02*
X11142D01*
X10433Y13976D02*
X10472Y14016D01*
X10197Y13740D02*
X10433Y13976D01*
X10709Y13661D02*
X11339D01*
X10551Y13504D02*
X10709Y13661D01*
X8661Y18189D02*
X8701D01*
X5984Y16201D02*
X6516D01*
X8366Y18248D02*
Y18780D01*
X8071Y18189D02*
X8169Y18287D01*
Y18780D01*
X9980Y16004D02*
X10551D01*
X10020Y15413D02*
X10551D01*
X7185Y14213D02*
Y14744D01*
X8563Y14213D02*
Y14744D01*
X9528Y13504D02*
X10551D01*
X9350Y13681D02*
X9528Y13504D01*
X9350Y13681D02*
Y14213D01*
X9646Y13740D02*
X10197D01*
X9547Y13839D02*
X9646Y13740D01*
X9547Y13839D02*
Y14213D01*
X10551Y15610D02*
X10965D01*
X11142Y15433D02*
X11378D01*
X10965Y15610D02*
X11142Y15433D01*
X11693D02*
X11968D01*
X11378D02*
X11693D01*
X11299Y16220D02*
X11378D01*
X11280Y16201D02*
X11299Y16220D01*
X10551Y16201D02*
X11280D01*
X10551Y16398D02*
X11004D01*
X12146Y16791D02*
X12205Y16850D01*
X10551Y16791D02*
X12146D01*
X11870Y16988D02*
X12087Y17205D01*
X10551Y16988D02*
X11870D01*
X11594Y17185D02*
X11693Y17283D01*
X10551Y17185D02*
X11594D01*
X11378Y18228D02*
X11417D01*
X11280Y17382D02*
X11575Y17677D01*
X10551Y17382D02*
X11280D01*
X10551Y17579D02*
X11083D01*
X11457Y17953D02*
X11890D01*
X11083Y17579D02*
X11457Y17953D01*
X10551Y17776D02*
X10925D01*
X11378Y18228D01*
D49*
X5374Y16398D02*
X5984D01*
X10020Y16594D02*
X10551D01*
X8268Y14764D02*
X8366Y14665D01*
Y14213D02*
Y14665D01*
X7382Y14665D02*
X7559Y14843D01*
X7382Y14213D02*
Y14665D01*
X11890Y13346D02*
Y13976D01*
Y13268D02*
Y13346D01*
X13306Y37283D02*
Y37873D01*
X11181Y14685D02*
X11890Y13976D01*
X10315Y14685D02*
X11181D01*
X10079Y14921D02*
X10315Y14685D01*
X10079Y14921D02*
Y15118D01*
X10177Y15217D01*
X10551D01*
X16181Y10591D02*
X16535Y10945D01*
X16181Y10256D02*
Y10591D01*
X16535Y10945D02*
Y12047D01*
X16033Y10256D02*
X16181D01*
X16181Y10256D01*
X12323Y11417D02*
X12441Y11535D01*
X12323Y11102D02*
Y11417D01*
X10079Y12677D02*
X10394Y12362D01*
X9094Y12677D02*
X10079D01*
X10669Y12638D02*
Y12638D01*
X9213Y12874D02*
X10433D01*
X10669Y12638D01*
X10945Y12913D02*
Y12913D01*
X10787Y13071D02*
X10945Y12913D01*
X9331Y13071D02*
X10787D01*
X11220Y13189D02*
Y13189D01*
X9449Y13268D02*
X11142D01*
X11220Y13189D01*
X11417Y12992D02*
X11417D01*
X10669Y12638D02*
X10669D01*
X10945Y12913D02*
X10945D01*
X11142Y12717D02*
Y12717D01*
X10394Y12362D02*
Y12362D01*
X9154Y13563D02*
X9449Y13268D01*
X8169Y13602D02*
X9094Y12677D01*
X8169Y13602D02*
Y14213D01*
X8760Y13327D02*
X9213Y12874D01*
X8760Y13327D02*
Y14213D01*
X8957Y13445D02*
X9331Y13071D01*
X8957Y13445D02*
Y14213D01*
X9154Y13563D02*
Y14213D01*
X4173Y19370D02*
X4449D01*
X4134D02*
X4173D01*
X4449D02*
X5472Y18346D01*
X5295Y16594D02*
X5984D01*
X1535Y16929D02*
X4961D01*
X5295Y16594D01*
X2323Y17323D02*
X4921D01*
X5256Y16988D01*
X5984D01*
X3228Y17677D02*
X4921D01*
X5413Y17185D02*
X5984D01*
X4921Y17677D02*
X5413Y17185D01*
X2559Y17992D02*
X4961D01*
X5571Y17382D02*
X5984D01*
X4961Y17992D02*
X5571Y17382D01*
X5531Y17776D02*
X5984D01*
X3976Y18228D02*
X5079D01*
X5531Y17776D01*
X3583Y18622D02*
Y18740D01*
Y18622D02*
X3976Y18228D01*
X2913Y19370D02*
X3543D01*
X1378Y17087D02*
Y18268D01*
Y17087D02*
X1535Y16929D01*
X2244Y17244D02*
X2323Y17323D01*
X2244Y17677D02*
X2559Y17992D01*
X9744Y18780D02*
X11220D01*
X10748Y17992D02*
Y18110D01*
X11181Y18543D01*
X11575D01*
X10551Y17972D02*
X10728D01*
X10748Y17992D01*
X11850Y18268D02*
X14646D01*
X11575Y18543D02*
X11850Y18268D01*
X14646D02*
X14882Y18032D01*
X15837D01*
X12165Y19449D02*
X14606D01*
X14843Y19213D01*
X11260Y19291D02*
X11299Y19252D01*
X12323Y18543D02*
X14803D01*
X9449Y20000D02*
X11890D01*
X14803Y18543D02*
X15059Y18287D01*
X15837D01*
X14843Y19213D02*
X15256Y18799D01*
X11890Y20000D02*
Y20023D01*
X11850Y19055D02*
X12047Y18858D01*
X14843D02*
X15157Y18543D01*
X12047Y18858D02*
X14843D01*
X11850Y19055D02*
Y19331D01*
X15157Y18543D02*
X15837D01*
X11654Y19528D02*
X11850Y19331D01*
X9606Y19528D02*
X11654D01*
X9350Y19272D02*
X9606Y19528D01*
X19567Y16850D02*
X20709D01*
X18583Y17165D02*
X18819Y16929D01*
X18100Y18543D02*
X18819D01*
X19016Y18740D01*
X18839Y18287D02*
X19016Y18110D01*
X18100Y18287D02*
X18839D01*
X19016Y18110D02*
X19016D01*
X18100Y18032D02*
X18504D01*
X18583Y17165D02*
Y17953D01*
X18504Y18032D02*
X18583Y17953D01*
X19016Y18110D02*
X19606D01*
X19016Y18740D02*
X19567D01*
X18937Y18819D02*
Y19370D01*
Y17480D02*
Y18032D01*
X8957Y19508D02*
X9449Y20000D01*
X15256Y18799D02*
X15837D01*
X14764Y19764D02*
X15472Y19055D01*
X9528Y19764D02*
X14764D01*
X15472Y19055D02*
X15827D01*
X9154Y19390D02*
X9528Y19764D01*
X5394Y20984D02*
X6791Y19587D01*
X4291Y20984D02*
X5394D01*
X6791Y18780D02*
Y19587D01*
X6850Y20236D02*
Y21417D01*
X7185Y18780D02*
Y19902D01*
X6850Y20236D02*
X7185Y19902D01*
X9291Y20315D02*
X10906D01*
X8563Y19587D02*
X9291Y20315D01*
X10906D02*
X11339Y20748D01*
X7972Y18780D02*
Y19941D01*
X8583Y20551D01*
X10787D01*
X7776Y18780D02*
Y20098D01*
X8465Y20787D02*
X10669D01*
X7776Y20098D02*
X8465Y20787D01*
X7579Y20256D02*
X8346Y21024D01*
X7579Y18780D02*
Y20256D01*
X8346Y21024D02*
X9449D01*
X7382Y18780D02*
Y20413D01*
X8189Y21220D02*
Y21417D01*
X7382Y20413D02*
X8189Y21220D01*
X6988Y18780D02*
Y19744D01*
X5394Y21339D02*
Y21417D01*
Y21339D02*
X6988Y19744D01*
X8563Y18780D02*
Y19587D01*
X11339Y20748D02*
X13543D01*
X11220Y20984D02*
X12323D01*
X10787Y20551D02*
X11220Y20984D01*
X10669Y20787D02*
X11220Y21339D01*
X9449Y21024D02*
X9764Y21339D01*
X3937D02*
X4291Y20984D01*
X13543Y20748D02*
X14173Y21378D01*
X12323Y20984D02*
X12717Y21378D01*
X8307Y21378D02*
X8307Y21417D01*
X11220Y21339D02*
Y21417D01*
X9547Y18780D02*
Y19154D01*
X9154Y18780D02*
Y19390D01*
X9350Y18780D02*
Y19272D01*
X9685Y19291D02*
X11260D01*
X9547Y19154D02*
X9685Y19291D01*
X8957Y18780D02*
Y19508D01*
X13306Y37873D02*
X13818Y38385D01*
Y38700D01*
X13307Y26732D02*
Y27323D01*
X13819Y27835D01*
Y28150D01*
Y33110D02*
Y33425D01*
X13307Y32598D02*
X13819Y33110D01*
X13307Y32008D02*
Y32598D01*
D50*
X394Y27992D02*
X571Y28169D01*
X13966Y38720D02*
X15728D01*
X16220Y37244D02*
X16298Y37322D01*
X15177Y10256D02*
X16033D01*
X15886Y20138D02*
X16575D01*
X4252Y37244D02*
X4449Y37441D01*
X3504Y37244D02*
X4252D01*
X16220D02*
X16968D01*
X15659Y33445D02*
X17126D01*
X16220Y31969D02*
X17126D01*
Y28169D02*
X17146D01*
X15659D02*
X17126D01*
X16220Y26693D02*
X17126D01*
X10827Y9882D02*
Y9882D01*
X10551Y7559D02*
X11102Y8110D01*
X11024Y9685D02*
X11102Y9606D01*
Y8110D02*
Y9606D01*
X10984Y5669D02*
X11417Y6102D01*
X11299Y9961D02*
X11417Y9843D01*
Y6102D02*
Y9843D01*
X10394Y3819D02*
X11732Y5157D01*
X11575Y10236D02*
X11732Y10079D01*
Y5157D02*
Y10079D01*
X9291Y7559D02*
X10551D01*
X9291Y5669D02*
X10984D01*
X8622Y3819D02*
X10394D01*
X6181Y6260D02*
X8622Y3819D01*
X3543Y6260D02*
X6181D01*
X3543D02*
Y6850D01*
X2795Y7598D02*
X4213D01*
X9291Y7638D02*
Y8189D01*
Y5039D02*
Y5630D01*
X8504Y4764D02*
X8858Y4409D01*
X9291D01*
X8504Y4764D02*
Y5630D01*
Y8465D02*
X8858Y8819D01*
X8504Y7638D02*
Y8465D01*
X8858Y8819D02*
X9291D01*
X9921D01*
X9291Y4409D02*
X9921D01*
X9173Y11693D02*
X9252Y11614D01*
X7874Y11457D02*
X8031Y11614D01*
X9094D01*
X9173Y11693D01*
X19793Y10630D02*
X21654D01*
X19646D02*
X19793D01*
X18366Y11004D02*
X19026D01*
X17205Y10394D02*
X18268D01*
X16968Y10630D02*
X17205Y10394D01*
X16801Y10630D02*
X16968D01*
X394Y37244D02*
X1181D01*
X394Y37244D02*
X394Y37244D01*
Y33445D02*
X1919D01*
X394Y33445D02*
X394Y33445D01*
X394Y31969D02*
X394Y31969D01*
X1181D01*
X394Y26693D02*
X1181D01*
X571Y28169D02*
X1919D01*
X472Y27323D02*
Y27992D01*
X12323Y10472D02*
X12480D01*
X13012Y11004D01*
X13081D01*
X14252Y10866D02*
X14567D01*
X14016Y10630D02*
X14252Y10866D01*
X13848Y10630D02*
X14016D01*
X14606Y10315D02*
Y10984D01*
X15236D02*
X16063D01*
X15866Y19370D02*
Y20118D01*
X15886Y20138D01*
X7677Y11260D02*
X7874Y11457D01*
X6732Y11260D02*
X7441D01*
X7874Y11220D02*
Y11457D01*
X3543Y18740D02*
X3583D01*
X2913D02*
X3543D01*
X15276Y21417D02*
X17402D01*
X18100Y19311D02*
Y20719D01*
X17402Y21417D02*
X18100Y20719D01*
X14291Y20433D02*
X15276Y21417D01*
X11693Y20433D02*
X14291D01*
X9803Y14370D02*
X10945D01*
X13445Y21476D02*
Y22175D01*
X11988Y21476D02*
Y22175D01*
X10532Y21555D02*
Y22175D01*
X9075Y21437D02*
Y22175D01*
X7618Y21516D02*
Y22175D01*
X6161Y21476D02*
Y22175D01*
X4705Y21476D02*
Y22175D01*
X3248Y21516D02*
Y22175D01*
X12598Y23740D02*
Y24134D01*
X11531Y25201D02*
Y26575D01*
Y25201D02*
X12598Y24134D01*
X10748Y23504D02*
X11968D01*
X10511Y23741D02*
Y25394D01*
Y23741D02*
X10748Y23504D01*
X5079Y22943D02*
Y23169D01*
X6004Y30689D02*
X6024Y30669D01*
X5079Y23169D02*
X5512Y23602D01*
Y35964D02*
X6004D01*
X5513Y30689D02*
X6004D01*
X5512Y25414D02*
X6004D01*
X5512Y23602D02*
Y25414D01*
Y30689D01*
X6004Y35964D02*
X6024Y35945D01*
X6004Y25414D02*
X6024Y25394D01*
X5512Y25414D02*
X5512Y25414D01*
X5512Y30689D02*
Y35964D01*
X7033Y37180D02*
X7047Y37165D01*
X6526Y31905D02*
X7032D01*
X6526Y22953D02*
X6535Y22943D01*
X7032Y26629D02*
X7047Y26614D01*
X6525Y37180D02*
X6526Y37179D01*
X6525Y37180D02*
X7033D01*
X6526Y22953D02*
Y26629D01*
Y31905D01*
Y37179D01*
X7032Y31905D02*
X7047Y31890D01*
X6526Y26629D02*
X7032D01*
X10187Y23066D02*
X10782D01*
X10906Y22943D01*
X9055Y26614D02*
X9060Y26609D01*
X9517Y37160D02*
X9518Y37159D01*
Y26609D02*
Y31885D01*
X9055Y37165D02*
X9061Y37160D01*
X9518Y23735D02*
Y26609D01*
Y31885D02*
Y37159D01*
X9055Y31890D02*
X9060Y31885D01*
X9518Y23735D02*
X10187Y23066D01*
X9060Y26609D02*
X9518D01*
X9061Y37160D02*
X9517D01*
X9060Y31885D02*
X9518D01*
X13268Y23071D02*
X13858D01*
X12598Y23740D02*
X13268Y23071D01*
X10511Y25394D02*
X10512D01*
X10039D02*
X10511D01*
X11968Y23504D02*
X12402Y23071D01*
X8819D02*
X9409D01*
X8504Y23386D02*
X8819Y23071D01*
X8504Y23386D02*
Y25394D01*
X7520Y23583D02*
X7992Y23110D01*
X7520Y23583D02*
Y25394D01*
X3711Y23031D02*
X4094D01*
X4527Y30669D02*
Y35944D01*
Y25394D02*
Y30669D01*
X4094Y23031D02*
X4527Y23464D01*
Y25394D01*
X3622Y22943D02*
X3711Y23031D01*
X4527Y25394D02*
X5000D01*
X8031D02*
X8504D01*
Y30669D01*
X7047Y25394D02*
X7520D01*
Y30669D01*
X11023Y37125D02*
X11531D01*
X11531Y31850D02*
Y37125D01*
Y26575D02*
Y31850D01*
X11531Y37125D02*
X11531Y37125D01*
X10039Y35944D02*
X10511D01*
X10039Y30669D02*
X10511D01*
Y35944D01*
Y25395D02*
Y30669D01*
Y25395D02*
X10512Y25394D01*
X8031Y35944D02*
X8503D01*
X8504Y30669D02*
Y35944D01*
X8503Y35944D02*
X8504Y35944D01*
X7046Y35944D02*
X7519D01*
X7520Y30669D02*
Y35944D01*
X7519Y35944D02*
X7520Y35944D01*
X5023Y34566D02*
Y35251D01*
X6023Y34566D02*
Y35236D01*
X7023Y34566D02*
Y35291D01*
X8023Y34566D02*
Y35244D01*
X10023Y34566D02*
Y35299D01*
X12007Y38582D02*
X12794D01*
X13031Y38346D01*
X13198D01*
X11023Y37716D02*
Y38566D01*
X9023Y37803D02*
Y38566D01*
X7023Y37850D02*
Y38566D01*
X2804Y38346D02*
X3267D01*
X3542D01*
X3818D01*
X1151D02*
X1613D01*
X1889D01*
X2165D02*
X2204D01*
X1889D02*
X2165D01*
X13287Y34586D02*
Y35127D01*
Y34586D02*
X13424Y34448D01*
X13306Y36653D02*
X14015D01*
X13661Y35895D02*
Y36023D01*
X14015Y36377D01*
Y36614D01*
Y37283D02*
Y37952D01*
X15235Y34645D02*
X15472D01*
X15747Y34370D01*
X16377D02*
Y35049D01*
X4527Y35944D02*
X4999D01*
X15560Y35472D02*
Y36564D01*
X15511Y36614D02*
X16220D01*
X15629Y37283D02*
Y37942D01*
X15659Y37972D01*
X16298Y37322D02*
Y38228D01*
X15787Y38740D02*
X16298Y38228D01*
X2401Y34645D02*
X2676D01*
X2913D01*
X3188Y34370D01*
X3533Y35137D02*
X3720D01*
X3897Y34960D01*
Y34370D02*
Y34960D01*
X2765Y35511D02*
Y36623D01*
X2794Y36614D02*
X3503D01*
X2794Y37716D02*
X3050Y37972D01*
X2794Y37322D02*
Y37716D01*
X3050Y37972D02*
X3572D01*
X3503Y36614D02*
X3582D01*
X1692Y34212D02*
X2046D01*
X2322D01*
X905Y34370D02*
Y34724D01*
X1318Y35137D01*
X905Y34330D02*
Y34370D01*
X1318Y35137D02*
X1918D01*
X1180Y36614D02*
X1889D01*
X1889Y37244D02*
X1928Y37283D01*
Y37952D01*
X1151Y35511D02*
Y36545D01*
X14251Y34212D02*
X14605D01*
X14133Y34330D02*
X14251Y34212D01*
X5024Y24016D02*
Y24701D01*
X6024Y24016D02*
Y24685D01*
X7024Y24016D02*
Y24740D01*
X8024Y24016D02*
Y24693D01*
X10024Y24016D02*
Y24748D01*
X12008Y28031D02*
X12795D01*
X13032Y27795D01*
X13199D01*
X11024Y27165D02*
Y28016D01*
X9024Y27252D02*
Y28016D01*
X7024Y27299D02*
Y28016D01*
X2805Y27795D02*
X3268D01*
X3543D01*
X3819D01*
X1152D02*
X1614D01*
X1890D01*
X2165D02*
X2205D01*
X1890D02*
X2165D01*
X13287Y24035D02*
Y24577D01*
Y24035D02*
X13425Y23898D01*
X13307Y26102D02*
X14016D01*
X13661Y25344D02*
Y25472D01*
X14016Y25827D01*
Y26063D01*
Y26732D02*
Y27402D01*
X15236Y24094D02*
X15472D01*
X15748Y23819D01*
X16378D02*
Y24498D01*
X15561Y24921D02*
Y26014D01*
X15512Y26063D02*
X16220D01*
X15630Y26732D02*
Y27392D01*
X15659Y27421D01*
X11024Y26575D02*
X11531D01*
X2402Y24094D02*
X2677D01*
X2913D01*
X3189Y23819D01*
X3533Y24587D02*
X3720D01*
X3898Y24409D01*
Y23819D02*
Y24409D01*
X2766Y24961D02*
Y26073D01*
X2795Y26063D02*
X3504D01*
X2795Y27165D02*
X3051Y27421D01*
X2795Y26772D02*
Y27165D01*
X3051Y27421D02*
X3573D01*
X3504Y26063D02*
X3583D01*
X3543Y26693D02*
X3976D01*
X4134Y26850D01*
Y28031D01*
X3996Y28169D02*
X4134Y28031D01*
X3573Y28169D02*
X3996D01*
X1693Y23661D02*
X2047D01*
X2323D01*
X906Y23819D02*
Y24173D01*
X1319Y24587D01*
X906Y23780D02*
Y23819D01*
X1319Y24587D02*
X1919D01*
X1181Y26063D02*
X1890D01*
X1890Y26693D02*
X1929Y26732D01*
Y27402D01*
X1152Y24961D02*
Y25994D01*
X13967Y28169D02*
X15659D01*
X1919D02*
X3573D01*
X14252Y23661D02*
X14606D01*
X14134Y23780D02*
X14252Y23661D01*
X4528Y30669D02*
X5000D01*
X13287Y29311D02*
X13425Y29173D01*
X13287Y29311D02*
Y29852D01*
X14134Y29055D02*
X14252Y28937D01*
X14606D01*
X15472Y29370D02*
X15748Y29094D01*
X15236Y29370D02*
X15472D01*
X13967Y33445D02*
X15659D01*
X3573D02*
X3996D01*
X1919D02*
X3573D01*
X3543Y31969D02*
X3976D01*
X4134Y32126D01*
Y33307D01*
X3996Y33445D02*
X4134Y33307D01*
X3898Y29094D02*
Y29685D01*
X3720Y29862D02*
X3898Y29685D01*
X3533Y29862D02*
X3720D01*
X2677Y29370D02*
X2913D01*
X2402D02*
X2677D01*
X2913D02*
X3189Y29094D01*
X2047Y28937D02*
X2323D01*
X1693D02*
X2047D01*
X906Y29094D02*
Y29449D01*
Y29055D02*
Y29094D01*
Y29449D02*
X1319Y29862D01*
X1919D01*
X11024Y31850D02*
X11531D01*
X8031Y30669D02*
X8504D01*
X7047D02*
X7520D01*
X7024Y32575D02*
Y33291D01*
X9024Y32528D02*
Y33291D01*
X11024Y32441D02*
Y33291D01*
X10024Y29291D02*
Y30024D01*
X8024Y29291D02*
Y29969D01*
X7024Y29291D02*
Y30016D01*
X6024Y29291D02*
Y29961D01*
X5024Y29291D02*
Y29976D01*
X2766Y30236D02*
Y31348D01*
X3504Y31339D02*
X3583D01*
X2795D02*
X3504D01*
X1181D02*
X1890D01*
X1152Y30236D02*
Y31270D01*
X2795Y32047D02*
Y32441D01*
X3051Y32697D01*
X3573D01*
X1929Y32008D02*
Y32677D01*
X1890Y31969D02*
X1929Y32008D01*
X3543Y33071D02*
X3819D01*
X3268D02*
X3543D01*
X2805D02*
X3268D01*
X2165D02*
X2205D01*
X1890D02*
X2165D01*
X1614D02*
X1890D01*
X1152D02*
X1614D01*
X12008Y33307D02*
X12795D01*
X13032Y33071D02*
X13199D01*
X12795Y33307D02*
X13032Y33071D01*
X13307Y31378D02*
X14016D01*
Y31102D02*
Y31339D01*
X13661Y30748D02*
X14016Y31102D01*
X13661Y30620D02*
Y30748D01*
X14016Y32008D02*
Y32677D01*
X15630Y32008D02*
Y32667D01*
X15659Y32697D01*
X15512Y31339D02*
X16220D01*
X15561Y30197D02*
Y31289D01*
X16378Y29094D02*
Y29774D01*
D51*
X17244Y36102D02*
Y36417D01*
Y36890D01*
X5000Y37165D02*
X5315D01*
X4685D02*
X5000D01*
D52*
X10551Y8425D02*
Y8898D01*
X10315Y8189D02*
X10551Y8425D01*
X8819Y9291D02*
X10157D01*
X10000Y8189D02*
X10315D01*
X6417Y6890D02*
X8819Y9291D01*
X4173Y6890D02*
X6417D01*
X5128Y11319D02*
X6673D01*
D53*
X18100Y17057D02*
Y17776D01*
X17480Y17008D02*
Y18583D01*
Y16968D02*
Y17008D01*
Y18583D02*
X17697Y18799D01*
X18100D01*
D54*
X787Y7874D02*
D03*
Y9547D02*
D03*
D55*
X21654Y10630D02*
D03*
Y6693D02*
D03*
Y16535D02*
D03*
Y20472D02*
D03*
D56*
X1929Y14528D02*
D03*
Y12559D02*
D03*
D57*
X866Y12165D02*
D03*
Y14921D02*
D03*
D58*
X5024Y28016D02*
D03*
X6024D02*
D03*
X7024D02*
D03*
X8024D02*
D03*
X9024D02*
D03*
X10024D02*
D03*
X11024D02*
D03*
X12024D02*
D03*
Y24016D02*
D03*
X11024D02*
D03*
X10024D02*
D03*
X9024D02*
D03*
X8024D02*
D03*
X7024D02*
D03*
X6024D02*
D03*
X5024D02*
D03*
Y38567D02*
D03*
X6024D02*
D03*
X7024D02*
D03*
X8024D02*
D03*
X9024D02*
D03*
X10024D02*
D03*
X11024D02*
D03*
X12024D02*
D03*
Y34567D02*
D03*
X11024D02*
D03*
X10024D02*
D03*
X9024D02*
D03*
X8024D02*
D03*
X7024D02*
D03*
X6024D02*
D03*
X5024D02*
D03*
Y33291D02*
D03*
X6024D02*
D03*
X7024D02*
D03*
X8024D02*
D03*
X9024D02*
D03*
X10024D02*
D03*
X11024D02*
D03*
X12024D02*
D03*
Y29291D02*
D03*
X11024D02*
D03*
X10024D02*
D03*
X9024D02*
D03*
X8024D02*
D03*
X7024D02*
D03*
X6024D02*
D03*
X5024D02*
D03*
D59*
X8157Y12480D02*
D03*
D60*
X7157D02*
D03*
X6157D02*
D03*
X5157D02*
D03*
X4157D02*
D03*
X3157D02*
D03*
D61*
X10630Y9449D02*
D03*
X11122Y5315D02*
D03*
X10138Y6004D02*
D03*
Y7185D02*
D03*
X23228Y22539D02*
D03*
X19980Y22441D02*
D03*
X23228Y14468D02*
D03*
X19980Y14567D02*
D03*
X13032Y22874D02*
D03*
X11614Y22598D02*
D03*
X4331D02*
D03*
X5827Y22165D02*
D03*
X7008Y22795D02*
D03*
X8425D02*
D03*
X9843D02*
D03*
X11142Y16496D02*
D03*
X10276Y11850D02*
D03*
Y11575D02*
D03*
X6850Y14803D02*
D03*
X7126D02*
D03*
X12323Y15827D02*
D03*
X16968Y16968D02*
D03*
X12795Y12717D02*
D03*
X16929Y13032D02*
D03*
Y13346D02*
D03*
Y13661D02*
D03*
Y13976D02*
D03*
X17598Y11457D02*
D03*
X17047Y11102D02*
D03*
X13701Y10197D02*
D03*
X12205Y9921D02*
D03*
X11575Y354D02*
D03*
X23228Y27717D02*
D03*
X9094Y36417D02*
D03*
X9882Y36535D02*
D03*
X7087Y36457D02*
D03*
X5827Y36496D02*
D03*
X2441Y18386D02*
D03*
X906Y19213D02*
D03*
X945Y16339D02*
D03*
X3031Y6693D02*
D03*
X4685Y7283D02*
D03*
X4016Y5866D02*
D03*
X3189Y5118D02*
D03*
X7874Y7756D02*
D03*
X8150Y4843D02*
D03*
X5984Y5866D02*
D03*
X6535Y6496D02*
D03*
X6220Y7283D02*
D03*
X6890Y8780D02*
D03*
X1929Y11378D02*
D03*
X1870Y9449D02*
D03*
X315Y315D02*
D03*
X23307D02*
D03*
X20039Y19646D02*
D03*
X20000Y17205D02*
D03*
X20039Y19370D02*
D03*
X20000Y17480D02*
D03*
X18307Y15394D02*
D03*
Y15709D02*
D03*
X18701Y16299D02*
D03*
X15787Y17126D02*
D03*
X15827Y17402D02*
D03*
X17165Y20394D02*
D03*
Y20709D02*
D03*
Y21024D02*
D03*
X15197Y25433D02*
D03*
X16614Y30945D02*
D03*
X16654Y36220D02*
D03*
X14528Y34764D02*
D03*
X15039Y36575D02*
D03*
X11929D02*
D03*
X12795Y32244D02*
D03*
X15039Y32638D02*
D03*
X11890Y32244D02*
D03*
X14409Y30197D02*
D03*
Y29882D02*
D03*
X14488Y24724D02*
D03*
Y24370D02*
D03*
X15079Y27402D02*
D03*
X11929Y27008D02*
D03*
X2008Y24134D02*
D03*
X1732Y24961D02*
D03*
X2559Y24528D02*
D03*
X4055Y24921D02*
D03*
X4134Y26220D02*
D03*
X2402Y27165D02*
D03*
X4094Y30118D02*
D03*
X4134Y31535D02*
D03*
X2520Y29803D02*
D03*
X2362Y30945D02*
D03*
X2638Y35079D02*
D03*
X4055Y36811D02*
D03*
X2520Y37913D02*
D03*
X23268Y39016D02*
D03*
X945Y23228D02*
D03*
X2874Y20945D02*
D03*
X6457Y18701D02*
D03*
X6575Y17638D02*
D03*
X9528Y17520D02*
D03*
Y14961D02*
D03*
X5669Y12953D02*
D03*
X6890Y11811D02*
D03*
X5354Y10945D02*
D03*
X5984Y10512D02*
D03*
X5709D02*
D03*
X3071Y11063D02*
D03*
X2520Y12874D02*
D03*
Y13898D02*
D03*
X3819D02*
D03*
X4016Y16575D02*
D03*
X5354Y15591D02*
D03*
X7717Y16654D02*
D03*
X8031D02*
D03*
X8386Y15945D02*
D03*
Y16299D02*
D03*
X8031Y15945D02*
D03*
Y16299D02*
D03*
X7677D02*
D03*
Y15945D02*
D03*
X11614Y13346D02*
D03*
X13386Y11811D02*
D03*
X13110D02*
D03*
X11890Y13346D02*
D03*
X17244Y36890D02*
D03*
X17087Y36181D02*
D03*
X17244Y35945D02*
D03*
X17402Y36181D02*
D03*
X17244Y36417D02*
D03*
X17402Y36654D02*
D03*
X17087D02*
D03*
X5236Y37323D02*
D03*
Y37008D02*
D03*
X5000Y37165D02*
D03*
X4764Y37008D02*
D03*
X4528Y37165D02*
D03*
X4764Y37323D02*
D03*
X5472Y37165D02*
D03*
X9134Y10551D02*
D03*
X9409D02*
D03*
X9685D02*
D03*
X10551Y5079D02*
D03*
Y5354D02*
D03*
Y8898D02*
D03*
X10157Y9291D02*
D03*
X10354Y9094D02*
D03*
X12441Y11535D02*
D03*
X12717D02*
D03*
X11024Y9685D02*
D03*
X10827Y9882D02*
D03*
X11299Y9961D02*
D03*
X11102Y10157D02*
D03*
X11575Y10236D02*
D03*
X11378Y10433D02*
D03*
X11417Y12992D02*
D03*
X11142Y12717D02*
D03*
X10866Y12441D02*
D03*
X10591Y12165D02*
D03*
X11220Y13189D02*
D03*
X10945Y12913D02*
D03*
X10669Y12638D02*
D03*
X10394Y12362D02*
D03*
X1260Y13189D02*
D03*
X984D02*
D03*
X709D02*
D03*
X1260Y13465D02*
D03*
X984D02*
D03*
X709D02*
D03*
X984Y13740D02*
D03*
X709D02*
D03*
X1260Y14016D02*
D03*
X984D02*
D03*
X709D02*
D03*
X1260Y13740D02*
D03*
X5472Y18346D02*
D03*
X5748D02*
D03*
X5551Y14567D02*
D03*
Y14291D02*
D03*
Y14016D02*
D03*
X5827Y14567D02*
D03*
Y14291D02*
D03*
Y14016D02*
D03*
X6102D02*
D03*
Y14291D02*
D03*
Y14567D02*
D03*
X2559Y19370D02*
D03*
X2283D02*
D03*
X1378Y18268D02*
D03*
Y18543D02*
D03*
Y18819D02*
D03*
X2244Y17244D02*
D03*
X1969D02*
D03*
X1693D02*
D03*
X1969Y17677D02*
D03*
X1693D02*
D03*
X2244D02*
D03*
X3228D02*
D03*
X2953D02*
D03*
X2677D02*
D03*
X11457Y20315D02*
D03*
X11693Y20433D02*
D03*
X11417Y15000D02*
D03*
X11142Y14016D02*
D03*
X11339Y13661D02*
D03*
X10945Y14370D02*
D03*
X9961Y15433D02*
D03*
Y15709D02*
D03*
X8898Y14803D02*
D03*
X8622D02*
D03*
X9961Y15984D02*
D03*
X8701Y18189D02*
D03*
X8425D02*
D03*
X8071D02*
D03*
X7795D02*
D03*
X6575Y16181D02*
D03*
Y15906D02*
D03*
X11850Y15827D02*
D03*
X11535D02*
D03*
X11220D02*
D03*
X11693Y15433D02*
D03*
X12008D02*
D03*
X11378D02*
D03*
Y16220D02*
D03*
X12205Y16850D02*
D03*
X12087Y17205D02*
D03*
X11693Y17283D02*
D03*
X11496Y18819D02*
D03*
X11220D02*
D03*
X11417Y18228D02*
D03*
X11890Y17953D02*
D03*
X11575Y17677D02*
D03*
X12165Y19173D02*
D03*
Y19449D02*
D03*
X15039Y24291D02*
D03*
X14606Y23937D02*
D03*
X15276Y27795D02*
D03*
X12047Y18543D02*
D03*
X12323Y18543D02*
D03*
X12165Y20079D02*
D03*
X11890D02*
D03*
X11260Y19213D02*
D03*
X11535D02*
D03*
X14133Y38346D02*
D03*
X14409D02*
D03*
X15354D02*
D03*
X3542D02*
D03*
X3267D02*
D03*
X3818D02*
D03*
X1889D02*
D03*
X1613D02*
D03*
X2165D02*
D03*
X14960Y34645D02*
D03*
X15235D02*
D03*
X2401D02*
D03*
X2676D02*
D03*
X2046Y34212D02*
D03*
X2322D02*
D03*
X14605D02*
D03*
X14881D02*
D03*
X14134Y27795D02*
D03*
X14409D02*
D03*
X3543D02*
D03*
X3268D02*
D03*
X3819D02*
D03*
X1890D02*
D03*
X1614D02*
D03*
X2165D02*
D03*
X15236Y24094D02*
D03*
X2402D02*
D03*
X2677D02*
D03*
X2047Y23661D02*
D03*
X2323D02*
D03*
X14606D02*
D03*
X15236Y29370D02*
D03*
X14606Y28937D02*
D03*
X14882D02*
D03*
X14961Y29370D02*
D03*
X2402D02*
D03*
X2323Y28937D02*
D03*
X2047D02*
D03*
X2677Y29370D02*
D03*
X3819Y33071D02*
D03*
X3543D02*
D03*
X3268D02*
D03*
X2165D02*
D03*
X1890D02*
D03*
X1614D02*
D03*
X15354D02*
D03*
X14409D02*
D03*
X14134D02*
D03*
D62*
X21654Y37402D02*
D03*
Y1969D02*
D03*
X1969D02*
D03*
M02*
