M48
;Layer_Color=9474304
;FILE_FORMAT=2:4
INCH,LZ
;TYPE=PLATED
T1F00S00C0.0138
T2F00S00C0.0315
T3F00S00C0.0335
T4F00S00C0.0354
T5F00S00C0.0394
T6F00S00C0.0472
T7F00S00C0.0591
T9F00S00C0.1339
T10F00S00C0.1575
%
T01
X023307Y000315
X011575Y000354
X011122Y005315
X010551Y005354
Y005079
X010138Y006004
Y007185
X010551Y008898
X010354Y009094
X010157Y009291
X01063Y009449
X011024Y009685
X010827Y009882
X011102Y010157
X011299Y009961
X011575Y010236
X011378Y010433
X012205Y009921
X013701Y010197
X013386Y011811
X01311
X012717Y011535
X012441
X012795Y012717
X01189Y013346
X011614
X011417Y012992
X01122Y013189
X010945Y012913
X011142Y012717
X010866Y012441
X010669Y012638
X010394Y012362
X010591Y012165
X010276Y01185
Y011575
X009685Y010551
X009409
X009134
X005984Y010512
X005709
X005354Y010945
X005669Y012953
X00689Y011811
Y00878
X007874Y007756
X00622Y007283
X006535Y006496
X005984Y005866
X004016
X003189Y005118
X003031Y006693
X004685Y007283
X003071Y011063
X003819Y013898
X011339Y013661
X016929
Y013346
Y013032
X017047Y011102
X017598Y011457
X00815Y004843
X00187Y009449
X001929Y011378
X00252Y012874
Y013898
X00126Y01374
Y013465
Y013189
X000984
X000709
Y013465
Y01374
X000984
Y013465
X000315Y000315
X000709Y014016
X000984
X00126
X000945Y016339
X001693Y017244
X001969
X002244
X002244Y017677
X001969
X001693
X001378Y018268
Y018543
Y018819
X000906Y019213
X002283Y01937
X002441Y018386
X002323Y023661
X002047
X002008Y024134
X002402Y024094
X001732Y024961
X000945Y023228
X001614Y027795
X00189
X002165
X002402Y027165
X002323Y028937
X002047
X002402Y02937
X002677
X003268Y027795
X003543
X003819
X004134Y02622
X004055Y024921
X002559Y024528
X002677Y024094
X004331Y022598
X005827Y022165
X007008Y022795
X008425
X009843
X011614Y022598
X013032Y022874
X014606Y023661
Y023937
X014488Y02437
Y024724
X015039Y024291
X015236Y024094
X015197Y025433
X015079Y027402
X015276Y027795
X014409
X014134
X014606Y028937
X014882
X014961Y02937
X015236
X011929Y027008
X011693Y020433
X011457Y020315
X01189Y020079
X012165
Y019449
Y019173
X011535Y019213
X01126
X01122Y018819
X011496
X011417Y018228
X011575Y017677
X011693Y017283
X012087Y017205
X012205Y01685
X012323Y015827
X01185
X011535
X01122
X011378Y01622
X011142Y016496
X011378Y015433
X011693
X012008
X011417Y015
X010945Y01437
X011142Y014016
X009528Y014961
X008898Y014803
X008622
X008386Y015945
Y016299
X008031
Y016654
X007717
X007677Y016299
Y015945
X008031
X006575Y015906
Y016181
Y017638
X006457Y018701
X005748Y018346
X005472
X007795Y018189
X008071
X008425
X008701
X009528Y01752
X009961Y015984
Y015709
Y015433
X007126Y014803
X00685
X006102Y014567
X005827
Y014291
X006102
Y014016
X005827
X005551
Y014291
Y014567
X005354Y015591
X004016Y016575
X003228Y017677
X002953
X002677
X002559Y01937
X002874Y020945
X012047Y018543
X012323Y018543
X01189Y017953
X015827Y017402
X015787Y017126
X016968Y016968
X016929Y013976
X017165Y020394
Y020709
Y021024
X01998Y022441
X020039Y019646
Y01937
X02Y01748
Y017205
X018701Y016299
X018307Y015709
Y015394
X01998Y014567
X023228Y014468
Y022539
Y027717
X023268Y039016
X017244Y03689
X017402Y036654
X017087
X017244Y036417
X017402Y036181
X017087Y036181
X017244Y035945
X016654Y03622
X015039Y036575
X01496Y034645
X015235
X014881Y034212
X014605
X014528Y034764
X014409Y033071
X014134
X015354
X015039Y032638
X012795Y032244
X01189
X011929Y036575
X009882Y036535
X009094Y036417
X007087Y036457
X005827Y036496
X005472Y037165
X005236Y037323
Y037008
X005Y037165
X004764Y037008
X004764Y037323
X004528Y037165
X004055Y036811
X003818Y038346
X003542
X003267
X002638Y035079
X002676Y034645
X003268Y033071
X003543
X003819
X004134Y031535
X004094Y030118
X014409Y030197
Y029882
X016614Y030945
X015354Y038346
X014409
X014133
X002165
X001889
X001613
X00252Y037913
X002401Y034645
X002322Y034212
X002046
X002165Y033071
X00189
X001614
X002362Y030945
X00252Y029803
T02
X005024Y024016
X006024
X007024
X008024
X009024
X010024
X011024
X012024
Y028016
X011024
X010024
X009024
X008024
X007024
X006024
X005024
Y029291
X006024
X007024
X008024
X009024
X010024
X011024
X012024
Y033291
X011024
X010024
X009024
X008024
X007024
X006024
X005024
Y034567
X006024
X007024
X008024
X009024
X010024
X011024
X012024
Y038567
X011024
X010024
X009024
X008024
X007024
X006024
X005024
T03
X001929Y012559
Y014528
T04
X003157Y01248
X004157
X005157
X006157
X007157
X008157
T05
X002795Y00563
Y007598
X008504
Y006614
Y00563
T06
X000866Y012165
Y014921
T07
X000787Y007874
Y009547
T09
X021654Y001969
X001969
X021654Y037402
T10
X021654Y006693
Y01063
Y016535
Y020472
M30
