G04*
G04 #@! TF.GenerationSoftware,Altium Limited,Altium Designer,20.0.13 (296)*
G04*
G04 Layer_Color=65535*
%FSLAX24Y24*%
%MOIN*%
G70*
G01*
G75*
%ADD10C,0.0098*%
%ADD11C,0.0236*%
%ADD12C,0.0079*%
%ADD13C,0.0080*%
%ADD14C,0.0010*%
D10*
X6033Y18258D02*
G03*
X6033Y18258I-49J0D01*
G01*
X18661Y17785D02*
G03*
X18661Y17785I-49J0D01*
G01*
D11*
X6969Y17913D02*
G03*
X6969Y17913I-118J0D01*
G01*
D12*
X9488Y12441D02*
Y12638D01*
X8858D02*
X9488D01*
X8858Y12441D02*
Y12638D01*
X9488Y11378D02*
Y12441D01*
X8858Y11378D02*
Y12441D01*
Y11378D02*
X9488D01*
X10118Y12441D02*
Y12638D01*
X9488D02*
X10118D01*
X9488Y12441D02*
Y12638D01*
X10118Y11378D02*
Y12441D01*
X9488Y11378D02*
Y12441D01*
Y11378D02*
X10118D01*
X15354Y9961D02*
X15551D01*
Y10591D01*
X15354D02*
X15551D01*
X14291Y9961D02*
X15354D01*
X14291Y10591D02*
X15354D01*
X14291Y9961D02*
Y10591D01*
X15354Y10669D02*
X15551D01*
Y11299D01*
X15354D02*
X15551D01*
X14291Y10669D02*
X15354D01*
X14291Y11299D02*
X15354D01*
X14291Y10669D02*
Y11299D01*
X16457Y11240D02*
X16693D01*
Y10906D02*
Y11240D01*
X16457Y10020D02*
X16693D01*
Y10354D01*
X18583Y11063D02*
Y11260D01*
X17953D02*
X18583D01*
X17953Y11063D02*
Y11260D01*
X18583Y10000D02*
Y11063D01*
X17953Y10000D02*
Y11063D01*
Y10000D02*
X18583D01*
X12008Y10157D02*
Y10354D01*
Y10157D02*
X12638D01*
Y10354D01*
X12008D02*
Y11417D01*
X12638Y10354D02*
Y11417D01*
X12008D02*
X12638D01*
X19449Y11240D02*
X19685D01*
Y10906D02*
Y11240D01*
X19449Y10020D02*
X19685D01*
Y10354D01*
X13504Y11240D02*
X13740D01*
Y10906D02*
Y11240D01*
X13504Y10020D02*
X13740D01*
Y10354D01*
X17874Y11063D02*
Y11260D01*
X17244D02*
X17874D01*
X17244Y11063D02*
Y11260D01*
X17874Y10000D02*
Y11063D01*
X17244Y10000D02*
Y11063D01*
Y10000D02*
X17874D01*
X18622Y17165D02*
X18819D01*
X18622Y16535D02*
Y17165D01*
Y16535D02*
X18819D01*
Y17165D02*
X19882D01*
X18819Y16535D02*
X19882D01*
Y17165D01*
X17264Y15118D02*
Y15354D01*
X17598D01*
X18484Y15118D02*
Y15354D01*
X18150D02*
X18484D01*
X17165Y17323D02*
X17362D01*
X17165Y16693D02*
Y17323D01*
Y16693D02*
X17362D01*
Y17323D02*
X18425D01*
X17362Y16693D02*
X18425D01*
Y17323D01*
X17165Y15906D02*
Y16693D01*
Y15906D02*
X17441D01*
X17165Y16693D02*
X17441D01*
X18583D01*
X17441Y15906D02*
X18583D01*
Y16693D01*
X18346Y13622D02*
X18543D01*
Y14252D01*
X18346D02*
X18543D01*
X17283Y13622D02*
X18346D01*
X17283Y14252D02*
X18346D01*
X17283Y13622D02*
Y14252D01*
X18543Y12835D02*
Y13622D01*
X18268D02*
X18543D01*
X18268Y12835D02*
X18543D01*
X17126D02*
X18268D01*
X17126Y13622D02*
X18268D01*
X17126Y12835D02*
Y13622D01*
X866Y25748D02*
Y25945D01*
Y25748D02*
X1496D01*
Y25945D01*
X866D02*
Y27008D01*
X1496Y25945D02*
Y27008D01*
X866D02*
X1496D01*
X1575Y25748D02*
Y25945D01*
Y25748D02*
X2205D01*
Y25945D01*
X1575D02*
Y27008D01*
X2205Y25945D02*
Y27008D01*
X1575D02*
X2205D01*
X1260Y27185D02*
X1496D01*
X1260D02*
Y27520D01*
Y28406D02*
X1496D01*
X1260Y28071D02*
Y28406D01*
X1654Y23504D02*
X1850D01*
Y24134D01*
X1654D02*
X1850D01*
X591Y23504D02*
X1654D01*
X591Y24134D02*
X1654D01*
X591Y23504D02*
Y24134D01*
X1260Y24350D02*
X1496D01*
X1260D02*
Y24685D01*
Y25571D02*
X1496D01*
X1260Y25236D02*
Y25571D01*
X3189Y25748D02*
Y25945D01*
Y25748D02*
X3819D01*
Y25945D01*
X3189D02*
Y27008D01*
X3819Y25945D02*
Y27008D01*
X3189D02*
X3819D01*
X2480Y25748D02*
Y25945D01*
Y25748D02*
X3110D01*
Y25945D01*
X2480D02*
Y27008D01*
X3110Y25945D02*
Y27008D01*
X2480D02*
X3110D01*
X2913Y27185D02*
X3150D01*
X2913D02*
Y27520D01*
Y28406D02*
X3150D01*
X2913Y28071D02*
Y28406D01*
X2874Y24134D02*
X3071D01*
X2874Y23504D02*
Y24134D01*
Y23504D02*
X3071D01*
Y24134D02*
X4134D01*
X3071Y23504D02*
X4134D01*
Y24134D01*
X2874Y24350D02*
X3110D01*
X2874D02*
Y24685D01*
Y25571D02*
X3110D01*
X2874Y25236D02*
Y25571D01*
X6732Y26299D02*
Y26496D01*
Y26299D02*
X7362D01*
Y26496D01*
X6732D02*
Y27559D01*
X7362Y26496D02*
Y27559D01*
X6732D02*
X7362D01*
X8740Y26299D02*
Y26496D01*
Y26299D02*
X9370D01*
Y26496D01*
X8740D02*
Y27559D01*
X9370Y26496D02*
Y27559D01*
X8740D02*
X9370D01*
X10709Y26260D02*
Y26457D01*
Y26260D02*
X11339D01*
Y26457D01*
X10709D02*
Y27520D01*
X11339Y26457D02*
Y27520D01*
X10709D02*
X11339D01*
X10354Y25512D02*
Y25709D01*
X9724D02*
X10354D01*
X9724Y25512D02*
Y25709D01*
X10354Y24449D02*
Y25512D01*
X9724Y24449D02*
Y25512D01*
Y24449D02*
X10354D01*
X15906Y25748D02*
Y25945D01*
Y25748D02*
X16535D01*
Y25945D01*
X15906D02*
Y27008D01*
X16535Y25945D02*
Y27008D01*
X15906D02*
X16535D01*
X8346Y25512D02*
Y25709D01*
X7717D02*
X8346D01*
X7717Y25512D02*
Y25709D01*
X8346Y24449D02*
Y25512D01*
X7717Y24449D02*
Y25512D01*
Y24449D02*
X8346D01*
X7362Y25512D02*
Y25709D01*
X6732D02*
X7362D01*
X6732Y25512D02*
Y25709D01*
X7362Y24449D02*
Y25512D01*
X6732Y24449D02*
Y25512D01*
Y24449D02*
X7362D01*
X6339Y25512D02*
Y25709D01*
X5709D02*
X6339D01*
X5709Y25512D02*
Y25709D01*
X6339Y24449D02*
Y25512D01*
X5709Y24449D02*
Y25512D01*
Y24449D02*
X6339D01*
X15197Y25748D02*
Y25945D01*
Y25748D02*
X15827D01*
Y25945D01*
X15197D02*
Y27008D01*
X15827Y25945D02*
Y27008D01*
X15197D02*
X15827D01*
X5315Y25512D02*
Y25709D01*
X4685D02*
X5315D01*
X4685Y25512D02*
Y25709D01*
X5315Y24449D02*
Y25512D01*
X4685Y24449D02*
Y25512D01*
Y24449D02*
X5315D01*
X15000Y27185D02*
X15236D01*
X15000D02*
Y27520D01*
Y28406D02*
X15236D01*
X15000Y28071D02*
Y28406D01*
X15433Y24134D02*
X15630D01*
X15433Y23504D02*
Y24134D01*
Y23504D02*
X15630D01*
Y24134D02*
X16693D01*
X15630Y23504D02*
X16693D01*
Y24134D01*
X15669Y24311D02*
X15906D01*
X15669D02*
Y24646D01*
Y25531D02*
X15906D01*
X15669Y25197D02*
Y25531D01*
X12992Y25787D02*
Y25984D01*
Y25787D02*
X13622D01*
Y25984D01*
X12992D02*
Y27047D01*
X13622Y25984D02*
Y27047D01*
X12992D02*
X13622D01*
X13701Y25787D02*
Y25984D01*
Y25787D02*
X14331D01*
Y25984D01*
X13701D02*
Y27047D01*
X14331Y25984D02*
Y27047D01*
X13701D02*
X14331D01*
X13307Y27185D02*
X13543D01*
X13307D02*
Y27520D01*
Y28406D02*
X13543D01*
X13307Y28071D02*
Y28406D01*
X14213Y23504D02*
X14409D01*
Y24134D01*
X14213D02*
X14409D01*
X13150Y23504D02*
X14213D01*
X13150Y24134D02*
X14213D01*
X13150Y23504D02*
Y24134D01*
X13051Y25000D02*
Y25236D01*
X13386D01*
X14272Y25000D02*
Y25236D01*
X13937D02*
X14272D01*
X866Y31024D02*
Y31220D01*
Y31024D02*
X1496D01*
Y31220D01*
X866D02*
Y32283D01*
X1496Y31220D02*
Y32283D01*
X866D02*
X1496D01*
X1575Y31024D02*
Y31220D01*
Y31024D02*
X2205D01*
Y31220D01*
X1575D02*
Y32283D01*
X2205Y31220D02*
Y32283D01*
X1575D02*
X2205D01*
X1260Y32461D02*
X1496D01*
X1260D02*
Y32795D01*
Y33681D02*
X1496D01*
X1260Y33346D02*
Y33681D01*
X1654Y28780D02*
X1850D01*
Y29409D01*
X1654D02*
X1850D01*
X591Y28780D02*
X1654D01*
X591Y29409D02*
X1654D01*
X591Y28780D02*
Y29409D01*
X1260Y29626D02*
X1496D01*
X1260D02*
Y29961D01*
Y30846D02*
X1496D01*
X1260Y30512D02*
Y30846D01*
X3189Y31024D02*
Y31220D01*
Y31024D02*
X3819D01*
Y31220D01*
X3189D02*
Y32283D01*
X3819Y31220D02*
Y32283D01*
X3189D02*
X3819D01*
X2480Y31024D02*
Y31220D01*
Y31024D02*
X3110D01*
Y31220D01*
X2480D02*
Y32283D01*
X3110Y31220D02*
Y32283D01*
X2480D02*
X3110D01*
X2913Y32461D02*
X3150D01*
X2913D02*
Y32795D01*
Y33681D02*
X3150D01*
X2913Y33346D02*
Y33681D01*
X2874Y29409D02*
X3071D01*
X2874Y28780D02*
Y29409D01*
Y28780D02*
X3071D01*
Y29409D02*
X4134D01*
X3071Y28780D02*
X4134D01*
Y29409D01*
X2874Y29626D02*
X3110D01*
X2874D02*
Y29961D01*
Y30846D02*
X3110D01*
X2874Y30512D02*
Y30846D01*
X6732Y31575D02*
Y31772D01*
Y31575D02*
X7362D01*
Y31772D01*
X6732D02*
Y32835D01*
X7362Y31772D02*
Y32835D01*
X6732D02*
X7362D01*
X8740Y31575D02*
Y31772D01*
Y31575D02*
X9370D01*
Y31772D01*
X8740D02*
Y32835D01*
X9370Y31772D02*
Y32835D01*
X8740D02*
X9370D01*
X10709Y31535D02*
Y31732D01*
Y31535D02*
X11339D01*
Y31732D01*
X10709D02*
Y32795D01*
X11339Y31732D02*
Y32795D01*
X10709D02*
X11339D01*
X10354Y30787D02*
Y30984D01*
X9724D02*
X10354D01*
X9724Y30787D02*
Y30984D01*
X10354Y29724D02*
Y30787D01*
X9724Y29724D02*
Y30787D01*
Y29724D02*
X10354D01*
X15906Y31024D02*
Y31220D01*
Y31024D02*
X16535D01*
Y31220D01*
X15906D02*
Y32283D01*
X16535Y31220D02*
Y32283D01*
X15906D02*
X16535D01*
X8346Y30787D02*
Y30984D01*
X7717D02*
X8346D01*
X7717Y30787D02*
Y30984D01*
X8346Y29724D02*
Y30787D01*
X7717Y29724D02*
Y30787D01*
Y29724D02*
X8346D01*
X7362Y30787D02*
Y30984D01*
X6732D02*
X7362D01*
X6732Y30787D02*
Y30984D01*
X7362Y29724D02*
Y30787D01*
X6732Y29724D02*
Y30787D01*
Y29724D02*
X7362D01*
X6339Y30787D02*
Y30984D01*
X5709D02*
X6339D01*
X5709Y30787D02*
Y30984D01*
X6339Y29724D02*
Y30787D01*
X5709Y29724D02*
Y30787D01*
Y29724D02*
X6339D01*
X15197Y31024D02*
Y31220D01*
Y31024D02*
X15827D01*
Y31220D01*
X15197D02*
Y32283D01*
X15827Y31220D02*
Y32283D01*
X15197D02*
X15827D01*
X5315Y30787D02*
Y30984D01*
X4685D02*
X5315D01*
X4685Y30787D02*
Y30984D01*
X5315Y29724D02*
Y30787D01*
X4685Y29724D02*
Y30787D01*
Y29724D02*
X5315D01*
X15000Y32461D02*
X15236D01*
X15000D02*
Y32795D01*
Y33681D02*
X15236D01*
X15000Y33346D02*
Y33681D01*
X15433Y29409D02*
X15630D01*
X15433Y28780D02*
Y29409D01*
Y28780D02*
X15630D01*
Y29409D02*
X16693D01*
X15630Y28780D02*
X16693D01*
Y29409D01*
X15669Y29587D02*
X15906D01*
X15669D02*
Y29921D01*
Y30807D02*
X15906D01*
X15669Y30472D02*
Y30807D01*
X12992Y31063D02*
Y31260D01*
Y31063D02*
X13622D01*
Y31260D01*
X12992D02*
Y32323D01*
X13622Y31260D02*
Y32323D01*
X12992D02*
X13622D01*
X13701Y31063D02*
Y31260D01*
Y31063D02*
X14331D01*
Y31260D01*
X13701D02*
Y32323D01*
X14331Y31260D02*
Y32323D01*
X13701D02*
X14331D01*
X13307Y32461D02*
X13543D01*
X13307D02*
Y32795D01*
Y33681D02*
X13543D01*
X13307Y33346D02*
Y33681D01*
X14213Y28780D02*
X14409D01*
Y29409D01*
X14213D02*
X14409D01*
X13150Y28780D02*
X14213D01*
X13150Y29409D02*
X14213D01*
X13150Y28780D02*
Y29409D01*
X13051Y30276D02*
Y30512D01*
X13386D01*
X14272Y30276D02*
Y30512D01*
X13937D02*
X14272D01*
X866Y36299D02*
Y36496D01*
Y36299D02*
X1496D01*
Y36496D01*
X866D02*
Y37559D01*
X1496Y36496D02*
Y37559D01*
X866D02*
X1496D01*
X1575Y36299D02*
Y36496D01*
Y36299D02*
X2205D01*
Y36496D01*
X1575D02*
Y37559D01*
X2205Y36496D02*
Y37559D01*
X1575D02*
X2205D01*
X1260Y37736D02*
X1496D01*
X1260D02*
Y38071D01*
Y38957D02*
X1496D01*
X1260Y38622D02*
Y38957D01*
X1654Y34055D02*
X1850D01*
Y34685D01*
X1654D02*
X1850D01*
X591Y34055D02*
X1654D01*
X591Y34685D02*
X1654D01*
X591Y34055D02*
Y34685D01*
X1260Y34902D02*
X1496D01*
X1260D02*
Y35236D01*
Y36122D02*
X1496D01*
X1260Y35787D02*
Y36122D01*
X3189Y36299D02*
Y36496D01*
Y36299D02*
X3819D01*
Y36496D01*
X3189D02*
Y37559D01*
X3819Y36496D02*
Y37559D01*
X3189D02*
X3819D01*
X2480Y36299D02*
Y36496D01*
Y36299D02*
X3110D01*
Y36496D01*
X2480D02*
Y37559D01*
X3110Y36496D02*
Y37559D01*
X2480D02*
X3110D01*
X2913Y37736D02*
X3150D01*
X2913D02*
Y38071D01*
Y38957D02*
X3150D01*
X2913Y38622D02*
Y38957D01*
X2874Y34685D02*
X3071D01*
X2874Y34055D02*
Y34685D01*
Y34055D02*
X3071D01*
Y34685D02*
X4134D01*
X3071Y34055D02*
X4134D01*
Y34685D01*
X2874Y34902D02*
X3110D01*
X2874D02*
Y35236D01*
Y36122D02*
X3110D01*
X2874Y35787D02*
Y36122D01*
X6732Y36850D02*
Y37047D01*
Y36850D02*
X7362D01*
Y37047D01*
X6732D02*
Y38110D01*
X7362Y37047D02*
Y38110D01*
X6732D02*
X7362D01*
X8740Y36850D02*
Y37047D01*
Y36850D02*
X9370D01*
Y37047D01*
X8740D02*
Y38110D01*
X9370Y37047D02*
Y38110D01*
X8740D02*
X9370D01*
X10709Y36811D02*
Y37008D01*
Y36811D02*
X11339D01*
Y37008D01*
X10709D02*
Y38071D01*
X11339Y37008D02*
Y38071D01*
X10709D02*
X11339D01*
X10354Y36063D02*
Y36260D01*
X9724D02*
X10354D01*
X9724Y36063D02*
Y36260D01*
X10354Y35000D02*
Y36063D01*
X9724Y35000D02*
Y36063D01*
Y35000D02*
X10354D01*
X15906Y36299D02*
Y36496D01*
Y36299D02*
X16535D01*
Y36496D01*
X15906D02*
Y37559D01*
X16535Y36496D02*
Y37559D01*
X15906D02*
X16535D01*
X8346Y36063D02*
Y36260D01*
X7717D02*
X8346D01*
X7717Y36063D02*
Y36260D01*
X8346Y35000D02*
Y36063D01*
X7717Y35000D02*
Y36063D01*
Y35000D02*
X8346D01*
X7362Y36063D02*
Y36260D01*
X6732D02*
X7362D01*
X6732Y36063D02*
Y36260D01*
X7362Y35000D02*
Y36063D01*
X6732Y35000D02*
Y36063D01*
Y35000D02*
X7362D01*
X6339Y36063D02*
Y36260D01*
X5709D02*
X6339D01*
X5709Y36063D02*
Y36260D01*
X6339Y35000D02*
Y36063D01*
X5709Y35000D02*
Y36063D01*
Y35000D02*
X6339D01*
X15197Y36299D02*
Y36496D01*
Y36299D02*
X15827D01*
Y36496D01*
X15197D02*
Y37559D01*
X15827Y36496D02*
Y37559D01*
X15197D02*
X15827D01*
X5315Y36063D02*
Y36260D01*
X4685D02*
X5315D01*
X4685Y36063D02*
Y36260D01*
X5315Y35000D02*
Y36063D01*
X4685Y35000D02*
Y36063D01*
Y35000D02*
X5315D01*
X15000Y37736D02*
X15236D01*
X15000D02*
Y38071D01*
Y38957D02*
X15236D01*
X15000Y38622D02*
Y38957D01*
X15433Y34685D02*
X15630D01*
X15433Y34055D02*
Y34685D01*
Y34055D02*
X15630D01*
Y34685D02*
X16693D01*
X15630Y34055D02*
X16693D01*
Y34685D01*
X15669Y34862D02*
X15906D01*
X15669D02*
Y35197D01*
Y36083D02*
X15906D01*
X15669Y35748D02*
Y36083D01*
X12992Y36339D02*
Y36535D01*
Y36339D02*
X13622D01*
Y36535D01*
X12992D02*
Y37598D01*
X13622Y36535D02*
Y37598D01*
X12992D02*
X13622D01*
X13701Y36339D02*
Y36535D01*
Y36339D02*
X14331D01*
Y36535D01*
X13701D02*
Y37598D01*
X14331Y36535D02*
Y37598D01*
X13701D02*
X14331D01*
X13307Y37736D02*
X13543D01*
X13307D02*
Y38071D01*
Y38957D02*
X13543D01*
X13307Y38622D02*
Y38957D01*
X14213Y34055D02*
X14409D01*
Y34685D01*
X14213D02*
X14409D01*
X13150Y34055D02*
X14213D01*
X13150Y34685D02*
X14213D01*
X13150Y34055D02*
Y34685D01*
X13051Y35551D02*
Y35787D01*
X13386D01*
X14272Y35551D02*
Y35787D01*
X13937D02*
X14272D01*
X6457Y14685D02*
Y18307D01*
X10079Y14685D02*
Y18307D01*
X6457D02*
X10079D01*
X6457Y14685D02*
X10079D01*
X17854Y17539D02*
Y17559D01*
Y19528D02*
Y19547D01*
X16083D02*
X17854D01*
X16083Y17539D02*
Y17559D01*
Y19528D02*
Y19547D01*
Y17539D02*
X17854D01*
X19685Y17165D02*
X19882D01*
Y17795D01*
X19685D02*
X19882D01*
X18622Y17165D02*
X19685D01*
X18622Y17795D02*
X19685D01*
X18622Y17165D02*
Y17795D01*
X8425Y21102D02*
X8622D01*
Y21732D01*
X8425D02*
X8622D01*
X7362Y21102D02*
X8425D01*
X7362Y21732D02*
X8425D01*
X7362Y21102D02*
Y21732D01*
X19331Y18425D02*
X19528D01*
X19331Y17795D02*
Y18425D01*
Y17795D02*
X19528D01*
Y18425D02*
X20591D01*
X19528Y17795D02*
X20591D01*
Y18425D01*
X7382Y22598D02*
Y22835D01*
X7717D01*
X8602Y22598D02*
Y22835D01*
X8268D02*
X8602D01*
X18701Y17795D02*
Y17992D01*
Y17795D02*
X19331D01*
Y17992D01*
X18701D02*
Y19055D01*
X19331Y17992D02*
Y19055D01*
X18701D02*
X19331D01*
X19528D01*
X19331Y18425D02*
Y19055D01*
Y18425D02*
X19528D01*
Y19055D02*
X20591D01*
X19528Y18425D02*
X20591D01*
Y19055D01*
X16181Y19803D02*
X16968D01*
Y20079D01*
X16181Y19803D02*
Y20079D01*
Y21220D01*
X16968Y20079D02*
Y21220D01*
X16181D02*
X16968D01*
X15551Y19803D02*
Y20000D01*
Y19803D02*
X16181D01*
Y20000D01*
X15551D02*
Y21063D01*
X16181Y20000D02*
Y21063D01*
X15551D02*
X16181D01*
X18622Y19685D02*
X18819D01*
X18622Y19055D02*
Y19685D01*
Y19055D02*
X18819D01*
Y19685D02*
X19882D01*
X18819Y19055D02*
X19882D01*
Y19685D01*
X4055Y21102D02*
X4252D01*
Y21732D01*
X4055D02*
X4252D01*
X2992Y21102D02*
X4055D01*
X2992Y21732D02*
X4055D01*
X2992Y21102D02*
Y21732D01*
X3012Y22598D02*
Y22835D01*
X3346D01*
X4232Y22598D02*
Y22835D01*
X3898D02*
X4232D01*
X9882Y21102D02*
X10079D01*
Y21732D01*
X9882D02*
X10079D01*
X8819Y21102D02*
X9882D01*
X8819Y21732D02*
X9882D01*
X8819Y21102D02*
Y21732D01*
X8839Y22598D02*
Y22835D01*
X9173D01*
X10059Y22598D02*
Y22835D01*
X9724D02*
X10059D01*
X14252Y21102D02*
X14449D01*
Y21732D01*
X14252D02*
X14449D01*
X13189Y21102D02*
X14252D01*
X13189Y21732D02*
X14252D01*
X13189Y21102D02*
Y21732D01*
X6969Y21102D02*
X7165D01*
Y21732D01*
X6969D02*
X7165D01*
X5906Y21102D02*
X6969D01*
X5906Y21732D02*
X6969D01*
X5906Y21102D02*
Y21732D01*
X13209Y22598D02*
Y22835D01*
X13543D01*
X14429Y22598D02*
Y22835D01*
X14094D02*
X14429D01*
X5925Y22598D02*
Y22835D01*
X6260D01*
X7146Y22598D02*
Y22835D01*
X6811D02*
X7146D01*
X12795Y21102D02*
X12992D01*
Y21732D01*
X12795D02*
X12992D01*
X11732Y21102D02*
X12795D01*
X11732Y21732D02*
X12795D01*
X11732Y21102D02*
Y21732D01*
X11339Y21102D02*
X11535D01*
Y21732D01*
X11339D02*
X11535D01*
X10276Y21102D02*
X11339D01*
X10276Y21732D02*
X11339D01*
X10276Y21102D02*
Y21732D01*
X11752Y22598D02*
Y22835D01*
X12087D01*
X12972Y22598D02*
Y22835D01*
X12638D02*
X12972D01*
X10295Y22598D02*
Y22835D01*
X10630D01*
X11516Y22598D02*
Y22835D01*
X11181D02*
X11516D01*
X5512Y21102D02*
X5709D01*
Y21732D01*
X5512D02*
X5709D01*
X4449Y21102D02*
X5512D01*
X4449Y21732D02*
X5512D01*
X4449Y21102D02*
Y21732D01*
X4469Y22598D02*
Y22835D01*
X4803D01*
X5689Y22598D02*
Y22835D01*
X5354D02*
X5689D01*
X3228Y19685D02*
X3425D01*
X3228Y19055D02*
Y19685D01*
Y19055D02*
X3425D01*
Y19685D02*
X4488D01*
X3425Y19055D02*
X4488D01*
Y19685D01*
X2598Y18425D02*
Y18622D01*
Y18425D02*
X3228D01*
Y18622D01*
X2598D02*
Y19685D01*
X3228Y18622D02*
Y19685D01*
X2598D02*
X3228D01*
X4488Y7638D02*
Y7835D01*
X3858D02*
X4488D01*
X3858Y7638D02*
Y7835D01*
X4488Y6575D02*
Y7638D01*
X3858Y6575D02*
Y7638D01*
Y6575D02*
X4488D01*
X10236Y8937D02*
Y9134D01*
X9606D02*
X10236D01*
X9606Y8937D02*
Y9134D01*
X10236Y7874D02*
Y8937D01*
X9606Y7874D02*
Y8937D01*
Y7874D02*
X10236D01*
X3228Y19055D02*
X3425D01*
X3228Y18425D02*
Y19055D01*
Y18425D02*
X3425D01*
Y19055D02*
X4488D01*
X3425Y18425D02*
X4488D01*
Y19055D01*
X3228Y6575D02*
Y6772D01*
Y6575D02*
X3858D01*
Y6772D01*
X3228D02*
Y7835D01*
X3858Y6772D02*
Y7835D01*
X3228D02*
X3858D01*
X9606Y8937D02*
Y9134D01*
X8976D02*
X9606D01*
X8976Y8937D02*
Y9134D01*
X9606Y7874D02*
Y8937D01*
X8976Y7874D02*
Y8937D01*
Y7874D02*
X9606D01*
X3858Y6378D02*
Y6575D01*
X3228D02*
X3858D01*
X3228Y6378D02*
Y6575D01*
X3858Y5315D02*
Y6378D01*
X3228Y5315D02*
Y6378D01*
Y5315D02*
X3858D01*
X9606Y7677D02*
Y7874D01*
X8976D02*
X9606D01*
X8976Y7677D02*
Y7874D01*
X9606Y6614D02*
Y7677D01*
X8976Y6614D02*
Y7677D01*
Y6614D02*
X9606D01*
Y6417D02*
Y6614D01*
X8976D02*
X9606D01*
X8976Y6417D02*
Y6614D01*
X9606Y5354D02*
Y6417D01*
X8976Y5354D02*
Y6417D01*
Y5354D02*
X9606D01*
X5551Y11555D02*
X5787D01*
Y11220D02*
Y11555D01*
X5551Y10335D02*
X5787D01*
Y10669D01*
X8976Y4094D02*
Y4291D01*
Y4094D02*
X9606D01*
Y4291D01*
X8976D02*
Y5354D01*
X9606Y4291D02*
Y5354D01*
X8976D02*
X9606D01*
X7756Y11378D02*
Y11575D01*
X7126D02*
X7756D01*
X7126Y11378D02*
Y11575D01*
X7756Y10315D02*
Y11378D01*
X7126Y10315D02*
Y11378D01*
Y10315D02*
X7756D01*
X6339Y11654D02*
X7126D01*
X6339Y11378D02*
Y11654D01*
X7126Y11378D02*
Y11654D01*
Y10236D02*
Y11378D01*
X6339Y10236D02*
Y11378D01*
Y10236D02*
X7126D01*
X4055Y10315D02*
Y10512D01*
Y10315D02*
X4685D01*
Y10512D01*
X4055D02*
Y11575D01*
X4685Y10512D02*
Y11575D01*
X4055D02*
X4685D01*
X3268Y10236D02*
X4055D01*
Y10512D01*
X3268Y10236D02*
Y10512D01*
Y11654D01*
X4055Y10512D02*
Y11654D01*
X3268D02*
X4055D01*
X10236Y5157D02*
Y5354D01*
X9606D02*
X10236D01*
X9606Y5157D02*
Y5354D01*
X10236Y4094D02*
Y5157D01*
X9606Y4094D02*
Y5157D01*
Y4094D02*
X10236D01*
X2657Y11980D02*
Y12980D01*
X8657Y11980D02*
Y12980D01*
X2657Y11980D02*
X8657D01*
X2657Y12980D02*
X8657D01*
X7646Y11980D02*
Y12980D01*
D13*
X8386Y13110D02*
X8552D01*
X8469D01*
Y13610D01*
X8386Y13527D01*
X1990Y12295D02*
X2156Y12379D01*
X2323Y12545D01*
Y12712D01*
X2240Y12795D01*
X2073D01*
X1990Y12712D01*
Y12629D01*
X2073Y12545D01*
X2323D01*
D14*
X0Y0D02*
Y39370D01*
X23622D01*
X23622Y0D01*
X0D02*
X23622D01*
M02*
