G04*
G04 #@! TF.GenerationSoftware,Altium Limited,Altium Designer,20.0.13 (296)*
G04*
G04 Layer_Physical_Order=2*
G04 Layer_Color=16711680*
%FSLAX24Y24*%
%MOIN*%
G70*
G01*
G75*
%ADD14C,0.0010*%
%ADD15R,0.0394X0.0354*%
%ADD16R,0.0354X0.0394*%
%ADD24R,0.0551X0.0413*%
G04:AMPARAMS|DCode=38|XSize=102.4mil|YSize=185mil|CornerRadius=51.2mil|HoleSize=0mil|Usage=FLASHONLY|Rotation=270.000|XOffset=0mil|YOffset=0mil|HoleType=Round|Shape=RoundedRectangle|*
%AMROUNDEDRECTD38*
21,1,0.1024,0.0827,0,0,270.0*
21,1,0.0000,0.1850,0,0,270.0*
1,1,0.1024,-0.0413,0.0000*
1,1,0.1024,-0.0413,0.0000*
1,1,0.1024,0.0413,0.0000*
1,1,0.1024,0.0413,0.0000*
%
%ADD38ROUNDEDRECTD38*%
%ADD39C,0.0610*%
%ADD40R,0.0610X0.0610*%
%ADD47C,0.0250*%
%ADD48C,0.0115*%
%ADD49C,0.0100*%
%ADD50C,0.0150*%
%ADD51C,0.0600*%
%ADD52C,0.0220*%
%ADD53C,0.0120*%
%ADD54C,0.1181*%
%ADD55C,0.2756*%
%ADD56P,0.0533X8X112.5*%
%ADD57P,0.0852X8X112.5*%
%ADD58C,0.0591*%
G04:AMPARAMS|DCode=59|XSize=59.1mil|YSize=78.7mil|CornerRadius=0mil|HoleSize=0mil|Usage=FLASHONLY|Rotation=180.000|XOffset=0mil|YOffset=0mil|HoleType=Round|Shape=Octagon|*
%AMOCTAGOND59*
4,1,8,0.0148,-0.0394,-0.0148,-0.0394,-0.0295,-0.0246,-0.0295,0.0246,-0.0148,0.0394,0.0148,0.0394,0.0295,0.0246,0.0295,-0.0246,0.0148,-0.0394,0.0*
%
%ADD59OCTAGOND59*%

%ADD60O,0.0591X0.0827*%
%ADD61C,0.0256*%
%ADD62C,0.1339*%
%ADD63O,0.0551X0.0157*%
%ADD64R,0.0709X0.0461*%
%ADD65R,0.0433X0.0295*%
%ADD66R,0.0433X0.0335*%
%ADD67R,0.0531X0.0610*%
%ADD68R,0.0394X0.0472*%
%ADD69R,0.0531X0.0748*%
G36*
X23490Y22244D02*
X20177D01*
Y14764D01*
X23490D01*
X23490Y132D01*
X132D01*
Y7466D01*
X206Y7487D01*
X212Y7487D01*
X297Y7383D01*
X402Y7297D01*
X522Y7233D01*
X652Y7193D01*
X737Y7185D01*
Y7874D01*
Y8563D01*
X652Y8555D01*
X522Y8515D01*
X402Y8451D01*
X297Y8365D01*
X212Y8261D01*
X206Y8261D01*
X132Y8282D01*
Y9182D01*
X212Y9202D01*
X227Y9173D01*
X311Y9071D01*
X413Y8987D01*
X530Y8925D01*
X656Y8886D01*
X787Y8873D01*
X919Y8886D01*
X1045Y8925D01*
X1162Y8987D01*
X1264Y9071D01*
X1348Y9173D01*
X1410Y9289D01*
X1448Y9416D01*
X1461Y9547D01*
X1448Y9679D01*
X1410Y9805D01*
X1348Y9922D01*
X1264Y10024D01*
X1162Y10107D01*
X1045Y10170D01*
X919Y10208D01*
X787Y10221D01*
X656Y10208D01*
X530Y10170D01*
X413Y10107D01*
X311Y10024D01*
X227Y9922D01*
X212Y9893D01*
X132Y9913D01*
Y15453D01*
X442D01*
Y15783D01*
X492D01*
Y15833D01*
X946D01*
Y16114D01*
X651D01*
Y16541D01*
X1122D01*
X1173Y16551D01*
X1216Y16580D01*
X1672Y17036D01*
X1693Y17032D01*
X1708Y17035D01*
X1953D01*
X1969Y17032D01*
X1984Y17035D01*
X2205D01*
X2217Y17037D01*
X2244Y17032D01*
X2325Y17048D01*
X2394Y17094D01*
X2440Y17163D01*
X2456Y17244D01*
X2440Y17325D01*
X2394Y17394D01*
X2365Y17414D01*
X2365Y17508D01*
X2394Y17527D01*
X2414Y17557D01*
X2508D01*
X2527Y17527D01*
X2596Y17481D01*
X2677Y17465D01*
X2692Y17468D01*
X2938D01*
X2953Y17465D01*
X2968Y17468D01*
X3213D01*
X3228Y17465D01*
X3309Y17481D01*
X3378Y17527D01*
X3424Y17596D01*
X3440Y17677D01*
X3424Y17758D01*
X3378Y17827D01*
X3309Y17873D01*
X3228Y17889D01*
X3213Y17886D01*
X2968D01*
X2953Y17889D01*
X2938Y17886D01*
X2692D01*
X2677Y17889D01*
X2657Y17885D01*
X2456Y18086D01*
X2413Y18115D01*
X2362Y18125D01*
X1621D01*
X1577Y18205D01*
X1590Y18268D01*
X1587Y18283D01*
Y18528D01*
X1590Y18543D01*
X1587Y18558D01*
Y18804D01*
X1590Y18819D01*
X1574Y18900D01*
X1528Y18969D01*
X1459Y19015D01*
X1378Y19031D01*
X1297Y19015D01*
X1228Y18969D01*
X1216Y18951D01*
X651D01*
Y19519D01*
X132D01*
Y19835D01*
X354D01*
Y20240D01*
Y20645D01*
X132D01*
Y39238D01*
X23490D01*
X23490Y22244D01*
D02*
G37*
%LPC*%
G36*
X4999Y38949D02*
X2558D01*
X2478Y38933D01*
X2410Y38887D01*
X2410Y38887D01*
X2078Y38555D01*
X1904D01*
X1889Y38558D01*
X1874Y38555D01*
X1628D01*
X1613Y38558D01*
X1532Y38542D01*
X1463Y38496D01*
X1417Y38427D01*
X1401Y38346D01*
X1417Y38265D01*
X1463Y38196D01*
X1532Y38150D01*
X1613Y38134D01*
X1628Y38137D01*
X1874D01*
X1889Y38134D01*
X1904Y38137D01*
X2149D01*
X2165Y38134D01*
X2246Y38150D01*
X2314Y38196D01*
X2323Y38209D01*
X2645Y38531D01*
X3044D01*
X3087Y38451D01*
X3071Y38427D01*
X3055Y38346D01*
X3071Y38265D01*
X3117Y38196D01*
X3186Y38150D01*
X3267Y38134D01*
X3282Y38137D01*
X3527D01*
X3542Y38134D01*
X3558Y38137D01*
X3731D01*
X4103Y37765D01*
X4103Y37765D01*
X4171Y37720D01*
X4251Y37704D01*
X5432D01*
X5432Y37704D01*
X5512Y37720D01*
X5580Y37765D01*
X6006Y38191D01*
X6024Y38188D01*
X6122Y38201D01*
X6213Y38239D01*
X6291Y38299D01*
X6351Y38378D01*
X6389Y38469D01*
X6402Y38567D01*
X6389Y38665D01*
X6351Y38756D01*
X6291Y38835D01*
X6213Y38895D01*
X6122Y38933D01*
X6024Y38945D01*
X5926Y38933D01*
X5834Y38895D01*
X5756Y38835D01*
X5696Y38756D01*
X5658Y38665D01*
X5645Y38567D01*
X5658Y38469D01*
X5668Y38444D01*
X5346Y38122D01*
X5131D01*
X5122Y38201D01*
X5213Y38239D01*
X5291Y38299D01*
X5351Y38378D01*
X5389Y38469D01*
X5402Y38567D01*
X5389Y38665D01*
X5351Y38756D01*
X5291Y38835D01*
X5213Y38895D01*
X5122Y38933D01*
X5024Y38945D01*
X5019Y38945D01*
X4999Y38949D01*
D02*
G37*
G36*
X12024Y38945D02*
X11926Y38933D01*
X11834Y38895D01*
X11756Y38835D01*
X11696Y38756D01*
X11658Y38665D01*
X11645Y38567D01*
X11658Y38469D01*
X11696Y38378D01*
X11756Y38299D01*
X11834Y38239D01*
X11926Y38201D01*
X12024Y38188D01*
X12122Y38201D01*
X12213Y38239D01*
X12291Y38299D01*
X12351Y38378D01*
X12389Y38469D01*
X12402Y38567D01*
X12389Y38665D01*
X12351Y38756D01*
X12291Y38835D01*
X12213Y38895D01*
X12122Y38933D01*
X12024Y38945D01*
D02*
G37*
G36*
X11024D02*
X10926Y38933D01*
X10834Y38895D01*
X10756Y38835D01*
X10696Y38756D01*
X10658Y38665D01*
X10645Y38567D01*
X10658Y38469D01*
X10696Y38378D01*
X10756Y38299D01*
X10834Y38239D01*
X10926Y38201D01*
X11024Y38188D01*
X11122Y38201D01*
X11213Y38239D01*
X11291Y38299D01*
X11351Y38378D01*
X11389Y38469D01*
X11402Y38567D01*
X11389Y38665D01*
X11351Y38756D01*
X11291Y38835D01*
X11213Y38895D01*
X11122Y38933D01*
X11024Y38945D01*
D02*
G37*
G36*
X9024D02*
X8926Y38933D01*
X8834Y38895D01*
X8756Y38835D01*
X8696Y38756D01*
X8658Y38665D01*
X8645Y38567D01*
X8658Y38469D01*
X8696Y38378D01*
X8756Y38299D01*
X8834Y38239D01*
X8926Y38201D01*
X9024Y38188D01*
X9122Y38201D01*
X9213Y38239D01*
X9291Y38299D01*
X9351Y38378D01*
X9389Y38469D01*
X9402Y38567D01*
X9389Y38665D01*
X9351Y38756D01*
X9291Y38835D01*
X9213Y38895D01*
X9122Y38933D01*
X9024Y38945D01*
D02*
G37*
G36*
X8024D02*
X7926Y38933D01*
X7834Y38895D01*
X7756Y38835D01*
X7696Y38756D01*
X7658Y38665D01*
X7645Y38567D01*
X7658Y38469D01*
X7696Y38378D01*
X7756Y38299D01*
X7834Y38239D01*
X7926Y38201D01*
X8024Y38188D01*
X8122Y38201D01*
X8213Y38239D01*
X8291Y38299D01*
X8351Y38378D01*
X8389Y38469D01*
X8402Y38567D01*
X8389Y38665D01*
X8351Y38756D01*
X8291Y38835D01*
X8213Y38895D01*
X8122Y38933D01*
X8024Y38945D01*
D02*
G37*
G36*
X7024D02*
X6926Y38933D01*
X6834Y38895D01*
X6756Y38835D01*
X6696Y38756D01*
X6658Y38665D01*
X6645Y38567D01*
X6658Y38469D01*
X6696Y38378D01*
X6756Y38299D01*
X6834Y38239D01*
X6926Y38201D01*
X7024Y38188D01*
X7122Y38201D01*
X7213Y38239D01*
X7291Y38299D01*
X7351Y38378D01*
X7389Y38469D01*
X7402Y38567D01*
X7389Y38665D01*
X7351Y38756D01*
X7291Y38835D01*
X7213Y38895D01*
X7122Y38933D01*
X7024Y38945D01*
D02*
G37*
G36*
X10024D02*
X9926Y38933D01*
X9834Y38895D01*
X9756Y38835D01*
X9696Y38756D01*
X9658Y38665D01*
X9645Y38567D01*
X9658Y38469D01*
X9696Y38378D01*
X9756Y38299D01*
X9834Y38239D01*
X9926Y38201D01*
X10024Y38188D01*
X10122Y38201D01*
X10146Y38212D01*
X10557Y37801D01*
X10608Y37767D01*
X10668Y37755D01*
X12519D01*
X12579Y37767D01*
X12631Y37801D01*
X13017Y38188D01*
X13995D01*
X14052Y38150D01*
X14133Y38134D01*
X14148Y38137D01*
X14393D01*
X14409Y38134D01*
X14424Y38137D01*
X15338D01*
X15354Y38134D01*
X15435Y38150D01*
X15503Y38196D01*
X15549Y38265D01*
X15566Y38346D01*
X15549Y38427D01*
X15503Y38496D01*
X15435Y38542D01*
X15354Y38558D01*
X15338Y38555D01*
X14424D01*
X14409Y38558D01*
X14393Y38555D01*
X14148D01*
X14133Y38558D01*
X14052Y38542D01*
X13995Y38504D01*
X12952D01*
X12891Y38492D01*
X12840Y38458D01*
X12453Y38071D01*
X10734D01*
X10374Y38431D01*
X10389Y38469D01*
X10402Y38567D01*
X10389Y38665D01*
X10351Y38756D01*
X10291Y38835D01*
X10213Y38895D01*
X10122Y38933D01*
X10024Y38945D01*
D02*
G37*
G36*
X21654Y38154D02*
X21507Y38140D01*
X21365Y38097D01*
X21235Y38028D01*
X21121Y37934D01*
X21028Y37820D01*
X20958Y37690D01*
X20915Y37548D01*
X20901Y37402D01*
X20915Y37255D01*
X20958Y37113D01*
X21028Y36983D01*
X21121Y36869D01*
X21235Y36776D01*
X21365Y36706D01*
X21507Y36663D01*
X21654Y36649D01*
X21800Y36663D01*
X21942Y36706D01*
X22072Y36776D01*
X22186Y36869D01*
X22280Y36983D01*
X22349Y37113D01*
X22392Y37255D01*
X22406Y37402D01*
X22392Y37548D01*
X22349Y37690D01*
X22280Y37820D01*
X22186Y37934D01*
X22072Y38028D01*
X21942Y38097D01*
X21800Y38140D01*
X21654Y38154D01*
D02*
G37*
G36*
X16811Y37549D02*
X4685D01*
X4586Y37536D01*
X4493Y37497D01*
X4414Y37436D01*
X4353Y37357D01*
X4315Y37265D01*
X4302Y37165D01*
X4315Y37066D01*
X4353Y36974D01*
X4414Y36894D01*
X4493Y36833D01*
X4586Y36795D01*
X4685Y36782D01*
X16652D01*
X16861Y36574D01*
Y36073D01*
X16874Y35973D01*
X16912Y35881D01*
X16973Y35802D01*
X17052Y35741D01*
X17145Y35702D01*
X17244Y35689D01*
X17343Y35702D01*
X17436Y35741D01*
X17515Y35802D01*
X17576Y35881D01*
X17614Y35973D01*
X17627Y36073D01*
Y36417D01*
Y36732D01*
X17614Y36831D01*
X17576Y36924D01*
X17515Y37003D01*
X17082Y37436D01*
X17003Y37497D01*
X16910Y37536D01*
X16811Y37549D01*
D02*
G37*
G36*
X12756Y35394D02*
X4803D01*
X4743Y35382D01*
X4691Y35348D01*
X4147Y34803D01*
X2814D01*
X2757Y34841D01*
X2676Y34857D01*
X2595Y34841D01*
X2539Y34804D01*
X2538D01*
X2482Y34841D01*
X2401Y34857D01*
X2320Y34841D01*
X2251Y34795D01*
X2205Y34726D01*
X2189Y34645D01*
X2205Y34564D01*
X2251Y34495D01*
X2255Y34492D01*
X2242Y34416D01*
X2172Y34378D01*
X2128Y34408D01*
X2046Y34424D01*
X1965Y34408D01*
X1896Y34362D01*
X1851Y34293D01*
X1834Y34212D01*
X1851Y34131D01*
X1896Y34062D01*
X1965Y34016D01*
X2046Y34000D01*
X2128Y34016D01*
X2184Y34054D01*
X2241Y34016D01*
X2322Y34000D01*
X2403Y34016D01*
X2461Y34055D01*
X4147D01*
X4376Y33825D01*
X4428Y33791D01*
X4488Y33779D01*
X13557D01*
X13904Y33432D01*
X13955Y33397D01*
X14016Y33385D01*
X15446D01*
X15535Y33296D01*
X15484Y33234D01*
X15435Y33267D01*
X15354Y33283D01*
X15339Y33280D01*
X14425D01*
X14409Y33283D01*
X14394Y33280D01*
X14149D01*
X14134Y33283D01*
X14053Y33267D01*
X13996Y33229D01*
X12953D01*
X12892Y33217D01*
X12841Y33183D01*
X12454Y32796D01*
X10735D01*
X10374Y33157D01*
X10389Y33193D01*
X10402Y33291D01*
X10389Y33389D01*
X10351Y33481D01*
X10291Y33559D01*
X10213Y33619D01*
X10122Y33657D01*
X10024Y33670D01*
X9926Y33657D01*
X9834Y33619D01*
X9756Y33559D01*
X9696Y33481D01*
X9658Y33389D01*
X9645Y33291D01*
X9658Y33193D01*
X9696Y33102D01*
X9756Y33024D01*
X9834Y32964D01*
X9926Y32926D01*
X10024Y32913D01*
X10122Y32926D01*
X10147Y32936D01*
X10558Y32526D01*
X10609Y32492D01*
X10669Y32480D01*
X12520D01*
X12580Y32492D01*
X12631Y32526D01*
X13018Y32913D01*
X13996D01*
X14053Y32875D01*
X14134Y32859D01*
X14149Y32862D01*
X14394D01*
X14409Y32859D01*
X14425Y32862D01*
X15339D01*
X15354Y32859D01*
X15435Y32875D01*
X15504Y32921D01*
X15550Y32990D01*
X15566Y33071D01*
X15550Y33152D01*
X15517Y33201D01*
X15580Y33252D01*
X16771Y32061D01*
Y28684D01*
X16691Y28651D01*
X15860Y29482D01*
X15809Y29516D01*
X15748Y29528D01*
X15374D01*
X15317Y29566D01*
X15236Y29582D01*
X15155Y29566D01*
X15098Y29528D01*
X15098D01*
X15042Y29566D01*
X14961Y29582D01*
X14879Y29566D01*
X14811Y29520D01*
X14765Y29451D01*
X14749Y29370D01*
X14765Y29289D01*
X14811Y29220D01*
X14815Y29217D01*
X14802Y29141D01*
X14732Y29103D01*
X14687Y29133D01*
X14606Y29149D01*
X14525Y29133D01*
X14456Y29087D01*
X14410Y29018D01*
X14394Y28937D01*
X14410Y28856D01*
X14434Y28821D01*
X14393Y28741D01*
X13845D01*
X12553Y30033D01*
X12501Y30067D01*
X12441Y30079D01*
X4724D01*
X4664Y30067D01*
X4613Y30033D01*
X4108Y29528D01*
X2815D01*
X2758Y29566D01*
X2677Y29582D01*
X2596Y29566D01*
X2539Y29528D01*
X2539D01*
X2483Y29566D01*
X2402Y29582D01*
X2320Y29566D01*
X2252Y29520D01*
X2206Y29451D01*
X2190Y29370D01*
X2206Y29289D01*
X2252Y29220D01*
X2256Y29217D01*
X2243Y29141D01*
X2173Y29103D01*
X2128Y29133D01*
X2047Y29149D01*
X1966Y29133D01*
X1897Y29087D01*
X1851Y29018D01*
X1835Y28937D01*
X1851Y28856D01*
X1897Y28787D01*
X1966Y28741D01*
X2047Y28725D01*
X2128Y28741D01*
X2185Y28779D01*
X2185D01*
X2242Y28741D01*
X2323Y28725D01*
X2404Y28741D01*
X2461Y28779D01*
X4108D01*
X4376Y28510D01*
X4425Y28478D01*
X4426Y28472D01*
X4409Y28398D01*
X2559D01*
X2479Y28382D01*
X2411Y28337D01*
X2411Y28337D01*
X2079Y28004D01*
X1905D01*
X1890Y28007D01*
X1875Y28004D01*
X1629D01*
X1614Y28007D01*
X1533Y27991D01*
X1464Y27945D01*
X1418Y27876D01*
X1402Y27795D01*
X1418Y27714D01*
X1464Y27645D01*
X1533Y27599D01*
X1614Y27583D01*
X1629Y27586D01*
X1875D01*
X1890Y27583D01*
X1905Y27586D01*
X2150D01*
X2165Y27583D01*
X2246Y27599D01*
X2315Y27645D01*
X2324Y27658D01*
X2646Y27980D01*
X3045D01*
X3088Y27900D01*
X3072Y27876D01*
X3056Y27795D01*
X3072Y27714D01*
X3118Y27645D01*
X3187Y27599D01*
X3268Y27583D01*
X3283Y27586D01*
X3528D01*
X3543Y27583D01*
X3558Y27586D01*
X3732D01*
X4104Y27214D01*
X4104Y27214D01*
X4172Y27169D01*
X4252Y27153D01*
X5433D01*
X5433Y27153D01*
X5513Y27169D01*
X5581Y27214D01*
X6006Y27640D01*
X6024Y27637D01*
X6122Y27650D01*
X6213Y27688D01*
X6291Y27748D01*
X6351Y27826D01*
X6389Y27918D01*
X6402Y28016D01*
X6389Y28114D01*
X6351Y28205D01*
X6291Y28283D01*
X6213Y28344D01*
X6122Y28381D01*
X6101Y28384D01*
X6107Y28464D01*
X6941D01*
X6946Y28384D01*
X6926Y28381D01*
X6834Y28344D01*
X6756Y28283D01*
X6696Y28205D01*
X6658Y28114D01*
X6645Y28016D01*
X6658Y27918D01*
X6696Y27826D01*
X6756Y27748D01*
X6834Y27688D01*
X6926Y27650D01*
X7024Y27637D01*
X7122Y27650D01*
X7213Y27688D01*
X7291Y27748D01*
X7351Y27826D01*
X7389Y27918D01*
X7402Y28016D01*
X7389Y28114D01*
X7351Y28205D01*
X7291Y28283D01*
X7213Y28344D01*
X7122Y28381D01*
X7101Y28384D01*
X7107Y28464D01*
X7941D01*
X7946Y28384D01*
X7926Y28381D01*
X7834Y28344D01*
X7756Y28283D01*
X7696Y28205D01*
X7658Y28114D01*
X7645Y28016D01*
X7658Y27918D01*
X7696Y27826D01*
X7756Y27748D01*
X7834Y27688D01*
X7926Y27650D01*
X8024Y27637D01*
X8122Y27650D01*
X8213Y27688D01*
X8291Y27748D01*
X8351Y27826D01*
X8389Y27918D01*
X8402Y28016D01*
X8389Y28114D01*
X8351Y28205D01*
X8291Y28283D01*
X8213Y28344D01*
X8122Y28381D01*
X8101Y28384D01*
X8107Y28464D01*
X8941D01*
X8946Y28384D01*
X8926Y28381D01*
X8834Y28344D01*
X8756Y28283D01*
X8696Y28205D01*
X8658Y28114D01*
X8645Y28016D01*
X8658Y27918D01*
X8696Y27826D01*
X8756Y27748D01*
X8834Y27688D01*
X8926Y27650D01*
X9024Y27637D01*
X9122Y27650D01*
X9213Y27688D01*
X9291Y27748D01*
X9351Y27826D01*
X9389Y27918D01*
X9402Y28016D01*
X9389Y28114D01*
X9351Y28205D01*
X9291Y28283D01*
X9213Y28344D01*
X9122Y28381D01*
X9101Y28384D01*
X9107Y28464D01*
X9941D01*
X9946Y28384D01*
X9926Y28381D01*
X9834Y28344D01*
X9756Y28283D01*
X9696Y28205D01*
X9658Y28114D01*
X9645Y28016D01*
X9658Y27918D01*
X9696Y27826D01*
X9756Y27748D01*
X9834Y27688D01*
X9926Y27650D01*
X10024Y27637D01*
X10122Y27650D01*
X10147Y27661D01*
X10558Y27250D01*
X10609Y27216D01*
X10669Y27204D01*
X12520D01*
X12580Y27216D01*
X12631Y27250D01*
X13018Y27637D01*
X13996D01*
X14053Y27599D01*
X14134Y27583D01*
X14149Y27586D01*
X14394D01*
X14409Y27583D01*
X14425Y27586D01*
X15260D01*
X15276Y27583D01*
X15357Y27599D01*
X15426Y27645D01*
X15431Y27654D01*
X15511Y27630D01*
Y24188D01*
X15432Y24176D01*
X15386Y24244D01*
X15317Y24290D01*
X15251Y24304D01*
X15249Y24306D01*
X15235Y24372D01*
X15189Y24441D01*
X15121Y24487D01*
X15039Y24503D01*
X14958Y24487D01*
X14889Y24441D01*
X14843Y24372D01*
X14827Y24291D01*
X14843Y24210D01*
X14889Y24141D01*
X14958Y24095D01*
X15025Y24082D01*
X15027Y24080D01*
X15040Y24013D01*
X15086Y23945D01*
X15118Y23924D01*
Y23818D01*
X14885Y23585D01*
X14811Y23625D01*
X14818Y23661D01*
X14802Y23743D01*
X14764Y23799D01*
Y23799D01*
X14802Y23856D01*
X14818Y23937D01*
X14802Y24018D01*
X14756Y24087D01*
X14687Y24133D01*
X14606Y24149D01*
X14525Y24133D01*
X14456Y24087D01*
X14410Y24018D01*
X14394Y23937D01*
X14410Y23856D01*
X14448Y23799D01*
Y23799D01*
X14410Y23743D01*
X14397Y23676D01*
X13399Y22678D01*
X12795D01*
X12735Y22666D01*
X12684Y22631D01*
X12296Y22244D01*
X9908D01*
X9908Y22244D01*
X9908Y22244D01*
X9908D01*
D01*
X7213D01*
X7047Y22244D01*
X7047Y22244D01*
X6987Y22291D01*
X5860Y23419D01*
X5809Y23453D01*
X5748Y23465D01*
X4987D01*
X4862Y23590D01*
X4907Y23658D01*
X4926Y23650D01*
X5024Y23637D01*
X5122Y23650D01*
X5213Y23688D01*
X5291Y23748D01*
X5351Y23826D01*
X5389Y23918D01*
X5402Y24016D01*
X5389Y24114D01*
X5351Y24205D01*
X5291Y24283D01*
X5213Y24344D01*
X5122Y24381D01*
X5024Y24394D01*
X4926Y24381D01*
X4834Y24344D01*
X4756Y24283D01*
X4696Y24205D01*
X4658Y24114D01*
X4645Y24016D01*
X4658Y23918D01*
X4666Y23899D01*
X4598Y23854D01*
X4246Y24206D01*
X4194Y24241D01*
X4134Y24253D01*
X2815D01*
X2758Y24290D01*
X2677Y24307D01*
X2596Y24290D01*
X2539Y24253D01*
X2539D01*
X2483Y24290D01*
X2402Y24307D01*
X2320Y24290D01*
X2252Y24244D01*
X2206Y24176D01*
X2190Y24094D01*
X2206Y24013D01*
X2252Y23945D01*
X2256Y23942D01*
X2243Y23866D01*
X2173Y23828D01*
X2128Y23857D01*
X2047Y23873D01*
X1966Y23857D01*
X1897Y23811D01*
X1851Y23743D01*
X1835Y23661D01*
X1851Y23580D01*
X1897Y23511D01*
X1966Y23466D01*
X2047Y23449D01*
X2128Y23466D01*
X2185Y23503D01*
X2185D01*
X2242Y23466D01*
X2323Y23449D01*
X2404Y23466D01*
X2461Y23503D01*
X3950D01*
X4573Y22880D01*
X4625Y22846D01*
X4685Y22834D01*
X5564D01*
X9961Y18438D01*
Y16734D01*
X9822D01*
Y16510D01*
X9806Y16491D01*
X9726Y16520D01*
Y16754D01*
X9499D01*
Y16457D01*
Y16160D01*
X9723D01*
X9726Y16160D01*
X9731Y16159D01*
X9771Y16075D01*
X9765Y16065D01*
X9749Y15984D01*
X9752Y15969D01*
Y15724D01*
X9749Y15709D01*
X9752Y15694D01*
Y15448D01*
X9749Y15433D01*
X9765Y15352D01*
X9811Y15283D01*
X9879Y15237D01*
X9961Y15221D01*
X9972Y15223D01*
X10011Y15150D01*
X9480Y14618D01*
X9121D01*
X9078Y14698D01*
X9094Y14722D01*
X9110Y14803D01*
X9094Y14884D01*
X9048Y14953D01*
X8979Y14999D01*
X8898Y15015D01*
X8882Y15012D01*
X8637D01*
X8622Y15015D01*
X8593Y15009D01*
X8525Y15077D01*
Y15265D01*
X8278D01*
Y15038D01*
X8372D01*
X8412Y14958D01*
X8400Y14942D01*
X7951D01*
Y14618D01*
X7836D01*
Y14942D01*
X7348D01*
X7336Y14958D01*
X7376Y15038D01*
X7509D01*
Y15265D01*
X7262D01*
Y15109D01*
X7262Y15058D01*
X7255Y15050D01*
X7199Y15002D01*
X7126Y15015D01*
X7126Y15015D01*
X7111Y15012D01*
X6866D01*
X6850Y15015D01*
X6769Y14999D01*
X6700Y14953D01*
X6655Y14884D01*
X6638Y14803D01*
X6655Y14722D01*
X6670Y14698D01*
X6627Y14618D01*
X6341D01*
Y14724D01*
X6335Y14756D01*
X6318Y14782D01*
X6311Y14786D01*
Y15785D01*
X6391Y15806D01*
X6425Y15756D01*
X6494Y15710D01*
X6575Y15693D01*
X6656Y15710D01*
X6725Y15756D01*
X6771Y15824D01*
X6787Y15906D01*
X6784Y15921D01*
Y16166D01*
X6787Y16181D01*
X6771Y16262D01*
X6761Y16277D01*
X6804Y16357D01*
X6958D01*
Y16604D01*
X6731D01*
Y16496D01*
X6651Y16449D01*
X6635Y16458D01*
Y16930D01*
X6311D01*
Y17669D01*
X6486Y17844D01*
X6486Y17844D01*
X6819Y18177D01*
X7085D01*
Y18129D01*
X7449D01*
X7460Y18113D01*
X7417Y18033D01*
X7412D01*
Y17806D01*
X7659D01*
Y17941D01*
X7739Y17988D01*
X7795Y17977D01*
X7810Y17980D01*
X8056D01*
X8071Y17977D01*
X8152Y17993D01*
X8192Y18020D01*
X8246Y18032D01*
X8306Y17983D01*
Y17410D01*
X9017D01*
Y17984D01*
X8891D01*
X8867Y18064D01*
X8897Y18108D01*
X8913Y18189D01*
X8897Y18270D01*
X8851Y18339D01*
X8782Y18385D01*
X8701Y18401D01*
X8674Y18396D01*
X8661Y18398D01*
X8440D01*
X8425Y18401D01*
X8344Y18385D01*
X8304Y18358D01*
X8248Y18345D01*
X8192Y18358D01*
X8152Y18385D01*
X8071Y18401D01*
X8056Y18398D01*
X7810D01*
X7795Y18401D01*
X7714Y18385D01*
X7709Y18381D01*
X7639Y18451D01*
Y18643D01*
X7085D01*
Y18595D01*
X6732D01*
X6652Y18579D01*
X6584Y18534D01*
X6584Y18534D01*
X6285Y18234D01*
X6078Y18440D01*
X6035Y18469D01*
X5984Y18479D01*
X5910D01*
X5898Y18496D01*
X5829Y18542D01*
X5748Y18558D01*
X5733Y18555D01*
X5488D01*
X5472Y18558D01*
X5391Y18542D01*
X5323Y18496D01*
X5277Y18428D01*
X5260Y18346D01*
X5277Y18265D01*
X5323Y18197D01*
X5391Y18151D01*
X5472Y18134D01*
X5488Y18137D01*
X5733D01*
X5748Y18134D01*
X5829Y18151D01*
X5898Y18197D01*
X5975Y18168D01*
X6097Y18046D01*
X5955Y17904D01*
X5909Y17836D01*
X5893Y17756D01*
X5893Y17756D01*
Y14806D01*
X5394D01*
X5362Y14800D01*
X5336Y14782D01*
X5318Y14756D01*
X5312Y14724D01*
Y13858D01*
X5315Y13844D01*
Y13684D01*
X2336D01*
X2320Y13697D01*
X2281Y13764D01*
X2288Y13799D01*
X2276Y13861D01*
X2255Y13926D01*
X2294Y13985D01*
X2298Y14005D01*
X1929D01*
Y14105D01*
X2298D01*
X2294Y14125D01*
X2255Y14184D01*
X2233Y14199D01*
X2216Y14295D01*
X2275Y14355D01*
Y14478D01*
X1929D01*
X1583D01*
Y14355D01*
X1643Y14295D01*
X1626Y14199D01*
X1603Y14184D01*
X1572Y14137D01*
X1526Y14130D01*
X1514Y14132D01*
X1485Y14137D01*
X1475Y14152D01*
X1475Y14152D01*
X1396Y14231D01*
X1370Y14249D01*
X1339Y14255D01*
X1339Y14255D01*
X630D01*
X599Y14249D01*
X572Y14231D01*
X572Y14231D01*
X494Y14152D01*
X476Y14126D01*
X470Y14094D01*
X470Y14094D01*
Y13110D01*
X476Y13079D01*
X494Y13053D01*
X494Y13053D01*
X651Y12895D01*
X677Y12877D01*
X709Y12871D01*
X709Y12871D01*
X1570D01*
X1595Y12868D01*
X1602Y12864D01*
X1620Y12797D01*
X1618Y12775D01*
X1613Y12762D01*
X1583Y12732D01*
Y12609D01*
X1929D01*
X2275D01*
Y12732D01*
X2199Y12809D01*
X2218Y12902D01*
X2240Y12917D01*
X2276Y12970D01*
X2288Y13032D01*
X2285Y13048D01*
X2342Y13128D01*
X9291D01*
X9343Y13138D01*
X10197Y12283D01*
X10197D01*
X10198Y12281D01*
X10244Y12212D01*
X10257Y12204D01*
X10432Y12028D01*
X10441Y12015D01*
X10472Y11995D01*
Y10079D01*
X10484Y10018D01*
X10518Y9967D01*
X10618Y9868D01*
X10631Y9801D01*
X10677Y9732D01*
X10690Y9723D01*
X10865Y9548D01*
X10874Y9535D01*
X10942Y9489D01*
X11024Y9473D01*
X11105Y9489D01*
X11174Y9535D01*
X11220Y9604D01*
X11235Y9680D01*
X11243Y9703D01*
X11281Y9741D01*
X11304Y9750D01*
X11380Y9765D01*
X11449Y9811D01*
X11495Y9879D01*
X11510Y9955D01*
X11519Y9979D01*
X11557Y10017D01*
X11580Y10025D01*
X11656Y10040D01*
X11725Y10086D01*
X11771Y10155D01*
X11787Y10236D01*
X11771Y10317D01*
X11725Y10386D01*
X11712Y10395D01*
X11536Y10570D01*
X11528Y10583D01*
X11459Y10629D01*
X11418Y10637D01*
Y12598D01*
X11408Y12650D01*
X11410Y12666D01*
X11451Y12735D01*
X11483Y12739D01*
X11718Y12504D01*
Y12126D01*
X11728Y12075D01*
X11757Y12032D01*
X12233Y11556D01*
X12229Y11535D01*
X12245Y11454D01*
X12291Y11386D01*
X12360Y11340D01*
X12441Y11323D01*
X12456Y11326D01*
X12701D01*
X12717Y11323D01*
X12798Y11340D01*
X12866Y11386D01*
X12912Y11454D01*
X12929Y11535D01*
X12917Y11594D01*
X12978Y11645D01*
X12982Y11647D01*
X13029Y11615D01*
X13110Y11599D01*
X13125Y11602D01*
X13346D01*
X13359Y11604D01*
X13386Y11599D01*
X13467Y11615D01*
X13536Y11661D01*
X13582Y11730D01*
X13598Y11811D01*
X13582Y11892D01*
X13536Y11961D01*
X13467Y12007D01*
X13386Y12023D01*
X13359Y12018D01*
X13346Y12020D01*
X13125D01*
X13125Y12020D01*
X12048Y13097D01*
Y13209D01*
X12086Y13265D01*
X12102Y13346D01*
X12086Y13424D01*
X12086Y13429D01*
X12126Y13512D01*
X12145Y13515D01*
X12196Y13550D01*
X15505Y16859D01*
X15540Y16910D01*
X15552Y16971D01*
Y20200D01*
X17986Y22634D01*
X18020Y22685D01*
X18032Y22746D01*
Y32677D01*
X18020Y32738D01*
X17986Y32789D01*
X16017Y34757D01*
X15966Y34792D01*
X15906Y34804D01*
X15372D01*
X15317Y34841D01*
X15235Y34857D01*
X15154Y34841D01*
X15098Y34804D01*
X15097D01*
X15041Y34841D01*
X14960Y34857D01*
X14879Y34841D01*
X14810Y34795D01*
X14764Y34726D01*
X14748Y34645D01*
X14764Y34564D01*
X14810Y34495D01*
X14814Y34492D01*
X14801Y34416D01*
X14731Y34378D01*
X14687Y34408D01*
X14605Y34424D01*
X14524Y34408D01*
X14456Y34362D01*
X14410Y34293D01*
X14393Y34212D01*
X14410Y34131D01*
X14433Y34096D01*
X14391Y34016D01*
X14199D01*
X12868Y35348D01*
X12816Y35382D01*
X12756Y35394D01*
D02*
G37*
G36*
X5000Y33674D02*
X2559D01*
X2479Y33658D01*
X2411Y33612D01*
X2411Y33612D01*
X2079Y33280D01*
X1905D01*
X1890Y33283D01*
X1875Y33280D01*
X1629D01*
X1614Y33283D01*
X1533Y33267D01*
X1464Y33221D01*
X1418Y33152D01*
X1402Y33071D01*
X1418Y32990D01*
X1464Y32921D01*
X1533Y32875D01*
X1614Y32859D01*
X1629Y32862D01*
X1875D01*
X1890Y32859D01*
X1905Y32862D01*
X2150D01*
X2165Y32859D01*
X2246Y32875D01*
X2315Y32921D01*
X2324Y32934D01*
X2646Y33256D01*
X3045D01*
X3088Y33176D01*
X3072Y33152D01*
X3056Y33071D01*
X3072Y32990D01*
X3118Y32921D01*
X3187Y32875D01*
X3268Y32859D01*
X3283Y32862D01*
X3528D01*
X3543Y32859D01*
X3558Y32862D01*
X3732D01*
X4104Y32490D01*
X4104Y32490D01*
X4172Y32445D01*
X4252Y32429D01*
X5433D01*
X5433Y32429D01*
X5513Y32445D01*
X5581Y32490D01*
X6006Y32915D01*
X6024Y32913D01*
X6122Y32926D01*
X6213Y32964D01*
X6291Y33024D01*
X6351Y33102D01*
X6389Y33193D01*
X6402Y33291D01*
X6389Y33389D01*
X6351Y33481D01*
X6291Y33559D01*
X6213Y33619D01*
X6122Y33657D01*
X6024Y33670D01*
X5926Y33657D01*
X5834Y33619D01*
X5756Y33559D01*
X5696Y33481D01*
X5658Y33389D01*
X5645Y33291D01*
X5658Y33193D01*
X5668Y33169D01*
X5346Y32847D01*
X5133D01*
X5122Y32926D01*
X5213Y32964D01*
X5291Y33024D01*
X5351Y33102D01*
X5389Y33193D01*
X5402Y33291D01*
X5389Y33389D01*
X5351Y33481D01*
X5291Y33559D01*
X5213Y33619D01*
X5122Y33657D01*
X5024Y33670D01*
X5021Y33669D01*
X5000Y33674D01*
D02*
G37*
G36*
X12024Y33670D02*
X11926Y33657D01*
X11834Y33619D01*
X11756Y33559D01*
X11696Y33481D01*
X11658Y33389D01*
X11645Y33291D01*
X11658Y33193D01*
X11696Y33102D01*
X11756Y33024D01*
X11834Y32964D01*
X11926Y32926D01*
X12024Y32913D01*
X12122Y32926D01*
X12213Y32964D01*
X12291Y33024D01*
X12351Y33102D01*
X12389Y33193D01*
X12402Y33291D01*
X12389Y33389D01*
X12351Y33481D01*
X12291Y33559D01*
X12213Y33619D01*
X12122Y33657D01*
X12024Y33670D01*
D02*
G37*
G36*
X11024D02*
X10926Y33657D01*
X10834Y33619D01*
X10756Y33559D01*
X10696Y33481D01*
X10658Y33389D01*
X10645Y33291D01*
X10658Y33193D01*
X10696Y33102D01*
X10756Y33024D01*
X10834Y32964D01*
X10926Y32926D01*
X11024Y32913D01*
X11122Y32926D01*
X11213Y32964D01*
X11291Y33024D01*
X11351Y33102D01*
X11389Y33193D01*
X11402Y33291D01*
X11389Y33389D01*
X11351Y33481D01*
X11291Y33559D01*
X11213Y33619D01*
X11122Y33657D01*
X11024Y33670D01*
D02*
G37*
G36*
X9024D02*
X8926Y33657D01*
X8834Y33619D01*
X8756Y33559D01*
X8696Y33481D01*
X8658Y33389D01*
X8645Y33291D01*
X8658Y33193D01*
X8696Y33102D01*
X8756Y33024D01*
X8834Y32964D01*
X8926Y32926D01*
X9024Y32913D01*
X9122Y32926D01*
X9213Y32964D01*
X9291Y33024D01*
X9351Y33102D01*
X9389Y33193D01*
X9402Y33291D01*
X9389Y33389D01*
X9351Y33481D01*
X9291Y33559D01*
X9213Y33619D01*
X9122Y33657D01*
X9024Y33670D01*
D02*
G37*
G36*
X8024D02*
X7926Y33657D01*
X7834Y33619D01*
X7756Y33559D01*
X7696Y33481D01*
X7658Y33389D01*
X7645Y33291D01*
X7658Y33193D01*
X7696Y33102D01*
X7756Y33024D01*
X7834Y32964D01*
X7926Y32926D01*
X8024Y32913D01*
X8122Y32926D01*
X8213Y32964D01*
X8291Y33024D01*
X8351Y33102D01*
X8389Y33193D01*
X8402Y33291D01*
X8389Y33389D01*
X8351Y33481D01*
X8291Y33559D01*
X8213Y33619D01*
X8122Y33657D01*
X8024Y33670D01*
D02*
G37*
G36*
X7024D02*
X6926Y33657D01*
X6834Y33619D01*
X6756Y33559D01*
X6696Y33481D01*
X6658Y33389D01*
X6645Y33291D01*
X6658Y33193D01*
X6696Y33102D01*
X6756Y33024D01*
X6834Y32964D01*
X6926Y32926D01*
X7024Y32913D01*
X7122Y32926D01*
X7213Y32964D01*
X7291Y33024D01*
X7351Y33102D01*
X7389Y33193D01*
X7402Y33291D01*
X7389Y33389D01*
X7351Y33481D01*
X7291Y33559D01*
X7213Y33619D01*
X7122Y33657D01*
X7024Y33670D01*
D02*
G37*
G36*
X12024Y24394D02*
X11926Y24381D01*
X11834Y24344D01*
X11756Y24283D01*
X11696Y24205D01*
X11658Y24114D01*
X11645Y24016D01*
X11658Y23918D01*
X11696Y23826D01*
X11756Y23748D01*
X11834Y23688D01*
X11926Y23650D01*
X12024Y23637D01*
X12122Y23650D01*
X12213Y23688D01*
X12291Y23748D01*
X12351Y23826D01*
X12389Y23918D01*
X12402Y24016D01*
X12389Y24114D01*
X12351Y24205D01*
X12291Y24283D01*
X12213Y24344D01*
X12122Y24381D01*
X12024Y24394D01*
D02*
G37*
G36*
X11024D02*
X10926Y24381D01*
X10834Y24344D01*
X10756Y24283D01*
X10696Y24205D01*
X10658Y24114D01*
X10645Y24016D01*
X10658Y23918D01*
X10696Y23826D01*
X10756Y23748D01*
X10834Y23688D01*
X10926Y23650D01*
X11024Y23637D01*
X11122Y23650D01*
X11213Y23688D01*
X11291Y23748D01*
X11351Y23826D01*
X11389Y23918D01*
X11402Y24016D01*
X11389Y24114D01*
X11351Y24205D01*
X11291Y24283D01*
X11213Y24344D01*
X11122Y24381D01*
X11024Y24394D01*
D02*
G37*
G36*
X10024D02*
X9926Y24381D01*
X9834Y24344D01*
X9756Y24283D01*
X9696Y24205D01*
X9658Y24114D01*
X9645Y24016D01*
X9658Y23918D01*
X9696Y23826D01*
X9756Y23748D01*
X9834Y23688D01*
X9926Y23650D01*
X10024Y23637D01*
X10122Y23650D01*
X10213Y23688D01*
X10291Y23748D01*
X10351Y23826D01*
X10389Y23918D01*
X10402Y24016D01*
X10389Y24114D01*
X10351Y24205D01*
X10291Y24283D01*
X10213Y24344D01*
X10122Y24381D01*
X10024Y24394D01*
D02*
G37*
G36*
X9024D02*
X8926Y24381D01*
X8834Y24344D01*
X8756Y24283D01*
X8696Y24205D01*
X8658Y24114D01*
X8645Y24016D01*
X8658Y23918D01*
X8696Y23826D01*
X8756Y23748D01*
X8834Y23688D01*
X8926Y23650D01*
X9024Y23637D01*
X9122Y23650D01*
X9213Y23688D01*
X9291Y23748D01*
X9351Y23826D01*
X9389Y23918D01*
X9402Y24016D01*
X9389Y24114D01*
X9351Y24205D01*
X9291Y24283D01*
X9213Y24344D01*
X9122Y24381D01*
X9024Y24394D01*
D02*
G37*
G36*
X8024D02*
X7926Y24381D01*
X7834Y24344D01*
X7756Y24283D01*
X7696Y24205D01*
X7658Y24114D01*
X7645Y24016D01*
X7658Y23918D01*
X7696Y23826D01*
X7756Y23748D01*
X7834Y23688D01*
X7926Y23650D01*
X8024Y23637D01*
X8122Y23650D01*
X8213Y23688D01*
X8291Y23748D01*
X8351Y23826D01*
X8389Y23918D01*
X8402Y24016D01*
X8389Y24114D01*
X8351Y24205D01*
X8291Y24283D01*
X8213Y24344D01*
X8122Y24381D01*
X8024Y24394D01*
D02*
G37*
G36*
X7024D02*
X6926Y24381D01*
X6834Y24344D01*
X6756Y24283D01*
X6696Y24205D01*
X6658Y24114D01*
X6645Y24016D01*
X6658Y23918D01*
X6696Y23826D01*
X6756Y23748D01*
X6834Y23688D01*
X6926Y23650D01*
X7024Y23637D01*
X7122Y23650D01*
X7213Y23688D01*
X7291Y23748D01*
X7351Y23826D01*
X7389Y23918D01*
X7402Y24016D01*
X7389Y24114D01*
X7351Y24205D01*
X7291Y24283D01*
X7213Y24344D01*
X7122Y24381D01*
X7024Y24394D01*
D02*
G37*
G36*
X6024D02*
X5926Y24381D01*
X5834Y24344D01*
X5756Y24283D01*
X5696Y24205D01*
X5658Y24114D01*
X5645Y24016D01*
X5658Y23918D01*
X5696Y23826D01*
X5756Y23748D01*
X5834Y23688D01*
X5926Y23650D01*
X6024Y23637D01*
X6122Y23650D01*
X6213Y23688D01*
X6291Y23748D01*
X6351Y23826D01*
X6389Y23918D01*
X6402Y24016D01*
X6389Y24114D01*
X6351Y24205D01*
X6291Y24283D01*
X6213Y24344D01*
X6122Y24381D01*
X6024Y24394D01*
D02*
G37*
G36*
X4529Y20645D02*
X4282D01*
Y20359D01*
X4529D01*
Y20645D01*
D02*
G37*
G36*
X4182D02*
X3935D01*
Y20359D01*
X4182D01*
Y20645D01*
D02*
G37*
G36*
X769D02*
X454D01*
Y20290D01*
X769D01*
Y20645D01*
D02*
G37*
G36*
X4529Y20259D02*
X4282D01*
Y19973D01*
X4529D01*
Y20259D01*
D02*
G37*
G36*
X4182D02*
X3935D01*
Y19973D01*
X4182D01*
Y20259D01*
D02*
G37*
G36*
X769Y20190D02*
X454D01*
Y19835D01*
X769D01*
Y20190D01*
D02*
G37*
G36*
X3052Y20625D02*
X2499D01*
Y19993D01*
X2663D01*
Y19627D01*
X2603Y19573D01*
X2559Y19582D01*
X2544Y19579D01*
X2299D01*
X2283Y19582D01*
X2202Y19566D01*
X2134Y19520D01*
X2088Y19451D01*
X2071Y19370D01*
X2088Y19289D01*
X2134Y19220D01*
X2202Y19174D01*
X2283Y19158D01*
X2299Y19161D01*
X2544D01*
X2559Y19158D01*
X2640Y19174D01*
X2709Y19220D01*
X2755Y19289D01*
X2767Y19352D01*
X2889Y19473D01*
X2918Y19516D01*
X2928Y19567D01*
Y19993D01*
X3052D01*
Y20625D01*
D02*
G37*
G36*
X4982Y19405D02*
X4666D01*
Y18981D01*
X4982D01*
Y19405D01*
D02*
G37*
G36*
X4566D02*
X4250D01*
Y18981D01*
X4566D01*
Y19405D01*
D02*
G37*
G36*
X4982Y18881D02*
X4666D01*
Y18457D01*
X4982D01*
Y18881D01*
D02*
G37*
G36*
X4566D02*
X4250D01*
Y18457D01*
X4566D01*
Y18881D01*
D02*
G37*
G36*
X7312Y18033D02*
X7065D01*
Y17806D01*
X7312D01*
Y18033D01*
D02*
G37*
G36*
X7659Y17706D02*
X7412D01*
Y17479D01*
X7659D01*
Y17706D01*
D02*
G37*
G36*
X7312D02*
X7065D01*
Y17479D01*
X7312D01*
Y17706D01*
D02*
G37*
G36*
X9037Y17256D02*
X8711D01*
Y16999D01*
X9037D01*
Y17256D01*
D02*
G37*
G36*
X8611D02*
X8286D01*
Y16999D01*
X8611D01*
Y17256D01*
D02*
G37*
G36*
X7285Y16950D02*
X7058D01*
Y16704D01*
X7285D01*
Y16950D01*
D02*
G37*
G36*
X6958D02*
X6731D01*
Y16704D01*
X6958D01*
Y16950D01*
D02*
G37*
G36*
X9037Y16899D02*
X8711D01*
Y16642D01*
X9037D01*
Y16899D01*
D02*
G37*
G36*
X8611D02*
X8286D01*
Y16642D01*
X8611D01*
Y16899D01*
D02*
G37*
G36*
X4982Y17055D02*
X4666D01*
Y16631D01*
X4982D01*
Y17055D01*
D02*
G37*
G36*
X4566D02*
X4250D01*
Y16631D01*
X4566D01*
Y17055D01*
D02*
G37*
G36*
X9399Y16754D02*
X9172D01*
Y16507D01*
X9399D01*
Y16754D01*
D02*
G37*
G36*
X7285Y16604D02*
X7058D01*
Y16357D01*
X7285D01*
Y16604D01*
D02*
G37*
G36*
X9399Y16407D02*
X9172D01*
Y16160D01*
X9399D01*
Y16407D01*
D02*
G37*
G36*
X4982Y16531D02*
X4666D01*
Y16107D01*
X4982D01*
Y16531D01*
D02*
G37*
G36*
X4566D02*
X4250D01*
Y16107D01*
X4566D01*
Y16531D01*
D02*
G37*
G36*
X8278Y15592D02*
Y15365D01*
X8525D01*
Y15592D01*
X8278D01*
D02*
G37*
G36*
X7509D02*
X7262D01*
Y15365D01*
X7509D01*
Y15592D01*
D02*
G37*
G36*
X7932Y15592D02*
X7856D01*
X7851Y15592D01*
X7609D01*
Y15315D01*
Y15038D01*
X7851D01*
X7856Y15038D01*
X7932D01*
X7936Y15038D01*
X8178D01*
Y15315D01*
Y15592D01*
X7936D01*
X7932Y15592D01*
D02*
G37*
G36*
X946Y15733D02*
X542D01*
Y15453D01*
X544D01*
X577Y15373D01*
X372Y15168D01*
Y14971D01*
X866D01*
X1360D01*
Y15168D01*
X1113Y15415D01*
X1011D01*
X946Y15453D01*
X946Y15495D01*
Y15733D01*
D02*
G37*
G36*
X2102Y14874D02*
X1979D01*
Y14578D01*
X2275D01*
Y14701D01*
X2102Y14874D01*
D02*
G37*
G36*
X1879D02*
X1756D01*
X1583Y14701D01*
Y14578D01*
X1879D01*
Y14874D01*
D02*
G37*
G36*
X1360Y14871D02*
X916D01*
Y14428D01*
X1113D01*
X1360Y14674D01*
Y14871D01*
D02*
G37*
G36*
X816D02*
X372D01*
Y14674D01*
X619Y14428D01*
X816D01*
Y14871D01*
D02*
G37*
G36*
X6207Y12991D02*
Y12530D01*
X6556D01*
Y12598D01*
X6543Y12702D01*
X6503Y12798D01*
X6439Y12880D01*
X6357Y12944D01*
X6261Y12984D01*
X6207Y12991D01*
D02*
G37*
G36*
X6107Y12991D02*
X6054Y12984D01*
X5958Y12944D01*
X5876Y12880D01*
X5812Y12798D01*
X5772Y12702D01*
X5759Y12598D01*
Y12530D01*
X6107D01*
Y12991D01*
D02*
G37*
G36*
X1113Y12659D02*
X916D01*
Y12215D01*
X1360D01*
Y12412D01*
X1113Y12659D01*
D02*
G37*
G36*
X816D02*
X619D01*
X372Y12412D01*
Y12215D01*
X816D01*
Y12659D01*
D02*
G37*
G36*
X2275Y12509D02*
X1979D01*
Y12213D01*
X2102D01*
X2275Y12386D01*
Y12509D01*
D02*
G37*
G36*
X1879D02*
X1583D01*
Y12386D01*
X1756Y12213D01*
X1879D01*
Y12509D01*
D02*
G37*
G36*
X8345Y12954D02*
X7970D01*
X7782Y12766D01*
Y12194D01*
X7970Y12007D01*
X8345D01*
X8533Y12194D01*
Y12766D01*
X8345Y12954D01*
D02*
G37*
G36*
X7157Y12977D02*
X7060Y12964D01*
X6968Y12926D01*
X6890Y12866D01*
X6830Y12788D01*
X6792Y12696D01*
X6779Y12598D01*
Y12362D01*
X6792Y12264D01*
X6830Y12173D01*
X6890Y12095D01*
X6968Y12034D01*
X7060Y11997D01*
X7157Y11984D01*
X7255Y11997D01*
X7347Y12034D01*
X7425Y12095D01*
X7485Y12173D01*
X7523Y12264D01*
X7536Y12362D01*
Y12598D01*
X7523Y12696D01*
X7485Y12788D01*
X7425Y12866D01*
X7347Y12926D01*
X7255Y12964D01*
X7157Y12977D01*
D02*
G37*
G36*
X5157D02*
X5060Y12964D01*
X4968Y12926D01*
X4890Y12866D01*
X4830Y12788D01*
X4792Y12696D01*
X4779Y12598D01*
Y12362D01*
X4792Y12264D01*
X4830Y12173D01*
X4890Y12095D01*
X4968Y12034D01*
X5060Y11997D01*
X5157Y11984D01*
X5255Y11997D01*
X5347Y12034D01*
X5425Y12095D01*
X5485Y12173D01*
X5523Y12264D01*
X5536Y12362D01*
Y12598D01*
X5523Y12696D01*
X5485Y12788D01*
X5425Y12866D01*
X5347Y12926D01*
X5255Y12964D01*
X5157Y12977D01*
D02*
G37*
G36*
X4157D02*
X4060Y12964D01*
X3968Y12926D01*
X3890Y12866D01*
X3830Y12788D01*
X3792Y12696D01*
X3779Y12598D01*
Y12362D01*
X3792Y12264D01*
X3830Y12173D01*
X3890Y12095D01*
X3968Y12034D01*
X4060Y11997D01*
X4157Y11984D01*
X4255Y11997D01*
X4347Y12034D01*
X4425Y12095D01*
X4485Y12173D01*
X4523Y12264D01*
X4536Y12362D01*
Y12598D01*
X4523Y12696D01*
X4485Y12788D01*
X4425Y12866D01*
X4347Y12926D01*
X4255Y12964D01*
X4157Y12977D01*
D02*
G37*
G36*
X3157D02*
X3060Y12964D01*
X2968Y12926D01*
X2890Y12866D01*
X2830Y12788D01*
X2792Y12696D01*
X2779Y12598D01*
Y12362D01*
X2792Y12264D01*
X2830Y12173D01*
X2890Y12095D01*
X2968Y12034D01*
X3060Y11997D01*
X3157Y11984D01*
X3255Y11997D01*
X3347Y12034D01*
X3425Y12095D01*
X3485Y12173D01*
X3523Y12264D01*
X3536Y12362D01*
Y12598D01*
X3523Y12696D01*
X3485Y12788D01*
X3425Y12866D01*
X3347Y12926D01*
X3255Y12964D01*
X3157Y12977D01*
D02*
G37*
G36*
X6556Y12430D02*
X6207D01*
Y11970D01*
X6261Y11977D01*
X6357Y12017D01*
X6439Y12080D01*
X6503Y12163D01*
X6543Y12259D01*
X6556Y12362D01*
Y12430D01*
D02*
G37*
G36*
X6107D02*
X5759D01*
Y12362D01*
X5772Y12259D01*
X5812Y12163D01*
X5876Y12080D01*
X5958Y12017D01*
X6054Y11977D01*
X6107Y11970D01*
Y12430D01*
D02*
G37*
G36*
X1360Y12115D02*
X916D01*
Y11672D01*
X1113D01*
X1360Y11918D01*
Y12115D01*
D02*
G37*
G36*
X816D02*
X372D01*
Y11918D01*
X619Y11672D01*
X816D01*
Y12115D01*
D02*
G37*
G36*
X9685Y10763D02*
X9670Y10760D01*
X9425D01*
X9409Y10763D01*
X9394Y10760D01*
X9149D01*
X9134Y10763D01*
X9053Y10747D01*
X8984Y10701D01*
X8938Y10632D01*
X8922Y10551D01*
X8938Y10470D01*
X8984Y10401D01*
X9053Y10355D01*
X9134Y10339D01*
X9149Y10342D01*
X9394D01*
X9409Y10339D01*
X9425Y10342D01*
X9620D01*
X9964Y9998D01*
Y9376D01*
X9962Y9372D01*
X9945Y9291D01*
X9962Y9210D01*
X9977Y9188D01*
X9979Y9178D01*
X10021Y9115D01*
X10178Y8958D01*
X10202Y8942D01*
X10217Y8918D01*
X10357Y8778D01*
Y5439D01*
X10355Y5435D01*
X10339Y5354D01*
X10342Y5339D01*
Y5094D01*
X10339Y5079D01*
X10355Y4998D01*
X10401Y4929D01*
X10470Y4883D01*
X10551Y4867D01*
X10632Y4883D01*
X10701Y4929D01*
X10747Y4998D01*
X10763Y5079D01*
X10760Y5094D01*
Y5339D01*
X10763Y5354D01*
X10747Y5435D01*
X10745Y5439D01*
Y8813D01*
X10747Y8816D01*
X10763Y8898D01*
X10747Y8979D01*
X10701Y9048D01*
X10632Y9094D01*
X10579Y9104D01*
X10561Y9123D01*
X10550Y9176D01*
X10504Y9244D01*
X10435Y9290D01*
X10382Y9301D01*
X10364Y9320D01*
X10353Y9372D01*
X10351Y9376D01*
Y10079D01*
X10336Y10153D01*
X10294Y10216D01*
X9882Y10628D01*
X9881Y10632D01*
X9835Y10701D01*
X9766Y10747D01*
X9685Y10763D01*
D02*
G37*
G36*
X21654Y12092D02*
X21425Y12074D01*
X21202Y12021D01*
X20990Y11933D01*
X20794Y11813D01*
X20619Y11664D01*
X20470Y11490D01*
X20350Y11294D01*
X20263Y11082D01*
X20209Y10859D01*
X20191Y10630D01*
X20209Y10401D01*
X20263Y10178D01*
X20350Y9966D01*
X20470Y9770D01*
X20619Y9596D01*
X20794Y9447D01*
X20990Y9327D01*
X21202Y9239D01*
X21425Y9185D01*
X21654Y9167D01*
X21882Y9185D01*
X22105Y9239D01*
X22317Y9327D01*
X22513Y9447D01*
X22688Y9596D01*
X22837Y9770D01*
X22957Y9966D01*
X23044Y10178D01*
X23098Y10401D01*
X23116Y10630D01*
X23098Y10859D01*
X23044Y11082D01*
X22957Y11294D01*
X22837Y11490D01*
X22688Y11664D01*
X22513Y11813D01*
X22317Y11933D01*
X22105Y12021D01*
X21882Y12074D01*
X21654Y12092D01*
D02*
G37*
G36*
X5965Y9434D02*
X5601D01*
Y8869D01*
X6574D01*
X6568Y8939D01*
X6533Y9054D01*
X6476Y9160D01*
X6399Y9254D01*
X6306Y9330D01*
X6200Y9387D01*
X6084Y9422D01*
X5965Y9434D01*
D02*
G37*
G36*
X5501D02*
X5138D01*
X5018Y9422D01*
X4903Y9387D01*
X4796Y9330D01*
X4703Y9254D01*
X4627Y9160D01*
X4570Y9054D01*
X4535Y8939D01*
X4528Y8869D01*
X5501D01*
Y9434D01*
D02*
G37*
G36*
X6574Y8769D02*
X5601D01*
Y8204D01*
X5965D01*
X6084Y8216D01*
X6200Y8251D01*
X6306Y8308D01*
X6399Y8384D01*
X6476Y8477D01*
X6533Y8584D01*
X6568Y8699D01*
X6574Y8769D01*
D02*
G37*
G36*
X5501D02*
X4528D01*
X4535Y8699D01*
X4570Y8584D01*
X4627Y8477D01*
X4703Y8384D01*
X4796Y8308D01*
X4903Y8251D01*
X5018Y8216D01*
X5138Y8204D01*
X5501D01*
Y8769D01*
D02*
G37*
G36*
X837Y8563D02*
Y7924D01*
X1476D01*
X1468Y8009D01*
X1428Y8140D01*
X1364Y8260D01*
X1278Y8365D01*
X1173Y8451D01*
X1053Y8515D01*
X923Y8555D01*
X837Y8563D01*
D02*
G37*
G36*
X8889Y7984D02*
X8119D01*
Y7213D01*
X8889D01*
Y7984D01*
D02*
G37*
G36*
X2795Y7987D02*
X2695Y7974D01*
X2601Y7935D01*
X2521Y7873D01*
X2459Y7793D01*
X2420Y7699D01*
X2407Y7598D01*
X2420Y7498D01*
X2459Y7404D01*
X2521Y7324D01*
X2601Y7262D01*
X2695Y7223D01*
X2795Y7210D01*
X2896Y7223D01*
X2989Y7262D01*
X3070Y7324D01*
X3132Y7404D01*
X3170Y7498D01*
X3184Y7598D01*
X3170Y7699D01*
X3132Y7793D01*
X3070Y7873D01*
X2989Y7935D01*
X2896Y7974D01*
X2795Y7987D01*
D02*
G37*
G36*
X1476Y7824D02*
X837D01*
Y7185D01*
X923Y7193D01*
X1053Y7233D01*
X1173Y7297D01*
X1278Y7383D01*
X1364Y7489D01*
X1428Y7608D01*
X1468Y7739D01*
X1476Y7824D01*
D02*
G37*
G36*
X21704Y8171D02*
Y6743D01*
X23132D01*
X23118Y6925D01*
X23064Y7151D01*
X22974Y7366D01*
X22853Y7564D01*
X22702Y7741D01*
X22525Y7892D01*
X22327Y8014D01*
X22112Y8103D01*
X21885Y8157D01*
X21704Y8171D01*
D02*
G37*
G36*
X21604Y8171D02*
X21422Y8157D01*
X21195Y8103D01*
X20980Y8014D01*
X20782Y7892D01*
X20605Y7741D01*
X20454Y7564D01*
X20333Y7366D01*
X20244Y7151D01*
X20189Y6925D01*
X20175Y6743D01*
X21604D01*
Y8171D01*
D02*
G37*
G36*
X8554Y7016D02*
Y6664D01*
X8906D01*
X8899Y6720D01*
X8858Y6818D01*
X8793Y6903D01*
X8708Y6968D01*
X8610Y7009D01*
X8554Y7016D01*
D02*
G37*
G36*
X8454Y7016D02*
X8398Y7009D01*
X8300Y6968D01*
X8215Y6903D01*
X8150Y6818D01*
X8109Y6720D01*
X8102Y6664D01*
X8454D01*
Y7016D01*
D02*
G37*
G36*
X8906Y6564D02*
X8554D01*
Y6212D01*
X8610Y6219D01*
X8708Y6260D01*
X8793Y6325D01*
X8858Y6410D01*
X8899Y6508D01*
X8906Y6564D01*
D02*
G37*
G36*
X8454D02*
X8102D01*
X8109Y6508D01*
X8150Y6410D01*
X8215Y6325D01*
X8300Y6260D01*
X8398Y6219D01*
X8454Y6212D01*
Y6564D01*
D02*
G37*
G36*
X2845Y6032D02*
Y5680D01*
X3197D01*
X3190Y5736D01*
X3149Y5834D01*
X3084Y5919D01*
X3000Y5984D01*
X2901Y6025D01*
X2845Y6032D01*
D02*
G37*
G36*
X2745Y6032D02*
X2690Y6025D01*
X2591Y5984D01*
X2506Y5919D01*
X2441Y5834D01*
X2401Y5736D01*
X2393Y5680D01*
X2745D01*
Y6032D01*
D02*
G37*
G36*
X8504Y6018D02*
X8403Y6005D01*
X8310Y5966D01*
X8229Y5905D01*
X8168Y5824D01*
X8129Y5730D01*
X8116Y5630D01*
X8129Y5529D01*
X8168Y5436D01*
X8229Y5355D01*
X8310Y5294D01*
X8403Y5255D01*
X8504Y5241D01*
X8604Y5255D01*
X8698Y5294D01*
X8779Y5355D01*
X8840Y5436D01*
X8879Y5529D01*
X8892Y5630D01*
X8879Y5730D01*
X8840Y5824D01*
X8779Y5905D01*
X8698Y5966D01*
X8604Y6005D01*
X8504Y6018D01*
D02*
G37*
G36*
X2745Y5580D02*
X2393D01*
X2401Y5524D01*
X2441Y5426D01*
X2506Y5341D01*
X2591Y5276D01*
X2690Y5235D01*
X2745Y5228D01*
Y5580D01*
D02*
G37*
G36*
X3197D02*
X2845D01*
Y5228D01*
X2901Y5235D01*
X3000Y5276D01*
X3084Y5341D01*
X3149Y5426D01*
X3190Y5524D01*
X3197Y5580D01*
D02*
G37*
G36*
X23132Y6643D02*
X21704D01*
Y5214D01*
X21885Y5229D01*
X22112Y5283D01*
X22327Y5372D01*
X22525Y5494D01*
X22702Y5645D01*
X22853Y5822D01*
X22974Y6020D01*
X23064Y6235D01*
X23118Y6461D01*
X23132Y6643D01*
D02*
G37*
G36*
X21604D02*
X20175D01*
X20189Y6461D01*
X20244Y6235D01*
X20333Y6020D01*
X20454Y5822D01*
X20605Y5645D01*
X20782Y5494D01*
X20980Y5372D01*
X21195Y5283D01*
X21422Y5229D01*
X21604Y5214D01*
Y6643D01*
D02*
G37*
G36*
X5965Y5024D02*
X5601D01*
Y4459D01*
X6574D01*
X6568Y4529D01*
X6533Y4645D01*
X6476Y4751D01*
X6399Y4844D01*
X6306Y4921D01*
X6200Y4977D01*
X6084Y5012D01*
X5965Y5024D01*
D02*
G37*
G36*
X5501D02*
X5138D01*
X5018Y5012D01*
X4903Y4977D01*
X4796Y4921D01*
X4703Y4844D01*
X4627Y4751D01*
X4570Y4645D01*
X4535Y4529D01*
X4528Y4459D01*
X5501D01*
Y5024D01*
D02*
G37*
G36*
X6574Y4359D02*
X5601D01*
Y3795D01*
X5965D01*
X6084Y3806D01*
X6200Y3841D01*
X6306Y3898D01*
X6399Y3975D01*
X6476Y4068D01*
X6533Y4174D01*
X6568Y4290D01*
X6574Y4359D01*
D02*
G37*
G36*
X5501D02*
X4528D01*
X4535Y4290D01*
X4570Y4174D01*
X4627Y4068D01*
X4703Y3975D01*
X4796Y3898D01*
X4903Y3841D01*
X5018Y3806D01*
X5138Y3795D01*
X5501D01*
Y4359D01*
D02*
G37*
G36*
X21654Y2721D02*
X21507Y2707D01*
X21365Y2664D01*
X21235Y2595D01*
X21121Y2501D01*
X21028Y2387D01*
X20958Y2257D01*
X20915Y2115D01*
X20901Y1969D01*
X20915Y1822D01*
X20958Y1680D01*
X21028Y1550D01*
X21121Y1436D01*
X21235Y1342D01*
X21365Y1273D01*
X21507Y1230D01*
X21654Y1216D01*
X21800Y1230D01*
X21942Y1273D01*
X22072Y1342D01*
X22186Y1436D01*
X22280Y1550D01*
X22349Y1680D01*
X22392Y1822D01*
X22406Y1969D01*
X22392Y2115D01*
X22349Y2257D01*
X22280Y2387D01*
X22186Y2501D01*
X22072Y2595D01*
X21942Y2664D01*
X21800Y2707D01*
X21654Y2721D01*
D02*
G37*
G36*
X1969D02*
X1822Y2707D01*
X1680Y2664D01*
X1550Y2595D01*
X1436Y2501D01*
X1342Y2387D01*
X1273Y2257D01*
X1230Y2115D01*
X1216Y1969D01*
X1230Y1822D01*
X1273Y1680D01*
X1342Y1550D01*
X1436Y1436D01*
X1550Y1342D01*
X1680Y1273D01*
X1822Y1230D01*
X1969Y1216D01*
X2115Y1230D01*
X2257Y1273D01*
X2387Y1342D01*
X2501Y1436D01*
X2595Y1550D01*
X2664Y1680D01*
X2707Y1822D01*
X2721Y1969D01*
X2707Y2115D01*
X2664Y2257D01*
X2595Y2387D01*
X2501Y2501D01*
X2387Y2595D01*
X2257Y2664D01*
X2115Y2707D01*
X1969Y2721D01*
D02*
G37*
%LPD*%
G36*
X14291Y17576D02*
Y17428D01*
X12295Y15432D01*
X12294Y15432D01*
X12214Y15464D01*
X12204Y15514D01*
X12158Y15583D01*
X12089Y15629D01*
X12067Y15633D01*
X12031Y15722D01*
X12046Y15746D01*
X12062Y15827D01*
X12046Y15908D01*
X12000Y15977D01*
X11992Y15982D01*
X12016Y16062D01*
X12598D01*
X12659Y16074D01*
X12710Y16109D01*
X14211Y17609D01*
X14291Y17576D01*
D02*
G37*
G36*
X6260Y13858D02*
X5394D01*
Y14724D01*
X6260D01*
Y13858D01*
D02*
G37*
G36*
X1417Y14094D02*
Y13307D01*
X1588Y13137D01*
X1564Y13101D01*
X1560Y13082D01*
X1929D01*
Y12981D01*
X1560D01*
X1564Y12962D01*
X1570Y12953D01*
X709D01*
X551Y13110D01*
Y14094D01*
X630Y14173D01*
X1339D01*
X1417Y14094D01*
D02*
G37*
D14*
X0Y0D02*
Y39370D01*
X23622D01*
X23622Y0D01*
X0D02*
X23622D01*
D15*
X7559Y15315D02*
D03*
Y14685D02*
D03*
X7362Y17756D02*
D03*
Y18386D02*
D03*
X8228Y15315D02*
D03*
Y14685D02*
D03*
D16*
X7008Y16654D02*
D03*
X6378D02*
D03*
X9449Y16457D02*
D03*
X10079D02*
D03*
D24*
X8661Y17697D02*
D03*
Y16949D02*
D03*
D38*
X5551Y4409D02*
D03*
Y8819D02*
D03*
D39*
X2795Y5630D02*
D03*
Y7598D02*
D03*
X8504Y5630D02*
D03*
Y6614D02*
D03*
D40*
Y7598D02*
D03*
D47*
X6339Y17992D02*
X6732Y18386D01*
X7362D02*
X7362Y18386D01*
X6732Y18386D02*
X7362D01*
X7559Y14409D02*
X9567D01*
X6181D02*
X7559D01*
X6102Y14567D02*
Y17756D01*
X10157Y16457D02*
X10354Y16260D01*
Y15197D02*
Y16260D01*
X6850Y14803D02*
X7126D01*
X13110Y11811D02*
X13346D01*
X11614Y13346D02*
X11890D01*
X9409Y10551D02*
X9685D01*
X9134D02*
X9409D01*
X10551Y5079D02*
Y5354D01*
X11220Y13189D02*
X11417Y12992D01*
X12441Y11535D02*
X12717D01*
X10669Y12638D02*
X10866Y12441D01*
X10827Y9882D02*
X11024Y9685D01*
X11102Y10157D02*
X11299Y9961D01*
X10945Y12913D02*
X11142Y12717D01*
X11378Y10433D02*
X11575Y10236D01*
X10394Y12362D02*
X10591Y12165D01*
X5472Y18346D02*
X5748D01*
X6102Y17756D02*
X6339Y17992D01*
X2283Y19370D02*
X2559D01*
X1378Y18543D02*
Y18819D01*
Y18268D02*
Y18543D01*
X2953Y17677D02*
X3228D01*
X2677D02*
X2953D01*
X1693Y17244D02*
X1969D01*
X2205D01*
X1969Y17677D02*
X2205D01*
X1693D02*
X1969D01*
X11457Y20315D02*
X11693Y20433D01*
X11220Y18819D02*
X11496D01*
X11693Y15433D02*
X12008D01*
X11378D02*
X11693D01*
X11535Y15827D02*
X11850D01*
X11220D02*
X11535D01*
X9567Y14409D02*
X10354Y15197D01*
X9961Y15709D02*
Y15984D01*
Y15433D02*
Y15709D01*
X6575Y15906D02*
Y16181D01*
X8622Y14803D02*
X8898D01*
X8425Y18189D02*
X8661D01*
X7795D02*
X8071D01*
X7559Y14409D02*
Y14685D01*
X12165Y19173D02*
Y19449D01*
X14409Y27795D02*
X15276D01*
X12047Y18543D02*
X12323D01*
X11890Y20079D02*
X12165D01*
X14133Y38346D02*
X14409D01*
X15354D01*
X3267D02*
X3542D01*
X3818D02*
X4251Y37913D01*
X5432D01*
X6102Y38582D01*
X3542Y38346D02*
X3818D01*
X1613D02*
X1889D01*
X2165D01*
X2558Y38740D01*
X4999D01*
X14134Y27795D02*
X14409D01*
X3268D02*
X3543D01*
X3819D02*
X4252Y27362D01*
X5433D01*
X6102Y28031D01*
X3543Y27795D02*
X3819D01*
X1614D02*
X1890D01*
X2165D01*
X2559Y28189D01*
X5000D01*
X1890Y33071D02*
X2165D01*
X1614D02*
X1890D01*
X2559Y33465D02*
X5000D01*
X2165Y33071D02*
X2559Y33465D01*
X5433Y32638D02*
X6102Y33307D01*
X3543Y33071D02*
X3819D01*
X3268D02*
X3543D01*
X4252Y32638D02*
X5433D01*
X3819Y33071D02*
X4252Y32638D01*
X14409Y33071D02*
X15354D01*
X14134D02*
X14409D01*
D48*
X1900Y13543D02*
X9213D01*
X9291Y13268D02*
X11024Y15000D01*
X1891Y13268D02*
X9291D01*
X10748Y15079D02*
Y15354D01*
X9213Y13543D02*
X10748Y15079D01*
X11024Y15000D02*
Y15197D01*
X11260Y15433D02*
X11378D01*
X11024Y15197D02*
X11260Y15433D01*
X10748Y15354D02*
X11220Y15827D01*
X8583Y14803D02*
X8622D01*
D49*
X11417Y12992D02*
X11850Y12559D01*
Y12126D02*
X12441Y11535D01*
X11850Y12126D02*
Y12559D01*
X12441Y11535D02*
X12441D01*
X5748Y18346D02*
X5984D01*
X6339Y17992D01*
X2559Y19370D02*
X2598D01*
X2795Y19567D02*
Y20276D01*
X2598Y19370D02*
X2795Y19567D01*
X354Y18839D02*
X374Y18819D01*
X1378D01*
X354Y18386D02*
X669D01*
X1063Y17992D01*
X2362D01*
X2677Y17677D01*
X354Y16673D02*
X1122D01*
X1693Y17244D01*
X1299Y17677D02*
X1693D01*
X1161Y17539D02*
X1299Y17677D01*
X354Y17539D02*
X1161D01*
X11102Y17953D02*
X11890D01*
X10984Y18071D02*
X11102Y17953D01*
D50*
X14882Y28937D02*
X15709D01*
X14606D02*
X14882D01*
X11142Y16496D02*
X11181Y16535D01*
X12441D01*
X13819Y17913D01*
X7126Y14803D02*
X7205D01*
X11890Y13032D02*
Y13346D01*
Y13032D02*
X13110Y11811D01*
X10866Y12441D02*
X10866D01*
X10591Y12165D02*
X10630Y12126D01*
Y10079D02*
X10827Y9882D01*
X10630Y10079D02*
Y12126D01*
X10945Y10315D02*
X11102Y10157D01*
X10866Y12441D02*
X10945Y12362D01*
Y10315D02*
Y12362D01*
X11142Y12717D02*
X11260Y12598D01*
Y10551D02*
X11378Y10433D01*
X11260Y10551D02*
Y12598D01*
X6457Y16299D02*
X6575Y16181D01*
X6457Y16299D02*
Y16558D01*
X10906Y19764D02*
X11457Y20315D01*
X11142Y18819D02*
X11220D01*
X10906Y19055D02*
Y19764D01*
Y19055D02*
X11142Y18819D01*
X10591Y18898D02*
X11260Y18228D01*
X10591Y20315D02*
X12795Y22520D01*
X10591Y18898D02*
Y20315D01*
X11417Y15000D02*
X12087D01*
X11102Y14016D02*
X11993D01*
X15079Y17101D01*
Y20396D01*
X11339Y13661D02*
X12084D01*
X10945Y14370D02*
X11902D01*
X10906D02*
X10945D01*
X11902D02*
X14764Y17232D01*
X14606Y34213D02*
X15827D01*
X14961Y34646D02*
X15235D01*
X15906D01*
X12084Y13661D02*
X15394Y16971D01*
X7205Y14803D02*
X7244Y14764D01*
X7480D01*
X7559Y14685D01*
X8583Y14764D02*
X8622Y14803D01*
X8307Y14764D02*
X8583D01*
X9961Y15984D02*
Y16417D01*
X10000Y16457D01*
X8661Y18189D02*
X8701D01*
Y17835D02*
Y18189D01*
X7677D02*
X7795D01*
X7480Y18386D02*
X7677Y18189D01*
X14764Y17232D02*
Y20526D01*
X2047Y34213D02*
X4213D01*
X2402Y34646D02*
X2676D01*
X12087Y15000D02*
X14449Y17362D01*
X15236Y29370D02*
X15748D01*
X14961D02*
X15236D01*
X14134Y17756D02*
Y20787D01*
X11378Y16220D02*
X12598D01*
X14134Y17756D01*
X13504Y18150D02*
Y21090D01*
X12205Y16850D02*
X12205D01*
X13504Y18150D01*
X12087Y17205D02*
X13189Y18307D01*
Y21220D01*
X11693Y17283D02*
X11693D01*
X12874Y18465D02*
Y21351D01*
X11693Y17283D02*
X12874Y18465D01*
X2047Y28937D02*
X4173D01*
X11260Y18228D02*
X11417D01*
X5748Y23307D02*
X10984Y18071D01*
X4921Y23307D02*
X5748D01*
X10945Y17677D02*
X11565D01*
X4685Y22992D02*
X5630D01*
X10945Y17677D01*
X15394Y16971D02*
Y20266D01*
X14449Y17362D02*
Y20657D01*
X13189Y21220D02*
X15669Y23701D01*
X12874Y21351D02*
X15276Y23753D01*
X13819Y17913D02*
Y20918D01*
X13504Y21090D02*
X15984Y23570D01*
X14764Y20526D02*
X17244Y23007D01*
X14449Y20657D02*
X16929Y23137D01*
X14134Y20787D02*
X16614Y23268D01*
X15079Y20396D02*
X17559Y22876D01*
X15394Y20266D02*
X17874Y22746D01*
X13819Y20918D02*
X16299Y23398D01*
X15039Y24291D02*
X15236Y24094D01*
X14606Y23661D02*
Y23937D01*
X15236Y24094D02*
X15276Y24055D01*
Y23753D02*
Y24055D01*
X15827Y34213D02*
X17559Y32480D01*
Y22876D02*
Y32480D01*
X16929Y23137D02*
Y32126D01*
X17244Y23007D02*
Y32283D01*
X15748Y29370D02*
X16614Y28504D01*
Y23268D02*
Y28504D01*
X15709Y28937D02*
X16299Y28346D01*
X15906Y34646D02*
X17874Y32677D01*
X15669Y33858D02*
X17244Y32283D01*
X17874Y22746D02*
Y32677D01*
X15512Y33543D02*
X16929Y32126D01*
X16299Y23398D02*
Y28346D01*
X15984Y23570D02*
Y28189D01*
X15669Y23701D02*
Y28031D01*
X15472Y28228D02*
X15669Y28031D01*
X15591Y28583D02*
X15984Y28189D01*
X12795Y22520D02*
X13465D01*
X14606Y23661D01*
X4488Y33937D02*
X13622D01*
X14016Y33543D01*
X15512D01*
X4213Y34213D02*
X4488Y33937D01*
X2676Y34645D02*
X4212D01*
X4803Y35236D02*
X12756D01*
X4212Y34645D02*
X4803Y35236D01*
X12756D02*
X14134Y33858D01*
X15669D01*
X4488Y28622D02*
X13268D01*
X13661Y28228D02*
X15472D01*
X13268Y28622D02*
X13661Y28228D01*
X4724Y29921D02*
X12441D01*
X13780Y28583D01*
X15591D01*
X4173Y28937D02*
X4488Y28622D01*
X2677Y29370D02*
X4173D01*
X4724Y29921D01*
X2402Y29370D02*
X2677D01*
X2323Y23661D02*
X4016D01*
X4685Y22992D01*
X4134Y24094D02*
X4921Y23307D01*
X2677Y24094D02*
X4134D01*
X2402D02*
X2677D01*
X2047Y23661D02*
X2323D01*
X9999Y38582D02*
X10668Y37913D01*
X12519D01*
X12952Y38346D01*
X14133D01*
X10000Y28031D02*
X10669Y27362D01*
X12520D01*
X12953Y27795D01*
X14134D01*
X10000Y33307D02*
X10669Y32638D01*
X12520D01*
X12953Y33071D01*
X14134D01*
D51*
X17244Y36417D02*
Y36732D01*
X16811Y37165D02*
X17244Y36732D01*
Y36073D02*
Y36417D01*
X5000Y37165D02*
X5472D01*
X4685D02*
X5000D01*
X5472D02*
X16811D01*
D52*
X10157Y9291D02*
Y10079D01*
X9705Y10532D02*
X10157Y10079D01*
X10551Y5354D02*
Y8898D01*
X10512D02*
X10551D01*
X10354Y9055D02*
X10512Y8898D01*
X10157Y9252D02*
Y9291D01*
Y9252D02*
X10315Y9094D01*
X10354D01*
Y9055D02*
Y9094D01*
D53*
X12165Y20079D02*
X12559Y19685D01*
X12323Y18543D02*
X12559Y18780D01*
Y19685D01*
X11575Y19173D02*
X12165D01*
X11535Y19213D02*
X11575Y19173D01*
X11260Y19213D02*
X11535D01*
D54*
X787Y7874D02*
D03*
Y9547D02*
D03*
D55*
X21654Y10630D02*
D03*
Y6693D02*
D03*
Y16535D02*
D03*
Y20472D02*
D03*
D56*
X1929Y14528D02*
D03*
Y12559D02*
D03*
D57*
X866Y12165D02*
D03*
Y14921D02*
D03*
D58*
X5024Y28016D02*
D03*
X6024D02*
D03*
X7024D02*
D03*
X8024D02*
D03*
X9024D02*
D03*
X10024D02*
D03*
X11024D02*
D03*
X12024D02*
D03*
Y24016D02*
D03*
X11024D02*
D03*
X10024D02*
D03*
X9024D02*
D03*
X8024D02*
D03*
X7024D02*
D03*
X6024D02*
D03*
X5024D02*
D03*
Y38567D02*
D03*
X6024D02*
D03*
X7024D02*
D03*
X8024D02*
D03*
X9024D02*
D03*
X10024D02*
D03*
X11024D02*
D03*
X12024D02*
D03*
Y34567D02*
D03*
X11024D02*
D03*
X10024D02*
D03*
X9024D02*
D03*
X8024D02*
D03*
X7024D02*
D03*
X6024D02*
D03*
X5024D02*
D03*
Y33291D02*
D03*
X6024D02*
D03*
X7024D02*
D03*
X8024D02*
D03*
X9024D02*
D03*
X10024D02*
D03*
X11024D02*
D03*
X12024D02*
D03*
Y29291D02*
D03*
X11024D02*
D03*
X10024D02*
D03*
X9024D02*
D03*
X8024D02*
D03*
X7024D02*
D03*
X6024D02*
D03*
X5024D02*
D03*
D59*
X8157Y12480D02*
D03*
D60*
X7157D02*
D03*
X6157D02*
D03*
X5157D02*
D03*
X4157D02*
D03*
X3157D02*
D03*
D61*
X10630Y9449D02*
D03*
X11122Y5315D02*
D03*
X10138Y6004D02*
D03*
Y7185D02*
D03*
X23228Y22539D02*
D03*
X19980Y22441D02*
D03*
X23228Y14468D02*
D03*
X19980Y14567D02*
D03*
X13032Y22874D02*
D03*
X11614Y22598D02*
D03*
X4331D02*
D03*
X5827Y22165D02*
D03*
X7008Y22795D02*
D03*
X8425D02*
D03*
X9843D02*
D03*
X11142Y16496D02*
D03*
X10276Y11850D02*
D03*
Y11575D02*
D03*
X6850Y14803D02*
D03*
X7126D02*
D03*
X12323Y15827D02*
D03*
X16968Y16968D02*
D03*
X12795Y12717D02*
D03*
X16929Y13032D02*
D03*
Y13346D02*
D03*
Y13661D02*
D03*
Y13976D02*
D03*
X17598Y11457D02*
D03*
X17047Y11102D02*
D03*
X13701Y10197D02*
D03*
X12205Y9921D02*
D03*
X11575Y354D02*
D03*
X23228Y27717D02*
D03*
X9094Y36417D02*
D03*
X9882Y36535D02*
D03*
X7087Y36457D02*
D03*
X5827Y36496D02*
D03*
X2441Y18386D02*
D03*
X906Y19213D02*
D03*
X945Y16339D02*
D03*
X3031Y6693D02*
D03*
X4685Y7283D02*
D03*
X4016Y5866D02*
D03*
X3189Y5118D02*
D03*
X7874Y7756D02*
D03*
X8150Y4843D02*
D03*
X5984Y5866D02*
D03*
X6535Y6496D02*
D03*
X6220Y7283D02*
D03*
X6890Y8780D02*
D03*
X1929Y11378D02*
D03*
X1870Y9449D02*
D03*
X315Y315D02*
D03*
X23307D02*
D03*
X20039Y19646D02*
D03*
X20000Y17205D02*
D03*
X20039Y19370D02*
D03*
X20000Y17480D02*
D03*
X18307Y15394D02*
D03*
Y15709D02*
D03*
X18701Y16299D02*
D03*
X15787Y17126D02*
D03*
X15827Y17402D02*
D03*
X17165Y20394D02*
D03*
Y20709D02*
D03*
Y21024D02*
D03*
X15197Y25433D02*
D03*
X16614Y30945D02*
D03*
X16654Y36220D02*
D03*
X14528Y34764D02*
D03*
X15039Y36575D02*
D03*
X11929D02*
D03*
X12795Y32244D02*
D03*
X15039Y32638D02*
D03*
X11890Y32244D02*
D03*
X14409Y30197D02*
D03*
Y29882D02*
D03*
X14488Y24724D02*
D03*
Y24370D02*
D03*
X15079Y27402D02*
D03*
X11929Y27008D02*
D03*
X2008Y24134D02*
D03*
X1732Y24961D02*
D03*
X2559Y24528D02*
D03*
X4055Y24921D02*
D03*
X4134Y26220D02*
D03*
X2402Y27165D02*
D03*
X4094Y30118D02*
D03*
X4134Y31535D02*
D03*
X2520Y29803D02*
D03*
X2362Y30945D02*
D03*
X2638Y35079D02*
D03*
X4055Y36811D02*
D03*
X2520Y37913D02*
D03*
X23268Y39016D02*
D03*
X945Y23228D02*
D03*
X2874Y20945D02*
D03*
X6457Y18701D02*
D03*
X6575Y17638D02*
D03*
X9528Y17520D02*
D03*
Y14961D02*
D03*
X5669Y12953D02*
D03*
X6890Y11811D02*
D03*
X5354Y10945D02*
D03*
X5984Y10512D02*
D03*
X5709D02*
D03*
X3071Y11063D02*
D03*
X2520Y12874D02*
D03*
Y13898D02*
D03*
X3819D02*
D03*
X4016Y16575D02*
D03*
X5354Y15591D02*
D03*
X7717Y16654D02*
D03*
X8031D02*
D03*
X8386Y15945D02*
D03*
Y16299D02*
D03*
X8031Y15945D02*
D03*
Y16299D02*
D03*
X7677D02*
D03*
Y15945D02*
D03*
X11614Y13346D02*
D03*
X13386Y11811D02*
D03*
X13110D02*
D03*
X11890Y13346D02*
D03*
X17244Y36890D02*
D03*
X17087Y36181D02*
D03*
X17244Y35945D02*
D03*
X17402Y36181D02*
D03*
X17244Y36417D02*
D03*
X17402Y36654D02*
D03*
X17087D02*
D03*
X5236Y37323D02*
D03*
Y37008D02*
D03*
X5000Y37165D02*
D03*
X4764Y37008D02*
D03*
X4528Y37165D02*
D03*
X4764Y37323D02*
D03*
X5472Y37165D02*
D03*
X9134Y10551D02*
D03*
X9409D02*
D03*
X9685D02*
D03*
X10551Y5079D02*
D03*
Y5354D02*
D03*
Y8898D02*
D03*
X10157Y9291D02*
D03*
X10354Y9094D02*
D03*
X12441Y11535D02*
D03*
X12717D02*
D03*
X11024Y9685D02*
D03*
X10827Y9882D02*
D03*
X11299Y9961D02*
D03*
X11102Y10157D02*
D03*
X11575Y10236D02*
D03*
X11378Y10433D02*
D03*
X11417Y12992D02*
D03*
X11142Y12717D02*
D03*
X10866Y12441D02*
D03*
X10591Y12165D02*
D03*
X11220Y13189D02*
D03*
X10945Y12913D02*
D03*
X10669Y12638D02*
D03*
X10394Y12362D02*
D03*
X1260Y13189D02*
D03*
X984D02*
D03*
X709D02*
D03*
X1260Y13465D02*
D03*
X984D02*
D03*
X709D02*
D03*
X984Y13740D02*
D03*
X709D02*
D03*
X1260Y14016D02*
D03*
X984D02*
D03*
X709D02*
D03*
X1260Y13740D02*
D03*
X5472Y18346D02*
D03*
X5748D02*
D03*
X5551Y14567D02*
D03*
Y14291D02*
D03*
Y14016D02*
D03*
X5827Y14567D02*
D03*
Y14291D02*
D03*
Y14016D02*
D03*
X6102D02*
D03*
Y14291D02*
D03*
Y14567D02*
D03*
X2559Y19370D02*
D03*
X2283D02*
D03*
X1378Y18268D02*
D03*
Y18543D02*
D03*
Y18819D02*
D03*
X2244Y17244D02*
D03*
X1969D02*
D03*
X1693D02*
D03*
X1969Y17677D02*
D03*
X1693D02*
D03*
X2244D02*
D03*
X3228D02*
D03*
X2953D02*
D03*
X2677D02*
D03*
X11457Y20315D02*
D03*
X11693Y20433D02*
D03*
X11417Y15000D02*
D03*
X11142Y14016D02*
D03*
X11339Y13661D02*
D03*
X10945Y14370D02*
D03*
X9961Y15433D02*
D03*
Y15709D02*
D03*
X8898Y14803D02*
D03*
X8622D02*
D03*
X9961Y15984D02*
D03*
X8701Y18189D02*
D03*
X8425D02*
D03*
X8071D02*
D03*
X7795D02*
D03*
X6575Y16181D02*
D03*
Y15906D02*
D03*
X11850Y15827D02*
D03*
X11535D02*
D03*
X11220D02*
D03*
X11693Y15433D02*
D03*
X12008D02*
D03*
X11378D02*
D03*
Y16220D02*
D03*
X12205Y16850D02*
D03*
X12087Y17205D02*
D03*
X11693Y17283D02*
D03*
X11496Y18819D02*
D03*
X11220D02*
D03*
X11417Y18228D02*
D03*
X11890Y17953D02*
D03*
X11575Y17677D02*
D03*
X12165Y19173D02*
D03*
Y19449D02*
D03*
X15039Y24291D02*
D03*
X14606Y23937D02*
D03*
X15276Y27795D02*
D03*
X12047Y18543D02*
D03*
X12323Y18543D02*
D03*
X12165Y20079D02*
D03*
X11890D02*
D03*
X11260Y19213D02*
D03*
X11535D02*
D03*
X14133Y38346D02*
D03*
X14409D02*
D03*
X15354D02*
D03*
X3542D02*
D03*
X3267D02*
D03*
X3818D02*
D03*
X1889D02*
D03*
X1613D02*
D03*
X2165D02*
D03*
X14960Y34645D02*
D03*
X15235D02*
D03*
X2401D02*
D03*
X2676D02*
D03*
X2046Y34212D02*
D03*
X2322D02*
D03*
X14605D02*
D03*
X14881D02*
D03*
X14134Y27795D02*
D03*
X14409D02*
D03*
X3543D02*
D03*
X3268D02*
D03*
X3819D02*
D03*
X1890D02*
D03*
X1614D02*
D03*
X2165D02*
D03*
X15236Y24094D02*
D03*
X2402D02*
D03*
X2677D02*
D03*
X2047Y23661D02*
D03*
X2323D02*
D03*
X14606D02*
D03*
X15236Y29370D02*
D03*
X14606Y28937D02*
D03*
X14882D02*
D03*
X14961Y29370D02*
D03*
X2402D02*
D03*
X2323Y28937D02*
D03*
X2047D02*
D03*
X2677Y29370D02*
D03*
X3819Y33071D02*
D03*
X3543D02*
D03*
X3268D02*
D03*
X2165D02*
D03*
X1890D02*
D03*
X1614D02*
D03*
X15354D02*
D03*
X14409D02*
D03*
X14134D02*
D03*
D62*
X21654Y37402D02*
D03*
Y1969D02*
D03*
X1969D02*
D03*
D63*
X1929Y13032D02*
D03*
Y13287D02*
D03*
Y13543D02*
D03*
Y13799D02*
D03*
Y14055D02*
D03*
D64*
X492Y15783D02*
D03*
D65*
X354Y16260D02*
D03*
D66*
Y16673D02*
D03*
Y17106D02*
D03*
Y17539D02*
D03*
Y17972D02*
D03*
Y18406D02*
D03*
Y18839D02*
D03*
Y19272D02*
D03*
D67*
X404Y20240D02*
D03*
D68*
X4232Y20309D02*
D03*
X2776D02*
D03*
D69*
X4616Y18931D02*
D03*
Y16581D02*
D03*
M02*
