G04*
G04 #@! TF.GenerationSoftware,Altium Limited,Altium Designer,20.0.13 (296)*
G04*
G04 Layer_Color=2752767*
%FSLAX24Y24*%
%MOIN*%
G70*
G01*
G75*
%ADD14C,0.0010*%
%ADD77C,0.0020*%
%ADD78C,0.0027*%
%ADD79C,0.0013*%
D14*
X0Y0D02*
Y39370D01*
X23622D01*
X23622Y0D01*
X0D02*
X23622D01*
D77*
X707Y7794D02*
Y7954D01*
X867D01*
Y7794D01*
X707D01*
Y9467D02*
Y9627D01*
X867D01*
Y9467D01*
X707D01*
X1929Y14448D02*
X1849Y14608D01*
X2009D01*
X1929Y14448D01*
Y12479D02*
X1849Y12639D01*
X2009D01*
X1929Y12479D01*
X866Y12085D02*
X906Y12125D01*
X946D01*
X906Y12165D01*
X946Y12205D01*
X906D01*
X866Y12245D01*
X826Y12205D01*
X786D01*
X826Y12165D01*
X786Y12125D01*
X826D01*
X866Y12085D01*
Y14841D02*
X906Y14881D01*
X946D01*
X906Y14921D01*
X946Y14961D01*
X906D01*
X866Y15001D01*
X826Y14961D01*
X786D01*
X826Y14921D01*
X786Y14881D01*
X826D01*
X866Y14841D01*
X5471Y4329D02*
X5511Y4409D01*
X5471Y4489D01*
X5551Y4449D01*
X5631Y4489D01*
X5591Y4409D01*
X5631Y4329D01*
X5551Y4369D01*
X5471Y4329D01*
Y8739D02*
X5511Y8819D01*
X5471Y8899D01*
X5551Y8859D01*
X5631Y8899D01*
X5591Y8819D01*
X5631Y8739D01*
X5551Y8779D01*
X5471Y8739D01*
X2755Y5590D02*
Y5550D01*
X2835D01*
Y5590D01*
X2875D01*
Y5670D01*
X2835D01*
Y5710D01*
X2755D01*
Y5670D01*
X2715D01*
Y5590D01*
X2755D01*
Y7558D02*
Y7518D01*
X2835D01*
Y7558D01*
X2875D01*
Y7638D01*
X2835D01*
Y7678D01*
X2755D01*
Y7638D01*
X2715D01*
Y7558D01*
X2755D01*
X8464Y5590D02*
Y5550D01*
X8544D01*
Y5590D01*
X8584D01*
Y5670D01*
X8544D01*
Y5710D01*
X8464D01*
Y5670D01*
X8424D01*
Y5590D01*
X8464D01*
Y6574D02*
Y6534D01*
X8544D01*
Y6574D01*
X8584D01*
Y6654D01*
X8544D01*
Y6694D01*
X8464D01*
Y6654D01*
X8424D01*
Y6574D01*
X8464D01*
Y7558D02*
Y7518D01*
X8544D01*
Y7558D01*
X8584D01*
Y7638D01*
X8544D01*
Y7678D01*
X8464D01*
Y7638D01*
X8424D01*
Y7558D01*
X8464D01*
X4944Y27936D02*
X4984D01*
X5024Y27976D01*
X5064Y27936D01*
X5104D01*
Y27976D01*
X5064Y28016D01*
X5104Y28056D01*
Y28096D01*
X5064D01*
X5024Y28056D01*
X4984Y28096D01*
X4944D01*
Y28056D01*
X4984Y28016D01*
X4944Y27976D01*
Y27936D01*
X5944D02*
X5984D01*
X6024Y27976D01*
X6064Y27936D01*
X6104D01*
Y27976D01*
X6064Y28016D01*
X6104Y28056D01*
Y28096D01*
X6064D01*
X6024Y28056D01*
X5984Y28096D01*
X5944D01*
Y28056D01*
X5984Y28016D01*
X5944Y27976D01*
Y27936D01*
X6944D02*
X6984D01*
X7024Y27976D01*
X7064Y27936D01*
X7104D01*
Y27976D01*
X7064Y28016D01*
X7104Y28056D01*
Y28096D01*
X7064D01*
X7024Y28056D01*
X6984Y28096D01*
X6944D01*
Y28056D01*
X6984Y28016D01*
X6944Y27976D01*
Y27936D01*
X7944D02*
X7984D01*
X8024Y27976D01*
X8064Y27936D01*
X8104D01*
Y27976D01*
X8064Y28016D01*
X8104Y28056D01*
Y28096D01*
X8064D01*
X8024Y28056D01*
X7984Y28096D01*
X7944D01*
Y28056D01*
X7984Y28016D01*
X7944Y27976D01*
Y27936D01*
X8944D02*
X8984D01*
X9024Y27976D01*
X9064Y27936D01*
X9104D01*
Y27976D01*
X9064Y28016D01*
X9104Y28056D01*
Y28096D01*
X9064D01*
X9024Y28056D01*
X8984Y28096D01*
X8944D01*
Y28056D01*
X8984Y28016D01*
X8944Y27976D01*
Y27936D01*
X9944D02*
X9984D01*
X10024Y27976D01*
X10064Y27936D01*
X10104D01*
Y27976D01*
X10064Y28016D01*
X10104Y28056D01*
Y28096D01*
X10064D01*
X10024Y28056D01*
X9984Y28096D01*
X9944D01*
Y28056D01*
X9984Y28016D01*
X9944Y27976D01*
Y27936D01*
X10944D02*
X10984D01*
X11024Y27976D01*
X11064Y27936D01*
X11104D01*
Y27976D01*
X11064Y28016D01*
X11104Y28056D01*
Y28096D01*
X11064D01*
X11024Y28056D01*
X10984Y28096D01*
X10944D01*
Y28056D01*
X10984Y28016D01*
X10944Y27976D01*
Y27936D01*
X11944D02*
X11984D01*
X12024Y27976D01*
X12064Y27936D01*
X12104D01*
Y27976D01*
X12064Y28016D01*
X12104Y28056D01*
Y28096D01*
X12064D01*
X12024Y28056D01*
X11984Y28096D01*
X11944D01*
Y28056D01*
X11984Y28016D01*
X11944Y27976D01*
Y27936D01*
Y23936D02*
X11984D01*
X12024Y23976D01*
X12064Y23936D01*
X12104D01*
Y23976D01*
X12064Y24016D01*
X12104Y24056D01*
Y24096D01*
X12064D01*
X12024Y24056D01*
X11984Y24096D01*
X11944D01*
Y24056D01*
X11984Y24016D01*
X11944Y23976D01*
Y23936D01*
X10944D02*
X10984D01*
X11024Y23976D01*
X11064Y23936D01*
X11104D01*
Y23976D01*
X11064Y24016D01*
X11104Y24056D01*
Y24096D01*
X11064D01*
X11024Y24056D01*
X10984Y24096D01*
X10944D01*
Y24056D01*
X10984Y24016D01*
X10944Y23976D01*
Y23936D01*
X9944D02*
X9984D01*
X10024Y23976D01*
X10064Y23936D01*
X10104D01*
Y23976D01*
X10064Y24016D01*
X10104Y24056D01*
Y24096D01*
X10064D01*
X10024Y24056D01*
X9984Y24096D01*
X9944D01*
Y24056D01*
X9984Y24016D01*
X9944Y23976D01*
Y23936D01*
X8944D02*
X8984D01*
X9024Y23976D01*
X9064Y23936D01*
X9104D01*
Y23976D01*
X9064Y24016D01*
X9104Y24056D01*
Y24096D01*
X9064D01*
X9024Y24056D01*
X8984Y24096D01*
X8944D01*
Y24056D01*
X8984Y24016D01*
X8944Y23976D01*
Y23936D01*
X7944D02*
X7984D01*
X8024Y23976D01*
X8064Y23936D01*
X8104D01*
Y23976D01*
X8064Y24016D01*
X8104Y24056D01*
Y24096D01*
X8064D01*
X8024Y24056D01*
X7984Y24096D01*
X7944D01*
Y24056D01*
X7984Y24016D01*
X7944Y23976D01*
Y23936D01*
X6944D02*
X6984D01*
X7024Y23976D01*
X7064Y23936D01*
X7104D01*
Y23976D01*
X7064Y24016D01*
X7104Y24056D01*
Y24096D01*
X7064D01*
X7024Y24056D01*
X6984Y24096D01*
X6944D01*
Y24056D01*
X6984Y24016D01*
X6944Y23976D01*
Y23936D01*
X5944D02*
X5984D01*
X6024Y23976D01*
X6064Y23936D01*
X6104D01*
Y23976D01*
X6064Y24016D01*
X6104Y24056D01*
Y24096D01*
X6064D01*
X6024Y24056D01*
X5984Y24096D01*
X5944D01*
Y24056D01*
X5984Y24016D01*
X5944Y23976D01*
Y23936D01*
X4944D02*
X4984D01*
X5024Y23976D01*
X5064Y23936D01*
X5104D01*
Y23976D01*
X5064Y24016D01*
X5104Y24056D01*
Y24096D01*
X5064D01*
X5024Y24056D01*
X4984Y24096D01*
X4944D01*
Y24056D01*
X4984Y24016D01*
X4944Y23976D01*
Y23936D01*
Y38487D02*
X4984D01*
X5024Y38527D01*
X5064Y38487D01*
X5104D01*
Y38527D01*
X5064Y38567D01*
X5104Y38607D01*
Y38647D01*
X5064D01*
X5024Y38607D01*
X4984Y38647D01*
X4944D01*
Y38607D01*
X4984Y38567D01*
X4944Y38527D01*
Y38487D01*
X5944D02*
X5984D01*
X6024Y38527D01*
X6064Y38487D01*
X6104D01*
Y38527D01*
X6064Y38567D01*
X6104Y38607D01*
Y38647D01*
X6064D01*
X6024Y38607D01*
X5984Y38647D01*
X5944D01*
Y38607D01*
X5984Y38567D01*
X5944Y38527D01*
Y38487D01*
X6944D02*
X6984D01*
X7024Y38527D01*
X7064Y38487D01*
X7104D01*
Y38527D01*
X7064Y38567D01*
X7104Y38607D01*
Y38647D01*
X7064D01*
X7024Y38607D01*
X6984Y38647D01*
X6944D01*
Y38607D01*
X6984Y38567D01*
X6944Y38527D01*
Y38487D01*
X7944D02*
X7984D01*
X8024Y38527D01*
X8064Y38487D01*
X8104D01*
Y38527D01*
X8064Y38567D01*
X8104Y38607D01*
Y38647D01*
X8064D01*
X8024Y38607D01*
X7984Y38647D01*
X7944D01*
Y38607D01*
X7984Y38567D01*
X7944Y38527D01*
Y38487D01*
X8944D02*
X8984D01*
X9024Y38527D01*
X9064Y38487D01*
X9104D01*
Y38527D01*
X9064Y38567D01*
X9104Y38607D01*
Y38647D01*
X9064D01*
X9024Y38607D01*
X8984Y38647D01*
X8944D01*
Y38607D01*
X8984Y38567D01*
X8944Y38527D01*
Y38487D01*
X9944D02*
X9984D01*
X10024Y38527D01*
X10064Y38487D01*
X10104D01*
Y38527D01*
X10064Y38567D01*
X10104Y38607D01*
Y38647D01*
X10064D01*
X10024Y38607D01*
X9984Y38647D01*
X9944D01*
Y38607D01*
X9984Y38567D01*
X9944Y38527D01*
Y38487D01*
X10944D02*
X10984D01*
X11024Y38527D01*
X11064Y38487D01*
X11104D01*
Y38527D01*
X11064Y38567D01*
X11104Y38607D01*
Y38647D01*
X11064D01*
X11024Y38607D01*
X10984Y38647D01*
X10944D01*
Y38607D01*
X10984Y38567D01*
X10944Y38527D01*
Y38487D01*
X11944D02*
X11984D01*
X12024Y38527D01*
X12064Y38487D01*
X12104D01*
Y38527D01*
X12064Y38567D01*
X12104Y38607D01*
Y38647D01*
X12064D01*
X12024Y38607D01*
X11984Y38647D01*
X11944D01*
Y38607D01*
X11984Y38567D01*
X11944Y38527D01*
Y38487D01*
Y34487D02*
X11984D01*
X12024Y34527D01*
X12064Y34487D01*
X12104D01*
Y34527D01*
X12064Y34567D01*
X12104Y34607D01*
Y34647D01*
X12064D01*
X12024Y34607D01*
X11984Y34647D01*
X11944D01*
Y34607D01*
X11984Y34567D01*
X11944Y34527D01*
Y34487D01*
X10944D02*
X10984D01*
X11024Y34527D01*
X11064Y34487D01*
X11104D01*
Y34527D01*
X11064Y34567D01*
X11104Y34607D01*
Y34647D01*
X11064D01*
X11024Y34607D01*
X10984Y34647D01*
X10944D01*
Y34607D01*
X10984Y34567D01*
X10944Y34527D01*
Y34487D01*
X9944D02*
X9984D01*
X10024Y34527D01*
X10064Y34487D01*
X10104D01*
Y34527D01*
X10064Y34567D01*
X10104Y34607D01*
Y34647D01*
X10064D01*
X10024Y34607D01*
X9984Y34647D01*
X9944D01*
Y34607D01*
X9984Y34567D01*
X9944Y34527D01*
Y34487D01*
X8944D02*
X8984D01*
X9024Y34527D01*
X9064Y34487D01*
X9104D01*
Y34527D01*
X9064Y34567D01*
X9104Y34607D01*
Y34647D01*
X9064D01*
X9024Y34607D01*
X8984Y34647D01*
X8944D01*
Y34607D01*
X8984Y34567D01*
X8944Y34527D01*
Y34487D01*
X7944D02*
X7984D01*
X8024Y34527D01*
X8064Y34487D01*
X8104D01*
Y34527D01*
X8064Y34567D01*
X8104Y34607D01*
Y34647D01*
X8064D01*
X8024Y34607D01*
X7984Y34647D01*
X7944D01*
Y34607D01*
X7984Y34567D01*
X7944Y34527D01*
Y34487D01*
X6944D02*
X6984D01*
X7024Y34527D01*
X7064Y34487D01*
X7104D01*
Y34527D01*
X7064Y34567D01*
X7104Y34607D01*
Y34647D01*
X7064D01*
X7024Y34607D01*
X6984Y34647D01*
X6944D01*
Y34607D01*
X6984Y34567D01*
X6944Y34527D01*
Y34487D01*
X5944D02*
X5984D01*
X6024Y34527D01*
X6064Y34487D01*
X6104D01*
Y34527D01*
X6064Y34567D01*
X6104Y34607D01*
Y34647D01*
X6064D01*
X6024Y34607D01*
X5984Y34647D01*
X5944D01*
Y34607D01*
X5984Y34567D01*
X5944Y34527D01*
Y34487D01*
X4944D02*
X4984D01*
X5024Y34527D01*
X5064Y34487D01*
X5104D01*
Y34527D01*
X5064Y34567D01*
X5104Y34607D01*
Y34647D01*
X5064D01*
X5024Y34607D01*
X4984Y34647D01*
X4944D01*
Y34607D01*
X4984Y34567D01*
X4944Y34527D01*
Y34487D01*
Y33211D02*
X4984D01*
X5024Y33251D01*
X5064Y33211D01*
X5104D01*
Y33251D01*
X5064Y33291D01*
X5104Y33331D01*
Y33371D01*
X5064D01*
X5024Y33331D01*
X4984Y33371D01*
X4944D01*
Y33331D01*
X4984Y33291D01*
X4944Y33251D01*
Y33211D01*
X5944D02*
X5984D01*
X6024Y33251D01*
X6064Y33211D01*
X6104D01*
Y33251D01*
X6064Y33291D01*
X6104Y33331D01*
Y33371D01*
X6064D01*
X6024Y33331D01*
X5984Y33371D01*
X5944D01*
Y33331D01*
X5984Y33291D01*
X5944Y33251D01*
Y33211D01*
X6944D02*
X6984D01*
X7024Y33251D01*
X7064Y33211D01*
X7104D01*
Y33251D01*
X7064Y33291D01*
X7104Y33331D01*
Y33371D01*
X7064D01*
X7024Y33331D01*
X6984Y33371D01*
X6944D01*
Y33331D01*
X6984Y33291D01*
X6944Y33251D01*
Y33211D01*
X7944D02*
X7984D01*
X8024Y33251D01*
X8064Y33211D01*
X8104D01*
Y33251D01*
X8064Y33291D01*
X8104Y33331D01*
Y33371D01*
X8064D01*
X8024Y33331D01*
X7984Y33371D01*
X7944D01*
Y33331D01*
X7984Y33291D01*
X7944Y33251D01*
Y33211D01*
X8944D02*
X8984D01*
X9024Y33251D01*
X9064Y33211D01*
X9104D01*
Y33251D01*
X9064Y33291D01*
X9104Y33331D01*
Y33371D01*
X9064D01*
X9024Y33331D01*
X8984Y33371D01*
X8944D01*
Y33331D01*
X8984Y33291D01*
X8944Y33251D01*
Y33211D01*
X9944D02*
X9984D01*
X10024Y33251D01*
X10064Y33211D01*
X10104D01*
Y33251D01*
X10064Y33291D01*
X10104Y33331D01*
Y33371D01*
X10064D01*
X10024Y33331D01*
X9984Y33371D01*
X9944D01*
Y33331D01*
X9984Y33291D01*
X9944Y33251D01*
Y33211D01*
X10944D02*
X10984D01*
X11024Y33251D01*
X11064Y33211D01*
X11104D01*
Y33251D01*
X11064Y33291D01*
X11104Y33331D01*
Y33371D01*
X11064D01*
X11024Y33331D01*
X10984Y33371D01*
X10944D01*
Y33331D01*
X10984Y33291D01*
X10944Y33251D01*
Y33211D01*
X11944D02*
X11984D01*
X12024Y33251D01*
X12064Y33211D01*
X12104D01*
Y33251D01*
X12064Y33291D01*
X12104Y33331D01*
Y33371D01*
X12064D01*
X12024Y33331D01*
X11984Y33371D01*
X11944D01*
Y33331D01*
X11984Y33291D01*
X11944Y33251D01*
Y33211D01*
Y29211D02*
X11984D01*
X12024Y29251D01*
X12064Y29211D01*
X12104D01*
Y29251D01*
X12064Y29291D01*
X12104Y29331D01*
Y29371D01*
X12064D01*
X12024Y29331D01*
X11984Y29371D01*
X11944D01*
Y29331D01*
X11984Y29291D01*
X11944Y29251D01*
Y29211D01*
X10944D02*
X10984D01*
X11024Y29251D01*
X11064Y29211D01*
X11104D01*
Y29251D01*
X11064Y29291D01*
X11104Y29331D01*
Y29371D01*
X11064D01*
X11024Y29331D01*
X10984Y29371D01*
X10944D01*
Y29331D01*
X10984Y29291D01*
X10944Y29251D01*
Y29211D01*
X9944D02*
X9984D01*
X10024Y29251D01*
X10064Y29211D01*
X10104D01*
Y29251D01*
X10064Y29291D01*
X10104Y29331D01*
Y29371D01*
X10064D01*
X10024Y29331D01*
X9984Y29371D01*
X9944D01*
Y29331D01*
X9984Y29291D01*
X9944Y29251D01*
Y29211D01*
X8944D02*
X8984D01*
X9024Y29251D01*
X9064Y29211D01*
X9104D01*
Y29251D01*
X9064Y29291D01*
X9104Y29331D01*
Y29371D01*
X9064D01*
X9024Y29331D01*
X8984Y29371D01*
X8944D01*
Y29331D01*
X8984Y29291D01*
X8944Y29251D01*
Y29211D01*
X7944D02*
X7984D01*
X8024Y29251D01*
X8064Y29211D01*
X8104D01*
Y29251D01*
X8064Y29291D01*
X8104Y29331D01*
Y29371D01*
X8064D01*
X8024Y29331D01*
X7984Y29371D01*
X7944D01*
Y29331D01*
X7984Y29291D01*
X7944Y29251D01*
Y29211D01*
X6944D02*
X6984D01*
X7024Y29251D01*
X7064Y29211D01*
X7104D01*
Y29251D01*
X7064Y29291D01*
X7104Y29331D01*
Y29371D01*
X7064D01*
X7024Y29331D01*
X6984Y29371D01*
X6944D01*
Y29331D01*
X6984Y29291D01*
X6944Y29251D01*
Y29211D01*
X5944D02*
X5984D01*
X6024Y29251D01*
X6064Y29211D01*
X6104D01*
Y29251D01*
X6064Y29291D01*
X6104Y29331D01*
Y29371D01*
X6064D01*
X6024Y29331D01*
X5984Y29371D01*
X5944D01*
Y29331D01*
X5984Y29291D01*
X5944Y29251D01*
Y29211D01*
X4944D02*
X4984D01*
X5024Y29251D01*
X5064Y29211D01*
X5104D01*
Y29251D01*
X5064Y29291D01*
X5104Y29331D01*
Y29371D01*
X5064D01*
X5024Y29331D01*
X4984Y29371D01*
X4944D01*
Y29331D01*
X4984Y29291D01*
X4944Y29251D01*
Y29211D01*
X8077Y12480D02*
X8157Y12560D01*
X8237Y12480D01*
X8157Y12400D01*
X8077Y12480D01*
X7077D02*
X7157Y12560D01*
X7237Y12480D01*
X7157Y12400D01*
X7077Y12480D01*
X6077D02*
X6157Y12560D01*
X6237Y12480D01*
X6157Y12400D01*
X6077Y12480D01*
X5077D02*
X5157Y12560D01*
X5237Y12480D01*
X5157Y12400D01*
X5077Y12480D01*
X4077D02*
X4157Y12560D01*
X4237Y12480D01*
X4157Y12400D01*
X4077Y12480D01*
X3077D02*
X3157Y12560D01*
X3237Y12480D01*
X3157Y12400D01*
X3077Y12480D01*
X10550Y9369D02*
Y9529D01*
X10710D01*
Y9369D01*
X10550D01*
X10590Y9409D02*
Y9489D01*
X10670D01*
Y9409D01*
X10590D01*
X11042Y5235D02*
Y5395D01*
X11202D01*
Y5235D01*
X11042D01*
X11082Y5275D02*
Y5355D01*
X11162D01*
Y5275D01*
X11082D01*
X10058Y5924D02*
Y6084D01*
X10218D01*
Y5924D01*
X10058D01*
X10098Y5964D02*
Y6044D01*
X10178D01*
Y5964D01*
X10098D01*
X10058Y7105D02*
Y7265D01*
X10218D01*
Y7105D01*
X10058D01*
X10098Y7145D02*
Y7225D01*
X10178D01*
Y7145D01*
X10098D01*
X23148Y22459D02*
Y22619D01*
X23308D01*
Y22459D01*
X23148D01*
X23188Y22499D02*
Y22579D01*
X23268D01*
Y22499D01*
X23188D01*
X19900Y22361D02*
Y22521D01*
X20060D01*
Y22361D01*
X19900D01*
X19940Y22401D02*
Y22481D01*
X20020D01*
Y22401D01*
X19940D01*
X23148Y14389D02*
Y14548D01*
X23308D01*
Y14389D01*
X23148D01*
X23188Y14428D02*
Y14509D01*
X23268D01*
Y14428D01*
X23188D01*
X19900Y14487D02*
Y14647D01*
X20060D01*
Y14487D01*
X19900D01*
X19940Y14527D02*
Y14607D01*
X20020D01*
Y14527D01*
X19940D01*
X12952Y22794D02*
Y22954D01*
X13111D01*
Y22794D01*
X12952D01*
X12991Y22834D02*
Y22914D01*
X13072D01*
Y22834D01*
X12991D01*
X11534Y22518D02*
Y22678D01*
X11694D01*
Y22518D01*
X11534D01*
X11574Y22558D02*
Y22638D01*
X11654D01*
Y22558D01*
X11574D01*
X4251Y22518D02*
Y22678D01*
X4411D01*
Y22518D01*
X4251D01*
X4291Y22558D02*
Y22638D01*
X4371D01*
Y22558D01*
X4291D01*
X5747Y22085D02*
Y22245D01*
X5907D01*
Y22085D01*
X5747D01*
X5787Y22125D02*
Y22205D01*
X5867D01*
Y22125D01*
X5787D01*
X6928Y22715D02*
Y22875D01*
X7088D01*
Y22715D01*
X6928D01*
X6968Y22755D02*
Y22835D01*
X7048D01*
Y22755D01*
X6968D01*
X8345Y22715D02*
Y22875D01*
X8505D01*
Y22715D01*
X8345D01*
X8385Y22755D02*
Y22835D01*
X8465D01*
Y22755D01*
X8385D01*
X9763Y22715D02*
Y22875D01*
X9923D01*
Y22715D01*
X9763D01*
X9803Y22755D02*
Y22835D01*
X9883D01*
Y22755D01*
X9803D01*
X11062Y16416D02*
Y16576D01*
X11222D01*
Y16416D01*
X11062D01*
X11102Y16456D02*
Y16536D01*
X11182D01*
Y16456D01*
X11102D01*
X10196Y11770D02*
Y11930D01*
X10356D01*
Y11770D01*
X10196D01*
X10236Y11810D02*
Y11890D01*
X10316D01*
Y11810D01*
X10236D01*
X10196Y11495D02*
Y11655D01*
X10356D01*
Y11495D01*
X10196D01*
X10236Y11535D02*
Y11615D01*
X10316D01*
Y11535D01*
X10236D01*
X6770Y14723D02*
Y14883D01*
X6930D01*
Y14723D01*
X6770D01*
X6810Y14763D02*
Y14843D01*
X6890D01*
Y14763D01*
X6810D01*
X7046Y14723D02*
Y14883D01*
X7206D01*
Y14723D01*
X7046D01*
X7086Y14763D02*
Y14843D01*
X7166D01*
Y14763D01*
X7086D01*
X12243Y15747D02*
Y15907D01*
X12403D01*
Y15747D01*
X12243D01*
X12283Y15787D02*
Y15867D01*
X12363D01*
Y15787D01*
X12283D01*
X16889Y16889D02*
Y17048D01*
X17048D01*
Y16889D01*
X16889D01*
X16928Y16928D02*
Y17009D01*
X17009D01*
Y16928D01*
X16928D01*
X12715Y12637D02*
Y12797D01*
X12875D01*
Y12637D01*
X12715D01*
X12755Y12677D02*
Y12757D01*
X12835D01*
Y12677D01*
X12755D01*
X16849Y12952D02*
Y13111D01*
X17009D01*
Y12952D01*
X16849D01*
X16889Y12991D02*
Y13072D01*
X16969D01*
Y12991D01*
X16889D01*
X16849Y13266D02*
Y13426D01*
X17009D01*
Y13266D01*
X16849D01*
X16889Y13306D02*
Y13386D01*
X16969D01*
Y13306D01*
X16889D01*
X16849Y13581D02*
Y13741D01*
X17009D01*
Y13581D01*
X16849D01*
X16889Y13621D02*
Y13701D01*
X16969D01*
Y13621D01*
X16889D01*
X16849Y13896D02*
Y14056D01*
X17009D01*
Y13896D01*
X16849D01*
X16889Y13936D02*
Y14016D01*
X16969D01*
Y13936D01*
X16889D01*
X17518Y11377D02*
Y11537D01*
X17678D01*
Y11377D01*
X17518D01*
X17558Y11417D02*
Y11497D01*
X17638D01*
Y11417D01*
X17558D01*
X16967Y11022D02*
Y11182D01*
X17127D01*
Y11022D01*
X16967D01*
X17007Y11062D02*
Y11142D01*
X17087D01*
Y11062D01*
X17007D01*
X13621Y10117D02*
Y10277D01*
X13781D01*
Y10117D01*
X13621D01*
X13661Y10157D02*
Y10237D01*
X13741D01*
Y10157D01*
X13661D01*
X12125Y9841D02*
Y10001D01*
X12285D01*
Y9841D01*
X12125D01*
X12165Y9881D02*
Y9961D01*
X12245D01*
Y9881D01*
X12165D01*
X11495Y274D02*
Y434D01*
X11655D01*
Y274D01*
X11495D01*
X11535Y314D02*
Y394D01*
X11615D01*
Y314D01*
X11535D01*
X23148Y27637D02*
Y27797D01*
X23308D01*
Y27637D01*
X23148D01*
X23188Y27677D02*
Y27757D01*
X23268D01*
Y27677D01*
X23188D01*
X9014Y36337D02*
Y36497D01*
X9174D01*
Y36337D01*
X9014D01*
X9054Y36377D02*
Y36457D01*
X9134D01*
Y36377D01*
X9054D01*
X9802Y36455D02*
Y36615D01*
X9962D01*
Y36455D01*
X9802D01*
X9842Y36495D02*
Y36575D01*
X9922D01*
Y36495D01*
X9842D01*
X7007Y36377D02*
Y36537D01*
X7167D01*
Y36377D01*
X7007D01*
X7047Y36417D02*
Y36497D01*
X7127D01*
Y36417D01*
X7047D01*
X5747Y36416D02*
Y36576D01*
X5907D01*
Y36416D01*
X5747D01*
X5787Y36456D02*
Y36536D01*
X5867D01*
Y36456D01*
X5787D01*
X2361Y18306D02*
Y18466D01*
X2521D01*
Y18306D01*
X2361D01*
X2401Y18346D02*
Y18426D01*
X2481D01*
Y18346D01*
X2401D01*
X826Y19133D02*
Y19293D01*
X986D01*
Y19133D01*
X826D01*
X866Y19173D02*
Y19253D01*
X946D01*
Y19173D01*
X866D01*
X865Y16259D02*
Y16419D01*
X1025D01*
Y16259D01*
X865D01*
X905Y16299D02*
Y16379D01*
X985D01*
Y16299D01*
X905D01*
X2952Y6613D02*
Y6773D01*
X3112D01*
Y6613D01*
X2952D01*
X2991Y6653D02*
Y6733D01*
X3072D01*
Y6653D01*
X2991D01*
X4605Y7203D02*
Y7363D01*
X4765D01*
Y7203D01*
X4605D01*
X4645Y7243D02*
Y7323D01*
X4725D01*
Y7243D01*
X4645D01*
X3936Y5786D02*
Y5946D01*
X4096D01*
Y5786D01*
X3936D01*
X3976Y5826D02*
Y5906D01*
X4056D01*
Y5826D01*
X3976D01*
X3109Y5038D02*
Y5198D01*
X3269D01*
Y5038D01*
X3109D01*
X3149Y5078D02*
Y5158D01*
X3229D01*
Y5078D01*
X3149D01*
X7794Y7676D02*
Y7836D01*
X7954D01*
Y7676D01*
X7794D01*
X7834Y7716D02*
Y7796D01*
X7914D01*
Y7716D01*
X7834D01*
X8070Y4763D02*
Y4923D01*
X8230D01*
Y4763D01*
X8070D01*
X8110Y4803D02*
Y4883D01*
X8190D01*
Y4803D01*
X8110D01*
X5904Y5786D02*
Y5946D01*
X6064D01*
Y5786D01*
X5904D01*
X5944Y5826D02*
Y5906D01*
X6024D01*
Y5826D01*
X5944D01*
X6455Y6416D02*
Y6576D01*
X6615D01*
Y6416D01*
X6455D01*
X6495Y6456D02*
Y6536D01*
X6575D01*
Y6456D01*
X6495D01*
X6140Y7203D02*
Y7363D01*
X6300D01*
Y7203D01*
X6140D01*
X6180Y7243D02*
Y7323D01*
X6260D01*
Y7243D01*
X6180D01*
X6810Y8700D02*
Y8860D01*
X6970D01*
Y8700D01*
X6810D01*
X6850Y8740D02*
Y8820D01*
X6930D01*
Y8740D01*
X6850D01*
X1849Y11298D02*
Y11458D01*
X2009D01*
Y11298D01*
X1849D01*
X1889Y11338D02*
Y11418D01*
X1969D01*
Y11338D01*
X1889D01*
X1790Y9369D02*
Y9529D01*
X1950D01*
Y9369D01*
X1790D01*
X1830Y9409D02*
Y9489D01*
X1910D01*
Y9409D01*
X1830D01*
X235Y235D02*
Y395D01*
X395D01*
Y235D01*
X235D01*
X275Y275D02*
Y355D01*
X355D01*
Y275D01*
X275D01*
X23227Y235D02*
Y395D01*
X23387D01*
Y235D01*
X23227D01*
X23267Y275D02*
Y355D01*
X23347D01*
Y275D01*
X23267D01*
X19959Y19566D02*
Y19726D01*
X20119D01*
Y19566D01*
X19959D01*
X19999Y19606D02*
Y19686D01*
X20079D01*
Y19606D01*
X19999D01*
X19920Y17125D02*
Y17285D01*
X20080D01*
Y17125D01*
X19920D01*
X19960Y17165D02*
Y17245D01*
X20040D01*
Y17165D01*
X19960D01*
X19959Y19290D02*
Y19450D01*
X20119D01*
Y19290D01*
X19959D01*
X19999Y19330D02*
Y19410D01*
X20079D01*
Y19330D01*
X19999D01*
X19920Y17400D02*
Y17560D01*
X20080D01*
Y17400D01*
X19920D01*
X19960Y17440D02*
Y17520D01*
X20040D01*
Y17440D01*
X19960D01*
X18227Y15314D02*
Y15474D01*
X18387D01*
Y15314D01*
X18227D01*
X18267Y15354D02*
Y15434D01*
X18347D01*
Y15354D01*
X18267D01*
X18227Y15629D02*
Y15789D01*
X18387D01*
Y15629D01*
X18227D01*
X18267Y15669D02*
Y15749D01*
X18347D01*
Y15669D01*
X18267D01*
X18621Y16219D02*
Y16379D01*
X18781D01*
Y16219D01*
X18621D01*
X18661Y16259D02*
Y16339D01*
X18741D01*
Y16259D01*
X18661D01*
X15707Y17046D02*
Y17206D01*
X15867D01*
Y17046D01*
X15707D01*
X15747Y17086D02*
Y17166D01*
X15827D01*
Y17086D01*
X15747D01*
X15747Y17322D02*
Y17482D01*
X15907D01*
Y17322D01*
X15747D01*
X15787Y17362D02*
Y17442D01*
X15867D01*
Y17362D01*
X15787D01*
X17085Y20314D02*
Y20474D01*
X17245D01*
Y20314D01*
X17085D01*
X17125Y20354D02*
Y20434D01*
X17205D01*
Y20354D01*
X17125D01*
X17085Y20629D02*
Y20789D01*
X17245D01*
Y20629D01*
X17085D01*
X17125Y20669D02*
Y20749D01*
X17205D01*
Y20669D01*
X17125D01*
X17085Y20944D02*
Y21104D01*
X17245D01*
Y20944D01*
X17085D01*
X17125Y20984D02*
Y21064D01*
X17205D01*
Y20984D01*
X17125D01*
X15117Y25353D02*
Y25513D01*
X15277D01*
Y25353D01*
X15117D01*
X15157Y25393D02*
Y25473D01*
X15237D01*
Y25393D01*
X15157D01*
X16534Y30865D02*
Y31025D01*
X16694D01*
Y30865D01*
X16534D01*
X16574Y30905D02*
Y30985D01*
X16654D01*
Y30905D01*
X16574D01*
X16574Y36140D02*
Y36300D01*
X16734D01*
Y36140D01*
X16574D01*
X16614Y36180D02*
Y36260D01*
X16694D01*
Y36180D01*
X16614D01*
X14448Y34684D02*
Y34844D01*
X14608D01*
Y34684D01*
X14448D01*
X14488Y34724D02*
Y34804D01*
X14568D01*
Y34724D01*
X14488D01*
X14959Y36495D02*
Y36655D01*
X15119D01*
Y36495D01*
X14959D01*
X14999Y36535D02*
Y36615D01*
X15079D01*
Y36535D01*
X14999D01*
X11849Y36495D02*
Y36655D01*
X12009D01*
Y36495D01*
X11849D01*
X11889Y36535D02*
Y36615D01*
X11969D01*
Y36535D01*
X11889D01*
X12715Y32164D02*
Y32324D01*
X12875D01*
Y32164D01*
X12715D01*
X12755Y32204D02*
Y32284D01*
X12835D01*
Y32204D01*
X12755D01*
X14959Y32558D02*
Y32718D01*
X15119D01*
Y32558D01*
X14959D01*
X14999Y32598D02*
Y32678D01*
X15079D01*
Y32598D01*
X14999D01*
X11810Y32164D02*
Y32324D01*
X11970D01*
Y32164D01*
X11810D01*
X11850Y32204D02*
Y32284D01*
X11930D01*
Y32204D01*
X11850D01*
X14329Y30117D02*
Y30277D01*
X14489D01*
Y30117D01*
X14329D01*
X14369Y30157D02*
Y30237D01*
X14449D01*
Y30157D01*
X14369D01*
X14329Y29802D02*
Y29962D01*
X14489D01*
Y29802D01*
X14329D01*
X14369Y29842D02*
Y29922D01*
X14449D01*
Y29842D01*
X14369D01*
X14408Y24644D02*
Y24804D01*
X14568D01*
Y24644D01*
X14408D01*
X14448Y24684D02*
Y24764D01*
X14528D01*
Y24684D01*
X14448D01*
X14408Y24290D02*
Y24450D01*
X14568D01*
Y24290D01*
X14408D01*
X14448Y24330D02*
Y24410D01*
X14528D01*
Y24330D01*
X14448D01*
X14999Y27322D02*
Y27482D01*
X15159D01*
Y27322D01*
X14999D01*
X15039Y27362D02*
Y27442D01*
X15119D01*
Y27362D01*
X15039D01*
X11849Y26928D02*
Y27088D01*
X12009D01*
Y26928D01*
X11849D01*
X11889Y26968D02*
Y27048D01*
X11969D01*
Y26968D01*
X11889D01*
X1928Y24054D02*
Y24214D01*
X2088D01*
Y24054D01*
X1928D01*
X1968Y24094D02*
Y24174D01*
X2048D01*
Y24094D01*
X1968D01*
X1652Y24881D02*
Y25041D01*
X1812D01*
Y24881D01*
X1652D01*
X1692Y24921D02*
Y25001D01*
X1772D01*
Y24921D01*
X1692D01*
X2479Y24448D02*
Y24608D01*
X2639D01*
Y24448D01*
X2479D01*
X2519Y24488D02*
Y24568D01*
X2599D01*
Y24488D01*
X2519D01*
X3975Y24841D02*
Y25001D01*
X4135D01*
Y24841D01*
X3975D01*
X4015Y24881D02*
Y24961D01*
X4095D01*
Y24881D01*
X4015D01*
X4054Y26140D02*
Y26300D01*
X4214D01*
Y26140D01*
X4054D01*
X4094Y26180D02*
Y26260D01*
X4174D01*
Y26180D01*
X4094D01*
X2322Y27085D02*
Y27245D01*
X2482D01*
Y27085D01*
X2322D01*
X2362Y27125D02*
Y27205D01*
X2442D01*
Y27125D01*
X2362D01*
X4014Y30038D02*
Y30198D01*
X4174D01*
Y30038D01*
X4014D01*
X4054Y30078D02*
Y30158D01*
X4134D01*
Y30078D01*
X4054D01*
X4054Y31455D02*
Y31615D01*
X4214D01*
Y31455D01*
X4054D01*
X4094Y31495D02*
Y31575D01*
X4174D01*
Y31495D01*
X4094D01*
X2440Y29723D02*
Y29883D01*
X2600D01*
Y29723D01*
X2440D01*
X2480Y29763D02*
Y29843D01*
X2560D01*
Y29763D01*
X2480D01*
X2282Y30865D02*
Y31025D01*
X2442D01*
Y30865D01*
X2282D01*
X2322Y30905D02*
Y30985D01*
X2402D01*
Y30905D01*
X2322D01*
X2558Y34999D02*
Y35159D01*
X2718D01*
Y34999D01*
X2558D01*
X2598Y35039D02*
Y35119D01*
X2678D01*
Y35039D01*
X2598D01*
X3975Y36731D02*
Y36891D01*
X4135D01*
Y36731D01*
X3975D01*
X4015Y36771D02*
Y36851D01*
X4095D01*
Y36771D01*
X4015D01*
X2440Y37833D02*
Y37993D01*
X2600D01*
Y37833D01*
X2440D01*
X2480Y37873D02*
Y37953D01*
X2560D01*
Y37873D01*
X2480D01*
X23188Y38936D02*
Y39096D01*
X23348D01*
Y38936D01*
X23188D01*
X23228Y38976D02*
Y39056D01*
X23308D01*
Y38976D01*
X23228D01*
X865Y23148D02*
Y23308D01*
X1025D01*
Y23148D01*
X865D01*
X905Y23188D02*
Y23268D01*
X985D01*
Y23188D01*
X905D01*
X2794Y20865D02*
Y21025D01*
X2954D01*
Y20865D01*
X2794D01*
X2834Y20905D02*
Y20985D01*
X2914D01*
Y20905D01*
X2834D01*
X6377Y18621D02*
Y18781D01*
X6537D01*
Y18621D01*
X6377D01*
X6417Y18661D02*
Y18741D01*
X6497D01*
Y18661D01*
X6417D01*
X6495Y17558D02*
Y17718D01*
X6655D01*
Y17558D01*
X6495D01*
X6535Y17598D02*
Y17678D01*
X6615D01*
Y17598D01*
X6535D01*
X9448Y17440D02*
Y17600D01*
X9608D01*
Y17440D01*
X9448D01*
X9488Y17480D02*
Y17560D01*
X9568D01*
Y17480D01*
X9488D01*
X9448Y14881D02*
Y15041D01*
X9608D01*
Y14881D01*
X9448D01*
X9488Y14921D02*
Y15001D01*
X9568D01*
Y14921D01*
X9488D01*
X5589Y12873D02*
Y13033D01*
X5749D01*
Y12873D01*
X5589D01*
X5629Y12913D02*
Y12993D01*
X5709D01*
Y12913D01*
X5629D01*
X6810Y11731D02*
Y11891D01*
X6970D01*
Y11731D01*
X6810D01*
X6850Y11771D02*
Y11851D01*
X6930D01*
Y11771D01*
X6850D01*
X5274Y10865D02*
Y11025D01*
X5434D01*
Y10865D01*
X5274D01*
X5314Y10905D02*
Y10985D01*
X5394D01*
Y10905D01*
X5314D01*
X5904Y10432D02*
Y10592D01*
X6064D01*
Y10432D01*
X5904D01*
X5944Y10472D02*
Y10552D01*
X6024D01*
Y10472D01*
X5944D01*
X5629Y10432D02*
Y10592D01*
X5789D01*
Y10432D01*
X5629D01*
X5669Y10472D02*
Y10552D01*
X5749D01*
Y10472D01*
X5669D01*
X2991Y10983D02*
Y11143D01*
X3151D01*
Y10983D01*
X2991D01*
X3031Y11023D02*
Y11103D01*
X3111D01*
Y11023D01*
X3031D01*
X2440Y12794D02*
Y12954D01*
X2600D01*
Y12794D01*
X2440D01*
X2480Y12834D02*
Y12914D01*
X2560D01*
Y12834D01*
X2480D01*
X2440Y13818D02*
Y13978D01*
X2600D01*
Y13818D01*
X2440D01*
X2480Y13858D02*
Y13938D01*
X2560D01*
Y13858D01*
X2480D01*
X3739Y13818D02*
Y13978D01*
X3899D01*
Y13818D01*
X3739D01*
X3779Y13858D02*
Y13938D01*
X3859D01*
Y13858D01*
X3779D01*
X3936Y16495D02*
Y16655D01*
X4096D01*
Y16495D01*
X3936D01*
X3976Y16535D02*
Y16615D01*
X4056D01*
Y16535D01*
X3976D01*
X5274Y15511D02*
Y15671D01*
X5434D01*
Y15511D01*
X5274D01*
X5314Y15551D02*
Y15631D01*
X5394D01*
Y15551D01*
X5314D01*
X7637Y16574D02*
Y16734D01*
X7797D01*
Y16574D01*
X7637D01*
X7677Y16614D02*
Y16694D01*
X7757D01*
Y16614D01*
X7677D01*
X7951Y16574D02*
Y16734D01*
X8112D01*
Y16574D01*
X7951D01*
X7991Y16614D02*
Y16694D01*
X8072D01*
Y16614D01*
X7991D01*
X8306Y15865D02*
Y16025D01*
X8466D01*
Y15865D01*
X8306D01*
X8346Y15905D02*
Y15985D01*
X8426D01*
Y15905D01*
X8346D01*
X8306Y16219D02*
Y16379D01*
X8466D01*
Y16219D01*
X8306D01*
X8346Y16259D02*
Y16339D01*
X8426D01*
Y16259D01*
X8346D01*
X7951Y15865D02*
Y16025D01*
X8112D01*
Y15865D01*
X7951D01*
X7991Y15905D02*
Y15985D01*
X8072D01*
Y15905D01*
X7991D01*
X7951Y16219D02*
Y16379D01*
X8112D01*
Y16219D01*
X7951D01*
X7991Y16259D02*
Y16339D01*
X8072D01*
Y16259D01*
X7991D01*
X7597Y16219D02*
Y16379D01*
X7757D01*
Y16219D01*
X7597D01*
X7637Y16259D02*
Y16339D01*
X7717D01*
Y16259D01*
X7637D01*
X7597Y15865D02*
Y16025D01*
X7757D01*
Y15865D01*
X7597D01*
X7637Y15905D02*
Y15985D01*
X7717D01*
Y15905D01*
X7637D01*
X11534Y13266D02*
Y13426D01*
X11694D01*
Y13266D01*
X11534D01*
X11574Y13306D02*
Y13386D01*
X11654D01*
Y13306D01*
X11574D01*
X13306Y11731D02*
Y11891D01*
X13466D01*
Y11731D01*
X13306D01*
X13346Y11771D02*
Y11851D01*
X13426D01*
Y11771D01*
X13346D01*
X13030Y11731D02*
Y11891D01*
X13190D01*
Y11731D01*
X13030D01*
X13070Y11771D02*
Y11851D01*
X13150D01*
Y11771D01*
X13070D01*
X11810Y13266D02*
Y13426D01*
X11970D01*
Y13266D01*
X11810D01*
X11850Y13306D02*
Y13386D01*
X11930D01*
Y13306D01*
X11850D01*
X17164Y36810D02*
Y36970D01*
X17324D01*
Y36810D01*
X17164D01*
X17204Y36850D02*
Y36930D01*
X17284D01*
Y36850D01*
X17204D01*
X17007Y36101D02*
Y36261D01*
X17167D01*
Y36101D01*
X17007D01*
X17047Y36141D02*
Y36221D01*
X17127D01*
Y36141D01*
X17047D01*
X17164Y35865D02*
Y36025D01*
X17324D01*
Y35865D01*
X17164D01*
X17204Y35905D02*
Y35985D01*
X17284D01*
Y35905D01*
X17204D01*
X17322Y36101D02*
Y36261D01*
X17482D01*
Y36101D01*
X17322D01*
X17362Y36141D02*
Y36221D01*
X17442D01*
Y36141D01*
X17362D01*
X17164Y36337D02*
Y36497D01*
X17324D01*
Y36337D01*
X17164D01*
X17204Y36377D02*
Y36457D01*
X17284D01*
Y36377D01*
X17204D01*
X17322Y36574D02*
Y36734D01*
X17482D01*
Y36574D01*
X17322D01*
X17362Y36614D02*
Y36694D01*
X17442D01*
Y36614D01*
X17362D01*
X17007Y36574D02*
Y36734D01*
X17167D01*
Y36574D01*
X17007D01*
X17047Y36614D02*
Y36694D01*
X17127D01*
Y36614D01*
X17047D01*
X5156Y37243D02*
Y37403D01*
X5316D01*
Y37243D01*
X5156D01*
X5196Y37283D02*
Y37363D01*
X5276D01*
Y37283D01*
X5196D01*
X5156Y36928D02*
Y37088D01*
X5316D01*
Y36928D01*
X5156D01*
X5196Y36968D02*
Y37048D01*
X5276D01*
Y36968D01*
X5196D01*
X4920Y37085D02*
Y37245D01*
X5080D01*
Y37085D01*
X4920D01*
X4960Y37125D02*
Y37205D01*
X5040D01*
Y37125D01*
X4960D01*
X4684Y36928D02*
Y37088D01*
X4844D01*
Y36928D01*
X4684D01*
X4724Y36968D02*
Y37048D01*
X4804D01*
Y36968D01*
X4724D01*
X4448Y37085D02*
Y37245D01*
X4608D01*
Y37085D01*
X4448D01*
X4488Y37125D02*
Y37205D01*
X4568D01*
Y37125D01*
X4488D01*
X4684Y37243D02*
Y37403D01*
X4844D01*
Y37243D01*
X4684D01*
X4724Y37283D02*
Y37363D01*
X4804D01*
Y37283D01*
X4724D01*
X5392Y37085D02*
Y37245D01*
X5552D01*
Y37085D01*
X5392D01*
X5432Y37125D02*
Y37205D01*
X5512D01*
Y37125D01*
X5432D01*
X9054Y10471D02*
Y10631D01*
X9214D01*
Y10471D01*
X9054D01*
X9094Y10511D02*
Y10591D01*
X9174D01*
Y10511D01*
X9094D01*
X9329Y10471D02*
Y10631D01*
X9489D01*
Y10471D01*
X9329D01*
X9369Y10511D02*
Y10591D01*
X9449D01*
Y10511D01*
X9369D01*
X9605Y10471D02*
Y10631D01*
X9765D01*
Y10471D01*
X9605D01*
X9645Y10511D02*
Y10591D01*
X9725D01*
Y10511D01*
X9645D01*
X10471Y4999D02*
Y5159D01*
X10631D01*
Y4999D01*
X10471D01*
X10511Y5039D02*
Y5119D01*
X10591D01*
Y5039D01*
X10511D01*
X10471Y5274D02*
Y5434D01*
X10631D01*
Y5274D01*
X10471D01*
X10511Y5314D02*
Y5394D01*
X10591D01*
Y5314D01*
X10511D01*
X10471Y8818D02*
Y8978D01*
X10631D01*
Y8818D01*
X10471D01*
X10511Y8858D02*
Y8938D01*
X10591D01*
Y8858D01*
X10511D01*
X10077Y9211D02*
Y9371D01*
X10237D01*
Y9211D01*
X10077D01*
X10117Y9251D02*
Y9331D01*
X10197D01*
Y9251D01*
X10117D01*
X10274Y9014D02*
Y9174D01*
X10434D01*
Y9014D01*
X10274D01*
X10314Y9054D02*
Y9134D01*
X10394D01*
Y9054D01*
X10314D01*
X12361Y11455D02*
Y11615D01*
X12521D01*
Y11455D01*
X12361D01*
X12401Y11495D02*
Y11575D01*
X12481D01*
Y11495D01*
X12401D01*
X12637Y11455D02*
Y11615D01*
X12797D01*
Y11455D01*
X12637D01*
X12677Y11495D02*
Y11575D01*
X12757D01*
Y11495D01*
X12677D01*
X10944Y9605D02*
Y9765D01*
X11104D01*
Y9605D01*
X10944D01*
X10984Y9645D02*
Y9725D01*
X11064D01*
Y9645D01*
X10984D01*
X10747Y9802D02*
Y9962D01*
X10907D01*
Y9802D01*
X10747D01*
X10787Y9842D02*
Y9922D01*
X10867D01*
Y9842D01*
X10787D01*
X11219Y9881D02*
Y10041D01*
X11379D01*
Y9881D01*
X11219D01*
X11259Y9921D02*
Y10001D01*
X11339D01*
Y9921D01*
X11259D01*
X11022Y10077D02*
Y10237D01*
X11182D01*
Y10077D01*
X11022D01*
X11062Y10117D02*
Y10197D01*
X11142D01*
Y10117D01*
X11062D01*
X11495Y10156D02*
Y10316D01*
X11655D01*
Y10156D01*
X11495D01*
X11535Y10196D02*
Y10276D01*
X11615D01*
Y10196D01*
X11535D01*
X11298Y10353D02*
Y10513D01*
X11458D01*
Y10353D01*
X11298D01*
X11338Y10393D02*
Y10473D01*
X11418D01*
Y10393D01*
X11338D01*
X11337Y12912D02*
Y13072D01*
X11497D01*
Y12912D01*
X11337D01*
X11377Y12952D02*
Y13032D01*
X11457D01*
Y12952D01*
X11377D01*
X11062Y12637D02*
Y12797D01*
X11222D01*
Y12637D01*
X11062D01*
X11102Y12677D02*
Y12757D01*
X11182D01*
Y12677D01*
X11102D01*
X10786Y12361D02*
Y12521D01*
X10946D01*
Y12361D01*
X10786D01*
X10826Y12401D02*
Y12481D01*
X10906D01*
Y12401D01*
X10826D01*
X10511Y12085D02*
Y12245D01*
X10671D01*
Y12085D01*
X10511D01*
X10551Y12125D02*
Y12205D01*
X10631D01*
Y12125D01*
X10551D01*
X11140Y13109D02*
Y13269D01*
X11300D01*
Y13109D01*
X11140D01*
X11180Y13149D02*
Y13229D01*
X11260D01*
Y13149D01*
X11180D01*
X10865Y12833D02*
Y12993D01*
X11025D01*
Y12833D01*
X10865D01*
X10905Y12873D02*
Y12953D01*
X10985D01*
Y12873D01*
X10905D01*
X10589Y12558D02*
Y12718D01*
X10749D01*
Y12558D01*
X10589D01*
X10629Y12598D02*
Y12678D01*
X10709D01*
Y12598D01*
X10629D01*
X10314Y12282D02*
Y12442D01*
X10474D01*
Y12282D01*
X10314D01*
X10354Y12322D02*
Y12402D01*
X10434D01*
Y12322D01*
X10354D01*
X1180Y13109D02*
Y13269D01*
X1340D01*
Y13109D01*
X1180D01*
X1220Y13149D02*
Y13229D01*
X1300D01*
Y13149D01*
X1220D01*
X904Y13109D02*
Y13269D01*
X1064D01*
Y13109D01*
X904D01*
X944Y13149D02*
Y13229D01*
X1024D01*
Y13149D01*
X944D01*
X629Y13109D02*
Y13269D01*
X789D01*
Y13109D01*
X629D01*
X669Y13149D02*
Y13229D01*
X749D01*
Y13149D01*
X669D01*
X1180Y13385D02*
Y13545D01*
X1340D01*
Y13385D01*
X1180D01*
X1220Y13425D02*
Y13505D01*
X1300D01*
Y13425D01*
X1220D01*
X904Y13385D02*
Y13545D01*
X1064D01*
Y13385D01*
X904D01*
X944Y13425D02*
Y13505D01*
X1024D01*
Y13425D01*
X944D01*
X629Y13385D02*
Y13545D01*
X789D01*
Y13385D01*
X629D01*
X669Y13425D02*
Y13505D01*
X749D01*
Y13425D01*
X669D01*
X904Y13660D02*
Y13820D01*
X1064D01*
Y13660D01*
X904D01*
X944Y13700D02*
Y13780D01*
X1024D01*
Y13700D01*
X944D01*
X629Y13660D02*
Y13820D01*
X789D01*
Y13660D01*
X629D01*
X669Y13700D02*
Y13780D01*
X749D01*
Y13700D01*
X669D01*
X1180Y13936D02*
Y14096D01*
X1340D01*
Y13936D01*
X1180D01*
X1220Y13976D02*
Y14056D01*
X1300D01*
Y13976D01*
X1220D01*
X904Y13936D02*
Y14096D01*
X1064D01*
Y13936D01*
X904D01*
X944Y13976D02*
Y14056D01*
X1024D01*
Y13976D01*
X944D01*
X629Y13936D02*
Y14096D01*
X789D01*
Y13936D01*
X629D01*
X669Y13976D02*
Y14056D01*
X749D01*
Y13976D01*
X669D01*
X1180Y13660D02*
Y13820D01*
X1340D01*
Y13660D01*
X1180D01*
X1220Y13700D02*
Y13780D01*
X1300D01*
Y13700D01*
X1220D01*
X5392Y18266D02*
Y18426D01*
X5552D01*
Y18266D01*
X5392D01*
X5432Y18306D02*
Y18386D01*
X5512D01*
Y18306D01*
X5432D01*
X5668Y18266D02*
Y18426D01*
X5828D01*
Y18266D01*
X5668D01*
X5708Y18306D02*
Y18386D01*
X5788D01*
Y18306D01*
X5708D01*
X5471Y14487D02*
Y14647D01*
X5631D01*
Y14487D01*
X5471D01*
X5511Y14527D02*
Y14607D01*
X5591D01*
Y14527D01*
X5511D01*
X5471Y14211D02*
Y14371D01*
X5631D01*
Y14211D01*
X5471D01*
X5511Y14251D02*
Y14331D01*
X5591D01*
Y14251D01*
X5511D01*
X5471Y13936D02*
Y14096D01*
X5631D01*
Y13936D01*
X5471D01*
X5511Y13976D02*
Y14056D01*
X5591D01*
Y13976D01*
X5511D01*
X5747Y14487D02*
Y14647D01*
X5907D01*
Y14487D01*
X5747D01*
X5787Y14527D02*
Y14607D01*
X5867D01*
Y14527D01*
X5787D01*
X5747Y14211D02*
Y14371D01*
X5907D01*
Y14211D01*
X5747D01*
X5787Y14251D02*
Y14331D01*
X5867D01*
Y14251D01*
X5787D01*
X5747Y13936D02*
Y14096D01*
X5907D01*
Y13936D01*
X5747D01*
X5787Y13976D02*
Y14056D01*
X5867D01*
Y13976D01*
X5787D01*
X6022Y13936D02*
Y14096D01*
X6182D01*
Y13936D01*
X6022D01*
X6062Y13976D02*
Y14056D01*
X6142D01*
Y13976D01*
X6062D01*
X6022Y14211D02*
Y14371D01*
X6182D01*
Y14211D01*
X6022D01*
X6062Y14251D02*
Y14331D01*
X6142D01*
Y14251D01*
X6062D01*
X6022Y14487D02*
Y14647D01*
X6182D01*
Y14487D01*
X6022D01*
X6062Y14527D02*
Y14607D01*
X6142D01*
Y14527D01*
X6062D01*
X2479Y19290D02*
Y19450D01*
X2639D01*
Y19290D01*
X2479D01*
X2519Y19330D02*
Y19410D01*
X2599D01*
Y19330D01*
X2519D01*
X2203Y19290D02*
Y19450D01*
X2363D01*
Y19290D01*
X2203D01*
X2243Y19330D02*
Y19410D01*
X2323D01*
Y19330D01*
X2243D01*
X1298Y18188D02*
Y18348D01*
X1458D01*
Y18188D01*
X1298D01*
X1338Y18228D02*
Y18308D01*
X1418D01*
Y18228D01*
X1338D01*
X1298Y18463D02*
Y18623D01*
X1458D01*
Y18463D01*
X1298D01*
X1338Y18503D02*
Y18583D01*
X1418D01*
Y18503D01*
X1338D01*
X1298Y18739D02*
Y18899D01*
X1458D01*
Y18739D01*
X1298D01*
X1338Y18779D02*
Y18859D01*
X1418D01*
Y18779D01*
X1338D01*
X2164Y17164D02*
Y17324D01*
X2324D01*
Y17164D01*
X2164D01*
X2204Y17204D02*
Y17284D01*
X2284D01*
Y17204D01*
X2204D01*
X1889Y17164D02*
Y17324D01*
X2049D01*
Y17164D01*
X1889D01*
X1928Y17204D02*
Y17284D01*
X2008D01*
Y17204D01*
X1928D01*
X1613Y17164D02*
Y17324D01*
X1773D01*
Y17164D01*
X1613D01*
X1653Y17204D02*
Y17284D01*
X1733D01*
Y17204D01*
X1653D01*
X1889Y17597D02*
Y17757D01*
X2049D01*
Y17597D01*
X1889D01*
X1928Y17637D02*
Y17717D01*
X2008D01*
Y17637D01*
X1928D01*
X1613Y17597D02*
Y17757D01*
X1773D01*
Y17597D01*
X1613D01*
X1653Y17637D02*
Y17717D01*
X1733D01*
Y17637D01*
X1653D01*
X2164Y17597D02*
Y17757D01*
X2324D01*
Y17597D01*
X2164D01*
X2204Y17637D02*
Y17717D01*
X2284D01*
Y17637D01*
X2204D01*
X3148Y17597D02*
Y17757D01*
X3308D01*
Y17597D01*
X3148D01*
X3188Y17637D02*
Y17717D01*
X3268D01*
Y17637D01*
X3188D01*
X2873Y17597D02*
Y17757D01*
X3033D01*
Y17597D01*
X2873D01*
X2913Y17637D02*
Y17717D01*
X2993D01*
Y17637D01*
X2913D01*
X2597Y17597D02*
Y17757D01*
X2757D01*
Y17597D01*
X2597D01*
X2637Y17637D02*
Y17717D01*
X2717D01*
Y17637D01*
X2637D01*
X11377Y20235D02*
Y20395D01*
X11537D01*
Y20235D01*
X11377D01*
X11417Y20275D02*
Y20355D01*
X11497D01*
Y20275D01*
X11417D01*
X11613Y20353D02*
Y20513D01*
X11773D01*
Y20353D01*
X11613D01*
X11653Y20393D02*
Y20473D01*
X11733D01*
Y20393D01*
X11653D01*
X11337Y14920D02*
Y15080D01*
X11497D01*
Y14920D01*
X11337D01*
X11377Y14960D02*
Y15040D01*
X11457D01*
Y14960D01*
X11377D01*
X11062Y13936D02*
Y14096D01*
X11222D01*
Y13936D01*
X11062D01*
X11102Y13976D02*
Y14056D01*
X11182D01*
Y13976D01*
X11102D01*
X11259Y13581D02*
Y13741D01*
X11419D01*
Y13581D01*
X11259D01*
X11299Y13621D02*
Y13701D01*
X11379D01*
Y13621D01*
X11299D01*
X10865Y14290D02*
Y14450D01*
X11025D01*
Y14290D01*
X10865D01*
X10905Y14330D02*
Y14410D01*
X10985D01*
Y14330D01*
X10905D01*
X9881Y15353D02*
Y15513D01*
X10041D01*
Y15353D01*
X9881D01*
X9921Y15393D02*
Y15473D01*
X10001D01*
Y15393D01*
X9921D01*
X9881Y15629D02*
Y15789D01*
X10041D01*
Y15629D01*
X9881D01*
X9921Y15669D02*
Y15749D01*
X10001D01*
Y15669D01*
X9921D01*
X8818Y14723D02*
Y14883D01*
X8978D01*
Y14723D01*
X8818D01*
X8858Y14763D02*
Y14843D01*
X8938D01*
Y14763D01*
X8858D01*
X8542Y14723D02*
Y14883D01*
X8702D01*
Y14723D01*
X8542D01*
X8582Y14763D02*
Y14843D01*
X8662D01*
Y14763D01*
X8582D01*
X9881Y15904D02*
Y16064D01*
X10041D01*
Y15904D01*
X9881D01*
X9921Y15944D02*
Y16024D01*
X10001D01*
Y15944D01*
X9921D01*
X8621Y18109D02*
Y18269D01*
X8781D01*
Y18109D01*
X8621D01*
X8661Y18149D02*
Y18229D01*
X8741D01*
Y18149D01*
X8661D01*
X8345Y18109D02*
Y18269D01*
X8505D01*
Y18109D01*
X8345D01*
X8385Y18149D02*
Y18229D01*
X8465D01*
Y18149D01*
X8385D01*
X7991Y18109D02*
Y18269D01*
X8151D01*
Y18109D01*
X7991D01*
X8031Y18149D02*
Y18229D01*
X8111D01*
Y18149D01*
X8031D01*
X7715Y18109D02*
Y18269D01*
X7875D01*
Y18109D01*
X7715D01*
X7755Y18149D02*
Y18229D01*
X7835D01*
Y18149D01*
X7755D01*
X6495Y16101D02*
Y16261D01*
X6655D01*
Y16101D01*
X6495D01*
X6535Y16141D02*
Y16221D01*
X6615D01*
Y16141D01*
X6535D01*
X6495Y15826D02*
Y15986D01*
X6655D01*
Y15826D01*
X6495D01*
X6535Y15866D02*
Y15946D01*
X6615D01*
Y15866D01*
X6535D01*
X11770Y15747D02*
Y15907D01*
X11930D01*
Y15747D01*
X11770D01*
X11810Y15787D02*
Y15867D01*
X11890D01*
Y15787D01*
X11810D01*
X11455Y15747D02*
Y15907D01*
X11615D01*
Y15747D01*
X11455D01*
X11495Y15787D02*
Y15867D01*
X11575D01*
Y15787D01*
X11495D01*
X11140Y15747D02*
Y15907D01*
X11300D01*
Y15747D01*
X11140D01*
X11180Y15787D02*
Y15867D01*
X11260D01*
Y15787D01*
X11180D01*
X11613Y15353D02*
Y15513D01*
X11773D01*
Y15353D01*
X11613D01*
X11653Y15393D02*
Y15473D01*
X11733D01*
Y15393D01*
X11653D01*
X11928Y15353D02*
Y15513D01*
X12088D01*
Y15353D01*
X11928D01*
X11968Y15393D02*
Y15473D01*
X12048D01*
Y15393D01*
X11968D01*
X11298Y15353D02*
Y15513D01*
X11458D01*
Y15353D01*
X11298D01*
X11338Y15393D02*
Y15473D01*
X11418D01*
Y15393D01*
X11338D01*
X11298Y16140D02*
Y16300D01*
X11458D01*
Y16140D01*
X11298D01*
X11338Y16180D02*
Y16260D01*
X11418D01*
Y16180D01*
X11338D01*
X12125Y16770D02*
Y16930D01*
X12285D01*
Y16770D01*
X12125D01*
X12165Y16810D02*
Y16890D01*
X12245D01*
Y16810D01*
X12165D01*
X12007Y17125D02*
Y17285D01*
X12167D01*
Y17125D01*
X12007D01*
X12047Y17165D02*
Y17245D01*
X12127D01*
Y17165D01*
X12047D01*
X11613Y17203D02*
Y17363D01*
X11773D01*
Y17203D01*
X11613D01*
X11653Y17243D02*
Y17323D01*
X11733D01*
Y17243D01*
X11653D01*
X11416Y18739D02*
Y18899D01*
X11576D01*
Y18739D01*
X11416D01*
X11456Y18779D02*
Y18859D01*
X11536D01*
Y18779D01*
X11456D01*
X11140Y18739D02*
Y18899D01*
X11300D01*
Y18739D01*
X11140D01*
X11180Y18779D02*
Y18859D01*
X11260D01*
Y18779D01*
X11180D01*
X11337Y18148D02*
Y18308D01*
X11497D01*
Y18148D01*
X11337D01*
X11377Y18188D02*
Y18268D01*
X11457D01*
Y18188D01*
X11377D01*
X11810Y17873D02*
Y18033D01*
X11970D01*
Y17873D01*
X11810D01*
X11850Y17913D02*
Y17993D01*
X11930D01*
Y17913D01*
X11850D01*
X11495Y17597D02*
Y17757D01*
X11655D01*
Y17597D01*
X11495D01*
X11535Y17637D02*
Y17717D01*
X11615D01*
Y17637D01*
X11535D01*
X12085Y19093D02*
Y19253D01*
X12245D01*
Y19093D01*
X12085D01*
X12125Y19133D02*
Y19213D01*
X12205D01*
Y19133D01*
X12125D01*
X12085Y19369D02*
Y19529D01*
X12245D01*
Y19369D01*
X12085D01*
X12125Y19409D02*
Y19489D01*
X12205D01*
Y19409D01*
X12125D01*
X14959Y24211D02*
Y24371D01*
X15119D01*
Y24211D01*
X14959D01*
X14999Y24251D02*
Y24331D01*
X15079D01*
Y24251D01*
X14999D01*
X14526Y23857D02*
Y24017D01*
X14686D01*
Y23857D01*
X14526D01*
X14566Y23897D02*
Y23977D01*
X14646D01*
Y23897D01*
X14566D01*
X15196Y27715D02*
Y27875D01*
X15356D01*
Y27715D01*
X15196D01*
X15236Y27755D02*
Y27835D01*
X15316D01*
Y27755D01*
X15236D01*
X11967Y18463D02*
Y18623D01*
X12127D01*
Y18463D01*
X11967D01*
X12007Y18503D02*
Y18583D01*
X12087D01*
Y18503D01*
X12007D01*
X12243Y18463D02*
Y18623D01*
X12403D01*
Y18463D01*
X12243D01*
X12283Y18503D02*
Y18583D01*
X12363D01*
Y18503D01*
X12283D01*
X12085Y19999D02*
Y20159D01*
X12245D01*
Y19999D01*
X12085D01*
X12125Y20039D02*
Y20119D01*
X12205D01*
Y20039D01*
X12125D01*
X11810Y19999D02*
Y20159D01*
X11970D01*
Y19999D01*
X11810D01*
X11850Y20039D02*
Y20119D01*
X11930D01*
Y20039D01*
X11850D01*
X11180Y19133D02*
Y19293D01*
X11340D01*
Y19133D01*
X11180D01*
X11220Y19173D02*
Y19253D01*
X11300D01*
Y19173D01*
X11220D01*
X11455Y19133D02*
Y19293D01*
X11615D01*
Y19133D01*
X11455D01*
X11495Y19173D02*
Y19253D01*
X11575D01*
Y19173D01*
X11495D01*
X14053Y38266D02*
Y38426D01*
X14213D01*
Y38266D01*
X14053D01*
X14093Y38306D02*
Y38386D01*
X14173D01*
Y38306D01*
X14093D01*
X14329Y38266D02*
Y38426D01*
X14489D01*
Y38266D01*
X14329D01*
X14369Y38306D02*
Y38386D01*
X14449D01*
Y38306D01*
X14369D01*
X15274Y38266D02*
Y38426D01*
X15434D01*
Y38266D01*
X15274D01*
X15314Y38306D02*
Y38386D01*
X15394D01*
Y38306D01*
X15314D01*
X3462Y38266D02*
Y38426D01*
X3622D01*
Y38266D01*
X3462D01*
X3502Y38306D02*
Y38386D01*
X3582D01*
Y38306D01*
X3502D01*
X3187Y38266D02*
Y38426D01*
X3347D01*
Y38266D01*
X3187D01*
X3227Y38306D02*
Y38386D01*
X3307D01*
Y38306D01*
X3227D01*
X3738Y38266D02*
Y38426D01*
X3898D01*
Y38266D01*
X3738D01*
X3778Y38306D02*
Y38386D01*
X3858D01*
Y38306D01*
X3778D01*
X1809Y38266D02*
Y38426D01*
X1969D01*
Y38266D01*
X1809D01*
X1849Y38306D02*
Y38386D01*
X1929D01*
Y38306D01*
X1849D01*
X1533Y38266D02*
Y38426D01*
X1693D01*
Y38266D01*
X1533D01*
X1573Y38306D02*
Y38386D01*
X1653D01*
Y38306D01*
X1573D01*
X2085Y38266D02*
Y38426D01*
X2245D01*
Y38266D01*
X2085D01*
X2125Y38306D02*
Y38386D01*
X2205D01*
Y38306D01*
X2125D01*
X14880Y34565D02*
Y34725D01*
X15040D01*
Y34565D01*
X14880D01*
X14920Y34605D02*
Y34685D01*
X15000D01*
Y34605D01*
X14920D01*
X15155Y34565D02*
Y34725D01*
X15315D01*
Y34565D01*
X15155D01*
X15195Y34605D02*
Y34685D01*
X15275D01*
Y34605D01*
X15195D01*
X2321Y34565D02*
Y34725D01*
X2481D01*
Y34565D01*
X2321D01*
X2361Y34605D02*
Y34685D01*
X2441D01*
Y34605D01*
X2361D01*
X2596Y34565D02*
Y34725D01*
X2756D01*
Y34565D01*
X2596D01*
X2636Y34605D02*
Y34685D01*
X2716D01*
Y34605D01*
X2636D01*
X1966Y34132D02*
Y34292D01*
X2126D01*
Y34132D01*
X1966D01*
X2006Y34172D02*
Y34252D01*
X2086D01*
Y34172D01*
X2006D01*
X2242Y34132D02*
Y34292D01*
X2402D01*
Y34132D01*
X2242D01*
X2282Y34172D02*
Y34252D01*
X2362D01*
Y34172D01*
X2282D01*
X14525Y34132D02*
Y34292D01*
X14685D01*
Y34132D01*
X14525D01*
X14565Y34172D02*
Y34252D01*
X14645D01*
Y34172D01*
X14565D01*
X14801Y34132D02*
Y34292D01*
X14961D01*
Y34132D01*
X14801D01*
X14841Y34172D02*
Y34252D01*
X14921D01*
Y34172D01*
X14841D01*
X14054Y27715D02*
Y27875D01*
X14214D01*
Y27715D01*
X14054D01*
X14094Y27755D02*
Y27835D01*
X14174D01*
Y27755D01*
X14094D01*
X14329Y27715D02*
Y27875D01*
X14489D01*
Y27715D01*
X14329D01*
X14369Y27755D02*
Y27835D01*
X14449D01*
Y27755D01*
X14369D01*
X3463Y27715D02*
Y27875D01*
X3623D01*
Y27715D01*
X3463D01*
X3503Y27755D02*
Y27835D01*
X3583D01*
Y27755D01*
X3503D01*
X3188Y27715D02*
Y27875D01*
X3348D01*
Y27715D01*
X3188D01*
X3228Y27755D02*
Y27835D01*
X3308D01*
Y27755D01*
X3228D01*
X3739Y27715D02*
Y27875D01*
X3899D01*
Y27715D01*
X3739D01*
X3779Y27755D02*
Y27835D01*
X3859D01*
Y27755D01*
X3779D01*
X1810Y27715D02*
Y27875D01*
X1970D01*
Y27715D01*
X1810D01*
X1850Y27755D02*
Y27835D01*
X1930D01*
Y27755D01*
X1850D01*
X1534Y27715D02*
Y27875D01*
X1694D01*
Y27715D01*
X1534D01*
X1574Y27755D02*
Y27835D01*
X1654D01*
Y27755D01*
X1574D01*
X2085Y27715D02*
Y27875D01*
X2245D01*
Y27715D01*
X2085D01*
X2125Y27755D02*
Y27835D01*
X2205D01*
Y27755D01*
X2125D01*
X15156Y24014D02*
Y24174D01*
X15316D01*
Y24014D01*
X15156D01*
X15196Y24054D02*
Y24134D01*
X15276D01*
Y24054D01*
X15196D01*
X2322Y24014D02*
Y24174D01*
X2482D01*
Y24014D01*
X2322D01*
X2362Y24054D02*
Y24134D01*
X2442D01*
Y24054D01*
X2362D01*
X2597Y24014D02*
Y24174D01*
X2757D01*
Y24014D01*
X2597D01*
X2637Y24054D02*
Y24134D01*
X2717D01*
Y24054D01*
X2637D01*
X1967Y23581D02*
Y23741D01*
X2127D01*
Y23581D01*
X1967D01*
X2007Y23621D02*
Y23701D01*
X2087D01*
Y23621D01*
X2007D01*
X2243Y23581D02*
Y23741D01*
X2403D01*
Y23581D01*
X2243D01*
X2283Y23621D02*
Y23701D01*
X2363D01*
Y23621D01*
X2283D01*
X14526Y23581D02*
Y23741D01*
X14686D01*
Y23581D01*
X14526D01*
X14566Y23621D02*
Y23701D01*
X14646D01*
Y23621D01*
X14566D01*
X15156Y29290D02*
Y29450D01*
X15316D01*
Y29290D01*
X15156D01*
X15196Y29330D02*
Y29410D01*
X15276D01*
Y29330D01*
X15196D01*
X14526Y28857D02*
Y29017D01*
X14686D01*
Y28857D01*
X14526D01*
X14566Y28897D02*
Y28977D01*
X14646D01*
Y28897D01*
X14566D01*
X14802Y28857D02*
Y29017D01*
X14962D01*
Y28857D01*
X14802D01*
X14842Y28897D02*
Y28977D01*
X14922D01*
Y28897D01*
X14842D01*
X14881Y29290D02*
Y29450D01*
X15041D01*
Y29290D01*
X14881D01*
X14921Y29330D02*
Y29410D01*
X15001D01*
Y29330D01*
X14921D01*
X2322Y29290D02*
Y29450D01*
X2482D01*
Y29290D01*
X2322D01*
X2362Y29330D02*
Y29410D01*
X2442D01*
Y29330D01*
X2362D01*
X2243Y28857D02*
Y29017D01*
X2403D01*
Y28857D01*
X2243D01*
X2283Y28897D02*
Y28977D01*
X2363D01*
Y28897D01*
X2283D01*
X1967Y28857D02*
Y29017D01*
X2127D01*
Y28857D01*
X1967D01*
X2007Y28897D02*
Y28977D01*
X2087D01*
Y28897D01*
X2007D01*
X2597Y29290D02*
Y29450D01*
X2757D01*
Y29290D01*
X2597D01*
X2637Y29330D02*
Y29410D01*
X2717D01*
Y29330D01*
X2637D01*
X3739Y32991D02*
Y33151D01*
X3899D01*
Y32991D01*
X3739D01*
X3779Y33031D02*
Y33111D01*
X3859D01*
Y33031D01*
X3779D01*
X3463Y32991D02*
Y33151D01*
X3623D01*
Y32991D01*
X3463D01*
X3503Y33031D02*
Y33111D01*
X3583D01*
Y33031D01*
X3503D01*
X3188Y32991D02*
Y33151D01*
X3348D01*
Y32991D01*
X3188D01*
X3228Y33031D02*
Y33111D01*
X3308D01*
Y33031D01*
X3228D01*
X2085Y32991D02*
Y33151D01*
X2245D01*
Y32991D01*
X2085D01*
X2125Y33031D02*
Y33111D01*
X2205D01*
Y33031D01*
X2125D01*
X1810Y32991D02*
Y33151D01*
X1970D01*
Y32991D01*
X1810D01*
X1850Y33031D02*
Y33111D01*
X1930D01*
Y33031D01*
X1850D01*
X1534Y32991D02*
Y33151D01*
X1694D01*
Y32991D01*
X1534D01*
X1574Y33031D02*
Y33111D01*
X1654D01*
Y33031D01*
X1574D01*
X15274Y32991D02*
Y33151D01*
X15434D01*
Y32991D01*
X15274D01*
X15314Y33031D02*
Y33111D01*
X15394D01*
Y33031D01*
X15314D01*
X14329Y32991D02*
Y33151D01*
X14489D01*
Y32991D01*
X14329D01*
X14369Y33031D02*
Y33111D01*
X14449D01*
Y33031D01*
X14369D01*
X14054Y32991D02*
Y33151D01*
X14214D01*
Y32991D01*
X14054D01*
X14094Y33031D02*
Y33111D01*
X14174D01*
Y33031D01*
X14094D01*
D78*
X21734Y10630D02*
G03*
X21734Y10630I-80J0D01*
G01*
Y6693D02*
G03*
X21734Y6693I-80J0D01*
G01*
Y16535D02*
G03*
X21734Y16535I-80J0D01*
G01*
Y20472D02*
G03*
X21734Y20472I-80J0D01*
G01*
Y37402D02*
G03*
X21734Y37402I-80J0D01*
G01*
Y1969D02*
G03*
X21734Y1969I-80J0D01*
G01*
X2049D02*
G03*
X2049Y1969I-80J0D01*
G01*
D79*
X21694Y37402D02*
G03*
X21694Y37402I-40J0D01*
G01*
Y1969D02*
G03*
X21694Y1969I-40J0D01*
G01*
X2008D02*
G03*
X2008Y1969I-40J0D01*
G01*
M02*
